<svg xmlns="http://www.w3.org/2000/svg" width="720" height="260" viewBox="0 0 720 260" role="img" aria-label="Forest Crown">
  <defs>
    <linearGradient id="bg" x1="0" y1="0" x2="1" y2="1">
      <stop offset="0" stop-color="#031f10"/>
      <stop offset="0.58" stop-color="#08753a"/>
      <stop offset="1" stop-color="#031f10"/>
    </linearGradient>
    <radialGradient id="halo">
      <stop offset="0" stop-color="#59e77f" stop-opacity=".52"/>
      <stop offset="1" stop-color="#59e77f" stop-opacity="0"/>
    </radialGradient>
    <linearGradient id="gold" x1="0" y1="0" x2="1" y2="1">
      <stop offset="0" stop-color="#fff39a"/>
      <stop offset=".38" stop-color="#f5ce48"/>
      <stop offset="1" stop-color="#9c5c05"/>
    </linearGradient>
    <filter id="shadow" x="-50%" y="-50%" width="200%" height="200%">
      <feDropShadow dx="0" dy="8" stdDeviation="8" flood-color="#000" flood-opacity=".55"/>
    </filter>
  </defs>
  <rect width="720" height="260" rx="28" fill="url(#bg)"/>
  <ellipse cx="360" cy="112" rx="245" ry="130" fill="url(#halo)"/>
  <path d="M0 166 Q110 101 220 170 T445 157 T720 133 V260 H0 Z" fill="#031f10" opacity=".67"/>
  <path d="M0 202 Q120 154 240 205 T480 190 T720 195 V260 H0 Z" fill="#001b0d" opacity=".62"/>
  <path d="M596 214 L608 169 L620 214 Z" fill="#031f10" opacity="0.26"/><path d="M600 214 L611 146 L622 214 Z" fill="#59e77f" opacity="0.38"/><path d="M169 214 L177.5 163 L186 214 Z" fill="#031f10" opacity="0.40"/><path d="M367 214 L382 124 L397 214 Z" fill="#59e77f" opacity="0.20"/><path d="M571 214 L590 156 L609 214 Z" fill="#031f10" opacity="0.26"/><path d="M482 214 L499 119 L516 214 Z" fill="#59e77f" opacity="0.28"/><path d="M352 214 L367.5 175 L383 214 Z" fill="#031f10" opacity="0.30"/><path d="M556 214 L567 166 L578 214 Z" fill="#59e77f" opacity="0.29"/><path d="M379 214 L388 174 L397 214 Z" fill="#031f10" opacity="0.37"/><path d="M413 214 L430 117 L447 214 Z" fill="#59e77f" opacity="0.28"/><path d="M136 214 L155.5 157 L175 214 Z" fill="#031f10" opacity="0.34"/><path d="M471 214 L485 152 L499 214 Z" fill="#59e77f" opacity="0.20"/><path d="M381 214 L398.5 117 L416 214 Z" fill="#031f10" opacity="0.20"/><path d="M542 214 L560 178 L578 214 Z" fill="#59e77f" opacity="0.25"/><path d="M617 214 L636.5 147 L656 214 Z" fill="#031f10" opacity="0.25"/><path d="M664 214 L674.5 118 L685 214 Z" fill="#59e77f" opacity="0.25"/><path d="M36 214 L43.5 155 L51 214 Z" fill="#031f10" opacity="0.28"/><path d="M350 214 L361.5 162 L373 214 Z" fill="#59e77f" opacity="0.23"/>
  <circle cx="475" cy="207" r="1.1" fill="#f5ce48" opacity="0.41"/><circle cx="579" cy="198" r="2.4" fill="#f5ce48" opacity="0.67"/><circle cx="629" cy="201" r="1.6" fill="#f5ce48" opacity="0.82"/><circle cx="661" cy="128" r="1.9" fill="#f5ce48" opacity="0.30"/><circle cx="202" cy="181" r="2.0" fill="#f5ce48" opacity="0.87"/><circle cx="631" cy="42" r="2.6" fill="#f5ce48" opacity="0.78"/><circle cx="186" cy="93" r="1.5" fill="#f5ce48" opacity="0.46"/><circle cx="693" cy="113" r="2.8" fill="#f5ce48" opacity="0.59"/><circle cx="408" cy="62" r="1.7" fill="#f5ce48" opacity="0.32"/><circle cx="561" cy="194" r="1.8" fill="#f5ce48" opacity="0.27"/><circle cx="333" cy="84" r="2.0" fill="#f5ce48" opacity="0.77"/><circle cx="26" cy="175" r="2.9" fill="#f5ce48" opacity="0.40"/><circle cx="421" cy="197" r="1.3" fill="#f5ce48" opacity="0.49"/><circle cx="77" cy="71" r="2.7" fill="#f5ce48" opacity="0.84"/><circle cx="636" cy="198" r="1.4" fill="#f5ce48" opacity="0.51"/><circle cx="499" cy="25" r="2.6" fill="#f5ce48" opacity="0.76"/><circle cx="184" cy="29" r="1.2" fill="#f5ce48" opacity="0.53"/><circle cx="60" cy="39" r="2.8" fill="#f5ce48" opacity="0.58"/><circle cx="531" cy="84" r="1.8" fill="#f5ce48" opacity="0.41"/><circle cx="647" cy="190" r="3.0" fill="#f5ce48" opacity="0.75"/><circle cx="124" cy="103" r="1.8" fill="#f5ce48" opacity="0.39"/><circle cx="403" cy="194" r="1.6" fill="#f5ce48" opacity="0.55"/>
  <g transform="translate(288 42)" filter="url(#shadow)">
    <path d="M21 17 H123 V53 C123 91 102 111 72 116 C42 111 21 91 21 53 Z" fill="url(#gold)" stroke="#fff1a0" stroke-width="3"/>
    <path d="M21 29 H4 V49 C4 76 21 88 43 88" fill="none" stroke="#f5ce48" stroke-width="12" stroke-linecap="round"/>
    <path d="M123 29 H140 V49 C140 76 123 88 101 88" fill="none" stroke="#f5ce48" stroke-width="12" stroke-linecap="round"/>
    <path d="M64 114 H80 V139 H111 V154 H33 V139 H64 Z" fill="url(#gold)"/>
    <path d="M72 43 L81 61 L101 64 L86 78 L90 98 L72 88 L54 98 L58 78 L43 64 L63 61 Z" fill="#08753a" stroke="#f4ffb0" stroke-width="2"/>
  </g>
  <g opacity=".76">
    <path d="M45 232 C94 182 139 182 191 229 C143 218 98 219 45 232 Z" fill="#59e77f"/>
    <path d="M675 232 C626 182 581 182 529 229 C577 218 622 219 675 232 Z" fill="#59e77f"/>
  </g>
  <rect x="20" y="18" width="680" height="224" rx="24" fill="none" stroke="#59e77f" stroke-opacity=".35" stroke-width="2"/>
  <text x="676" y="224" text-anchor="end" fill="#fff" opacity=".45" font-family="Arial, sans-serif" font-size="18" font-weight="700">09</text>
</svg>