<svg xmlns="http://www.w3.org/2000/svg" width="720" height="260" viewBox="0 0 720 260" role="img" aria-label="Temple Masters">
  <defs>
    <linearGradient id="bg" x1="0" y1="0" x2="1" y2="1">
      <stop offset="0" stop-color="#201006"/>
      <stop offset="0.58" stop-color="#76521a"/>
      <stop offset="1" stop-color="#201006"/>
    </linearGradient>
    <radialGradient id="halo">
      <stop offset="0" stop-color="#d9a93d" stop-opacity=".52"/>
      <stop offset="1" stop-color="#d9a93d" stop-opacity="0"/>
    </radialGradient>
    <linearGradient id="gold" x1="0" y1="0" x2="1" y2="1">
      <stop offset="0" stop-color="#fff39a"/>
      <stop offset=".38" stop-color="#fff08d"/>
      <stop offset="1" stop-color="#9c5c05"/>
    </linearGradient>
    <filter id="shadow" x="-50%" y="-50%" width="200%" height="200%">
      <feDropShadow dx="0" dy="8" stdDeviation="8" flood-color="#000" flood-opacity=".55"/>
    </filter>
  </defs>
  <rect width="720" height="260" rx="28" fill="url(#bg)"/>
  <ellipse cx="360" cy="112" rx="245" ry="130" fill="url(#halo)"/>
  <path d="M0 150 Q110 85 220 154 T445 141 T720 117 V260 H0 Z" fill="#201006" opacity=".67"/>
  <path d="M0 202 Q120 154 240 205 T480 190 T720 195 V260 H0 Z" fill="#001b0d" opacity=".62"/>
  <path d="M174 214 L189 119 L204 214 Z" fill="#201006" opacity="0.21"/><path d="M224 214 L238.5 165 L253 214 Z" fill="#d9a93d" opacity="0.40"/><path d="M234 214 L246.5 120 L259 214 Z" fill="#201006" opacity="0.19"/><path d="M68 214 L79.5 149 L91 214 Z" fill="#d9a93d" opacity="0.21"/><path d="M548 214 L566 140 L584 214 Z" fill="#201006" opacity="0.38"/><path d="M703 214 L713 173 L723 214 Z" fill="#d9a93d" opacity="0.33"/><path d="M378 214 L386.5 160 L395 214 Z" fill="#201006" opacity="0.25"/><path d="M93 214 L109 168 L125 214 Z" fill="#d9a93d" opacity="0.16"/><path d="M254 214 L273.5 164 L293 214 Z" fill="#201006" opacity="0.25"/><path d="M598 214 L612.5 147 L627 214 Z" fill="#d9a93d" opacity="0.19"/><path d="M188 214 L196 171 L204 214 Z" fill="#201006" opacity="0.29"/><path d="M635 214 L643.5 177 L652 214 Z" fill="#d9a93d" opacity="0.17"/><path d="M261 214 L277.5 181 L294 214 Z" fill="#201006" opacity="0.39"/><path d="M241 214 L251 127 L261 214 Z" fill="#d9a93d" opacity="0.30"/><path d="M1 214 L18.5 123 L36 214 Z" fill="#201006" opacity="0.18"/><path d="M384 214 L397 133 L410 214 Z" fill="#d9a93d" opacity="0.22"/><path d="M147 214 L158 155 L169 214 Z" fill="#201006" opacity="0.29"/><path d="M337 214 L352.5 129 L368 214 Z" fill="#d9a93d" opacity="0.23"/>
  <circle cx="317" cy="55" r="2.3" fill="#fff08d" opacity="0.40"/><circle cx="321" cy="102" r="2.1" fill="#fff08d" opacity="0.54"/><circle cx="479" cy="81" r="0.9" fill="#fff08d" opacity="0.33"/><circle cx="52" cy="106" r="1.3" fill="#fff08d" opacity="0.37"/><circle cx="559" cy="121" r="1.8" fill="#fff08d" opacity="0.65"/><circle cx="330" cy="126" r="2.9" fill="#fff08d" opacity="0.76"/><circle cx="196" cy="68" r="1.6" fill="#fff08d" opacity="0.49"/><circle cx="39" cy="88" r="2.3" fill="#fff08d" opacity="0.51"/><circle cx="119" cy="157" r="1.9" fill="#fff08d" opacity="0.79"/><circle cx="172" cy="68" r="1.9" fill="#fff08d" opacity="0.54"/><circle cx="327" cy="58" r="1.6" fill="#fff08d" opacity="0.35"/><circle cx="585" cy="92" r="1.7" fill="#fff08d" opacity="0.74"/><circle cx="519" cy="58" r="1.6" fill="#fff08d" opacity="0.85"/><circle cx="365" cy="149" r="2.1" fill="#fff08d" opacity="0.31"/><circle cx="61" cy="174" r="3.0" fill="#fff08d" opacity="0.35"/><circle cx="455" cy="201" r="2.7" fill="#fff08d" opacity="0.50"/><circle cx="200" cy="33" r="2.2" fill="#fff08d" opacity="0.29"/><circle cx="359" cy="29" r="2.1" fill="#fff08d" opacity="0.55"/><circle cx="376" cy="97" r="1.8" fill="#fff08d" opacity="0.49"/><circle cx="514" cy="35" r="2.1" fill="#fff08d" opacity="0.45"/><circle cx="181" cy="48" r="2.5" fill="#fff08d" opacity="0.27"/><circle cx="106" cy="150" r="2.7" fill="#fff08d" opacity="0.88"/>
  <g transform="translate(288 42)" filter="url(#shadow)">
    <path d="M21 17 H123 V53 C123 91 102 111 72 116 C42 111 21 91 21 53 Z" fill="url(#gold)" stroke="#fff1a0" stroke-width="3"/>
    <path d="M21 29 H4 V49 C4 76 21 88 43 88" fill="none" stroke="#fff08d" stroke-width="12" stroke-linecap="round"/>
    <path d="M123 29 H140 V49 C140 76 123 88 101 88" fill="none" stroke="#fff08d" stroke-width="12" stroke-linecap="round"/>
    <path d="M64 114 H80 V139 H111 V154 H33 V139 H64 Z" fill="url(#gold)"/>
    <path d="M72 43 L81 61 L101 64 L86 78 L90 98 L72 88 L54 98 L58 78 L43 64 L63 61 Z" fill="#76521a" stroke="#f4ffb0" stroke-width="2"/>
  </g>
  <g opacity=".76">
    <path d="M45 232 C94 182 139 182 191 229 C143 218 98 219 45 232 Z" fill="#d9a93d"/>
    <path d="M675 232 C626 182 581 182 529 229 C577 218 622 219 675 232 Z" fill="#d9a93d"/>
  </g>
  <rect x="20" y="18" width="680" height="224" rx="24" fill="none" stroke="#d9a93d" stroke-opacity=".35" stroke-width="2"/>
  <text x="676" y="224" text-anchor="end" fill="#fff" opacity=".45" font-family="Arial, sans-serif" font-size="18" font-weight="700">09</text>
</svg>