<svg xmlns="http://www.w3.org/2000/svg" width="720" height="260" viewBox="0 0 720 260" role="img" aria-label="Crystal League">
  <defs>
    <linearGradient id="bg" x1="0" y1="0" x2="1" y2="1">
      <stop offset="0" stop-color="#07152f"/>
      <stop offset="0.58" stop-color="#173c90"/>
      <stop offset="1" stop-color="#07152f"/>
    </linearGradient>
    <radialGradient id="halo">
      <stop offset="0" stop-color="#4ec9ff" stop-opacity=".52"/>
      <stop offset="1" stop-color="#4ec9ff" stop-opacity="0"/>
    </radialGradient>
    <linearGradient id="gold" x1="0" y1="0" x2="1" y2="1">
      <stop offset="0" stop-color="#fff39a"/>
      <stop offset=".38" stop-color="#bdf1ff"/>
      <stop offset="1" stop-color="#9c5c05"/>
    </linearGradient>
    <filter id="shadow" x="-50%" y="-50%" width="200%" height="200%">
      <feDropShadow dx="0" dy="8" stdDeviation="8" flood-color="#000" flood-opacity=".55"/>
    </filter>
  </defs>
  <rect width="720" height="260" rx="28" fill="url(#bg)"/>
  <ellipse cx="360" cy="112" rx="245" ry="130" fill="url(#halo)"/>
  <path d="M0 162 Q110 97 220 166 T445 153 T720 129 V260 H0 Z" fill="#07152f" opacity=".67"/>
  <path d="M0 202 Q120 154 240 205 T480 190 T720 195 V260 H0 Z" fill="#001b0d" opacity=".62"/>
  <path d="M124 214 L136.5 139 L149 214 Z" fill="#07152f" opacity="0.18"/><path d="M407 214 L416.5 174 L426 214 Z" fill="#4ec9ff" opacity="0.40"/><path d="M583 214 L595 115 L607 214 Z" fill="#07152f" opacity="0.19"/><path d="M238 214 L248 181 L258 214 Z" fill="#4ec9ff" opacity="0.21"/><path d="M672 214 L684 167 L696 214 Z" fill="#07152f" opacity="0.28"/><path d="M186 214 L201 176 L216 214 Z" fill="#4ec9ff" opacity="0.36"/><path d="M613 214 L620.5 138 L628 214 Z" fill="#07152f" opacity="0.38"/><path d="M650 214 L663 131 L676 214 Z" fill="#4ec9ff" opacity="0.31"/><path d="M635 214 L644.5 166 L654 214 Z" fill="#07152f" opacity="0.18"/><path d="M447 214 L464 178 L481 214 Z" fill="#4ec9ff" opacity="0.37"/><path d="M419 214 L435 169 L451 214 Z" fill="#07152f" opacity="0.17"/><path d="M247 214 L258.5 173 L270 214 Z" fill="#4ec9ff" opacity="0.30"/><path d="M401 214 L417.5 183 L434 214 Z" fill="#07152f" opacity="0.40"/><path d="M651 214 L664.5 183 L678 214 Z" fill="#4ec9ff" opacity="0.33"/><path d="M584 214 L597.5 163 L611 214 Z" fill="#07152f" opacity="0.19"/><path d="M671 214 L690 155 L709 214 Z" fill="#4ec9ff" opacity="0.19"/><path d="M489 214 L503.5 131 L518 214 Z" fill="#07152f" opacity="0.29"/><path d="M220 214 L235 135 L250 214 Z" fill="#4ec9ff" opacity="0.27"/>
  <circle cx="230" cy="112" r="1.0" fill="#bdf1ff" opacity="0.51"/><circle cx="137" cy="23" r="2.5" fill="#bdf1ff" opacity="0.67"/><circle cx="504" cy="164" r="2.5" fill="#bdf1ff" opacity="0.52"/><circle cx="380" cy="205" r="2.8" fill="#bdf1ff" opacity="0.57"/><circle cx="273" cy="163" r="2.2" fill="#bdf1ff" opacity="0.80"/><circle cx="267" cy="80" r="2.8" fill="#bdf1ff" opacity="0.77"/><circle cx="308" cy="198" r="0.8" fill="#bdf1ff" opacity="0.49"/><circle cx="262" cy="61" r="1.3" fill="#bdf1ff" opacity="0.52"/><circle cx="281" cy="141" r="1.2" fill="#bdf1ff" opacity="0.82"/><circle cx="124" cy="152" r="0.8" fill="#bdf1ff" opacity="0.39"/><circle cx="328" cy="189" r="2.4" fill="#bdf1ff" opacity="0.86"/><circle cx="151" cy="106" r="1.9" fill="#bdf1ff" opacity="0.68"/><circle cx="276" cy="145" r="1.6" fill="#bdf1ff" opacity="0.36"/><circle cx="91" cy="199" r="1.5" fill="#bdf1ff" opacity="0.50"/><circle cx="610" cy="83" r="1.2" fill="#bdf1ff" opacity="0.48"/><circle cx="462" cy="171" r="2.7" fill="#bdf1ff" opacity="0.54"/><circle cx="424" cy="127" r="2.4" fill="#bdf1ff" opacity="0.55"/><circle cx="196" cy="126" r="2.6" fill="#bdf1ff" opacity="0.55"/><circle cx="515" cy="95" r="1.8" fill="#bdf1ff" opacity="0.47"/><circle cx="83" cy="156" r="2.2" fill="#bdf1ff" opacity="0.61"/><circle cx="58" cy="152" r="2.3" fill="#bdf1ff" opacity="0.51"/><circle cx="495" cy="31" r="1.4" fill="#bdf1ff" opacity="0.29"/>
  <g transform="translate(288 42)" filter="url(#shadow)">
    <path d="M21 17 H123 V53 C123 91 102 111 72 116 C42 111 21 91 21 53 Z" fill="url(#gold)" stroke="#fff1a0" stroke-width="3"/>
    <path d="M21 29 H4 V49 C4 76 21 88 43 88" fill="none" stroke="#bdf1ff" stroke-width="12" stroke-linecap="round"/>
    <path d="M123 29 H140 V49 C140 76 123 88 101 88" fill="none" stroke="#bdf1ff" stroke-width="12" stroke-linecap="round"/>
    <path d="M64 114 H80 V139 H111 V154 H33 V139 H64 Z" fill="url(#gold)"/>
    <path d="M72 43 L81 61 L101 64 L86 78 L90 98 L72 88 L54 98 L58 78 L43 64 L63 61 Z" fill="#173c90" stroke="#f4ffb0" stroke-width="2"/>
  </g>
  <g opacity=".76">
    <path d="M45 232 C94 182 139 182 191 229 C143 218 98 219 45 232 Z" fill="#4ec9ff"/>
    <path d="M675 232 C626 182 581 182 529 229 C577 218 622 219 675 232 Z" fill="#4ec9ff"/>
  </g>
  <rect x="20" y="18" width="680" height="224" rx="24" fill="none" stroke="#4ec9ff" stroke-opacity=".35" stroke-width="2"/>
  <text x="676" y="224" text-anchor="end" fill="#fff" opacity=".45" font-family="Arial, sans-serif" font-size="18" font-weight="700">09</text>
</svg>