<svg xmlns="http://www.w3.org/2000/svg" width="720" height="260" viewBox="0 0 720 260" role="img" aria-label="Desert Arena">
  <defs>
    <linearGradient id="bg" x1="0" y1="0" x2="1" y2="1">
      <stop offset="0" stop-color="#381508"/>
      <stop offset="0.58" stop-color="#a44214"/>
      <stop offset="1" stop-color="#381508"/>
    </linearGradient>
    <radialGradient id="halo">
      <stop offset="0" stop-color="#ffad35" stop-opacity=".52"/>
      <stop offset="1" stop-color="#ffad35" stop-opacity="0"/>
    </radialGradient>
    <linearGradient id="gold" x1="0" y1="0" x2="1" y2="1">
      <stop offset="0" stop-color="#fff39a"/>
      <stop offset=".38" stop-color="#ffd35a"/>
      <stop offset="1" stop-color="#9c5c05"/>
    </linearGradient>
    <filter id="shadow" x="-50%" y="-50%" width="200%" height="200%">
      <feDropShadow dx="0" dy="8" stdDeviation="8" flood-color="#000" flood-opacity=".55"/>
    </filter>
  </defs>
  <rect width="720" height="260" rx="28" fill="url(#bg)"/>
  <ellipse cx="360" cy="112" rx="245" ry="130" fill="url(#halo)"/>
  <path d="M0 144 Q110 79 220 148 T445 135 T720 111 V260 H0 Z" fill="#381508" opacity=".67"/>
  <path d="M0 202 Q120 154 240 205 T480 190 T720 195 V260 H0 Z" fill="#001b0d" opacity=".62"/>
  <path d="M147 214 L162 151 L177 214 Z" fill="#381508" opacity="0.25"/><path d="M342 214 L359 120 L376 214 Z" fill="#ffad35" opacity="0.23"/><path d="M474 214 L482 129 L490 214 Z" fill="#381508" opacity="0.39"/><path d="M340 214 L348.5 114 L357 214 Z" fill="#ffad35" opacity="0.38"/><path d="M231 214 L243 164 L255 214 Z" fill="#381508" opacity="0.30"/><path d="M282 214 L289.5 160 L297 214 Z" fill="#ffad35" opacity="0.29"/><path d="M671 214 L678 152 L685 214 Z" fill="#381508" opacity="0.35"/><path d="M128 214 L140 153 L152 214 Z" fill="#ffad35" opacity="0.36"/><path d="M451 214 L465.5 161 L480 214 Z" fill="#381508" opacity="0.25"/><path d="M443 214 L455 139 L467 214 Z" fill="#ffad35" opacity="0.21"/><path d="M291 214 L306.5 137 L322 214 Z" fill="#381508" opacity="0.39"/><path d="M153 214 L169 137 L185 214 Z" fill="#ffad35" opacity="0.41"/><path d="M666 214 L678.5 165 L691 214 Z" fill="#381508" opacity="0.30"/><path d="M290 214 L300.5 167 L311 214 Z" fill="#ffad35" opacity="0.32"/><path d="M443 214 L453.5 156 L464 214 Z" fill="#381508" opacity="0.24"/><path d="M34 214 L41.5 139 L49 214 Z" fill="#ffad35" opacity="0.35"/><path d="M53 214 L72 184 L91 214 Z" fill="#381508" opacity="0.20"/><path d="M190 214 L199.5 155 L209 214 Z" fill="#ffad35" opacity="0.32"/>
  <circle cx="573" cy="94" r="2.5" fill="#ffd35a" opacity="0.68"/><circle cx="402" cy="48" r="2.6" fill="#ffd35a" opacity="0.43"/><circle cx="219" cy="138" r="2.1" fill="#ffd35a" opacity="0.85"/><circle cx="211" cy="75" r="2.0" fill="#ffd35a" opacity="0.28"/><circle cx="204" cy="52" r="1.9" fill="#ffd35a" opacity="0.49"/><circle cx="266" cy="205" r="2.7" fill="#ffd35a" opacity="0.86"/><circle cx="345" cy="124" r="1.5" fill="#ffd35a" opacity="0.87"/><circle cx="299" cy="207" r="1.7" fill="#ffd35a" opacity="0.42"/><circle cx="420" cy="29" r="1.0" fill="#ffd35a" opacity="0.85"/><circle cx="79" cy="170" r="3.0" fill="#ffd35a" opacity="0.29"/><circle cx="371" cy="120" r="1.1" fill="#ffd35a" opacity="0.41"/><circle cx="566" cy="126" r="1.6" fill="#ffd35a" opacity="0.84"/><circle cx="31" cy="65" r="1.3" fill="#ffd35a" opacity="0.56"/><circle cx="515" cy="82" r="3.0" fill="#ffd35a" opacity="0.53"/><circle cx="426" cy="163" r="1.3" fill="#ffd35a" opacity="0.43"/><circle cx="99" cy="50" r="1.6" fill="#ffd35a" opacity="0.45"/><circle cx="535" cy="194" r="2.2" fill="#ffd35a" opacity="0.55"/><circle cx="656" cy="99" r="1.7" fill="#ffd35a" opacity="0.79"/><circle cx="374" cy="190" r="1.6" fill="#ffd35a" opacity="0.61"/><circle cx="579" cy="32" r="1.8" fill="#ffd35a" opacity="0.29"/><circle cx="217" cy="71" r="2.2" fill="#ffd35a" opacity="0.29"/><circle cx="247" cy="28" r="1.4" fill="#ffd35a" opacity="0.63"/>
  <g transform="translate(288 42)" filter="url(#shadow)">
    <path d="M21 17 H123 V53 C123 91 102 111 72 116 C42 111 21 91 21 53 Z" fill="url(#gold)" stroke="#fff1a0" stroke-width="3"/>
    <path d="M21 29 H4 V49 C4 76 21 88 43 88" fill="none" stroke="#ffd35a" stroke-width="12" stroke-linecap="round"/>
    <path d="M123 29 H140 V49 C140 76 123 88 101 88" fill="none" stroke="#ffd35a" stroke-width="12" stroke-linecap="round"/>
    <path d="M64 114 H80 V139 H111 V154 H33 V139 H64 Z" fill="url(#gold)"/>
    <path d="M72 43 L81 61 L101 64 L86 78 L90 98 L72 88 L54 98 L58 78 L43 64 L63 61 Z" fill="#a44214" stroke="#f4ffb0" stroke-width="2"/>
  </g>
  <g opacity=".76">
    <path d="M45 232 C94 182 139 182 191 229 C143 218 98 219 45 232 Z" fill="#ffad35"/>
    <path d="M675 232 C626 182 581 182 529 229 C577 218 622 219 675 232 Z" fill="#ffad35"/>
  </g>
  <rect x="20" y="18" width="680" height="224" rx="24" fill="none" stroke="#ffad35" stroke-opacity=".35" stroke-width="2"/>
  <text x="676" y="224" text-anchor="end" fill="#fff" opacity=".45" font-family="Arial, sans-serif" font-size="18" font-weight="700">05</text>
</svg>