<svg xmlns="http://www.w3.org/2000/svg" width="720" height="260" viewBox="0 0 720 260" role="img" aria-label="Moonlight Royale">
  <defs>
    <linearGradient id="bg" x1="0" y1="0" x2="1" y2="1">
      <stop offset="0" stop-color="#0c1230"/>
      <stop offset="0.58" stop-color="#303477"/>
      <stop offset="1" stop-color="#0c1230"/>
    </linearGradient>
    <radialGradient id="halo">
      <stop offset="0" stop-color="#9c7cff" stop-opacity=".52"/>
      <stop offset="1" stop-color="#9c7cff" stop-opacity="0"/>
    </radialGradient>
    <linearGradient id="gold" x1="0" y1="0" x2="1" y2="1">
      <stop offset="0" stop-color="#fff39a"/>
      <stop offset=".38" stop-color="#f1e7ff"/>
      <stop offset="1" stop-color="#9c5c05"/>
    </linearGradient>
    <filter id="shadow" x="-50%" y="-50%" width="200%" height="200%">
      <feDropShadow dx="0" dy="8" stdDeviation="8" flood-color="#000" flood-opacity=".55"/>
    </filter>
  </defs>
  <rect width="720" height="260" rx="28" fill="url(#bg)"/>
  <ellipse cx="360" cy="112" rx="245" ry="130" fill="url(#halo)"/>
  <path d="M0 159 Q110 94 220 163 T445 150 T720 126 V260 H0 Z" fill="#0c1230" opacity=".67"/>
  <path d="M0 202 Q120 154 240 205 T480 190 T720 195 V260 H0 Z" fill="#001b0d" opacity=".62"/>
  <path d="M1 214 L19 182 L37 214 Z" fill="#0c1230" opacity="0.33"/><path d="M375 214 L392 140 L409 214 Z" fill="#9c7cff" opacity="0.19"/><path d="M714 214 L721.5 171 L729 214 Z" fill="#0c1230" opacity="0.27"/><path d="M360 214 L375.5 157 L391 214 Z" fill="#9c7cff" opacity="0.24"/><path d="M628 214 L638 134 L648 214 Z" fill="#0c1230" opacity="0.28"/><path d="M628 214 L641.5 140 L655 214 Z" fill="#9c7cff" opacity="0.21"/><path d="M664 214 L682 180 L700 214 Z" fill="#0c1230" opacity="0.29"/><path d="M444 214 L454.5 136 L465 214 Z" fill="#9c7cff" opacity="0.30"/><path d="M385 214 L402.5 147 L420 214 Z" fill="#0c1230" opacity="0.18"/><path d="M96 214 L108 167 L120 214 Z" fill="#9c7cff" opacity="0.18"/><path d="M522 214 L540.5 126 L559 214 Z" fill="#0c1230" opacity="0.33"/><path d="M575 214 L588 151 L601 214 Z" fill="#9c7cff" opacity="0.23"/><path d="M159 214 L173 167 L187 214 Z" fill="#0c1230" opacity="0.29"/><path d="M48 214 L58 152 L68 214 Z" fill="#9c7cff" opacity="0.16"/><path d="M70 214 L80 115 L90 214 Z" fill="#0c1230" opacity="0.29"/><path d="M112 214 L123 114 L134 214 Z" fill="#9c7cff" opacity="0.38"/><path d="M710 214 L719 130 L728 214 Z" fill="#0c1230" opacity="0.32"/><path d="M194 214 L205 141 L216 214 Z" fill="#9c7cff" opacity="0.26"/>
  <circle cx="592" cy="188" r="1.1" fill="#f1e7ff" opacity="0.49"/><circle cx="301" cy="20" r="2.0" fill="#f1e7ff" opacity="0.40"/><circle cx="203" cy="114" r="1.2" fill="#f1e7ff" opacity="0.85"/><circle cx="522" cy="161" r="1.6" fill="#f1e7ff" opacity="0.71"/><circle cx="308" cy="43" r="1.8" fill="#f1e7ff" opacity="0.37"/><circle cx="346" cy="59" r="1.3" fill="#f1e7ff" opacity="0.74"/><circle cx="329" cy="149" r="1.1" fill="#f1e7ff" opacity="0.56"/><circle cx="315" cy="201" r="2.5" fill="#f1e7ff" opacity="0.37"/><circle cx="384" cy="142" r="1.6" fill="#f1e7ff" opacity="0.45"/><circle cx="25" cy="90" r="1.1" fill="#f1e7ff" opacity="0.28"/><circle cx="316" cy="138" r="1.8" fill="#f1e7ff" opacity="0.66"/><circle cx="589" cy="132" r="1.7" fill="#f1e7ff" opacity="0.71"/><circle cx="471" cy="56" r="2.3" fill="#f1e7ff" opacity="0.43"/><circle cx="668" cy="165" r="2.4" fill="#f1e7ff" opacity="0.74"/><circle cx="139" cy="34" r="2.3" fill="#f1e7ff" opacity="0.81"/><circle cx="374" cy="143" r="3.0" fill="#f1e7ff" opacity="0.68"/><circle cx="457" cy="135" r="2.2" fill="#f1e7ff" opacity="0.72"/><circle cx="115" cy="107" r="1.1" fill="#f1e7ff" opacity="0.49"/><circle cx="207" cy="122" r="1.9" fill="#f1e7ff" opacity="0.62"/><circle cx="498" cy="36" r="2.7" fill="#f1e7ff" opacity="0.65"/><circle cx="172" cy="42" r="1.4" fill="#f1e7ff" opacity="0.27"/><circle cx="580" cy="134" r="1.3" fill="#f1e7ff" opacity="0.30"/>
  <g transform="translate(288 42)" filter="url(#shadow)">
    <path d="M21 17 H123 V53 C123 91 102 111 72 116 C42 111 21 91 21 53 Z" fill="url(#gold)" stroke="#fff1a0" stroke-width="3"/>
    <path d="M21 29 H4 V49 C4 76 21 88 43 88" fill="none" stroke="#f1e7ff" stroke-width="12" stroke-linecap="round"/>
    <path d="M123 29 H140 V49 C140 76 123 88 101 88" fill="none" stroke="#f1e7ff" stroke-width="12" stroke-linecap="round"/>
    <path d="M64 114 H80 V139 H111 V154 H33 V139 H64 Z" fill="url(#gold)"/>
    <path d="M72 43 L81 61 L101 64 L86 78 L90 98 L72 88 L54 98 L58 78 L43 64 L63 61 Z" fill="#303477" stroke="#f4ffb0" stroke-width="2"/>
  </g>
  <g opacity=".76">
    <path d="M45 232 C94 182 139 182 191 229 C143 218 98 219 45 232 Z" fill="#9c7cff"/>
    <path d="M675 232 C626 182 581 182 529 229 C577 218 622 219 675 232 Z" fill="#9c7cff"/>
  </g>
  <rect x="20" y="18" width="680" height="224" rx="24" fill="none" stroke="#9c7cff" stroke-opacity=".35" stroke-width="2"/>
  <text x="676" y="224" text-anchor="end" fill="#fff" opacity=".45" font-family="Arial, sans-serif" font-size="18" font-weight="700">10</text>
</svg>