<svg xmlns="http://www.w3.org/2000/svg" width="720" height="260" viewBox="0 0 720 260" role="img" aria-label="Golden Champions">
  <defs>
    <linearGradient id="bg" x1="0" y1="0" x2="1" y2="1">
      <stop offset="0" stop-color="#2c1b03"/>
      <stop offset="0.58" stop-color="#8d5d07"/>
      <stop offset="1" stop-color="#2c1b03"/>
    </linearGradient>
    <radialGradient id="halo">
      <stop offset="0" stop-color="#f3b91d" stop-opacity=".52"/>
      <stop offset="1" stop-color="#f3b91d" stop-opacity="0"/>
    </radialGradient>
    <linearGradient id="gold" x1="0" y1="0" x2="1" y2="1">
      <stop offset="0" stop-color="#fff39a"/>
      <stop offset=".38" stop-color="#fff2a0"/>
      <stop offset="1" stop-color="#9c5c05"/>
    </linearGradient>
    <filter id="shadow" x="-50%" y="-50%" width="200%" height="200%">
      <feDropShadow dx="0" dy="8" stdDeviation="8" flood-color="#000" flood-opacity=".55"/>
    </filter>
  </defs>
  <rect width="720" height="260" rx="28" fill="url(#bg)"/>
  <ellipse cx="360" cy="112" rx="245" ry="130" fill="url(#halo)"/>
  <path d="M0 158 Q110 93 220 162 T445 149 T720 125 V260 H0 Z" fill="#2c1b03" opacity=".67"/>
  <path d="M0 202 Q120 154 240 205 T480 190 T720 195 V260 H0 Z" fill="#001b0d" opacity=".62"/>
  <path d="M49 214 L58 177 L67 214 Z" fill="#2c1b03" opacity="0.40"/><path d="M450 214 L458.5 171 L467 214 Z" fill="#f3b91d" opacity="0.34"/><path d="M409 214 L422.5 184 L436 214 Z" fill="#2c1b03" opacity="0.33"/><path d="M75 214 L86 116 L97 214 Z" fill="#f3b91d" opacity="0.18"/><path d="M491 214 L505 162 L519 214 Z" fill="#2c1b03" opacity="0.36"/><path d="M557 214 L570 152 L583 214 Z" fill="#f3b91d" opacity="0.39"/><path d="M66 214 L84.5 155 L103 214 Z" fill="#2c1b03" opacity="0.26"/><path d="M205 214 L221 126 L237 214 Z" fill="#f3b91d" opacity="0.40"/><path d="M248 214 L259 119 L270 214 Z" fill="#2c1b03" opacity="0.19"/><path d="M194 214 L213.5 169 L233 214 Z" fill="#f3b91d" opacity="0.29"/><path d="M522 214 L530.5 130 L539 214 Z" fill="#2c1b03" opacity="0.30"/><path d="M530 214 L539.5 178 L549 214 Z" fill="#f3b91d" opacity="0.39"/><path d="M483 214 L490.5 131 L498 214 Z" fill="#2c1b03" opacity="0.30"/><path d="M14 214 L32 152 L50 214 Z" fill="#f3b91d" opacity="0.39"/><path d="M548 214 L562.5 155 L577 214 Z" fill="#2c1b03" opacity="0.39"/><path d="M216 214 L228.5 137 L241 214 Z" fill="#f3b91d" opacity="0.35"/><path d="M193 214 L202.5 181 L212 214 Z" fill="#2c1b03" opacity="0.26"/><path d="M493 214 L509 151 L525 214 Z" fill="#f3b91d" opacity="0.19"/>
  <circle cx="199" cy="75" r="2.3" fill="#fff2a0" opacity="0.31"/><circle cx="599" cy="90" r="2.5" fill="#fff2a0" opacity="0.81"/><circle cx="224" cy="168" r="1.4" fill="#fff2a0" opacity="0.30"/><circle cx="191" cy="73" r="1.5" fill="#fff2a0" opacity="0.60"/><circle cx="453" cy="69" r="2.0" fill="#fff2a0" opacity="0.50"/><circle cx="614" cy="109" r="2.0" fill="#fff2a0" opacity="0.80"/><circle cx="53" cy="202" r="2.0" fill="#fff2a0" opacity="0.39"/><circle cx="418" cy="190" r="2.7" fill="#fff2a0" opacity="0.73"/><circle cx="143" cy="77" r="2.0" fill="#fff2a0" opacity="0.66"/><circle cx="28" cy="172" r="2.6" fill="#fff2a0" opacity="0.53"/><circle cx="344" cy="194" r="1.8" fill="#fff2a0" opacity="0.46"/><circle cx="21" cy="136" r="2.9" fill="#fff2a0" opacity="0.42"/><circle cx="469" cy="199" r="2.9" fill="#fff2a0" opacity="0.25"/><circle cx="454" cy="54" r="2.4" fill="#fff2a0" opacity="0.41"/><circle cx="557" cy="148" r="2.0" fill="#fff2a0" opacity="0.69"/><circle cx="580" cy="82" r="2.3" fill="#fff2a0" opacity="0.58"/><circle cx="608" cy="117" r="1.2" fill="#fff2a0" opacity="0.76"/><circle cx="304" cy="151" r="1.6" fill="#fff2a0" opacity="0.64"/><circle cx="700" cy="60" r="1.7" fill="#fff2a0" opacity="0.28"/><circle cx="663" cy="189" r="2.3" fill="#fff2a0" opacity="0.55"/><circle cx="133" cy="108" r="2.8" fill="#fff2a0" opacity="0.40"/><circle cx="609" cy="21" r="2.9" fill="#fff2a0" opacity="0.49"/>
  <g transform="translate(288 42)" filter="url(#shadow)">
    <path d="M21 17 H123 V53 C123 91 102 111 72 116 C42 111 21 91 21 53 Z" fill="url(#gold)" stroke="#fff1a0" stroke-width="3"/>
    <path d="M21 29 H4 V49 C4 76 21 88 43 88" fill="none" stroke="#fff2a0" stroke-width="12" stroke-linecap="round"/>
    <path d="M123 29 H140 V49 C140 76 123 88 101 88" fill="none" stroke="#fff2a0" stroke-width="12" stroke-linecap="round"/>
    <path d="M64 114 H80 V139 H111 V154 H33 V139 H64 Z" fill="url(#gold)"/>
    <path d="M72 43 L81 61 L101 64 L86 78 L90 98 L72 88 L54 98 L58 78 L43 64 L63 61 Z" fill="#8d5d07" stroke="#f4ffb0" stroke-width="2"/>
  </g>
  <g opacity=".76">
    <path d="M45 232 C94 182 139 182 191 229 C143 218 98 219 45 232 Z" fill="#f3b91d"/>
    <path d="M675 232 C626 182 581 182 529 229 C577 218 622 219 675 232 Z" fill="#f3b91d"/>
  </g>
  <rect x="20" y="18" width="680" height="224" rx="24" fill="none" stroke="#f3b91d" stroke-opacity=".35" stroke-width="2"/>
  <text x="676" y="224" text-anchor="end" fill="#fff" opacity=".45" font-family="Arial, sans-serif" font-size="18" font-weight="700">07</text>
</svg>