<svg xmlns="http://www.w3.org/2000/svg" width="720" height="260" viewBox="0 0 720 260" role="img" aria-label="Golden Champions">
  <defs>
    <linearGradient id="bg" x1="0" y1="0" x2="1" y2="1">
      <stop offset="0" stop-color="#2c1b03"/>
      <stop offset="0.58" stop-color="#8d5d07"/>
      <stop offset="1" stop-color="#2c1b03"/>
    </linearGradient>
    <radialGradient id="halo">
      <stop offset="0" stop-color="#f3b91d" stop-opacity=".52"/>
      <stop offset="1" stop-color="#f3b91d" stop-opacity="0"/>
    </radialGradient>
    <linearGradient id="gold" x1="0" y1="0" x2="1" y2="1">
      <stop offset="0" stop-color="#fff39a"/>
      <stop offset=".38" stop-color="#fff2a0"/>
      <stop offset="1" stop-color="#9c5c05"/>
    </linearGradient>
    <filter id="shadow" x="-50%" y="-50%" width="200%" height="200%">
      <feDropShadow dx="0" dy="8" stdDeviation="8" flood-color="#000" flood-opacity=".55"/>
    </filter>
  </defs>
  <rect width="720" height="260" rx="28" fill="url(#bg)"/>
  <ellipse cx="360" cy="112" rx="245" ry="130" fill="url(#halo)"/>
  <path d="M0 152 Q110 87 220 156 T445 143 T720 119 V260 H0 Z" fill="#2c1b03" opacity=".67"/>
  <path d="M0 202 Q120 154 240 205 T480 190 T720 195 V260 H0 Z" fill="#001b0d" opacity=".62"/>
  <path d="M718 214 L725 141 L732 214 Z" fill="#2c1b03" opacity="0.40"/><path d="M170 214 L185 147 L200 214 Z" fill="#f3b91d" opacity="0.22"/><path d="M82 214 L100.5 114 L119 214 Z" fill="#2c1b03" opacity="0.37"/><path d="M129 214 L145.5 138 L162 214 Z" fill="#f3b91d" opacity="0.37"/><path d="M602 214 L620.5 172 L639 214 Z" fill="#2c1b03" opacity="0.24"/><path d="M171 214 L182 169 L193 214 Z" fill="#f3b91d" opacity="0.39"/><path d="M658 214 L675 159 L692 214 Z" fill="#2c1b03" opacity="0.25"/><path d="M360 214 L376 116 L392 214 Z" fill="#f3b91d" opacity="0.30"/><path d="M153 214 L162 166 L171 214 Z" fill="#2c1b03" opacity="0.31"/><path d="M711 214 L730.5 160 L750 214 Z" fill="#f3b91d" opacity="0.26"/><path d="M265 214 L279.5 130 L294 214 Z" fill="#2c1b03" opacity="0.29"/><path d="M431 214 L443.5 124 L456 214 Z" fill="#f3b91d" opacity="0.30"/><path d="M367 214 L380 168 L393 214 Z" fill="#2c1b03" opacity="0.33"/><path d="M80 214 L88 121 L96 214 Z" fill="#f3b91d" opacity="0.18"/><path d="M31 214 L42.5 132 L54 214 Z" fill="#2c1b03" opacity="0.27"/><path d="M174 214 L186.5 131 L199 214 Z" fill="#f3b91d" opacity="0.24"/><path d="M358 214 L375 184 L392 214 Z" fill="#2c1b03" opacity="0.19"/><path d="M557 214 L564.5 171 L572 214 Z" fill="#f3b91d" opacity="0.20"/>
  <circle cx="313" cy="75" r="0.8" fill="#fff2a0" opacity="0.36"/><circle cx="531" cy="191" r="1.7" fill="#fff2a0" opacity="0.82"/><circle cx="294" cy="199" r="2.4" fill="#fff2a0" opacity="0.77"/><circle cx="515" cy="181" r="2.3" fill="#fff2a0" opacity="0.90"/><circle cx="26" cy="177" r="0.9" fill="#fff2a0" opacity="0.27"/><circle cx="76" cy="67" r="2.5" fill="#fff2a0" opacity="0.86"/><circle cx="680" cy="136" r="1.4" fill="#fff2a0" opacity="0.85"/><circle cx="285" cy="124" r="0.9" fill="#fff2a0" opacity="0.46"/><circle cx="225" cy="171" r="0.8" fill="#fff2a0" opacity="0.29"/><circle cx="614" cy="43" r="1.8" fill="#fff2a0" opacity="0.48"/><circle cx="374" cy="133" r="1.3" fill="#fff2a0" opacity="0.62"/><circle cx="626" cy="167" r="2.2" fill="#fff2a0" opacity="0.67"/><circle cx="662" cy="135" r="1.2" fill="#fff2a0" opacity="0.38"/><circle cx="371" cy="43" r="1.1" fill="#fff2a0" opacity="0.47"/><circle cx="33" cy="80" r="2.6" fill="#fff2a0" opacity="0.84"/><circle cx="121" cy="152" r="1.5" fill="#fff2a0" opacity="0.58"/><circle cx="527" cy="97" r="2.8" fill="#fff2a0" opacity="0.67"/><circle cx="167" cy="199" r="1.0" fill="#fff2a0" opacity="0.80"/><circle cx="111" cy="183" r="1.6" fill="#fff2a0" opacity="0.57"/><circle cx="646" cy="204" r="2.2" fill="#fff2a0" opacity="0.77"/><circle cx="529" cy="193" r="1.9" fill="#fff2a0" opacity="0.35"/><circle cx="56" cy="49" r="2.0" fill="#fff2a0" opacity="0.79"/>
  <g transform="translate(288 42)" filter="url(#shadow)">
    <path d="M21 17 H123 V53 C123 91 102 111 72 116 C42 111 21 91 21 53 Z" fill="url(#gold)" stroke="#fff1a0" stroke-width="3"/>
    <path d="M21 29 H4 V49 C4 76 21 88 43 88" fill="none" stroke="#fff2a0" stroke-width="12" stroke-linecap="round"/>
    <path d="M123 29 H140 V49 C140 76 123 88 101 88" fill="none" stroke="#fff2a0" stroke-width="12" stroke-linecap="round"/>
    <path d="M64 114 H80 V139 H111 V154 H33 V139 H64 Z" fill="url(#gold)"/>
    <path d="M72 43 L81 61 L101 64 L86 78 L90 98 L72 88 L54 98 L58 78 L43 64 L63 61 Z" fill="#8d5d07" stroke="#f4ffb0" stroke-width="2"/>
  </g>
  <g opacity=".76">
    <path d="M45 232 C94 182 139 182 191 229 C143 218 98 219 45 232 Z" fill="#f3b91d"/>
    <path d="M675 232 C626 182 581 182 529 229 C577 218 622 219 675 232 Z" fill="#f3b91d"/>
  </g>
  <rect x="20" y="18" width="680" height="224" rx="24" fill="none" stroke="#f3b91d" stroke-opacity=".35" stroke-width="2"/>
  <text x="676" y="224" text-anchor="end" fill="#fff" opacity=".45" font-family="Arial, sans-serif" font-size="18" font-weight="700">04</text>
</svg>