<svg xmlns="http://www.w3.org/2000/svg" width="720" height="260" viewBox="0 0 720 260" role="img" aria-label="Desert Arena">
  <defs>
    <linearGradient id="bg" x1="0" y1="0" x2="1" y2="1">
      <stop offset="0" stop-color="#381508"/>
      <stop offset="0.58" stop-color="#a44214"/>
      <stop offset="1" stop-color="#381508"/>
    </linearGradient>
    <radialGradient id="halo">
      <stop offset="0" stop-color="#ffad35" stop-opacity=".52"/>
      <stop offset="1" stop-color="#ffad35" stop-opacity="0"/>
    </radialGradient>
    <linearGradient id="gold" x1="0" y1="0" x2="1" y2="1">
      <stop offset="0" stop-color="#fff39a"/>
      <stop offset=".38" stop-color="#ffd35a"/>
      <stop offset="1" stop-color="#9c5c05"/>
    </linearGradient>
    <filter id="shadow" x="-50%" y="-50%" width="200%" height="200%">
      <feDropShadow dx="0" dy="8" stdDeviation="8" flood-color="#000" flood-opacity=".55"/>
    </filter>
  </defs>
  <rect width="720" height="260" rx="28" fill="url(#bg)"/>
  <ellipse cx="360" cy="112" rx="245" ry="130" fill="url(#halo)"/>
  <path d="M0 160 Q110 95 220 164 T445 151 T720 127 V260 H0 Z" fill="#381508" opacity=".67"/>
  <path d="M0 202 Q120 154 240 205 T480 190 T720 195 V260 H0 Z" fill="#001b0d" opacity=".62"/>
  <path d="M593 214 L606.5 127 L620 214 Z" fill="#381508" opacity="0.34"/><path d="M395 214 L403.5 153 L412 214 Z" fill="#ffad35" opacity="0.41"/><path d="M256 214 L263.5 178 L271 214 Z" fill="#381508" opacity="0.25"/><path d="M136 214 L152.5 177 L169 214 Z" fill="#ffad35" opacity="0.34"/><path d="M545 214 L559.5 123 L574 214 Z" fill="#381508" opacity="0.22"/><path d="M25 214 L39 148 L53 214 Z" fill="#ffad35" opacity="0.21"/><path d="M346 214 L360.5 154 L375 214 Z" fill="#381508" opacity="0.26"/><path d="M471 214 L487 146 L503 214 Z" fill="#ffad35" opacity="0.29"/><path d="M148 214 L161 121 L174 214 Z" fill="#381508" opacity="0.25"/><path d="M307 214 L318.5 181 L330 214 Z" fill="#ffad35" opacity="0.36"/><path d="M599 214 L614 161 L629 214 Z" fill="#381508" opacity="0.30"/><path d="M327 214 L341 125 L355 214 Z" fill="#ffad35" opacity="0.27"/><path d="M589 214 L605.5 118 L622 214 Z" fill="#381508" opacity="0.24"/><path d="M574 214 L590.5 147 L607 214 Z" fill="#ffad35" opacity="0.27"/><path d="M578 214 L586.5 165 L595 214 Z" fill="#381508" opacity="0.24"/><path d="M6 214 L18 135 L30 214 Z" fill="#ffad35" opacity="0.37"/><path d="M403 214 L418.5 138 L434 214 Z" fill="#381508" opacity="0.41"/><path d="M713 214 L721 120 L729 214 Z" fill="#ffad35" opacity="0.16"/>
  <circle cx="196" cy="94" r="0.8" fill="#ffd35a" opacity="0.27"/><circle cx="129" cy="179" r="2.1" fill="#ffd35a" opacity="0.44"/><circle cx="39" cy="96" r="2.8" fill="#ffd35a" opacity="0.73"/><circle cx="654" cy="148" r="2.6" fill="#ffd35a" opacity="0.48"/><circle cx="599" cy="125" r="1.1" fill="#ffd35a" opacity="0.77"/><circle cx="360" cy="50" r="1.6" fill="#ffd35a" opacity="0.90"/><circle cx="536" cy="80" r="1.8" fill="#ffd35a" opacity="0.74"/><circle cx="664" cy="36" r="1.2" fill="#ffd35a" opacity="0.68"/><circle cx="248" cy="91" r="0.9" fill="#ffd35a" opacity="0.82"/><circle cx="469" cy="147" r="2.4" fill="#ffd35a" opacity="0.47"/><circle cx="392" cy="79" r="1.5" fill="#ffd35a" opacity="0.73"/><circle cx="63" cy="20" r="1.2" fill="#ffd35a" opacity="0.36"/><circle cx="612" cy="86" r="2.4" fill="#ffd35a" opacity="0.43"/><circle cx="460" cy="138" r="1.4" fill="#ffd35a" opacity="0.58"/><circle cx="530" cy="54" r="1.7" fill="#ffd35a" opacity="0.53"/><circle cx="246" cy="34" r="1.1" fill="#ffd35a" opacity="0.66"/><circle cx="254" cy="180" r="1.8" fill="#ffd35a" opacity="0.48"/><circle cx="112" cy="131" r="2.7" fill="#ffd35a" opacity="0.89"/><circle cx="434" cy="146" r="1.5" fill="#ffd35a" opacity="0.37"/><circle cx="114" cy="168" r="2.5" fill="#ffd35a" opacity="0.87"/><circle cx="481" cy="64" r="2.3" fill="#ffd35a" opacity="0.47"/><circle cx="559" cy="110" r="2.2" fill="#ffd35a" opacity="0.39"/>
  <g transform="translate(288 42)" filter="url(#shadow)">
    <path d="M21 17 H123 V53 C123 91 102 111 72 116 C42 111 21 91 21 53 Z" fill="url(#gold)" stroke="#fff1a0" stroke-width="3"/>
    <path d="M21 29 H4 V49 C4 76 21 88 43 88" fill="none" stroke="#ffd35a" stroke-width="12" stroke-linecap="round"/>
    <path d="M123 29 H140 V49 C140 76 123 88 101 88" fill="none" stroke="#ffd35a" stroke-width="12" stroke-linecap="round"/>
    <path d="M64 114 H80 V139 H111 V154 H33 V139 H64 Z" fill="url(#gold)"/>
    <path d="M72 43 L81 61 L101 64 L86 78 L90 98 L72 88 L54 98 L58 78 L43 64 L63 61 Z" fill="#a44214" stroke="#f4ffb0" stroke-width="2"/>
  </g>
  <g opacity=".76">
    <path d="M45 232 C94 182 139 182 191 229 C143 218 98 219 45 232 Z" fill="#ffad35"/>
    <path d="M675 232 C626 182 581 182 529 229 C577 218 622 219 675 232 Z" fill="#ffad35"/>
  </g>
  <rect x="20" y="18" width="680" height="224" rx="24" fill="none" stroke="#ffad35" stroke-opacity=".35" stroke-width="2"/>
  <text x="676" y="224" text-anchor="end" fill="#fff" opacity=".45" font-family="Arial, sans-serif" font-size="18" font-weight="700">03</text>
</svg>