<svg xmlns="http://www.w3.org/2000/svg" width="720" height="260" viewBox="0 0 720 260" role="img" aria-label="Emerald River">
  <defs>
    <linearGradient id="bg" x1="0" y1="0" x2="1" y2="1">
      <stop offset="0" stop-color="#03251c"/>
      <stop offset="0.58" stop-color="#08745f"/>
      <stop offset="1" stop-color="#03251c"/>
    </linearGradient>
    <radialGradient id="halo">
      <stop offset="0" stop-color="#39d4b4" stop-opacity=".52"/>
      <stop offset="1" stop-color="#39d4b4" stop-opacity="0"/>
    </radialGradient>
    <linearGradient id="gold" x1="0" y1="0" x2="1" y2="1">
      <stop offset="0" stop-color="#fff39a"/>
      <stop offset=".38" stop-color="#ddff91"/>
      <stop offset="1" stop-color="#9c5c05"/>
    </linearGradient>
    <filter id="shadow" x="-50%" y="-50%" width="200%" height="200%">
      <feDropShadow dx="0" dy="8" stdDeviation="8" flood-color="#000" flood-opacity=".55"/>
    </filter>
  </defs>
  <rect width="720" height="260" rx="28" fill="url(#bg)"/>
  <ellipse cx="360" cy="112" rx="245" ry="130" fill="url(#halo)"/>
  <path d="M0 162 Q110 97 220 166 T445 153 T720 129 V260 H0 Z" fill="#03251c" opacity=".67"/>
  <path d="M0 202 Q120 154 240 205 T480 190 T720 195 V260 H0 Z" fill="#001b0d" opacity=".62"/>
  <path d="M496 214 L515.5 138 L535 214 Z" fill="#03251c" opacity="0.20"/><path d="M246 214 L260 163 L274 214 Z" fill="#39d4b4" opacity="0.37"/><path d="M147 214 L154 154 L161 214 Z" fill="#03251c" opacity="0.39"/><path d="M706 214 L718 116 L730 214 Z" fill="#39d4b4" opacity="0.20"/><path d="M98 214 L117 138 L136 214 Z" fill="#03251c" opacity="0.30"/><path d="M168 214 L183 125 L198 214 Z" fill="#39d4b4" opacity="0.34"/><path d="M104 214 L118 132 L132 214 Z" fill="#03251c" opacity="0.31"/><path d="M230 214 L247.5 165 L265 214 Z" fill="#39d4b4" opacity="0.33"/><path d="M421 214 L435 177 L449 214 Z" fill="#03251c" opacity="0.25"/><path d="M111 214 L120.5 178 L130 214 Z" fill="#39d4b4" opacity="0.40"/><path d="M599 214 L609.5 152 L620 214 Z" fill="#03251c" opacity="0.36"/><path d="M416 214 L423.5 144 L431 214 Z" fill="#39d4b4" opacity="0.21"/><path d="M662 214 L680 119 L698 214 Z" fill="#03251c" opacity="0.22"/><path d="M642 214 L654.5 147 L667 214 Z" fill="#39d4b4" opacity="0.32"/><path d="M343 214 L354.5 155 L366 214 Z" fill="#03251c" opacity="0.28"/><path d="M517 214 L526.5 161 L536 214 Z" fill="#39d4b4" opacity="0.18"/><path d="M719 214 L733.5 180 L748 214 Z" fill="#03251c" opacity="0.28"/><path d="M114 214 L124 173 L134 214 Z" fill="#39d4b4" opacity="0.31"/>
  <circle cx="301" cy="131" r="2.9" fill="#ddff91" opacity="0.62"/><circle cx="212" cy="40" r="1.0" fill="#ddff91" opacity="0.28"/><circle cx="679" cy="178" r="2.6" fill="#ddff91" opacity="0.54"/><circle cx="637" cy="135" r="2.8" fill="#ddff91" opacity="0.71"/><circle cx="309" cy="74" r="2.8" fill="#ddff91" opacity="0.50"/><circle cx="504" cy="140" r="2.5" fill="#ddff91" opacity="0.78"/><circle cx="409" cy="164" r="2.2" fill="#ddff91" opacity="0.44"/><circle cx="458" cy="58" r="0.8" fill="#ddff91" opacity="0.61"/><circle cx="51" cy="30" r="2.4" fill="#ddff91" opacity="0.38"/><circle cx="464" cy="173" r="1.7" fill="#ddff91" opacity="0.62"/><circle cx="335" cy="156" r="1.4" fill="#ddff91" opacity="0.48"/><circle cx="519" cy="202" r="1.1" fill="#ddff91" opacity="0.29"/><circle cx="616" cy="180" r="1.2" fill="#ddff91" opacity="0.80"/><circle cx="207" cy="171" r="1.5" fill="#ddff91" opacity="0.58"/><circle cx="374" cy="206" r="2.3" fill="#ddff91" opacity="0.78"/><circle cx="514" cy="156" r="2.5" fill="#ddff91" opacity="0.85"/><circle cx="632" cy="28" r="1.6" fill="#ddff91" opacity="0.40"/><circle cx="413" cy="42" r="1.6" fill="#ddff91" opacity="0.59"/><circle cx="129" cy="80" r="1.8" fill="#ddff91" opacity="0.39"/><circle cx="464" cy="51" r="1.1" fill="#ddff91" opacity="0.42"/><circle cx="559" cy="121" r="1.6" fill="#ddff91" opacity="0.87"/><circle cx="502" cy="145" r="1.2" fill="#ddff91" opacity="0.66"/>
  <g transform="translate(288 42)" filter="url(#shadow)">
    <path d="M21 17 H123 V53 C123 91 102 111 72 116 C42 111 21 91 21 53 Z" fill="url(#gold)" stroke="#fff1a0" stroke-width="3"/>
    <path d="M21 29 H4 V49 C4 76 21 88 43 88" fill="none" stroke="#ddff91" stroke-width="12" stroke-linecap="round"/>
    <path d="M123 29 H140 V49 C140 76 123 88 101 88" fill="none" stroke="#ddff91" stroke-width="12" stroke-linecap="round"/>
    <path d="M64 114 H80 V139 H111 V154 H33 V139 H64 Z" fill="url(#gold)"/>
    <path d="M72 43 L81 61 L101 64 L86 78 L90 98 L72 88 L54 98 L58 78 L43 64 L63 61 Z" fill="#08745f" stroke="#f4ffb0" stroke-width="2"/>
  </g>
  <g opacity=".76">
    <path d="M45 232 C94 182 139 182 191 229 C143 218 98 219 45 232 Z" fill="#39d4b4"/>
    <path d="M675 232 C626 182 581 182 529 229 C577 218 622 219 675 232 Z" fill="#39d4b4"/>
  </g>
  <rect x="20" y="18" width="680" height="224" rx="24" fill="none" stroke="#39d4b4" stroke-opacity=".35" stroke-width="2"/>
  <text x="676" y="224" text-anchor="end" fill="#fff" opacity=".45" font-family="Arial, sans-serif" font-size="18" font-weight="700">08</text>
</svg>