<svg xmlns="http://www.w3.org/2000/svg" width="720" height="260" viewBox="0 0 720 260" role="img" aria-label="Golden Champions">
  <defs>
    <linearGradient id="bg" x1="0" y1="0" x2="1" y2="1">
      <stop offset="0" stop-color="#2c1b03"/>
      <stop offset="0.58" stop-color="#8d5d07"/>
      <stop offset="1" stop-color="#2c1b03"/>
    </linearGradient>
    <radialGradient id="halo">
      <stop offset="0" stop-color="#f3b91d" stop-opacity=".52"/>
      <stop offset="1" stop-color="#f3b91d" stop-opacity="0"/>
    </radialGradient>
    <linearGradient id="gold" x1="0" y1="0" x2="1" y2="1">
      <stop offset="0" stop-color="#fff39a"/>
      <stop offset=".38" stop-color="#fff2a0"/>
      <stop offset="1" stop-color="#9c5c05"/>
    </linearGradient>
    <filter id="shadow" x="-50%" y="-50%" width="200%" height="200%">
      <feDropShadow dx="0" dy="8" stdDeviation="8" flood-color="#000" flood-opacity=".55"/>
    </filter>
  </defs>
  <rect width="720" height="260" rx="28" fill="url(#bg)"/>
  <ellipse cx="360" cy="112" rx="245" ry="130" fill="url(#halo)"/>
  <path d="M0 145 Q110 80 220 149 T445 136 T720 112 V260 H0 Z" fill="#2c1b03" opacity=".67"/>
  <path d="M0 202 Q120 154 240 205 T480 190 T720 195 V260 H0 Z" fill="#001b0d" opacity=".62"/>
  <path d="M495 214 L502.5 153 L510 214 Z" fill="#2c1b03" opacity="0.23"/><path d="M503 214 L515.5 131 L528 214 Z" fill="#f3b91d" opacity="0.26"/><path d="M191 214 L204 161 L217 214 Z" fill="#2c1b03" opacity="0.19"/><path d="M591 214 L610 179 L629 214 Z" fill="#f3b91d" opacity="0.39"/><path d="M85 214 L102 121 L119 214 Z" fill="#2c1b03" opacity="0.28"/><path d="M300 214 L307.5 139 L315 214 Z" fill="#f3b91d" opacity="0.31"/><path d="M461 214 L474.5 158 L488 214 Z" fill="#2c1b03" opacity="0.17"/><path d="M548 214 L555.5 119 L563 214 Z" fill="#f3b91d" opacity="0.34"/><path d="M665 214 L674.5 150 L684 214 Z" fill="#2c1b03" opacity="0.19"/><path d="M58 214 L77.5 139 L97 214 Z" fill="#f3b91d" opacity="0.18"/><path d="M111 214 L119.5 154 L128 214 Z" fill="#2c1b03" opacity="0.21"/><path d="M704 214 L711.5 166 L719 214 Z" fill="#f3b91d" opacity="0.24"/><path d="M405 214 L416.5 156 L428 214 Z" fill="#2c1b03" opacity="0.24"/><path d="M298 214 L309.5 131 L321 214 Z" fill="#f3b91d" opacity="0.33"/><path d="M683 214 L695.5 164 L708 214 Z" fill="#2c1b03" opacity="0.40"/><path d="M188 214 L204.5 133 L221 214 Z" fill="#f3b91d" opacity="0.36"/><path d="M543 214 L561.5 135 L580 214 Z" fill="#2c1b03" opacity="0.22"/><path d="M296 214 L310.5 116 L325 214 Z" fill="#f3b91d" opacity="0.28"/>
  <circle cx="502" cy="75" r="2.8" fill="#fff2a0" opacity="0.56"/><circle cx="327" cy="31" r="2.0" fill="#fff2a0" opacity="0.82"/><circle cx="44" cy="125" r="2.1" fill="#fff2a0" opacity="0.83"/><circle cx="634" cy="145" r="2.0" fill="#fff2a0" opacity="0.80"/><circle cx="168" cy="141" r="1.3" fill="#fff2a0" opacity="0.78"/><circle cx="29" cy="145" r="0.9" fill="#fff2a0" opacity="0.84"/><circle cx="244" cy="158" r="2.3" fill="#fff2a0" opacity="0.26"/><circle cx="103" cy="20" r="2.2" fill="#fff2a0" opacity="0.33"/><circle cx="651" cy="140" r="2.0" fill="#fff2a0" opacity="0.63"/><circle cx="418" cy="149" r="2.1" fill="#fff2a0" opacity="0.72"/><circle cx="364" cy="153" r="2.2" fill="#fff2a0" opacity="0.78"/><circle cx="198" cy="30" r="2.4" fill="#fff2a0" opacity="0.59"/><circle cx="371" cy="30" r="1.7" fill="#fff2a0" opacity="0.77"/><circle cx="399" cy="110" r="3.0" fill="#fff2a0" opacity="0.45"/><circle cx="661" cy="39" r="2.4" fill="#fff2a0" opacity="0.79"/><circle cx="47" cy="66" r="1.8" fill="#fff2a0" opacity="0.80"/><circle cx="327" cy="103" r="0.8" fill="#fff2a0" opacity="0.70"/><circle cx="439" cy="183" r="2.7" fill="#fff2a0" opacity="0.75"/><circle cx="80" cy="205" r="1.7" fill="#fff2a0" opacity="0.69"/><circle cx="198" cy="136" r="0.8" fill="#fff2a0" opacity="0.48"/><circle cx="397" cy="101" r="2.9" fill="#fff2a0" opacity="0.58"/><circle cx="240" cy="103" r="1.6" fill="#fff2a0" opacity="0.25"/>
  <g transform="translate(288 42)" filter="url(#shadow)">
    <path d="M21 17 H123 V53 C123 91 102 111 72 116 C42 111 21 91 21 53 Z" fill="url(#gold)" stroke="#fff1a0" stroke-width="3"/>
    <path d="M21 29 H4 V49 C4 76 21 88 43 88" fill="none" stroke="#fff2a0" stroke-width="12" stroke-linecap="round"/>
    <path d="M123 29 H140 V49 C140 76 123 88 101 88" fill="none" stroke="#fff2a0" stroke-width="12" stroke-linecap="round"/>
    <path d="M64 114 H80 V139 H111 V154 H33 V139 H64 Z" fill="url(#gold)"/>
    <path d="M72 43 L81 61 L101 64 L86 78 L90 98 L72 88 L54 98 L58 78 L43 64 L63 61 Z" fill="#8d5d07" stroke="#f4ffb0" stroke-width="2"/>
  </g>
  <g opacity=".76">
    <path d="M45 232 C94 182 139 182 191 229 C143 218 98 219 45 232 Z" fill="#f3b91d"/>
    <path d="M675 232 C626 182 581 182 529 229 C577 218 622 219 675 232 Z" fill="#f3b91d"/>
  </g>
  <rect x="20" y="18" width="680" height="224" rx="24" fill="none" stroke="#f3b91d" stroke-opacity=".35" stroke-width="2"/>
  <text x="676" y="224" text-anchor="end" fill="#fff" opacity=".45" font-family="Arial, sans-serif" font-size="18" font-weight="700">05</text>
</svg>