<svg xmlns="http://www.w3.org/2000/svg" width="720" height="260" viewBox="0 0 720 260" role="img" aria-label="Desert Arena">
  <defs>
    <linearGradient id="bg" x1="0" y1="0" x2="1" y2="1">
      <stop offset="0" stop-color="#381508"/>
      <stop offset="0.58" stop-color="#a44214"/>
      <stop offset="1" stop-color="#381508"/>
    </linearGradient>
    <radialGradient id="halo">
      <stop offset="0" stop-color="#ffad35" stop-opacity=".52"/>
      <stop offset="1" stop-color="#ffad35" stop-opacity="0"/>
    </radialGradient>
    <linearGradient id="gold" x1="0" y1="0" x2="1" y2="1">
      <stop offset="0" stop-color="#fff39a"/>
      <stop offset=".38" stop-color="#ffd35a"/>
      <stop offset="1" stop-color="#9c5c05"/>
    </linearGradient>
    <filter id="shadow" x="-50%" y="-50%" width="200%" height="200%">
      <feDropShadow dx="0" dy="8" stdDeviation="8" flood-color="#000" flood-opacity=".55"/>
    </filter>
  </defs>
  <rect width="720" height="260" rx="28" fill="url(#bg)"/>
  <ellipse cx="360" cy="112" rx="245" ry="130" fill="url(#halo)"/>
  <path d="M0 147 Q110 82 220 151 T445 138 T720 114 V260 H0 Z" fill="#381508" opacity=".67"/>
  <path d="M0 202 Q120 154 240 205 T480 190 T720 195 V260 H0 Z" fill="#001b0d" opacity=".62"/>
  <path d="M319 214 L331.5 175 L344 214 Z" fill="#381508" opacity="0.18"/><path d="M449 214 L462 113 L475 214 Z" fill="#ffad35" opacity="0.33"/><path d="M38 214 L57 156 L76 214 Z" fill="#381508" opacity="0.37"/><path d="M653 214 L664.5 168 L676 214 Z" fill="#ffad35" opacity="0.29"/><path d="M138 214 L155.5 153 L173 214 Z" fill="#381508" opacity="0.38"/><path d="M488 214 L496.5 136 L505 214 Z" fill="#ffad35" opacity="0.37"/><path d="M22 214 L31.5 157 L41 214 Z" fill="#381508" opacity="0.16"/><path d="M95 214 L102.5 139 L110 214 Z" fill="#ffad35" opacity="0.23"/><path d="M564 214 L576 152 L588 214 Z" fill="#381508" opacity="0.25"/><path d="M171 214 L182.5 151 L194 214 Z" fill="#ffad35" opacity="0.25"/><path d="M188 214 L203 113 L218 214 Z" fill="#381508" opacity="0.21"/><path d="M501 214 L512.5 113 L524 214 Z" fill="#ffad35" opacity="0.38"/><path d="M511 214 L519 143 L527 214 Z" fill="#381508" opacity="0.17"/><path d="M138 214 L147.5 126 L157 214 Z" fill="#ffad35" opacity="0.21"/><path d="M713 214 L732 173 L751 214 Z" fill="#381508" opacity="0.24"/><path d="M697 214 L713.5 131 L730 214 Z" fill="#ffad35" opacity="0.38"/><path d="M34 214 L46.5 164 L59 214 Z" fill="#381508" opacity="0.37"/><path d="M515 214 L534 158 L553 214 Z" fill="#ffad35" opacity="0.25"/>
  <circle cx="498" cy="94" r="1.3" fill="#ffd35a" opacity="0.52"/><circle cx="537" cy="120" r="1.5" fill="#ffd35a" opacity="0.46"/><circle cx="539" cy="53" r="1.4" fill="#ffd35a" opacity="0.61"/><circle cx="417" cy="30" r="0.9" fill="#ffd35a" opacity="0.68"/><circle cx="315" cy="197" r="2.5" fill="#ffd35a" opacity="0.40"/><circle cx="454" cy="86" r="2.7" fill="#ffd35a" opacity="0.29"/><circle cx="48" cy="36" r="2.2" fill="#ffd35a" opacity="0.61"/><circle cx="349" cy="56" r="2.9" fill="#ffd35a" opacity="0.29"/><circle cx="76" cy="154" r="0.9" fill="#ffd35a" opacity="0.79"/><circle cx="180" cy="124" r="1.9" fill="#ffd35a" opacity="0.65"/><circle cx="412" cy="38" r="1.8" fill="#ffd35a" opacity="0.40"/><circle cx="240" cy="105" r="2.9" fill="#ffd35a" opacity="0.52"/><circle cx="514" cy="106" r="1.3" fill="#ffd35a" opacity="0.30"/><circle cx="404" cy="194" r="2.0" fill="#ffd35a" opacity="0.62"/><circle cx="634" cy="135" r="2.1" fill="#ffd35a" opacity="0.63"/><circle cx="393" cy="207" r="2.8" fill="#ffd35a" opacity="0.88"/><circle cx="653" cy="167" r="1.4" fill="#ffd35a" opacity="0.42"/><circle cx="247" cy="163" r="1.5" fill="#ffd35a" opacity="0.35"/><circle cx="495" cy="101" r="1.4" fill="#ffd35a" opacity="0.78"/><circle cx="329" cy="115" r="1.0" fill="#ffd35a" opacity="0.80"/><circle cx="64" cy="57" r="2.3" fill="#ffd35a" opacity="0.66"/><circle cx="191" cy="192" r="0.9" fill="#ffd35a" opacity="0.81"/>
  <g transform="translate(288 42)" filter="url(#shadow)">
    <path d="M21 17 H123 V53 C123 91 102 111 72 116 C42 111 21 91 21 53 Z" fill="url(#gold)" stroke="#fff1a0" stroke-width="3"/>
    <path d="M21 29 H4 V49 C4 76 21 88 43 88" fill="none" stroke="#ffd35a" stroke-width="12" stroke-linecap="round"/>
    <path d="M123 29 H140 V49 C140 76 123 88 101 88" fill="none" stroke="#ffd35a" stroke-width="12" stroke-linecap="round"/>
    <path d="M64 114 H80 V139 H111 V154 H33 V139 H64 Z" fill="url(#gold)"/>
    <path d="M72 43 L81 61 L101 64 L86 78 L90 98 L72 88 L54 98 L58 78 L43 64 L63 61 Z" fill="#a44214" stroke="#f4ffb0" stroke-width="2"/>
  </g>
  <g opacity=".76">
    <path d="M45 232 C94 182 139 182 191 229 C143 218 98 219 45 232 Z" fill="#ffad35"/>
    <path d="M675 232 C626 182 581 182 529 229 C577 218 622 219 675 232 Z" fill="#ffad35"/>
  </g>
  <rect x="20" y="18" width="680" height="224" rx="24" fill="none" stroke="#ffad35" stroke-opacity=".35" stroke-width="2"/>
  <text x="676" y="224" text-anchor="end" fill="#fff" opacity=".45" font-family="Arial, sans-serif" font-size="18" font-weight="700">01</text>
</svg>