<svg xmlns="http://www.w3.org/2000/svg" width="720" height="260" viewBox="0 0 720 260" role="img" aria-label="Waterfall Cup">
  <defs>
    <linearGradient id="bg" x1="0" y1="0" x2="1" y2="1">
      <stop offset="0" stop-color="#052e35"/>
      <stop offset="0.58" stop-color="#087f8f"/>
      <stop offset="1" stop-color="#052e35"/>
    </linearGradient>
    <radialGradient id="halo">
      <stop offset="0" stop-color="#52e8df" stop-opacity=".52"/>
      <stop offset="1" stop-color="#52e8df" stop-opacity="0"/>
    </radialGradient>
    <linearGradient id="gold" x1="0" y1="0" x2="1" y2="1">
      <stop offset="0" stop-color="#fff39a"/>
      <stop offset=".38" stop-color="#e8fff8"/>
      <stop offset="1" stop-color="#9c5c05"/>
    </linearGradient>
    <filter id="shadow" x="-50%" y="-50%" width="200%" height="200%">
      <feDropShadow dx="0" dy="8" stdDeviation="8" flood-color="#000" flood-opacity=".55"/>
    </filter>
  </defs>
  <rect width="720" height="260" rx="28" fill="url(#bg)"/>
  <ellipse cx="360" cy="112" rx="245" ry="130" fill="url(#halo)"/>
  <path d="M0 149 Q110 84 220 153 T445 140 T720 116 V260 H0 Z" fill="#052e35" opacity=".67"/>
  <path d="M0 202 Q120 154 240 205 T480 190 T720 195 V260 H0 Z" fill="#001b0d" opacity=".62"/>
  <path d="M594 214 L607 184 L620 214 Z" fill="#052e35" opacity="0.30"/><path d="M138 214 L148 113 L158 214 Z" fill="#52e8df" opacity="0.27"/><path d="M212 214 L226 171 L240 214 Z" fill="#052e35" opacity="0.20"/><path d="M251 214 L260.5 115 L270 214 Z" fill="#52e8df" opacity="0.39"/><path d="M558 214 L574.5 140 L591 214 Z" fill="#052e35" opacity="0.24"/><path d="M613 214 L622.5 133 L632 214 Z" fill="#52e8df" opacity="0.24"/><path d="M709 214 L724 129 L739 214 Z" fill="#052e35" opacity="0.40"/><path d="M154 214 L167.5 120 L181 214 Z" fill="#52e8df" opacity="0.29"/><path d="M623 214 L640.5 147 L658 214 Z" fill="#052e35" opacity="0.31"/><path d="M360 214 L374.5 149 L389 214 Z" fill="#52e8df" opacity="0.32"/><path d="M368 214 L385 159 L402 214 Z" fill="#052e35" opacity="0.20"/><path d="M39 214 L53 174 L67 214 Z" fill="#52e8df" opacity="0.23"/><path d="M125 214 L136 153 L147 214 Z" fill="#052e35" opacity="0.22"/><path d="M198 214 L215 162 L232 214 Z" fill="#52e8df" opacity="0.26"/><path d="M238 214 L245.5 156 L253 214 Z" fill="#052e35" opacity="0.37"/><path d="M335 214 L352.5 162 L370 214 Z" fill="#52e8df" opacity="0.19"/><path d="M580 214 L591.5 183 L603 214 Z" fill="#052e35" opacity="0.22"/><path d="M531 214 L547 177 L563 214 Z" fill="#52e8df" opacity="0.20"/>
  <circle cx="675" cy="151" r="1.0" fill="#e8fff8" opacity="0.34"/><circle cx="694" cy="189" r="1.1" fill="#e8fff8" opacity="0.56"/><circle cx="674" cy="148" r="1.1" fill="#e8fff8" opacity="0.45"/><circle cx="657" cy="138" r="1.1" fill="#e8fff8" opacity="0.39"/><circle cx="61" cy="58" r="2.7" fill="#e8fff8" opacity="0.49"/><circle cx="155" cy="46" r="1.0" fill="#e8fff8" opacity="0.84"/><circle cx="21" cy="86" r="1.6" fill="#e8fff8" opacity="0.27"/><circle cx="338" cy="75" r="2.0" fill="#e8fff8" opacity="0.31"/><circle cx="328" cy="172" r="1.3" fill="#e8fff8" opacity="0.57"/><circle cx="515" cy="170" r="2.1" fill="#e8fff8" opacity="0.37"/><circle cx="362" cy="81" r="2.8" fill="#e8fff8" opacity="0.43"/><circle cx="384" cy="193" r="2.0" fill="#e8fff8" opacity="0.70"/><circle cx="177" cy="47" r="1.8" fill="#e8fff8" opacity="0.46"/><circle cx="268" cy="199" r="2.1" fill="#e8fff8" opacity="0.71"/><circle cx="243" cy="31" r="1.5" fill="#e8fff8" opacity="0.52"/><circle cx="33" cy="124" r="1.8" fill="#e8fff8" opacity="0.71"/><circle cx="559" cy="105" r="2.6" fill="#e8fff8" opacity="0.83"/><circle cx="86" cy="180" r="1.7" fill="#e8fff8" opacity="0.74"/><circle cx="482" cy="20" r="1.7" fill="#e8fff8" opacity="0.72"/><circle cx="381" cy="84" r="2.7" fill="#e8fff8" opacity="0.81"/><circle cx="642" cy="83" r="0.9" fill="#e8fff8" opacity="0.76"/><circle cx="141" cy="152" r="1.9" fill="#e8fff8" opacity="0.80"/>
  <g transform="translate(288 42)" filter="url(#shadow)">
    <path d="M21 17 H123 V53 C123 91 102 111 72 116 C42 111 21 91 21 53 Z" fill="url(#gold)" stroke="#fff1a0" stroke-width="3"/>
    <path d="M21 29 H4 V49 C4 76 21 88 43 88" fill="none" stroke="#e8fff8" stroke-width="12" stroke-linecap="round"/>
    <path d="M123 29 H140 V49 C140 76 123 88 101 88" fill="none" stroke="#e8fff8" stroke-width="12" stroke-linecap="round"/>
    <path d="M64 114 H80 V139 H111 V154 H33 V139 H64 Z" fill="url(#gold)"/>
    <path d="M72 43 L81 61 L101 64 L86 78 L90 98 L72 88 L54 98 L58 78 L43 64 L63 61 Z" fill="#087f8f" stroke="#f4ffb0" stroke-width="2"/>
  </g>
  <g opacity=".76">
    <path d="M45 232 C94 182 139 182 191 229 C143 218 98 219 45 232 Z" fill="#52e8df"/>
    <path d="M675 232 C626 182 581 182 529 229 C577 218 622 219 675 232 Z" fill="#52e8df"/>
  </g>
  <rect x="20" y="18" width="680" height="224" rx="24" fill="none" stroke="#52e8df" stroke-opacity=".35" stroke-width="2"/>
  <text x="676" y="224" text-anchor="end" fill="#fff" opacity=".45" font-family="Arial, sans-serif" font-size="18" font-weight="700">06</text>
</svg>