<svg xmlns="http://www.w3.org/2000/svg" width="720" height="260" viewBox="0 0 720 260" role="img" aria-label="Waterfall Cup">
  <defs>
    <linearGradient id="bg" x1="0" y1="0" x2="1" y2="1">
      <stop offset="0" stop-color="#052e35"/>
      <stop offset="0.58" stop-color="#087f8f"/>
      <stop offset="1" stop-color="#052e35"/>
    </linearGradient>
    <radialGradient id="halo">
      <stop offset="0" stop-color="#52e8df" stop-opacity=".52"/>
      <stop offset="1" stop-color="#52e8df" stop-opacity="0"/>
    </radialGradient>
    <linearGradient id="gold" x1="0" y1="0" x2="1" y2="1">
      <stop offset="0" stop-color="#fff39a"/>
      <stop offset=".38" stop-color="#e8fff8"/>
      <stop offset="1" stop-color="#9c5c05"/>
    </linearGradient>
    <filter id="shadow" x="-50%" y="-50%" width="200%" height="200%">
      <feDropShadow dx="0" dy="8" stdDeviation="8" flood-color="#000" flood-opacity=".55"/>
    </filter>
  </defs>
  <rect width="720" height="260" rx="28" fill="url(#bg)"/>
  <ellipse cx="360" cy="112" rx="245" ry="130" fill="url(#halo)"/>
  <path d="M0 169 Q110 104 220 173 T445 160 T720 136 V260 H0 Z" fill="#052e35" opacity=".67"/>
  <path d="M0 202 Q120 154 240 205 T480 190 T720 195 V260 H0 Z" fill="#001b0d" opacity=".62"/>
  <path d="M371 214 L384.5 124 L398 214 Z" fill="#052e35" opacity="0.38"/><path d="M471 214 L478.5 169 L486 214 Z" fill="#52e8df" opacity="0.31"/><path d="M322 214 L330.5 146 L339 214 Z" fill="#052e35" opacity="0.27"/><path d="M713 214 L725 155 L737 214 Z" fill="#52e8df" opacity="0.16"/><path d="M41 214 L56.5 160 L72 214 Z" fill="#052e35" opacity="0.28"/><path d="M22 214 L40.5 175 L59 214 Z" fill="#52e8df" opacity="0.41"/><path d="M512 214 L523.5 127 L535 214 Z" fill="#052e35" opacity="0.32"/><path d="M342 214 L360 123 L378 214 Z" fill="#52e8df" opacity="0.33"/><path d="M415 214 L433 131 L451 214 Z" fill="#052e35" opacity="0.19"/><path d="M428 214 L442.5 128 L457 214 Z" fill="#52e8df" opacity="0.25"/><path d="M214 214 L225 183 L236 214 Z" fill="#052e35" opacity="0.37"/><path d="M312 214 L321 144 L330 214 Z" fill="#52e8df" opacity="0.18"/><path d="M164 214 L173 141 L182 214 Z" fill="#052e35" opacity="0.38"/><path d="M416 214 L424 173 L432 214 Z" fill="#52e8df" opacity="0.16"/><path d="M170 214 L178.5 116 L187 214 Z" fill="#052e35" opacity="0.24"/><path d="M349 214 L358 164 L367 214 Z" fill="#52e8df" opacity="0.30"/><path d="M45 214 L58 133 L71 214 Z" fill="#052e35" opacity="0.24"/><path d="M270 214 L280.5 122 L291 214 Z" fill="#52e8df" opacity="0.28"/>
  <circle cx="184" cy="151" r="2.9" fill="#e8fff8" opacity="0.54"/><circle cx="491" cy="28" r="1.4" fill="#e8fff8" opacity="0.55"/><circle cx="424" cy="75" r="3.0" fill="#e8fff8" opacity="0.51"/><circle cx="96" cy="102" r="0.8" fill="#e8fff8" opacity="0.29"/><circle cx="203" cy="21" r="0.8" fill="#e8fff8" opacity="0.35"/><circle cx="108" cy="123" r="1.5" fill="#e8fff8" opacity="0.82"/><circle cx="265" cy="108" r="2.6" fill="#e8fff8" opacity="0.34"/><circle cx="156" cy="160" r="1.2" fill="#e8fff8" opacity="0.83"/><circle cx="74" cy="140" r="2.4" fill="#e8fff8" opacity="0.26"/><circle cx="320" cy="87" r="2.4" fill="#e8fff8" opacity="0.61"/><circle cx="352" cy="102" r="1.6" fill="#e8fff8" opacity="0.59"/><circle cx="636" cy="55" r="2.3" fill="#e8fff8" opacity="0.62"/><circle cx="566" cy="131" r="2.4" fill="#e8fff8" opacity="0.85"/><circle cx="296" cy="76" r="1.8" fill="#e8fff8" opacity="0.69"/><circle cx="191" cy="181" r="1.3" fill="#e8fff8" opacity="0.47"/><circle cx="639" cy="38" r="2.1" fill="#e8fff8" opacity="0.28"/><circle cx="359" cy="111" r="2.8" fill="#e8fff8" opacity="0.86"/><circle cx="358" cy="164" r="1.2" fill="#e8fff8" opacity="0.68"/><circle cx="452" cy="42" r="1.7" fill="#e8fff8" opacity="0.84"/><circle cx="613" cy="206" r="1.3" fill="#e8fff8" opacity="0.52"/><circle cx="511" cy="182" r="2.0" fill="#e8fff8" opacity="0.34"/><circle cx="325" cy="206" r="1.5" fill="#e8fff8" opacity="0.27"/>
  <g transform="translate(288 42)" filter="url(#shadow)">
    <path d="M21 17 H123 V53 C123 91 102 111 72 116 C42 111 21 91 21 53 Z" fill="url(#gold)" stroke="#fff1a0" stroke-width="3"/>
    <path d="M21 29 H4 V49 C4 76 21 88 43 88" fill="none" stroke="#e8fff8" stroke-width="12" stroke-linecap="round"/>
    <path d="M123 29 H140 V49 C140 76 123 88 101 88" fill="none" stroke="#e8fff8" stroke-width="12" stroke-linecap="round"/>
    <path d="M64 114 H80 V139 H111 V154 H33 V139 H64 Z" fill="url(#gold)"/>
    <path d="M72 43 L81 61 L101 64 L86 78 L90 98 L72 88 L54 98 L58 78 L43 64 L63 61 Z" fill="#087f8f" stroke="#f4ffb0" stroke-width="2"/>
  </g>
  <g opacity=".76">
    <path d="M45 232 C94 182 139 182 191 229 C143 218 98 219 45 232 Z" fill="#52e8df"/>
    <path d="M675 232 C626 182 581 182 529 229 C577 218 622 219 675 232 Z" fill="#52e8df"/>
  </g>
  <rect x="20" y="18" width="680" height="224" rx="24" fill="none" stroke="#52e8df" stroke-opacity=".35" stroke-width="2"/>
  <text x="676" y="224" text-anchor="end" fill="#fff" opacity=".45" font-family="Arial, sans-serif" font-size="18" font-weight="700">07</text>
</svg>