<svg xmlns="http://www.w3.org/2000/svg" width="720" height="260" viewBox="0 0 720 260" role="img" aria-label="Moonlight Royale">
  <defs>
    <linearGradient id="bg" x1="0" y1="0" x2="1" y2="1">
      <stop offset="0" stop-color="#0c1230"/>
      <stop offset="0.58" stop-color="#303477"/>
      <stop offset="1" stop-color="#0c1230"/>
    </linearGradient>
    <radialGradient id="halo">
      <stop offset="0" stop-color="#9c7cff" stop-opacity=".52"/>
      <stop offset="1" stop-color="#9c7cff" stop-opacity="0"/>
    </radialGradient>
    <linearGradient id="gold" x1="0" y1="0" x2="1" y2="1">
      <stop offset="0" stop-color="#fff39a"/>
      <stop offset=".38" stop-color="#f1e7ff"/>
      <stop offset="1" stop-color="#9c5c05"/>
    </linearGradient>
    <filter id="shadow" x="-50%" y="-50%" width="200%" height="200%">
      <feDropShadow dx="0" dy="8" stdDeviation="8" flood-color="#000" flood-opacity=".55"/>
    </filter>
  </defs>
  <rect width="720" height="260" rx="28" fill="url(#bg)"/>
  <ellipse cx="360" cy="112" rx="245" ry="130" fill="url(#halo)"/>
  <path d="M0 166 Q110 101 220 170 T445 157 T720 133 V260 H0 Z" fill="#0c1230" opacity=".67"/>
  <path d="M0 202 Q120 154 240 205 T480 190 T720 195 V260 H0 Z" fill="#001b0d" opacity=".62"/>
  <path d="M224 214 L241.5 170 L259 214 Z" fill="#0c1230" opacity="0.24"/><path d="M42 214 L61.5 156 L81 214 Z" fill="#9c7cff" opacity="0.41"/><path d="M605 214 L618 124 L631 214 Z" fill="#0c1230" opacity="0.20"/><path d="M618 214 L631 117 L644 214 Z" fill="#9c7cff" opacity="0.22"/><path d="M425 214 L436.5 113 L448 214 Z" fill="#0c1230" opacity="0.24"/><path d="M500 214 L517 170 L534 214 Z" fill="#9c7cff" opacity="0.29"/><path d="M142 214 L151.5 181 L161 214 Z" fill="#0c1230" opacity="0.37"/><path d="M256 214 L275 132 L294 214 Z" fill="#9c7cff" opacity="0.26"/><path d="M593 214 L610 163 L627 214 Z" fill="#0c1230" opacity="0.31"/><path d="M29 214 L41 116 L53 214 Z" fill="#9c7cff" opacity="0.25"/><path d="M676 214 L688.5 174 L701 214 Z" fill="#0c1230" opacity="0.41"/><path d="M302 214 L320 181 L338 214 Z" fill="#9c7cff" opacity="0.29"/><path d="M120 214 L136 180 L152 214 Z" fill="#0c1230" opacity="0.38"/><path d="M550 214 L569 142 L588 214 Z" fill="#9c7cff" opacity="0.26"/><path d="M138 214 L147 155 L156 214 Z" fill="#0c1230" opacity="0.16"/><path d="M97 214 L104 112 L111 214 Z" fill="#9c7cff" opacity="0.26"/><path d="M526 214 L533.5 179 L541 214 Z" fill="#0c1230" opacity="0.30"/><path d="M455 214 L471 124 L487 214 Z" fill="#9c7cff" opacity="0.18"/>
  <circle cx="403" cy="188" r="1.4" fill="#f1e7ff" opacity="0.29"/><circle cx="505" cy="181" r="1.7" fill="#f1e7ff" opacity="0.41"/><circle cx="454" cy="187" r="1.6" fill="#f1e7ff" opacity="0.79"/><circle cx="404" cy="197" r="1.9" fill="#f1e7ff" opacity="0.81"/><circle cx="165" cy="79" r="1.4" fill="#f1e7ff" opacity="0.51"/><circle cx="394" cy="172" r="2.9" fill="#f1e7ff" opacity="0.76"/><circle cx="85" cy="127" r="2.3" fill="#f1e7ff" opacity="0.50"/><circle cx="497" cy="116" r="1.1" fill="#f1e7ff" opacity="0.50"/><circle cx="638" cy="173" r="2.7" fill="#f1e7ff" opacity="0.75"/><circle cx="221" cy="173" r="0.9" fill="#f1e7ff" opacity="0.70"/><circle cx="326" cy="117" r="0.9" fill="#f1e7ff" opacity="0.50"/><circle cx="338" cy="79" r="1.5" fill="#f1e7ff" opacity="0.80"/><circle cx="82" cy="162" r="1.7" fill="#f1e7ff" opacity="0.69"/><circle cx="640" cy="98" r="2.7" fill="#f1e7ff" opacity="0.76"/><circle cx="192" cy="75" r="2.5" fill="#f1e7ff" opacity="0.86"/><circle cx="448" cy="40" r="2.7" fill="#f1e7ff" opacity="0.46"/><circle cx="656" cy="129" r="2.0" fill="#f1e7ff" opacity="0.68"/><circle cx="522" cy="123" r="1.6" fill="#f1e7ff" opacity="0.54"/><circle cx="237" cy="100" r="1.8" fill="#f1e7ff" opacity="0.50"/><circle cx="266" cy="104" r="2.0" fill="#f1e7ff" opacity="0.29"/><circle cx="304" cy="134" r="2.6" fill="#f1e7ff" opacity="0.69"/><circle cx="396" cy="80" r="1.7" fill="#f1e7ff" opacity="0.83"/>
  <g transform="translate(288 42)" filter="url(#shadow)">
    <path d="M21 17 H123 V53 C123 91 102 111 72 116 C42 111 21 91 21 53 Z" fill="url(#gold)" stroke="#fff1a0" stroke-width="3"/>
    <path d="M21 29 H4 V49 C4 76 21 88 43 88" fill="none" stroke="#f1e7ff" stroke-width="12" stroke-linecap="round"/>
    <path d="M123 29 H140 V49 C140 76 123 88 101 88" fill="none" stroke="#f1e7ff" stroke-width="12" stroke-linecap="round"/>
    <path d="M64 114 H80 V139 H111 V154 H33 V139 H64 Z" fill="url(#gold)"/>
    <path d="M72 43 L81 61 L101 64 L86 78 L90 98 L72 88 L54 98 L58 78 L43 64 L63 61 Z" fill="#303477" stroke="#f4ffb0" stroke-width="2"/>
  </g>
  <g opacity=".76">
    <path d="M45 232 C94 182 139 182 191 229 C143 218 98 219 45 232 Z" fill="#9c7cff"/>
    <path d="M675 232 C626 182 581 182 529 229 C577 218 622 219 675 232 Z" fill="#9c7cff"/>
  </g>
  <rect x="20" y="18" width="680" height="224" rx="24" fill="none" stroke="#9c7cff" stroke-opacity=".35" stroke-width="2"/>
  <text x="676" y="224" text-anchor="end" fill="#fff" opacity=".45" font-family="Arial, sans-serif" font-size="18" font-weight="700">09</text>
</svg>