<svg xmlns="http://www.w3.org/2000/svg" width="720" height="260" viewBox="0 0 720 260" role="img" aria-label="Forest Crown">
  <defs>
    <linearGradient id="bg" x1="0" y1="0" x2="1" y2="1">
      <stop offset="0" stop-color="#031f10"/>
      <stop offset="0.58" stop-color="#08753a"/>
      <stop offset="1" stop-color="#031f10"/>
    </linearGradient>
    <radialGradient id="halo">
      <stop offset="0" stop-color="#59e77f" stop-opacity=".52"/>
      <stop offset="1" stop-color="#59e77f" stop-opacity="0"/>
    </radialGradient>
    <linearGradient id="gold" x1="0" y1="0" x2="1" y2="1">
      <stop offset="0" stop-color="#fff39a"/>
      <stop offset=".38" stop-color="#f5ce48"/>
      <stop offset="1" stop-color="#9c5c05"/>
    </linearGradient>
    <filter id="shadow" x="-50%" y="-50%" width="200%" height="200%">
      <feDropShadow dx="0" dy="8" stdDeviation="8" flood-color="#000" flood-opacity=".55"/>
    </filter>
  </defs>
  <rect width="720" height="260" rx="28" fill="url(#bg)"/>
  <ellipse cx="360" cy="112" rx="245" ry="130" fill="url(#halo)"/>
  <path d="M0 168 Q110 103 220 172 T445 159 T720 135 V260 H0 Z" fill="#031f10" opacity=".67"/>
  <path d="M0 202 Q120 154 240 205 T480 190 T720 195 V260 H0 Z" fill="#001b0d" opacity=".62"/>
  <path d="M48 214 L57.5 120 L67 214 Z" fill="#031f10" opacity="0.19"/><path d="M707 214 L714 138 L721 214 Z" fill="#59e77f" opacity="0.23"/><path d="M453 214 L472.5 119 L492 214 Z" fill="#031f10" opacity="0.38"/><path d="M679 214 L697 178 L715 214 Z" fill="#59e77f" opacity="0.37"/><path d="M478 214 L490 146 L502 214 Z" fill="#031f10" opacity="0.34"/><path d="M688 214 L706 166 L724 214 Z" fill="#59e77f" opacity="0.36"/><path d="M423 214 L441 181 L459 214 Z" fill="#031f10" opacity="0.36"/><path d="M522 214 L541 152 L560 214 Z" fill="#59e77f" opacity="0.40"/><path d="M493 214 L512 164 L531 214 Z" fill="#031f10" opacity="0.38"/><path d="M141 214 L158 129 L175 214 Z" fill="#59e77f" opacity="0.32"/><path d="M34 214 L53 133 L72 214 Z" fill="#031f10" opacity="0.16"/><path d="M99 214 L108.5 128 L118 214 Z" fill="#59e77f" opacity="0.17"/><path d="M227 214 L240 167 L253 214 Z" fill="#031f10" opacity="0.32"/><path d="M390 214 L407.5 137 L425 214 Z" fill="#59e77f" opacity="0.39"/><path d="M168 214 L183.5 164 L199 214 Z" fill="#031f10" opacity="0.26"/><path d="M607 214 L626.5 182 L646 214 Z" fill="#59e77f" opacity="0.28"/><path d="M16 214 L29.5 136 L43 214 Z" fill="#031f10" opacity="0.20"/><path d="M675 214 L683 166 L691 214 Z" fill="#59e77f" opacity="0.41"/>
  <circle cx="400" cy="208" r="2.1" fill="#f5ce48" opacity="0.90"/><circle cx="35" cy="80" r="1.3" fill="#f5ce48" opacity="0.69"/><circle cx="269" cy="115" r="0.9" fill="#f5ce48" opacity="0.58"/><circle cx="187" cy="83" r="2.9" fill="#f5ce48" opacity="0.69"/><circle cx="312" cy="135" r="2.7" fill="#f5ce48" opacity="0.78"/><circle cx="139" cy="113" r="2.6" fill="#f5ce48" opacity="0.86"/><circle cx="568" cy="195" r="2.2" fill="#f5ce48" opacity="0.85"/><circle cx="63" cy="152" r="1.9" fill="#f5ce48" opacity="0.45"/><circle cx="63" cy="187" r="1.6" fill="#f5ce48" opacity="0.26"/><circle cx="662" cy="148" r="2.9" fill="#f5ce48" opacity="0.63"/><circle cx="373" cy="192" r="2.7" fill="#f5ce48" opacity="0.77"/><circle cx="380" cy="153" r="2.0" fill="#f5ce48" opacity="0.73"/><circle cx="225" cy="48" r="1.2" fill="#f5ce48" opacity="0.87"/><circle cx="646" cy="183" r="1.7" fill="#f5ce48" opacity="0.28"/><circle cx="164" cy="171" r="2.2" fill="#f5ce48" opacity="0.70"/><circle cx="114" cy="182" r="1.6" fill="#f5ce48" opacity="0.54"/><circle cx="303" cy="192" r="2.6" fill="#f5ce48" opacity="0.41"/><circle cx="330" cy="102" r="2.7" fill="#f5ce48" opacity="0.80"/><circle cx="652" cy="185" r="1.6" fill="#f5ce48" opacity="0.58"/><circle cx="397" cy="83" r="2.1" fill="#f5ce48" opacity="0.61"/><circle cx="651" cy="89" r="2.0" fill="#f5ce48" opacity="0.76"/><circle cx="347" cy="169" r="1.1" fill="#f5ce48" opacity="0.73"/>
  <g transform="translate(288 42)" filter="url(#shadow)">
    <path d="M21 17 H123 V53 C123 91 102 111 72 116 C42 111 21 91 21 53 Z" fill="url(#gold)" stroke="#fff1a0" stroke-width="3"/>
    <path d="M21 29 H4 V49 C4 76 21 88 43 88" fill="none" stroke="#f5ce48" stroke-width="12" stroke-linecap="round"/>
    <path d="M123 29 H140 V49 C140 76 123 88 101 88" fill="none" stroke="#f5ce48" stroke-width="12" stroke-linecap="round"/>
    <path d="M64 114 H80 V139 H111 V154 H33 V139 H64 Z" fill="url(#gold)"/>
    <path d="M72 43 L81 61 L101 64 L86 78 L90 98 L72 88 L54 98 L58 78 L43 64 L63 61 Z" fill="#08753a" stroke="#f4ffb0" stroke-width="2"/>
  </g>
  <g opacity=".76">
    <path d="M45 232 C94 182 139 182 191 229 C143 218 98 219 45 232 Z" fill="#59e77f"/>
    <path d="M675 232 C626 182 581 182 529 229 C577 218 622 219 675 232 Z" fill="#59e77f"/>
  </g>
  <rect x="20" y="18" width="680" height="224" rx="24" fill="none" stroke="#59e77f" stroke-opacity=".35" stroke-width="2"/>
  <text x="676" y="224" text-anchor="end" fill="#fff" opacity=".45" font-family="Arial, sans-serif" font-size="18" font-weight="700">05</text>
</svg>