<svg xmlns="http://www.w3.org/2000/svg" width="720" height="260" viewBox="0 0 720 260" role="img" aria-label="Moonlight Royale">
  <defs>
    <linearGradient id="bg" x1="0" y1="0" x2="1" y2="1">
      <stop offset="0" stop-color="#0c1230"/>
      <stop offset="0.58" stop-color="#303477"/>
      <stop offset="1" stop-color="#0c1230"/>
    </linearGradient>
    <radialGradient id="halo">
      <stop offset="0" stop-color="#9c7cff" stop-opacity=".52"/>
      <stop offset="1" stop-color="#9c7cff" stop-opacity="0"/>
    </radialGradient>
    <linearGradient id="gold" x1="0" y1="0" x2="1" y2="1">
      <stop offset="0" stop-color="#fff39a"/>
      <stop offset=".38" stop-color="#f1e7ff"/>
      <stop offset="1" stop-color="#9c5c05"/>
    </linearGradient>
    <filter id="shadow" x="-50%" y="-50%" width="200%" height="200%">
      <feDropShadow dx="0" dy="8" stdDeviation="8" flood-color="#000" flood-opacity=".55"/>
    </filter>
  </defs>
  <rect width="720" height="260" rx="28" fill="url(#bg)"/>
  <ellipse cx="360" cy="112" rx="245" ry="130" fill="url(#halo)"/>
  <path d="M0 161 Q110 96 220 165 T445 152 T720 128 V260 H0 Z" fill="#0c1230" opacity=".67"/>
  <path d="M0 202 Q120 154 240 205 T480 190 T720 195 V260 H0 Z" fill="#001b0d" opacity=".62"/>
  <path d="M173 214 L188.5 134 L204 214 Z" fill="#0c1230" opacity="0.25"/><path d="M482 214 L495.5 132 L509 214 Z" fill="#9c7cff" opacity="0.29"/><path d="M278 214 L296 127 L314 214 Z" fill="#0c1230" opacity="0.24"/><path d="M673 214 L691.5 139 L710 214 Z" fill="#9c7cff" opacity="0.41"/><path d="M535 214 L551 123 L567 214 Z" fill="#0c1230" opacity="0.36"/><path d="M114 214 L128.5 115 L143 214 Z" fill="#9c7cff" opacity="0.29"/><path d="M15 214 L23 113 L31 214 Z" fill="#0c1230" opacity="0.35"/><path d="M411 214 L429.5 122 L448 214 Z" fill="#9c7cff" opacity="0.16"/><path d="M498 214 L513 138 L528 214 Z" fill="#0c1230" opacity="0.19"/><path d="M545 214 L557 179 L569 214 Z" fill="#9c7cff" opacity="0.23"/><path d="M419 214 L437.5 173 L456 214 Z" fill="#0c1230" opacity="0.40"/><path d="M203 214 L211.5 127 L220 214 Z" fill="#9c7cff" opacity="0.20"/><path d="M4 214 L13.5 146 L23 214 Z" fill="#0c1230" opacity="0.16"/><path d="M617 214 L626 183 L635 214 Z" fill="#9c7cff" opacity="0.30"/><path d="M341 214 L359.5 132 L378 214 Z" fill="#0c1230" opacity="0.30"/><path d="M55 214 L62.5 178 L70 214 Z" fill="#9c7cff" opacity="0.41"/><path d="M691 214 L706 182 L721 214 Z" fill="#0c1230" opacity="0.23"/><path d="M519 214 L526.5 144 L534 214 Z" fill="#9c7cff" opacity="0.19"/>
  <circle cx="517" cy="189" r="2.1" fill="#f1e7ff" opacity="0.33"/><circle cx="436" cy="92" r="0.9" fill="#f1e7ff" opacity="0.42"/><circle cx="524" cy="28" r="2.7" fill="#f1e7ff" opacity="0.61"/><circle cx="49" cy="116" r="2.7" fill="#f1e7ff" opacity="0.46"/><circle cx="418" cy="188" r="2.5" fill="#f1e7ff" opacity="0.28"/><circle cx="535" cy="130" r="1.3" fill="#f1e7ff" opacity="0.83"/><circle cx="32" cy="61" r="1.8" fill="#f1e7ff" opacity="0.31"/><circle cx="365" cy="50" r="1.5" fill="#f1e7ff" opacity="0.88"/><circle cx="40" cy="77" r="1.5" fill="#f1e7ff" opacity="0.38"/><circle cx="126" cy="44" r="2.3" fill="#f1e7ff" opacity="0.64"/><circle cx="356" cy="56" r="2.5" fill="#f1e7ff" opacity="0.66"/><circle cx="263" cy="110" r="0.8" fill="#f1e7ff" opacity="0.39"/><circle cx="274" cy="97" r="2.2" fill="#f1e7ff" opacity="0.82"/><circle cx="557" cy="88" r="1.4" fill="#f1e7ff" opacity="0.83"/><circle cx="348" cy="197" r="0.9" fill="#f1e7ff" opacity="0.36"/><circle cx="668" cy="110" r="2.0" fill="#f1e7ff" opacity="0.45"/><circle cx="575" cy="109" r="1.4" fill="#f1e7ff" opacity="0.59"/><circle cx="385" cy="170" r="0.9" fill="#f1e7ff" opacity="0.71"/><circle cx="328" cy="33" r="1.7" fill="#f1e7ff" opacity="0.79"/><circle cx="248" cy="119" r="1.9" fill="#f1e7ff" opacity="0.51"/><circle cx="699" cy="28" r="1.6" fill="#f1e7ff" opacity="0.64"/><circle cx="524" cy="108" r="3.0" fill="#f1e7ff" opacity="0.48"/>
  <g transform="translate(288 42)" filter="url(#shadow)">
    <path d="M21 17 H123 V53 C123 91 102 111 72 116 C42 111 21 91 21 53 Z" fill="url(#gold)" stroke="#fff1a0" stroke-width="3"/>
    <path d="M21 29 H4 V49 C4 76 21 88 43 88" fill="none" stroke="#f1e7ff" stroke-width="12" stroke-linecap="round"/>
    <path d="M123 29 H140 V49 C140 76 123 88 101 88" fill="none" stroke="#f1e7ff" stroke-width="12" stroke-linecap="round"/>
    <path d="M64 114 H80 V139 H111 V154 H33 V139 H64 Z" fill="url(#gold)"/>
    <path d="M72 43 L81 61 L101 64 L86 78 L90 98 L72 88 L54 98 L58 78 L43 64 L63 61 Z" fill="#303477" stroke="#f4ffb0" stroke-width="2"/>
  </g>
  <g opacity=".76">
    <path d="M45 232 C94 182 139 182 191 229 C143 218 98 219 45 232 Z" fill="#9c7cff"/>
    <path d="M675 232 C626 182 581 182 529 229 C577 218 622 219 675 232 Z" fill="#9c7cff"/>
  </g>
  <rect x="20" y="18" width="680" height="224" rx="24" fill="none" stroke="#9c7cff" stroke-opacity=".35" stroke-width="2"/>
  <text x="676" y="224" text-anchor="end" fill="#fff" opacity=".45" font-family="Arial, sans-serif" font-size="18" font-weight="700">06</text>
</svg>