<svg xmlns="http://www.w3.org/2000/svg" width="720" height="260" viewBox="0 0 720 260" role="img" aria-label="Crystal League">
  <defs>
    <linearGradient id="bg" x1="0" y1="0" x2="1" y2="1">
      <stop offset="0" stop-color="#07152f"/>
      <stop offset="0.58" stop-color="#173c90"/>
      <stop offset="1" stop-color="#07152f"/>
    </linearGradient>
    <radialGradient id="halo">
      <stop offset="0" stop-color="#4ec9ff" stop-opacity=".52"/>
      <stop offset="1" stop-color="#4ec9ff" stop-opacity="0"/>
    </radialGradient>
    <linearGradient id="gold" x1="0" y1="0" x2="1" y2="1">
      <stop offset="0" stop-color="#fff39a"/>
      <stop offset=".38" stop-color="#bdf1ff"/>
      <stop offset="1" stop-color="#9c5c05"/>
    </linearGradient>
    <filter id="shadow" x="-50%" y="-50%" width="200%" height="200%">
      <feDropShadow dx="0" dy="8" stdDeviation="8" flood-color="#000" flood-opacity=".55"/>
    </filter>
  </defs>
  <rect width="720" height="260" rx="28" fill="url(#bg)"/>
  <ellipse cx="360" cy="112" rx="245" ry="130" fill="url(#halo)"/>
  <path d="M0 165 Q110 100 220 169 T445 156 T720 132 V260 H0 Z" fill="#07152f" opacity=".67"/>
  <path d="M0 202 Q120 154 240 205 T480 190 T720 195 V260 H0 Z" fill="#001b0d" opacity=".62"/>
  <path d="M296 214 L306 162 L316 214 Z" fill="#07152f" opacity="0.35"/><path d="M514 214 L532.5 166 L551 214 Z" fill="#4ec9ff" opacity="0.25"/><path d="M147 214 L157 143 L167 214 Z" fill="#07152f" opacity="0.16"/><path d="M550 214 L563 163 L576 214 Z" fill="#4ec9ff" opacity="0.38"/><path d="M580 214 L597.5 156 L615 214 Z" fill="#07152f" opacity="0.36"/><path d="M392 214 L408.5 151 L425 214 Z" fill="#4ec9ff" opacity="0.19"/><path d="M684 214 L694 144 L704 214 Z" fill="#07152f" opacity="0.20"/><path d="M617 214 L625.5 118 L634 214 Z" fill="#4ec9ff" opacity="0.17"/><path d="M28 214 L35 157 L42 214 Z" fill="#07152f" opacity="0.19"/><path d="M175 214 L192 118 L209 214 Z" fill="#4ec9ff" opacity="0.16"/><path d="M316 214 L332 145 L348 214 Z" fill="#07152f" opacity="0.25"/><path d="M595 214 L602 149 L609 214 Z" fill="#4ec9ff" opacity="0.27"/><path d="M246 214 L258 161 L270 214 Z" fill="#07152f" opacity="0.27"/><path d="M499 214 L511.5 142 L524 214 Z" fill="#4ec9ff" opacity="0.22"/><path d="M134 214 L143.5 180 L153 214 Z" fill="#07152f" opacity="0.20"/><path d="M614 214 L629 147 L644 214 Z" fill="#4ec9ff" opacity="0.21"/><path d="M469 214 L477 183 L485 214 Z" fill="#07152f" opacity="0.21"/><path d="M544 214 L555.5 138 L567 214 Z" fill="#4ec9ff" opacity="0.20"/>
  <circle cx="154" cy="113" r="2.0" fill="#bdf1ff" opacity="0.35"/><circle cx="273" cy="95" r="1.4" fill="#bdf1ff" opacity="0.69"/><circle cx="144" cy="78" r="1.8" fill="#bdf1ff" opacity="0.28"/><circle cx="586" cy="160" r="1.7" fill="#bdf1ff" opacity="0.32"/><circle cx="383" cy="117" r="2.9" fill="#bdf1ff" opacity="0.71"/><circle cx="455" cy="152" r="2.9" fill="#bdf1ff" opacity="0.85"/><circle cx="690" cy="111" r="1.5" fill="#bdf1ff" opacity="0.88"/><circle cx="312" cy="100" r="2.5" fill="#bdf1ff" opacity="0.39"/><circle cx="616" cy="77" r="1.1" fill="#bdf1ff" opacity="0.76"/><circle cx="224" cy="106" r="1.9" fill="#bdf1ff" opacity="0.75"/><circle cx="368" cy="107" r="1.0" fill="#bdf1ff" opacity="0.85"/><circle cx="505" cy="85" r="1.0" fill="#bdf1ff" opacity="0.36"/><circle cx="79" cy="186" r="1.5" fill="#bdf1ff" opacity="0.74"/><circle cx="659" cy="121" r="2.7" fill="#bdf1ff" opacity="0.59"/><circle cx="138" cy="56" r="2.1" fill="#bdf1ff" opacity="0.68"/><circle cx="77" cy="138" r="1.7" fill="#bdf1ff" opacity="0.32"/><circle cx="543" cy="101" r="1.6" fill="#bdf1ff" opacity="0.42"/><circle cx="466" cy="189" r="2.4" fill="#bdf1ff" opacity="0.77"/><circle cx="637" cy="197" r="1.6" fill="#bdf1ff" opacity="0.64"/><circle cx="513" cy="49" r="1.4" fill="#bdf1ff" opacity="0.47"/><circle cx="586" cy="138" r="2.5" fill="#bdf1ff" opacity="0.88"/><circle cx="439" cy="196" r="0.8" fill="#bdf1ff" opacity="0.47"/>
  <g transform="translate(288 42)" filter="url(#shadow)">
    <path d="M21 17 H123 V53 C123 91 102 111 72 116 C42 111 21 91 21 53 Z" fill="url(#gold)" stroke="#fff1a0" stroke-width="3"/>
    <path d="M21 29 H4 V49 C4 76 21 88 43 88" fill="none" stroke="#bdf1ff" stroke-width="12" stroke-linecap="round"/>
    <path d="M123 29 H140 V49 C140 76 123 88 101 88" fill="none" stroke="#bdf1ff" stroke-width="12" stroke-linecap="round"/>
    <path d="M64 114 H80 V139 H111 V154 H33 V139 H64 Z" fill="url(#gold)"/>
    <path d="M72 43 L81 61 L101 64 L86 78 L90 98 L72 88 L54 98 L58 78 L43 64 L63 61 Z" fill="#173c90" stroke="#f4ffb0" stroke-width="2"/>
  </g>
  <g opacity=".76">
    <path d="M45 232 C94 182 139 182 191 229 C143 218 98 219 45 232 Z" fill="#4ec9ff"/>
    <path d="M675 232 C626 182 581 182 529 229 C577 218 622 219 675 232 Z" fill="#4ec9ff"/>
  </g>
  <rect x="20" y="18" width="680" height="224" rx="24" fill="none" stroke="#4ec9ff" stroke-opacity=".35" stroke-width="2"/>
  <text x="676" y="224" text-anchor="end" fill="#fff" opacity=".45" font-family="Arial, sans-serif" font-size="18" font-weight="700">05</text>
</svg>