<svg xmlns="http://www.w3.org/2000/svg" width="720" height="260" viewBox="0 0 720 260" role="img" aria-label="Forest Crown">
  <defs>
    <linearGradient id="bg" x1="0" y1="0" x2="1" y2="1">
      <stop offset="0" stop-color="#031f10"/>
      <stop offset="0.58" stop-color="#08753a"/>
      <stop offset="1" stop-color="#031f10"/>
    </linearGradient>
    <radialGradient id="halo">
      <stop offset="0" stop-color="#59e77f" stop-opacity=".52"/>
      <stop offset="1" stop-color="#59e77f" stop-opacity="0"/>
    </radialGradient>
    <linearGradient id="gold" x1="0" y1="0" x2="1" y2="1">
      <stop offset="0" stop-color="#fff39a"/>
      <stop offset=".38" stop-color="#f5ce48"/>
      <stop offset="1" stop-color="#9c5c05"/>
    </linearGradient>
    <filter id="shadow" x="-50%" y="-50%" width="200%" height="200%">
      <feDropShadow dx="0" dy="8" stdDeviation="8" flood-color="#000" flood-opacity=".55"/>
    </filter>
  </defs>
  <rect width="720" height="260" rx="28" fill="url(#bg)"/>
  <ellipse cx="360" cy="112" rx="245" ry="130" fill="url(#halo)"/>
  <path d="M0 146 Q110 81 220 150 T445 137 T720 113 V260 H0 Z" fill="#031f10" opacity=".67"/>
  <path d="M0 202 Q120 154 240 205 T480 190 T720 195 V260 H0 Z" fill="#001b0d" opacity=".62"/>
  <path d="M99 214 L110.5 157 L122 214 Z" fill="#031f10" opacity="0.18"/><path d="M267 214 L280 162 L293 214 Z" fill="#59e77f" opacity="0.34"/><path d="M60 214 L74.5 116 L89 214 Z" fill="#031f10" opacity="0.33"/><path d="M625 214 L637.5 156 L650 214 Z" fill="#59e77f" opacity="0.18"/><path d="M368 214 L375.5 136 L383 214 Z" fill="#031f10" opacity="0.22"/><path d="M353 214 L361 149 L369 214 Z" fill="#59e77f" opacity="0.36"/><path d="M550 214 L569.5 176 L589 214 Z" fill="#031f10" opacity="0.38"/><path d="M367 214 L386 162 L405 214 Z" fill="#59e77f" opacity="0.26"/><path d="M587 214 L595.5 117 L604 214 Z" fill="#031f10" opacity="0.25"/><path d="M345 214 L362 138 L379 214 Z" fill="#59e77f" opacity="0.35"/><path d="M291 214 L304 133 L317 214 Z" fill="#031f10" opacity="0.17"/><path d="M198 214 L217 182 L236 214 Z" fill="#59e77f" opacity="0.25"/><path d="M343 214 L350 129 L357 214 Z" fill="#031f10" opacity="0.29"/><path d="M324 214 L338.5 168 L353 214 Z" fill="#59e77f" opacity="0.35"/><path d="M685 214 L703.5 115 L722 214 Z" fill="#031f10" opacity="0.38"/><path d="M649 214 L668 116 L687 214 Z" fill="#59e77f" opacity="0.38"/><path d="M571 214 L589.5 133 L608 214 Z" fill="#031f10" opacity="0.26"/><path d="M611 214 L628 145 L645 214 Z" fill="#59e77f" opacity="0.40"/>
  <circle cx="286" cy="208" r="1.4" fill="#f5ce48" opacity="0.85"/><circle cx="103" cy="169" r="2.1" fill="#f5ce48" opacity="0.68"/><circle cx="199" cy="84" r="2.0" fill="#f5ce48" opacity="0.76"/><circle cx="543" cy="164" r="2.1" fill="#f5ce48" opacity="0.40"/><circle cx="59" cy="27" r="1.6" fill="#f5ce48" opacity="0.36"/><circle cx="678" cy="154" r="2.0" fill="#f5ce48" opacity="0.80"/><circle cx="621" cy="71" r="2.7" fill="#f5ce48" opacity="0.39"/><circle cx="196" cy="28" r="1.5" fill="#f5ce48" opacity="0.72"/><circle cx="662" cy="93" r="2.8" fill="#f5ce48" opacity="0.63"/><circle cx="76" cy="88" r="1.5" fill="#f5ce48" opacity="0.69"/><circle cx="343" cy="63" r="1.1" fill="#f5ce48" opacity="0.61"/><circle cx="454" cy="122" r="2.7" fill="#f5ce48" opacity="0.48"/><circle cx="32" cy="113" r="2.9" fill="#f5ce48" opacity="0.74"/><circle cx="49" cy="194" r="0.8" fill="#f5ce48" opacity="0.86"/><circle cx="688" cy="49" r="1.6" fill="#f5ce48" opacity="0.55"/><circle cx="573" cy="111" r="2.3" fill="#f5ce48" opacity="0.54"/><circle cx="384" cy="22" r="1.0" fill="#f5ce48" opacity="0.50"/><circle cx="467" cy="55" r="1.2" fill="#f5ce48" opacity="0.64"/><circle cx="561" cy="62" r="1.7" fill="#f5ce48" opacity="0.29"/><circle cx="414" cy="68" r="2.2" fill="#f5ce48" opacity="0.39"/><circle cx="256" cy="194" r="3.0" fill="#f5ce48" opacity="0.81"/><circle cx="219" cy="140" r="2.0" fill="#f5ce48" opacity="0.44"/>
  <g transform="translate(288 42)" filter="url(#shadow)">
    <path d="M21 17 H123 V53 C123 91 102 111 72 116 C42 111 21 91 21 53 Z" fill="url(#gold)" stroke="#fff1a0" stroke-width="3"/>
    <path d="M21 29 H4 V49 C4 76 21 88 43 88" fill="none" stroke="#f5ce48" stroke-width="12" stroke-linecap="round"/>
    <path d="M123 29 H140 V49 C140 76 123 88 101 88" fill="none" stroke="#f5ce48" stroke-width="12" stroke-linecap="round"/>
    <path d="M64 114 H80 V139 H111 V154 H33 V139 H64 Z" fill="url(#gold)"/>
    <path d="M72 43 L81 61 L101 64 L86 78 L90 98 L72 88 L54 98 L58 78 L43 64 L63 61 Z" fill="#08753a" stroke="#f4ffb0" stroke-width="2"/>
  </g>
  <g opacity=".76">
    <path d="M45 232 C94 182 139 182 191 229 C143 218 98 219 45 232 Z" fill="#59e77f"/>
    <path d="M675 232 C626 182 581 182 529 229 C577 218 622 219 675 232 Z" fill="#59e77f"/>
  </g>
  <rect x="20" y="18" width="680" height="224" rx="24" fill="none" stroke="#59e77f" stroke-opacity=".35" stroke-width="2"/>
  <text x="676" y="224" text-anchor="end" fill="#fff" opacity=".45" font-family="Arial, sans-serif" font-size="18" font-weight="700">08</text>
</svg>