<svg xmlns="http://www.w3.org/2000/svg" width="720" height="260" viewBox="0 0 720 260" role="img" aria-label="Desert Arena">
  <defs>
    <linearGradient id="bg" x1="0" y1="0" x2="1" y2="1">
      <stop offset="0" stop-color="#381508"/>
      <stop offset="0.58" stop-color="#a44214"/>
      <stop offset="1" stop-color="#381508"/>
    </linearGradient>
    <radialGradient id="halo">
      <stop offset="0" stop-color="#ffad35" stop-opacity=".52"/>
      <stop offset="1" stop-color="#ffad35" stop-opacity="0"/>
    </radialGradient>
    <linearGradient id="gold" x1="0" y1="0" x2="1" y2="1">
      <stop offset="0" stop-color="#fff39a"/>
      <stop offset=".38" stop-color="#ffd35a"/>
      <stop offset="1" stop-color="#9c5c05"/>
    </linearGradient>
    <filter id="shadow" x="-50%" y="-50%" width="200%" height="200%">
      <feDropShadow dx="0" dy="8" stdDeviation="8" flood-color="#000" flood-opacity=".55"/>
    </filter>
  </defs>
  <rect width="720" height="260" rx="28" fill="url(#bg)"/>
  <ellipse cx="360" cy="112" rx="245" ry="130" fill="url(#halo)"/>
  <path d="M0 157 Q110 92 220 161 T445 148 T720 124 V260 H0 Z" fill="#381508" opacity=".67"/>
  <path d="M0 202 Q120 154 240 205 T480 190 T720 195 V260 H0 Z" fill="#001b0d" opacity=".62"/>
  <path d="M421 214 L437 176 L453 214 Z" fill="#381508" opacity="0.17"/><path d="M288 214 L300.5 160 L313 214 Z" fill="#ffad35" opacity="0.31"/><path d="M692 214 L701 151 L710 214 Z" fill="#381508" opacity="0.28"/><path d="M543 214 L556.5 123 L570 214 Z" fill="#ffad35" opacity="0.17"/><path d="M637 214 L646 133 L655 214 Z" fill="#381508" opacity="0.38"/><path d="M539 214 L552 172 L565 214 Z" fill="#ffad35" opacity="0.38"/><path d="M276 214 L288.5 149 L301 214 Z" fill="#381508" opacity="0.19"/><path d="M505 214 L513 160 L521 214 Z" fill="#ffad35" opacity="0.18"/><path d="M34 214 L49.5 130 L65 214 Z" fill="#381508" opacity="0.25"/><path d="M579 214 L591 169 L603 214 Z" fill="#ffad35" opacity="0.31"/><path d="M702 214 L717.5 113 L733 214 Z" fill="#381508" opacity="0.23"/><path d="M699 214 L717.5 148 L736 214 Z" fill="#ffad35" opacity="0.30"/><path d="M24 214 L32.5 139 L41 214 Z" fill="#381508" opacity="0.37"/><path d="M6 214 L23 116 L40 214 Z" fill="#ffad35" opacity="0.38"/><path d="M307 214 L319.5 148 L332 214 Z" fill="#381508" opacity="0.23"/><path d="M62 214 L77.5 143 L93 214 Z" fill="#ffad35" opacity="0.34"/><path d="M423 214 L432.5 157 L442 214 Z" fill="#381508" opacity="0.24"/><path d="M388 214 L399 117 L410 214 Z" fill="#ffad35" opacity="0.23"/>
  <circle cx="271" cy="94" r="2.0" fill="#ffd35a" opacity="0.43"/><circle cx="674" cy="107" r="1.0" fill="#ffd35a" opacity="0.42"/><circle cx="399" cy="181" r="1.4" fill="#ffd35a" opacity="0.32"/><circle cx="448" cy="193" r="1.5" fill="#ffd35a" opacity="0.73"/><circle cx="489" cy="170" r="2.6" fill="#ffd35a" opacity="0.86"/><circle cx="171" cy="169" r="1.6" fill="#ffd35a" opacity="0.82"/><circle cx="154" cy="167" r="1.1" fill="#ffd35a" opacity="0.34"/><circle cx="614" cy="188" r="2.2" fill="#ffd35a" opacity="0.82"/><circle cx="593" cy="156" r="1.0" fill="#ffd35a" opacity="0.88"/><circle cx="369" cy="192" r="1.3" fill="#ffd35a" opacity="0.76"/><circle cx="351" cy="161" r="3.0" fill="#ffd35a" opacity="0.74"/><circle cx="389" cy="42" r="2.1" fill="#ffd35a" opacity="0.68"/><circle cx="129" cy="45" r="2.5" fill="#ffd35a" opacity="0.69"/><circle cx="571" cy="26" r="2.4" fill="#ffd35a" opacity="0.49"/><circle cx="322" cy="81" r="0.8" fill="#ffd35a" opacity="0.33"/><circle cx="632" cy="67" r="2.1" fill="#ffd35a" opacity="0.89"/><circle cx="135" cy="207" r="2.6" fill="#ffd35a" opacity="0.61"/><circle cx="521" cy="67" r="2.9" fill="#ffd35a" opacity="0.68"/><circle cx="313" cy="44" r="1.7" fill="#ffd35a" opacity="0.85"/><circle cx="364" cy="85" r="1.1" fill="#ffd35a" opacity="0.37"/><circle cx="633" cy="78" r="2.1" fill="#ffd35a" opacity="0.75"/><circle cx="616" cy="135" r="2.8" fill="#ffd35a" opacity="0.86"/>
  <g transform="translate(288 42)" filter="url(#shadow)">
    <path d="M21 17 H123 V53 C123 91 102 111 72 116 C42 111 21 91 21 53 Z" fill="url(#gold)" stroke="#fff1a0" stroke-width="3"/>
    <path d="M21 29 H4 V49 C4 76 21 88 43 88" fill="none" stroke="#ffd35a" stroke-width="12" stroke-linecap="round"/>
    <path d="M123 29 H140 V49 C140 76 123 88 101 88" fill="none" stroke="#ffd35a" stroke-width="12" stroke-linecap="round"/>
    <path d="M64 114 H80 V139 H111 V154 H33 V139 H64 Z" fill="url(#gold)"/>
    <path d="M72 43 L81 61 L101 64 L86 78 L90 98 L72 88 L54 98 L58 78 L43 64 L63 61 Z" fill="#a44214" stroke="#f4ffb0" stroke-width="2"/>
  </g>
  <g opacity=".76">
    <path d="M45 232 C94 182 139 182 191 229 C143 218 98 219 45 232 Z" fill="#ffad35"/>
    <path d="M675 232 C626 182 581 182 529 229 C577 218 622 219 675 232 Z" fill="#ffad35"/>
  </g>
  <rect x="20" y="18" width="680" height="224" rx="24" fill="none" stroke="#ffad35" stroke-opacity=".35" stroke-width="2"/>
  <text x="676" y="224" text-anchor="end" fill="#fff" opacity=".45" font-family="Arial, sans-serif" font-size="18" font-weight="700">07</text>
</svg>