<svg xmlns="http://www.w3.org/2000/svg" width="720" height="260" viewBox="0 0 720 260" role="img" aria-label="Desert Arena">
  <defs>
    <linearGradient id="bg" x1="0" y1="0" x2="1" y2="1">
      <stop offset="0" stop-color="#381508"/>
      <stop offset="0.58" stop-color="#a44214"/>
      <stop offset="1" stop-color="#381508"/>
    </linearGradient>
    <radialGradient id="halo">
      <stop offset="0" stop-color="#ffad35" stop-opacity=".52"/>
      <stop offset="1" stop-color="#ffad35" stop-opacity="0"/>
    </radialGradient>
    <linearGradient id="gold" x1="0" y1="0" x2="1" y2="1">
      <stop offset="0" stop-color="#fff39a"/>
      <stop offset=".38" stop-color="#ffd35a"/>
      <stop offset="1" stop-color="#9c5c05"/>
    </linearGradient>
    <filter id="shadow" x="-50%" y="-50%" width="200%" height="200%">
      <feDropShadow dx="0" dy="8" stdDeviation="8" flood-color="#000" flood-opacity=".55"/>
    </filter>
  </defs>
  <rect width="720" height="260" rx="28" fill="url(#bg)"/>
  <ellipse cx="360" cy="112" rx="245" ry="130" fill="url(#halo)"/>
  <path d="M0 163 Q110 98 220 167 T445 154 T720 130 V260 H0 Z" fill="#381508" opacity=".67"/>
  <path d="M0 202 Q120 154 240 205 T480 190 T720 195 V260 H0 Z" fill="#001b0d" opacity=".62"/>
  <path d="M472 214 L490 140 L508 214 Z" fill="#381508" opacity="0.41"/><path d="M568 214 L586 184 L604 214 Z" fill="#ffad35" opacity="0.18"/><path d="M299 214 L315.5 148 L332 214 Z" fill="#381508" opacity="0.24"/><path d="M489 214 L497 173 L505 214 Z" fill="#ffad35" opacity="0.23"/><path d="M526 214 L543 124 L560 214 Z" fill="#381508" opacity="0.26"/><path d="M204 214 L219.5 155 L235 214 Z" fill="#ffad35" opacity="0.38"/><path d="M403 214 L416.5 144 L430 214 Z" fill="#381508" opacity="0.20"/><path d="M350 214 L358.5 170 L367 214 Z" fill="#ffad35" opacity="0.28"/><path d="M129 214 L146 155 L163 214 Z" fill="#381508" opacity="0.37"/><path d="M63 214 L75 178 L87 214 Z" fill="#ffad35" opacity="0.34"/><path d="M239 214 L248.5 114 L258 214 Z" fill="#381508" opacity="0.24"/><path d="M78 214 L93.5 130 L109 214 Z" fill="#ffad35" opacity="0.38"/><path d="M140 214 L155 174 L170 214 Z" fill="#381508" opacity="0.34"/><path d="M659 214 L673.5 147 L688 214 Z" fill="#ffad35" opacity="0.34"/><path d="M104 214 L119.5 171 L135 214 Z" fill="#381508" opacity="0.35"/><path d="M104 214 L119.5 149 L135 214 Z" fill="#ffad35" opacity="0.19"/><path d="M258 214 L272.5 154 L287 214 Z" fill="#381508" opacity="0.31"/><path d="M325 214 L332 168 L339 214 Z" fill="#ffad35" opacity="0.22"/>
  <circle cx="158" cy="93" r="1.2" fill="#ffd35a" opacity="0.39"/><circle cx="63" cy="195" r="1.8" fill="#ffd35a" opacity="0.40"/><circle cx="328" cy="151" r="2.5" fill="#ffd35a" opacity="0.50"/><circle cx="123" cy="84" r="2.8" fill="#ffd35a" opacity="0.44"/><circle cx="236" cy="61" r="1.6" fill="#ffd35a" opacity="0.44"/><circle cx="30" cy="20" r="1.0" fill="#ffd35a" opacity="0.75"/><circle cx="207" cy="43" r="1.7" fill="#ffd35a" opacity="0.53"/><circle cx="66" cy="63" r="1.8" fill="#ffd35a" opacity="0.43"/><circle cx="511" cy="62" r="2.2" fill="#ffd35a" opacity="0.60"/><circle cx="463" cy="132" r="2.1" fill="#ffd35a" opacity="0.81"/><circle cx="321" cy="33" r="1.3" fill="#ffd35a" opacity="0.58"/><circle cx="463" cy="200" r="2.7" fill="#ffd35a" opacity="0.43"/><circle cx="616" cy="109" r="2.0" fill="#ffd35a" opacity="0.56"/><circle cx="654" cy="37" r="1.5" fill="#ffd35a" opacity="0.42"/><circle cx="166" cy="150" r="2.4" fill="#ffd35a" opacity="0.84"/><circle cx="411" cy="187" r="2.9" fill="#ffd35a" opacity="0.89"/><circle cx="216" cy="37" r="1.0" fill="#ffd35a" opacity="0.70"/><circle cx="659" cy="20" r="1.4" fill="#ffd35a" opacity="0.52"/><circle cx="222" cy="111" r="1.9" fill="#ffd35a" opacity="0.56"/><circle cx="382" cy="70" r="1.2" fill="#ffd35a" opacity="0.80"/><circle cx="238" cy="183" r="0.9" fill="#ffd35a" opacity="0.80"/><circle cx="488" cy="107" r="1.5" fill="#ffd35a" opacity="0.56"/>
  <g transform="translate(288 42)" filter="url(#shadow)">
    <path d="M21 17 H123 V53 C123 91 102 111 72 116 C42 111 21 91 21 53 Z" fill="url(#gold)" stroke="#fff1a0" stroke-width="3"/>
    <path d="M21 29 H4 V49 C4 76 21 88 43 88" fill="none" stroke="#ffd35a" stroke-width="12" stroke-linecap="round"/>
    <path d="M123 29 H140 V49 C140 76 123 88 101 88" fill="none" stroke="#ffd35a" stroke-width="12" stroke-linecap="round"/>
    <path d="M64 114 H80 V139 H111 V154 H33 V139 H64 Z" fill="url(#gold)"/>
    <path d="M72 43 L81 61 L101 64 L86 78 L90 98 L72 88 L54 98 L58 78 L43 64 L63 61 Z" fill="#a44214" stroke="#f4ffb0" stroke-width="2"/>
  </g>
  <g opacity=".76">
    <path d="M45 232 C94 182 139 182 191 229 C143 218 98 219 45 232 Z" fill="#ffad35"/>
    <path d="M675 232 C626 182 581 182 529 229 C577 218 622 219 675 232 Z" fill="#ffad35"/>
  </g>
  <rect x="20" y="18" width="680" height="224" rx="24" fill="none" stroke="#ffad35" stroke-opacity=".35" stroke-width="2"/>
  <text x="676" y="224" text-anchor="end" fill="#fff" opacity=".45" font-family="Arial, sans-serif" font-size="18" font-weight="700">10</text>
</svg>