<svg xmlns="http://www.w3.org/2000/svg" width="720" height="260" viewBox="0 0 720 260" role="img" aria-label="Waterfall Cup">
  <defs>
    <linearGradient id="bg" x1="0" y1="0" x2="1" y2="1">
      <stop offset="0" stop-color="#052e35"/>
      <stop offset="0.58" stop-color="#087f8f"/>
      <stop offset="1" stop-color="#052e35"/>
    </linearGradient>
    <radialGradient id="halo">
      <stop offset="0" stop-color="#52e8df" stop-opacity=".52"/>
      <stop offset="1" stop-color="#52e8df" stop-opacity="0"/>
    </radialGradient>
    <linearGradient id="gold" x1="0" y1="0" x2="1" y2="1">
      <stop offset="0" stop-color="#fff39a"/>
      <stop offset=".38" stop-color="#e8fff8"/>
      <stop offset="1" stop-color="#9c5c05"/>
    </linearGradient>
    <filter id="shadow" x="-50%" y="-50%" width="200%" height="200%">
      <feDropShadow dx="0" dy="8" stdDeviation="8" flood-color="#000" flood-opacity=".55"/>
    </filter>
  </defs>
  <rect width="720" height="260" rx="28" fill="url(#bg)"/>
  <ellipse cx="360" cy="112" rx="245" ry="130" fill="url(#halo)"/>
  <path d="M0 151 Q110 86 220 155 T445 142 T720 118 V260 H0 Z" fill="#052e35" opacity=".67"/>
  <path d="M0 202 Q120 154 240 205 T480 190 T720 195 V260 H0 Z" fill="#001b0d" opacity=".62"/>
  <path d="M46 214 L56.5 135 L67 214 Z" fill="#052e35" opacity="0.22"/><path d="M245 214 L263.5 178 L282 214 Z" fill="#52e8df" opacity="0.37"/><path d="M496 214 L508.5 127 L521 214 Z" fill="#052e35" opacity="0.18"/><path d="M564 214 L576.5 169 L589 214 Z" fill="#52e8df" opacity="0.31"/><path d="M465 214 L475 129 L485 214 Z" fill="#052e35" opacity="0.32"/><path d="M100 214 L110.5 181 L121 214 Z" fill="#52e8df" opacity="0.32"/><path d="M60 214 L77.5 134 L95 214 Z" fill="#052e35" opacity="0.22"/><path d="M120 214 L129 178 L138 214 Z" fill="#52e8df" opacity="0.41"/><path d="M17 214 L32 138 L47 214 Z" fill="#052e35" opacity="0.32"/><path d="M88 214 L102 161 L116 214 Z" fill="#52e8df" opacity="0.36"/><path d="M265 214 L282 135 L299 214 Z" fill="#052e35" opacity="0.27"/><path d="M387 214 L396.5 150 L406 214 Z" fill="#52e8df" opacity="0.20"/><path d="M690 214 L709 132 L728 214 Z" fill="#052e35" opacity="0.34"/><path d="M46 214 L62.5 121 L79 214 Z" fill="#52e8df" opacity="0.40"/><path d="M508 214 L524 173 L540 214 Z" fill="#052e35" opacity="0.38"/><path d="M278 214 L291.5 154 L305 214 Z" fill="#52e8df" opacity="0.21"/><path d="M560 214 L577.5 163 L595 214 Z" fill="#052e35" opacity="0.39"/><path d="M136 214 L148.5 181 L161 214 Z" fill="#52e8df" opacity="0.38"/>
  <circle cx="600" cy="151" r="2.0" fill="#e8fff8" opacity="0.83"/><circle cx="150" cy="71" r="2.2" fill="#e8fff8" opacity="0.58"/><circle cx="314" cy="63" r="2.6" fill="#e8fff8" opacity="0.86"/><circle cx="184" cy="93" r="2.2" fill="#e8fff8" opacity="0.78"/><circle cx="171" cy="202" r="1.1" fill="#e8fff8" opacity="0.40"/><circle cx="344" cy="117" r="1.0" fill="#e8fff8" opacity="0.27"/><circle cx="403" cy="189" r="2.3" fill="#e8fff8" opacity="0.67"/><circle cx="388" cy="114" r="1.1" fill="#e8fff8" opacity="0.82"/><circle cx="663" cy="107" r="1.2" fill="#e8fff8" opacity="0.51"/><circle cx="616" cy="125" r="1.0" fill="#e8fff8" opacity="0.74"/><circle cx="403" cy="189" r="1.4" fill="#e8fff8" opacity="0.42"/><circle cx="58" cy="171" r="1.2" fill="#e8fff8" opacity="0.38"/><circle cx="660" cy="87" r="1.8" fill="#e8fff8" opacity="0.85"/><circle cx="157" cy="121" r="1.0" fill="#e8fff8" opacity="0.80"/><circle cx="451" cy="194" r="2.3" fill="#e8fff8" opacity="0.72"/><circle cx="327" cy="91" r="0.8" fill="#e8fff8" opacity="0.49"/><circle cx="678" cy="78" r="1.8" fill="#e8fff8" opacity="0.71"/><circle cx="356" cy="53" r="1.5" fill="#e8fff8" opacity="0.30"/><circle cx="604" cy="121" r="1.5" fill="#e8fff8" opacity="0.89"/><circle cx="131" cy="168" r="1.9" fill="#e8fff8" opacity="0.67"/><circle cx="490" cy="69" r="1.1" fill="#e8fff8" opacity="0.48"/><circle cx="85" cy="127" r="1.4" fill="#e8fff8" opacity="0.33"/>
  <g transform="translate(288 42)" filter="url(#shadow)">
    <path d="M21 17 H123 V53 C123 91 102 111 72 116 C42 111 21 91 21 53 Z" fill="url(#gold)" stroke="#fff1a0" stroke-width="3"/>
    <path d="M21 29 H4 V49 C4 76 21 88 43 88" fill="none" stroke="#e8fff8" stroke-width="12" stroke-linecap="round"/>
    <path d="M123 29 H140 V49 C140 76 123 88 101 88" fill="none" stroke="#e8fff8" stroke-width="12" stroke-linecap="round"/>
    <path d="M64 114 H80 V139 H111 V154 H33 V139 H64 Z" fill="url(#gold)"/>
    <path d="M72 43 L81 61 L101 64 L86 78 L90 98 L72 88 L54 98 L58 78 L43 64 L63 61 Z" fill="#087f8f" stroke="#f4ffb0" stroke-width="2"/>
  </g>
  <g opacity=".76">
    <path d="M45 232 C94 182 139 182 191 229 C143 218 98 219 45 232 Z" fill="#52e8df"/>
    <path d="M675 232 C626 182 581 182 529 229 C577 218 622 219 675 232 Z" fill="#52e8df"/>
  </g>
  <rect x="20" y="18" width="680" height="224" rx="24" fill="none" stroke="#52e8df" stroke-opacity=".35" stroke-width="2"/>
  <text x="676" y="224" text-anchor="end" fill="#fff" opacity=".45" font-family="Arial, sans-serif" font-size="18" font-weight="700">02</text>
</svg>