<svg xmlns="http://www.w3.org/2000/svg" width="720" height="260" viewBox="0 0 720 260" role="img" aria-label="Tropical Treasure">
  <defs>
    <linearGradient id="bg" x1="0" y1="0" x2="1" y2="1">
      <stop offset="0" stop-color="#022a26"/>
      <stop offset="0.58" stop-color="#08755c"/>
      <stop offset="1" stop-color="#022a26"/>
    </linearGradient>
    <radialGradient id="halo">
      <stop offset="0" stop-color="#45d9a5" stop-opacity=".52"/>
      <stop offset="1" stop-color="#45d9a5" stop-opacity="0"/>
    </radialGradient>
    <linearGradient id="gold" x1="0" y1="0" x2="1" y2="1">
      <stop offset="0" stop-color="#fff39a"/>
      <stop offset=".38" stop-color="#ffd64f"/>
      <stop offset="1" stop-color="#9c5c05"/>
    </linearGradient>
    <filter id="shadow" x="-50%" y="-50%" width="200%" height="200%">
      <feDropShadow dx="0" dy="8" stdDeviation="8" flood-color="#000" flood-opacity=".55"/>
    </filter>
  </defs>
  <rect width="720" height="260" rx="28" fill="url(#bg)"/>
  <ellipse cx="360" cy="112" rx="245" ry="130" fill="url(#halo)"/>
  <path d="M0 145 Q110 80 220 149 T445 136 T720 112 V260 H0 Z" fill="#022a26" opacity=".67"/>
  <path d="M0 202 Q120 154 240 205 T480 190 T720 195 V260 H0 Z" fill="#001b0d" opacity=".62"/>
  <path d="M471 214 L489.5 155 L508 214 Z" fill="#022a26" opacity="0.20"/><path d="M106 214 L123 151 L140 214 Z" fill="#45d9a5" opacity="0.31"/><path d="M343 214 L352.5 155 L362 214 Z" fill="#022a26" opacity="0.29"/><path d="M374 214 L389 163 L404 214 Z" fill="#45d9a5" opacity="0.17"/><path d="M513 214 L528 179 L543 214 Z" fill="#022a26" opacity="0.24"/><path d="M336 214 L343.5 169 L351 214 Z" fill="#45d9a5" opacity="0.34"/><path d="M40 214 L53 170 L66 214 Z" fill="#022a26" opacity="0.31"/><path d="M668 214 L679 124 L690 214 Z" fill="#45d9a5" opacity="0.28"/><path d="M373 214 L386 128 L399 214 Z" fill="#022a26" opacity="0.31"/><path d="M10 214 L19.5 138 L29 214 Z" fill="#45d9a5" opacity="0.38"/><path d="M471 214 L478.5 116 L486 214 Z" fill="#022a26" opacity="0.35"/><path d="M367 214 L382.5 153 L398 214 Z" fill="#45d9a5" opacity="0.17"/><path d="M604 214 L612.5 138 L621 214 Z" fill="#022a26" opacity="0.36"/><path d="M315 214 L328.5 132 L342 214 Z" fill="#45d9a5" opacity="0.34"/><path d="M444 214 L460.5 180 L477 214 Z" fill="#022a26" opacity="0.22"/><path d="M495 214 L505 122 L515 214 Z" fill="#45d9a5" opacity="0.38"/><path d="M82 214 L100.5 181 L119 214 Z" fill="#022a26" opacity="0.24"/><path d="M506 214 L518 183 L530 214 Z" fill="#45d9a5" opacity="0.19"/>
  <circle cx="358" cy="37" r="1.1" fill="#ffd64f" opacity="0.32"/><circle cx="178" cy="186" r="2.8" fill="#ffd64f" opacity="0.29"/><circle cx="374" cy="98" r="2.0" fill="#ffd64f" opacity="0.78"/><circle cx="120" cy="94" r="2.1" fill="#ffd64f" opacity="0.53"/><circle cx="95" cy="128" r="2.2" fill="#ffd64f" opacity="0.72"/><circle cx="235" cy="24" r="1.6" fill="#ffd64f" opacity="0.81"/><circle cx="42" cy="36" r="1.9" fill="#ffd64f" opacity="0.35"/><circle cx="391" cy="25" r="1.0" fill="#ffd64f" opacity="0.81"/><circle cx="431" cy="172" r="1.8" fill="#ffd64f" opacity="0.85"/><circle cx="417" cy="108" r="2.4" fill="#ffd64f" opacity="0.26"/><circle cx="350" cy="30" r="2.2" fill="#ffd64f" opacity="0.88"/><circle cx="142" cy="28" r="1.9" fill="#ffd64f" opacity="0.73"/><circle cx="372" cy="148" r="2.5" fill="#ffd64f" opacity="0.54"/><circle cx="165" cy="166" r="0.8" fill="#ffd64f" opacity="0.29"/><circle cx="452" cy="172" r="2.6" fill="#ffd64f" opacity="0.85"/><circle cx="624" cy="96" r="2.1" fill="#ffd64f" opacity="0.84"/><circle cx="591" cy="113" r="2.4" fill="#ffd64f" opacity="0.35"/><circle cx="685" cy="161" r="2.4" fill="#ffd64f" opacity="0.67"/><circle cx="174" cy="46" r="1.7" fill="#ffd64f" opacity="0.86"/><circle cx="116" cy="154" r="1.0" fill="#ffd64f" opacity="0.86"/><circle cx="76" cy="163" r="2.2" fill="#ffd64f" opacity="0.52"/><circle cx="226" cy="65" r="1.9" fill="#ffd64f" opacity="0.81"/>
  <g transform="translate(288 42)" filter="url(#shadow)">
    <path d="M21 17 H123 V53 C123 91 102 111 72 116 C42 111 21 91 21 53 Z" fill="url(#gold)" stroke="#fff1a0" stroke-width="3"/>
    <path d="M21 29 H4 V49 C4 76 21 88 43 88" fill="none" stroke="#ffd64f" stroke-width="12" stroke-linecap="round"/>
    <path d="M123 29 H140 V49 C140 76 123 88 101 88" fill="none" stroke="#ffd64f" stroke-width="12" stroke-linecap="round"/>
    <path d="M64 114 H80 V139 H111 V154 H33 V139 H64 Z" fill="url(#gold)"/>
    <path d="M72 43 L81 61 L101 64 L86 78 L90 98 L72 88 L54 98 L58 78 L43 64 L63 61 Z" fill="#08755c" stroke="#f4ffb0" stroke-width="2"/>
  </g>
  <g opacity=".76">
    <path d="M45 232 C94 182 139 182 191 229 C143 218 98 219 45 232 Z" fill="#45d9a5"/>
    <path d="M675 232 C626 182 581 182 529 229 C577 218 622 219 675 232 Z" fill="#45d9a5"/>
  </g>
  <rect x="20" y="18" width="680" height="224" rx="24" fill="none" stroke="#45d9a5" stroke-opacity=".35" stroke-width="2"/>
  <text x="676" y="224" text-anchor="end" fill="#fff" opacity=".45" font-family="Arial, sans-serif" font-size="18" font-weight="700">07</text>
</svg>