<svg xmlns="http://www.w3.org/2000/svg" width="720" height="260" viewBox="0 0 720 260" role="img" aria-label="Moonlight Royale">
  <defs>
    <linearGradient id="bg" x1="0" y1="0" x2="1" y2="1">
      <stop offset="0" stop-color="#0c1230"/>
      <stop offset="0.58" stop-color="#303477"/>
      <stop offset="1" stop-color="#0c1230"/>
    </linearGradient>
    <radialGradient id="halo">
      <stop offset="0" stop-color="#9c7cff" stop-opacity=".52"/>
      <stop offset="1" stop-color="#9c7cff" stop-opacity="0"/>
    </radialGradient>
    <linearGradient id="gold" x1="0" y1="0" x2="1" y2="1">
      <stop offset="0" stop-color="#fff39a"/>
      <stop offset=".38" stop-color="#f1e7ff"/>
      <stop offset="1" stop-color="#9c5c05"/>
    </linearGradient>
    <filter id="shadow" x="-50%" y="-50%" width="200%" height="200%">
      <feDropShadow dx="0" dy="8" stdDeviation="8" flood-color="#000" flood-opacity=".55"/>
    </filter>
  </defs>
  <rect width="720" height="260" rx="28" fill="url(#bg)"/>
  <ellipse cx="360" cy="112" rx="245" ry="130" fill="url(#halo)"/>
  <path d="M0 146 Q110 81 220 150 T445 137 T720 113 V260 H0 Z" fill="#0c1230" opacity=".67"/>
  <path d="M0 202 Q120 154 240 205 T480 190 T720 195 V260 H0 Z" fill="#001b0d" opacity=".62"/>
  <path d="M447 214 L464 158 L481 214 Z" fill="#0c1230" opacity="0.16"/><path d="M428 214 L437 172 L446 214 Z" fill="#9c7cff" opacity="0.37"/><path d="M496 214 L515 149 L534 214 Z" fill="#0c1230" opacity="0.38"/><path d="M156 214 L166.5 148 L177 214 Z" fill="#9c7cff" opacity="0.20"/><path d="M222 214 L235 165 L248 214 Z" fill="#0c1230" opacity="0.19"/><path d="M371 214 L379 128 L387 214 Z" fill="#9c7cff" opacity="0.38"/><path d="M340 214 L353 182 L366 214 Z" fill="#0c1230" opacity="0.20"/><path d="M67 214 L81.5 129 L96 214 Z" fill="#9c7cff" opacity="0.23"/><path d="M82 214 L98.5 178 L115 214 Z" fill="#0c1230" opacity="0.19"/><path d="M681 214 L693 137 L705 214 Z" fill="#9c7cff" opacity="0.33"/><path d="M111 214 L129.5 150 L148 214 Z" fill="#0c1230" opacity="0.24"/><path d="M29 214 L39.5 139 L50 214 Z" fill="#9c7cff" opacity="0.34"/><path d="M82 214 L100 121 L118 214 Z" fill="#0c1230" opacity="0.23"/><path d="M333 214 L349 132 L365 214 Z" fill="#9c7cff" opacity="0.36"/><path d="M206 214 L214 123 L222 214 Z" fill="#0c1230" opacity="0.29"/><path d="M83 214 L98.5 182 L114 214 Z" fill="#9c7cff" opacity="0.39"/><path d="M341 214 L359.5 156 L378 214 Z" fill="#0c1230" opacity="0.27"/><path d="M716 214 L725 179 L734 214 Z" fill="#9c7cff" opacity="0.35"/>
  <circle cx="215" cy="188" r="1.6" fill="#f1e7ff" opacity="0.73"/><circle cx="28" cy="151" r="1.4" fill="#f1e7ff" opacity="0.41"/><circle cx="24" cy="71" r="1.9" fill="#f1e7ff" opacity="0.73"/><circle cx="285" cy="44" r="2.2" fill="#f1e7ff" opacity="0.26"/><circle cx="23" cy="116" r="1.0" fill="#f1e7ff" opacity="0.65"/><circle cx="441" cy="94" r="2.4" fill="#f1e7ff" opacity="0.78"/><circle cx="520" cy="105" r="1.4" fill="#f1e7ff" opacity="0.44"/><circle cx="680" cy="30" r="2.0" fill="#f1e7ff" opacity="0.63"/><circle cx="212" cy="204" r="1.6" fill="#f1e7ff" opacity="0.41"/><circle cx="416" cy="67" r="2.8" fill="#f1e7ff" opacity="0.46"/><circle cx="336" cy="97" r="2.1" fill="#f1e7ff" opacity="0.34"/><circle cx="86" cy="26" r="1.3" fill="#f1e7ff" opacity="0.88"/><circle cx="373" cy="77" r="1.1" fill="#f1e7ff" opacity="0.30"/><circle cx="612" cy="32" r="0.8" fill="#f1e7ff" opacity="0.78"/><circle cx="244" cy="116" r="2.7" fill="#f1e7ff" opacity="0.26"/><circle cx="521" cy="127" r="2.5" fill="#f1e7ff" opacity="0.89"/><circle cx="176" cy="122" r="1.8" fill="#f1e7ff" opacity="0.65"/><circle cx="250" cy="139" r="2.1" fill="#f1e7ff" opacity="0.60"/><circle cx="268" cy="77" r="1.8" fill="#f1e7ff" opacity="0.38"/><circle cx="33" cy="172" r="1.2" fill="#f1e7ff" opacity="0.58"/><circle cx="436" cy="35" r="1.5" fill="#f1e7ff" opacity="0.45"/><circle cx="212" cy="26" r="2.1" fill="#f1e7ff" opacity="0.71"/>
  <g transform="translate(288 42)" filter="url(#shadow)">
    <path d="M21 17 H123 V53 C123 91 102 111 72 116 C42 111 21 91 21 53 Z" fill="url(#gold)" stroke="#fff1a0" stroke-width="3"/>
    <path d="M21 29 H4 V49 C4 76 21 88 43 88" fill="none" stroke="#f1e7ff" stroke-width="12" stroke-linecap="round"/>
    <path d="M123 29 H140 V49 C140 76 123 88 101 88" fill="none" stroke="#f1e7ff" stroke-width="12" stroke-linecap="round"/>
    <path d="M64 114 H80 V139 H111 V154 H33 V139 H64 Z" fill="url(#gold)"/>
    <path d="M72 43 L81 61 L101 64 L86 78 L90 98 L72 88 L54 98 L58 78 L43 64 L63 61 Z" fill="#303477" stroke="#f4ffb0" stroke-width="2"/>
  </g>
  <g opacity=".76">
    <path d="M45 232 C94 182 139 182 191 229 C143 218 98 219 45 232 Z" fill="#9c7cff"/>
    <path d="M675 232 C626 182 581 182 529 229 C577 218 622 219 675 232 Z" fill="#9c7cff"/>
  </g>
  <rect x="20" y="18" width="680" height="224" rx="24" fill="none" stroke="#9c7cff" stroke-opacity=".35" stroke-width="2"/>
  <text x="676" y="224" text-anchor="end" fill="#fff" opacity=".45" font-family="Arial, sans-serif" font-size="18" font-weight="700">08</text>
</svg>