<svg xmlns="http://www.w3.org/2000/svg" width="720" height="260" viewBox="0 0 720 260" role="img" aria-label="Tropical Treasure">
  <defs>
    <linearGradient id="bg" x1="0" y1="0" x2="1" y2="1">
      <stop offset="0" stop-color="#022a26"/>
      <stop offset="0.58" stop-color="#08755c"/>
      <stop offset="1" stop-color="#022a26"/>
    </linearGradient>
    <radialGradient id="halo">
      <stop offset="0" stop-color="#45d9a5" stop-opacity=".52"/>
      <stop offset="1" stop-color="#45d9a5" stop-opacity="0"/>
    </radialGradient>
    <linearGradient id="gold" x1="0" y1="0" x2="1" y2="1">
      <stop offset="0" stop-color="#fff39a"/>
      <stop offset=".38" stop-color="#ffd64f"/>
      <stop offset="1" stop-color="#9c5c05"/>
    </linearGradient>
    <filter id="shadow" x="-50%" y="-50%" width="200%" height="200%">
      <feDropShadow dx="0" dy="8" stdDeviation="8" flood-color="#000" flood-opacity=".55"/>
    </filter>
  </defs>
  <rect width="720" height="260" rx="28" fill="url(#bg)"/>
  <ellipse cx="360" cy="112" rx="245" ry="130" fill="url(#halo)"/>
  <path d="M0 148 Q110 83 220 152 T445 139 T720 115 V260 H0 Z" fill="#022a26" opacity=".67"/>
  <path d="M0 202 Q120 154 240 205 T480 190 T720 195 V260 H0 Z" fill="#001b0d" opacity=".62"/>
  <path d="M643 214 L659 179 L675 214 Z" fill="#022a26" opacity="0.37"/><path d="M213 214 L226.5 144 L240 214 Z" fill="#45d9a5" opacity="0.16"/><path d="M627 214 L635 183 L643 214 Z" fill="#022a26" opacity="0.26"/><path d="M686 214 L704 145 L722 214 Z" fill="#45d9a5" opacity="0.34"/><path d="M421 214 L429.5 168 L438 214 Z" fill="#022a26" opacity="0.32"/><path d="M542 214 L551 145 L560 214 Z" fill="#45d9a5" opacity="0.17"/><path d="M111 214 L126.5 176 L142 214 Z" fill="#022a26" opacity="0.37"/><path d="M634 214 L653 182 L672 214 Z" fill="#45d9a5" opacity="0.40"/><path d="M487 214 L498 119 L509 214 Z" fill="#022a26" opacity="0.31"/><path d="M458 214 L467.5 150 L477 214 Z" fill="#45d9a5" opacity="0.17"/><path d="M368 214 L375 164 L382 214 Z" fill="#022a26" opacity="0.17"/><path d="M714 214 L725 129 L736 214 Z" fill="#45d9a5" opacity="0.39"/><path d="M449 214 L465.5 117 L482 214 Z" fill="#022a26" opacity="0.23"/><path d="M164 214 L177 162 L190 214 Z" fill="#45d9a5" opacity="0.23"/><path d="M715 214 L727.5 125 L740 214 Z" fill="#022a26" opacity="0.23"/><path d="M439 214 L457.5 113 L476 214 Z" fill="#45d9a5" opacity="0.41"/><path d="M62 214 L74 162 L86 214 Z" fill="#022a26" opacity="0.16"/><path d="M111 214 L119.5 115 L128 214 Z" fill="#45d9a5" opacity="0.37"/>
  <circle cx="283" cy="37" r="2.1" fill="#ffd64f" opacity="0.81"/><circle cx="313" cy="68" r="1.7" fill="#ffd64f" opacity="0.31"/><circle cx="694" cy="202" r="1.3" fill="#ffd64f" opacity="0.54"/><circle cx="326" cy="49" r="1.0" fill="#ffd64f" opacity="0.27"/><circle cx="206" cy="83" r="2.9" fill="#ffd64f" opacity="0.63"/><circle cx="423" cy="96" r="1.7" fill="#ffd64f" opacity="0.90"/><circle cx="425" cy="139" r="2.6" fill="#ffd64f" opacity="0.74"/><circle cx="441" cy="64" r="2.2" fill="#ffd64f" opacity="0.67"/><circle cx="87" cy="107" r="1.7" fill="#ffd64f" opacity="0.79"/><circle cx="518" cy="62" r="1.4" fill="#ffd64f" opacity="0.63"/><circle cx="391" cy="138" r="2.9" fill="#ffd64f" opacity="0.88"/><circle cx="496" cy="197" r="1.0" fill="#ffd64f" opacity="0.42"/><circle cx="175" cy="189" r="2.5" fill="#ffd64f" opacity="0.28"/><circle cx="54" cy="88" r="2.0" fill="#ffd64f" opacity="0.38"/><circle cx="661" cy="145" r="1.2" fill="#ffd64f" opacity="0.40"/><circle cx="239" cy="63" r="1.1" fill="#ffd64f" opacity="0.62"/><circle cx="30" cy="86" r="1.6" fill="#ffd64f" opacity="0.88"/><circle cx="275" cy="34" r="2.2" fill="#ffd64f" opacity="0.89"/><circle cx="295" cy="148" r="1.5" fill="#ffd64f" opacity="0.38"/><circle cx="546" cy="48" r="2.3" fill="#ffd64f" opacity="0.71"/><circle cx="604" cy="149" r="2.4" fill="#ffd64f" opacity="0.89"/><circle cx="170" cy="39" r="1.3" fill="#ffd64f" opacity="0.34"/>
  <g transform="translate(288 42)" filter="url(#shadow)">
    <path d="M21 17 H123 V53 C123 91 102 111 72 116 C42 111 21 91 21 53 Z" fill="url(#gold)" stroke="#fff1a0" stroke-width="3"/>
    <path d="M21 29 H4 V49 C4 76 21 88 43 88" fill="none" stroke="#ffd64f" stroke-width="12" stroke-linecap="round"/>
    <path d="M123 29 H140 V49 C140 76 123 88 101 88" fill="none" stroke="#ffd64f" stroke-width="12" stroke-linecap="round"/>
    <path d="M64 114 H80 V139 H111 V154 H33 V139 H64 Z" fill="url(#gold)"/>
    <path d="M72 43 L81 61 L101 64 L86 78 L90 98 L72 88 L54 98 L58 78 L43 64 L63 61 Z" fill="#08755c" stroke="#f4ffb0" stroke-width="2"/>
  </g>
  <g opacity=".76">
    <path d="M45 232 C94 182 139 182 191 229 C143 218 98 219 45 232 Z" fill="#45d9a5"/>
    <path d="M675 232 C626 182 581 182 529 229 C577 218 622 219 675 232 Z" fill="#45d9a5"/>
  </g>
  <rect x="20" y="18" width="680" height="224" rx="24" fill="none" stroke="#45d9a5" stroke-opacity=".35" stroke-width="2"/>
  <text x="676" y="224" text-anchor="end" fill="#fff" opacity=".45" font-family="Arial, sans-serif" font-size="18" font-weight="700">03</text>
</svg>