<svg xmlns="http://www.w3.org/2000/svg" width="720" height="260" viewBox="0 0 720 260" role="img" aria-label="Tropical Treasure">
  <defs>
    <linearGradient id="bg" x1="0" y1="0" x2="1" y2="1">
      <stop offset="0" stop-color="#022a26"/>
      <stop offset="0.58" stop-color="#08755c"/>
      <stop offset="1" stop-color="#022a26"/>
    </linearGradient>
    <radialGradient id="halo">
      <stop offset="0" stop-color="#45d9a5" stop-opacity=".52"/>
      <stop offset="1" stop-color="#45d9a5" stop-opacity="0"/>
    </radialGradient>
    <linearGradient id="gold" x1="0" y1="0" x2="1" y2="1">
      <stop offset="0" stop-color="#fff39a"/>
      <stop offset=".38" stop-color="#ffd64f"/>
      <stop offset="1" stop-color="#9c5c05"/>
    </linearGradient>
    <filter id="shadow" x="-50%" y="-50%" width="200%" height="200%">
      <feDropShadow dx="0" dy="8" stdDeviation="8" flood-color="#000" flood-opacity=".55"/>
    </filter>
  </defs>
  <rect width="720" height="260" rx="28" fill="url(#bg)"/>
  <ellipse cx="360" cy="112" rx="245" ry="130" fill="url(#halo)"/>
  <path d="M0 160 Q110 95 220 164 T445 151 T720 127 V260 H0 Z" fill="#022a26" opacity=".67"/>
  <path d="M0 202 Q120 154 240 205 T480 190 T720 195 V260 H0 Z" fill="#001b0d" opacity=".62"/>
  <path d="M197 214 L214.5 131 L232 214 Z" fill="#022a26" opacity="0.29"/><path d="M159 214 L168 184 L177 214 Z" fill="#45d9a5" opacity="0.24"/><path d="M125 214 L134 133 L143 214 Z" fill="#022a26" opacity="0.40"/><path d="M170 214 L180 154 L190 214 Z" fill="#45d9a5" opacity="0.38"/><path d="M107 214 L125 137 L143 214 Z" fill="#022a26" opacity="0.40"/><path d="M79 214 L93.5 157 L108 214 Z" fill="#45d9a5" opacity="0.26"/><path d="M435 214 L443 173 L451 214 Z" fill="#022a26" opacity="0.21"/><path d="M291 214 L306 117 L321 214 Z" fill="#45d9a5" opacity="0.21"/><path d="M70 214 L82 160 L94 214 Z" fill="#022a26" opacity="0.31"/><path d="M594 214 L603.5 180 L613 214 Z" fill="#45d9a5" opacity="0.28"/><path d="M59 214 L66 140 L73 214 Z" fill="#022a26" opacity="0.26"/><path d="M541 214 L554 141 L567 214 Z" fill="#45d9a5" opacity="0.28"/><path d="M526 214 L538.5 163 L551 214 Z" fill="#022a26" opacity="0.29"/><path d="M599 214 L606 183 L613 214 Z" fill="#45d9a5" opacity="0.29"/><path d="M580 214 L594.5 116 L609 214 Z" fill="#022a26" opacity="0.22"/><path d="M467 214 L481 117 L495 214 Z" fill="#45d9a5" opacity="0.39"/><path d="M432 214 L447.5 135 L463 214 Z" fill="#022a26" opacity="0.20"/><path d="M308 214 L318 149 L328 214 Z" fill="#45d9a5" opacity="0.28"/>
  <circle cx="660" cy="37" r="1.6" fill="#ffd64f" opacity="0.57"/><circle cx="585" cy="127" r="2.2" fill="#ffd64f" opacity="0.30"/><circle cx="194" cy="55" r="2.7" fill="#ffd64f" opacity="0.66"/><circle cx="563" cy="167" r="2.6" fill="#ffd64f" opacity="0.73"/><circle cx="491" cy="201" r="1.5" fill="#ffd64f" opacity="0.35"/><circle cx="329" cy="60" r="2.7" fill="#ffd64f" opacity="0.86"/><circle cx="234" cy="183" r="2.2" fill="#ffd64f" opacity="0.87"/><circle cx="76" cy="45" r="2.7" fill="#ffd64f" opacity="0.41"/><circle cx="259" cy="45" r="1.7" fill="#ffd64f" opacity="0.82"/><circle cx="128" cy="85" r="1.9" fill="#ffd64f" opacity="0.45"/><circle cx="370" cy="179" r="2.5" fill="#ffd64f" opacity="0.56"/><circle cx="319" cy="112" r="1.4" fill="#ffd64f" opacity="0.90"/><circle cx="273" cy="169" r="1.4" fill="#ffd64f" opacity="0.41"/><circle cx="110" cy="32" r="1.4" fill="#ffd64f" opacity="0.34"/><circle cx="556" cy="64" r="3.0" fill="#ffd64f" opacity="0.30"/><circle cx="91" cy="80" r="1.6" fill="#ffd64f" opacity="0.41"/><circle cx="311" cy="99" r="2.0" fill="#ffd64f" opacity="0.29"/><circle cx="140" cy="193" r="1.2" fill="#ffd64f" opacity="0.78"/><circle cx="235" cy="192" r="1.6" fill="#ffd64f" opacity="0.62"/><circle cx="331" cy="101" r="1.7" fill="#ffd64f" opacity="0.78"/><circle cx="340" cy="156" r="2.3" fill="#ffd64f" opacity="0.70"/><circle cx="538" cy="147" r="2.7" fill="#ffd64f" opacity="0.57"/>
  <g transform="translate(288 42)" filter="url(#shadow)">
    <path d="M21 17 H123 V53 C123 91 102 111 72 116 C42 111 21 91 21 53 Z" fill="url(#gold)" stroke="#fff1a0" stroke-width="3"/>
    <path d="M21 29 H4 V49 C4 76 21 88 43 88" fill="none" stroke="#ffd64f" stroke-width="12" stroke-linecap="round"/>
    <path d="M123 29 H140 V49 C140 76 123 88 101 88" fill="none" stroke="#ffd64f" stroke-width="12" stroke-linecap="round"/>
    <path d="M64 114 H80 V139 H111 V154 H33 V139 H64 Z" fill="url(#gold)"/>
    <path d="M72 43 L81 61 L101 64 L86 78 L90 98 L72 88 L54 98 L58 78 L43 64 L63 61 Z" fill="#08755c" stroke="#f4ffb0" stroke-width="2"/>
  </g>
  <g opacity=".76">
    <path d="M45 232 C94 182 139 182 191 229 C143 218 98 219 45 232 Z" fill="#45d9a5"/>
    <path d="M675 232 C626 182 581 182 529 229 C577 218 622 219 675 232 Z" fill="#45d9a5"/>
  </g>
  <rect x="20" y="18" width="680" height="224" rx="24" fill="none" stroke="#45d9a5" stroke-opacity=".35" stroke-width="2"/>
  <text x="676" y="224" text-anchor="end" fill="#fff" opacity=".45" font-family="Arial, sans-serif" font-size="18" font-weight="700">05</text>
</svg>