<svg xmlns="http://www.w3.org/2000/svg" width="720" height="260" viewBox="0 0 720 260" role="img" aria-label="Waterfall Cup">
  <defs>
    <linearGradient id="bg" x1="0" y1="0" x2="1" y2="1">
      <stop offset="0" stop-color="#052e35"/>
      <stop offset="0.58" stop-color="#087f8f"/>
      <stop offset="1" stop-color="#052e35"/>
    </linearGradient>
    <radialGradient id="halo">
      <stop offset="0" stop-color="#52e8df" stop-opacity=".52"/>
      <stop offset="1" stop-color="#52e8df" stop-opacity="0"/>
    </radialGradient>
    <linearGradient id="gold" x1="0" y1="0" x2="1" y2="1">
      <stop offset="0" stop-color="#fff39a"/>
      <stop offset=".38" stop-color="#e8fff8"/>
      <stop offset="1" stop-color="#9c5c05"/>
    </linearGradient>
    <filter id="shadow" x="-50%" y="-50%" width="200%" height="200%">
      <feDropShadow dx="0" dy="8" stdDeviation="8" flood-color="#000" flood-opacity=".55"/>
    </filter>
  </defs>
  <rect width="720" height="260" rx="28" fill="url(#bg)"/>
  <ellipse cx="360" cy="112" rx="245" ry="130" fill="url(#halo)"/>
  <path d="M0 162 Q110 97 220 166 T445 153 T720 129 V260 H0 Z" fill="#052e35" opacity=".67"/>
  <path d="M0 202 Q120 154 240 205 T480 190 T720 195 V260 H0 Z" fill="#001b0d" opacity=".62"/>
  <path d="M148 214 L162 136 L176 214 Z" fill="#052e35" opacity="0.21"/><path d="M84 214 L102 153 L120 214 Z" fill="#52e8df" opacity="0.35"/><path d="M431 214 L446 121 L461 214 Z" fill="#052e35" opacity="0.34"/><path d="M455 214 L469 124 L483 214 Z" fill="#52e8df" opacity="0.18"/><path d="M244 214 L258 181 L272 214 Z" fill="#052e35" opacity="0.32"/><path d="M150 214 L165 146 L180 214 Z" fill="#52e8df" opacity="0.33"/><path d="M314 214 L321.5 126 L329 214 Z" fill="#052e35" opacity="0.24"/><path d="M530 214 L539.5 127 L549 214 Z" fill="#52e8df" opacity="0.36"/><path d="M207 214 L225.5 116 L244 214 Z" fill="#052e35" opacity="0.31"/><path d="M496 214 L510.5 179 L525 214 Z" fill="#52e8df" opacity="0.17"/><path d="M59 214 L76.5 135 L94 214 Z" fill="#052e35" opacity="0.29"/><path d="M585 214 L601 114 L617 214 Z" fill="#52e8df" opacity="0.37"/><path d="M203 214 L222.5 128 L242 214 Z" fill="#052e35" opacity="0.28"/><path d="M634 214 L645.5 183 L657 214 Z" fill="#52e8df" opacity="0.32"/><path d="M102 214 L112 147 L122 214 Z" fill="#052e35" opacity="0.37"/><path d="M363 214 L376 166 L389 214 Z" fill="#52e8df" opacity="0.17"/><path d="M230 214 L245 156 L260 214 Z" fill="#052e35" opacity="0.26"/><path d="M9 214 L26.5 140 L44 214 Z" fill="#52e8df" opacity="0.36"/>
  <circle cx="373" cy="151" r="2.7" fill="#e8fff8" opacity="0.74"/><circle cx="287" cy="58" r="1.7" fill="#e8fff8" opacity="0.54"/><circle cx="174" cy="191" r="2.6" fill="#e8fff8" opacity="0.57"/><circle cx="214" cy="65" r="2.8" fill="#e8fff8" opacity="0.84"/><circle cx="345" cy="175" r="1.2" fill="#e8fff8" opacity="0.86"/><circle cx="61" cy="200" r="2.1" fill="#e8fff8" opacity="0.80"/><circle cx="510" cy="130" r="1.3" fill="#e8fff8" opacity="0.40"/><circle cx="653" cy="55" r="2.5" fill="#e8fff8" opacity="0.70"/><circle cx="500" cy="109" r="1.4" fill="#e8fff8" opacity="0.60"/><circle cx="125" cy="193" r="2.6" fill="#e8fff8" opacity="0.84"/><circle cx="342" cy="122" r="2.5" fill="#e8fff8" opacity="0.76"/><circle cx="207" cy="108" r="2.5" fill="#e8fff8" opacity="0.54"/><circle cx="275" cy="26" r="3.0" fill="#e8fff8" opacity="0.59"/><circle cx="324" cy="143" r="1.5" fill="#e8fff8" opacity="0.66"/><circle cx="139" cy="140" r="1.1" fill="#e8fff8" opacity="0.42"/><circle cx="565" cy="141" r="2.3" fill="#e8fff8" opacity="0.50"/><circle cx="160" cy="118" r="0.8" fill="#e8fff8" opacity="0.89"/><circle cx="630" cy="148" r="2.9" fill="#e8fff8" opacity="0.63"/><circle cx="422" cy="64" r="1.8" fill="#e8fff8" opacity="0.31"/><circle cx="166" cy="137" r="2.1" fill="#e8fff8" opacity="0.88"/><circle cx="379" cy="90" r="0.9" fill="#e8fff8" opacity="0.57"/><circle cx="509" cy="70" r="1.1" fill="#e8fff8" opacity="0.38"/>
  <g transform="translate(288 42)" filter="url(#shadow)">
    <path d="M21 17 H123 V53 C123 91 102 111 72 116 C42 111 21 91 21 53 Z" fill="url(#gold)" stroke="#fff1a0" stroke-width="3"/>
    <path d="M21 29 H4 V49 C4 76 21 88 43 88" fill="none" stroke="#e8fff8" stroke-width="12" stroke-linecap="round"/>
    <path d="M123 29 H140 V49 C140 76 123 88 101 88" fill="none" stroke="#e8fff8" stroke-width="12" stroke-linecap="round"/>
    <path d="M64 114 H80 V139 H111 V154 H33 V139 H64 Z" fill="url(#gold)"/>
    <path d="M72 43 L81 61 L101 64 L86 78 L90 98 L72 88 L54 98 L58 78 L43 64 L63 61 Z" fill="#087f8f" stroke="#f4ffb0" stroke-width="2"/>
  </g>
  <g opacity=".76">
    <path d="M45 232 C94 182 139 182 191 229 C143 218 98 219 45 232 Z" fill="#52e8df"/>
    <path d="M675 232 C626 182 581 182 529 229 C577 218 622 219 675 232 Z" fill="#52e8df"/>
  </g>
  <rect x="20" y="18" width="680" height="224" rx="24" fill="none" stroke="#52e8df" stroke-opacity=".35" stroke-width="2"/>
  <text x="676" y="224" text-anchor="end" fill="#fff" opacity=".45" font-family="Arial, sans-serif" font-size="18" font-weight="700">08</text>
</svg>