<svg xmlns="http://www.w3.org/2000/svg" width="720" height="260" viewBox="0 0 720 260" role="img" aria-label="Moonlight Royale">
  <defs>
    <linearGradient id="bg" x1="0" y1="0" x2="1" y2="1">
      <stop offset="0" stop-color="#0c1230"/>
      <stop offset="0.58" stop-color="#303477"/>
      <stop offset="1" stop-color="#0c1230"/>
    </linearGradient>
    <radialGradient id="halo">
      <stop offset="0" stop-color="#9c7cff" stop-opacity=".52"/>
      <stop offset="1" stop-color="#9c7cff" stop-opacity="0"/>
    </radialGradient>
    <linearGradient id="gold" x1="0" y1="0" x2="1" y2="1">
      <stop offset="0" stop-color="#fff39a"/>
      <stop offset=".38" stop-color="#f1e7ff"/>
      <stop offset="1" stop-color="#9c5c05"/>
    </linearGradient>
    <filter id="shadow" x="-50%" y="-50%" width="200%" height="200%">
      <feDropShadow dx="0" dy="8" stdDeviation="8" flood-color="#000" flood-opacity=".55"/>
    </filter>
  </defs>
  <rect width="720" height="260" rx="28" fill="url(#bg)"/>
  <ellipse cx="360" cy="112" rx="245" ry="130" fill="url(#halo)"/>
  <path d="M0 169 Q110 104 220 173 T445 160 T720 136 V260 H0 Z" fill="#0c1230" opacity=".67"/>
  <path d="M0 202 Q120 154 240 205 T480 190 T720 195 V260 H0 Z" fill="#001b0d" opacity=".62"/>
  <path d="M396 214 L411 121 L426 214 Z" fill="#0c1230" opacity="0.17"/><path d="M148 214 L163.5 148 L179 214 Z" fill="#9c7cff" opacity="0.25"/><path d="M169 214 L180.5 152 L192 214 Z" fill="#0c1230" opacity="0.18"/><path d="M211 214 L227 171 L243 214 Z" fill="#9c7cff" opacity="0.39"/><path d="M332 214 L349.5 174 L367 214 Z" fill="#0c1230" opacity="0.32"/><path d="M706 214 L724 145 L742 214 Z" fill="#9c7cff" opacity="0.37"/><path d="M212 214 L223.5 115 L235 214 Z" fill="#0c1230" opacity="0.18"/><path d="M222 214 L236.5 119 L251 214 Z" fill="#9c7cff" opacity="0.38"/><path d="M707 214 L721.5 153 L736 214 Z" fill="#0c1230" opacity="0.31"/><path d="M477 214 L489 128 L501 214 Z" fill="#9c7cff" opacity="0.30"/><path d="M574 214 L586 149 L598 214 Z" fill="#0c1230" opacity="0.23"/><path d="M650 214 L663.5 158 L677 214 Z" fill="#9c7cff" opacity="0.26"/><path d="M686 214 L697.5 158 L709 214 Z" fill="#0c1230" opacity="0.26"/><path d="M399 214 L417.5 173 L436 214 Z" fill="#9c7cff" opacity="0.40"/><path d="M409 214 L426.5 172 L444 214 Z" fill="#0c1230" opacity="0.17"/><path d="M41 214 L57 176 L73 214 Z" fill="#9c7cff" opacity="0.29"/><path d="M506 214 L519.5 159 L533 214 Z" fill="#0c1230" opacity="0.21"/><path d="M60 214 L73 127 L86 214 Z" fill="#9c7cff" opacity="0.36"/>
  <circle cx="328" cy="189" r="2.4" fill="#f1e7ff" opacity="0.78"/><circle cx="640" cy="63" r="2.8" fill="#f1e7ff" opacity="0.43"/><circle cx="94" cy="102" r="0.8" fill="#f1e7ff" opacity="0.55"/><circle cx="610" cy="152" r="3.0" fill="#f1e7ff" opacity="0.56"/><circle cx="276" cy="34" r="2.1" fill="#f1e7ff" opacity="0.42"/><circle cx="582" cy="53" r="3.0" fill="#f1e7ff" opacity="0.85"/><circle cx="467" cy="40" r="0.8" fill="#f1e7ff" opacity="0.90"/><circle cx="547" cy="155" r="2.4" fill="#f1e7ff" opacity="0.36"/><circle cx="294" cy="108" r="2.6" fill="#f1e7ff" opacity="0.69"/><circle cx="321" cy="128" r="2.0" fill="#f1e7ff" opacity="0.41"/><circle cx="366" cy="35" r="1.6" fill="#f1e7ff" opacity="0.49"/><circle cx="692" cy="57" r="2.8" fill="#f1e7ff" opacity="0.48"/><circle cx="565" cy="203" r="1.6" fill="#f1e7ff" opacity="0.43"/><circle cx="529" cy="21" r="1.7" fill="#f1e7ff" opacity="0.85"/><circle cx="400" cy="47" r="1.2" fill="#f1e7ff" opacity="0.41"/><circle cx="62" cy="197" r="1.7" fill="#f1e7ff" opacity="0.88"/><circle cx="95" cy="102" r="1.2" fill="#f1e7ff" opacity="0.56"/><circle cx="113" cy="186" r="1.4" fill="#f1e7ff" opacity="0.76"/><circle cx="359" cy="201" r="1.6" fill="#f1e7ff" opacity="0.67"/><circle cx="696" cy="187" r="1.1" fill="#f1e7ff" opacity="0.80"/><circle cx="151" cy="120" r="2.7" fill="#f1e7ff" opacity="0.40"/><circle cx="339" cy="55" r="1.2" fill="#f1e7ff" opacity="0.36"/>
  <g transform="translate(288 42)" filter="url(#shadow)">
    <path d="M21 17 H123 V53 C123 91 102 111 72 116 C42 111 21 91 21 53 Z" fill="url(#gold)" stroke="#fff1a0" stroke-width="3"/>
    <path d="M21 29 H4 V49 C4 76 21 88 43 88" fill="none" stroke="#f1e7ff" stroke-width="12" stroke-linecap="round"/>
    <path d="M123 29 H140 V49 C140 76 123 88 101 88" fill="none" stroke="#f1e7ff" stroke-width="12" stroke-linecap="round"/>
    <path d="M64 114 H80 V139 H111 V154 H33 V139 H64 Z" fill="url(#gold)"/>
    <path d="M72 43 L81 61 L101 64 L86 78 L90 98 L72 88 L54 98 L58 78 L43 64 L63 61 Z" fill="#303477" stroke="#f4ffb0" stroke-width="2"/>
  </g>
  <g opacity=".76">
    <path d="M45 232 C94 182 139 182 191 229 C143 218 98 219 45 232 Z" fill="#9c7cff"/>
    <path d="M675 232 C626 182 581 182 529 229 C577 218 622 219 675 232 Z" fill="#9c7cff"/>
  </g>
  <rect x="20" y="18" width="680" height="224" rx="24" fill="none" stroke="#9c7cff" stroke-opacity=".35" stroke-width="2"/>
  <text x="676" y="224" text-anchor="end" fill="#fff" opacity=".45" font-family="Arial, sans-serif" font-size="18" font-weight="700">05</text>
</svg>