<svg xmlns="http://www.w3.org/2000/svg" width="720" height="260" viewBox="0 0 720 260" role="img" aria-label="Volcano Clash">
  <defs>
    <linearGradient id="bg" x1="0" y1="0" x2="1" y2="1">
      <stop offset="0" stop-color="#28060a"/>
      <stop offset="0.58" stop-color="#86131a"/>
      <stop offset="1" stop-color="#28060a"/>
    </linearGradient>
    <radialGradient id="halo">
      <stop offset="0" stop-color="#ff5b28" stop-opacity=".52"/>
      <stop offset="1" stop-color="#ff5b28" stop-opacity="0"/>
    </radialGradient>
    <linearGradient id="gold" x1="0" y1="0" x2="1" y2="1">
      <stop offset="0" stop-color="#fff39a"/>
      <stop offset=".38" stop-color="#ffbf4d"/>
      <stop offset="1" stop-color="#9c5c05"/>
    </linearGradient>
    <filter id="shadow" x="-50%" y="-50%" width="200%" height="200%">
      <feDropShadow dx="0" dy="8" stdDeviation="8" flood-color="#000" flood-opacity=".55"/>
    </filter>
  </defs>
  <rect width="720" height="260" rx="28" fill="url(#bg)"/>
  <ellipse cx="360" cy="112" rx="245" ry="130" fill="url(#halo)"/>
  <path d="M0 156 Q110 91 220 160 T445 147 T720 123 V260 H0 Z" fill="#28060a" opacity=".67"/>
  <path d="M0 202 Q120 154 240 205 T480 190 T720 195 V260 H0 Z" fill="#001b0d" opacity=".62"/>
  <path d="M469 214 L488.5 170 L508 214 Z" fill="#28060a" opacity="0.24"/><path d="M363 214 L379 119 L395 214 Z" fill="#ff5b28" opacity="0.20"/><path d="M387 214 L402.5 163 L418 214 Z" fill="#28060a" opacity="0.34"/><path d="M258 214 L267 154 L276 214 Z" fill="#ff5b28" opacity="0.36"/><path d="M500 214 L513 162 L526 214 Z" fill="#28060a" opacity="0.22"/><path d="M467 214 L479.5 112 L492 214 Z" fill="#ff5b28" opacity="0.31"/><path d="M397 214 L409.5 124 L422 214 Z" fill="#28060a" opacity="0.16"/><path d="M265 214 L279 150 L293 214 Z" fill="#ff5b28" opacity="0.28"/><path d="M618 214 L627 174 L636 214 Z" fill="#28060a" opacity="0.25"/><path d="M677 214 L696.5 170 L716 214 Z" fill="#ff5b28" opacity="0.17"/><path d="M702 214 L720 118 L738 214 Z" fill="#28060a" opacity="0.21"/><path d="M655 214 L670 175 L685 214 Z" fill="#ff5b28" opacity="0.20"/><path d="M347 214 L361 175 L375 214 Z" fill="#28060a" opacity="0.38"/><path d="M691 214 L704 116 L717 214 Z" fill="#ff5b28" opacity="0.35"/><path d="M65 214 L82.5 116 L100 214 Z" fill="#28060a" opacity="0.34"/><path d="M167 214 L184 166 L201 214 Z" fill="#ff5b28" opacity="0.31"/><path d="M625 214 L635 136 L645 214 Z" fill="#28060a" opacity="0.18"/><path d="M687 214 L703.5 126 L720 214 Z" fill="#ff5b28" opacity="0.41"/>
  <circle cx="558" cy="170" r="0.9" fill="#ffbf4d" opacity="0.26"/><circle cx="293" cy="176" r="1.5" fill="#ffbf4d" opacity="0.83"/><circle cx="419" cy="45" r="1.5" fill="#ffbf4d" opacity="0.41"/><circle cx="116" cy="104" r="1.4" fill="#ffbf4d" opacity="0.62"/><circle cx="634" cy="195" r="2.9" fill="#ffbf4d" opacity="0.34"/><circle cx="439" cy="29" r="2.3" fill="#ffbf4d" opacity="0.87"/><circle cx="558" cy="30" r="2.0" fill="#ffbf4d" opacity="0.81"/><circle cx="37" cy="177" r="2.4" fill="#ffbf4d" opacity="0.53"/><circle cx="352" cy="92" r="1.4" fill="#ffbf4d" opacity="0.45"/><circle cx="371" cy="84" r="2.8" fill="#ffbf4d" opacity="0.36"/><circle cx="379" cy="27" r="0.8" fill="#ffbf4d" opacity="0.54"/><circle cx="501" cy="46" r="1.0" fill="#ffbf4d" opacity="0.39"/><circle cx="127" cy="187" r="0.9" fill="#ffbf4d" opacity="0.51"/><circle cx="357" cy="104" r="2.3" fill="#ffbf4d" opacity="0.81"/><circle cx="59" cy="195" r="2.7" fill="#ffbf4d" opacity="0.86"/><circle cx="158" cy="196" r="1.4" fill="#ffbf4d" opacity="0.79"/><circle cx="286" cy="188" r="1.6" fill="#ffbf4d" opacity="0.65"/><circle cx="30" cy="112" r="1.2" fill="#ffbf4d" opacity="0.83"/><circle cx="126" cy="172" r="1.6" fill="#ffbf4d" opacity="0.51"/><circle cx="529" cy="48" r="3.0" fill="#ffbf4d" opacity="0.26"/><circle cx="595" cy="144" r="1.3" fill="#ffbf4d" opacity="0.88"/><circle cx="644" cy="23" r="2.2" fill="#ffbf4d" opacity="0.40"/>
  <g transform="translate(288 42)" filter="url(#shadow)">
    <path d="M21 17 H123 V53 C123 91 102 111 72 116 C42 111 21 91 21 53 Z" fill="url(#gold)" stroke="#fff1a0" stroke-width="3"/>
    <path d="M21 29 H4 V49 C4 76 21 88 43 88" fill="none" stroke="#ffbf4d" stroke-width="12" stroke-linecap="round"/>
    <path d="M123 29 H140 V49 C140 76 123 88 101 88" fill="none" stroke="#ffbf4d" stroke-width="12" stroke-linecap="round"/>
    <path d="M64 114 H80 V139 H111 V154 H33 V139 H64 Z" fill="url(#gold)"/>
    <path d="M72 43 L81 61 L101 64 L86 78 L90 98 L72 88 L54 98 L58 78 L43 64 L63 61 Z" fill="#86131a" stroke="#f4ffb0" stroke-width="2"/>
  </g>
  <g opacity=".76">
    <path d="M45 232 C94 182 139 182 191 229 C143 218 98 219 45 232 Z" fill="#ff5b28"/>
    <path d="M675 232 C626 182 581 182 529 229 C577 218 622 219 675 232 Z" fill="#ff5b28"/>
  </g>
  <rect x="20" y="18" width="680" height="224" rx="24" fill="none" stroke="#ff5b28" stroke-opacity=".35" stroke-width="2"/>
  <text x="676" y="224" text-anchor="end" fill="#fff" opacity=".45" font-family="Arial, sans-serif" font-size="18" font-weight="700">04</text>
</svg>