<svg xmlns="http://www.w3.org/2000/svg" width="720" height="260" viewBox="0 0 720 260" role="img" aria-label="Moonlight Royale">
  <defs>
    <linearGradient id="bg" x1="0" y1="0" x2="1" y2="1">
      <stop offset="0" stop-color="#0c1230"/>
      <stop offset="0.58" stop-color="#303477"/>
      <stop offset="1" stop-color="#0c1230"/>
    </linearGradient>
    <radialGradient id="halo">
      <stop offset="0" stop-color="#9c7cff" stop-opacity=".52"/>
      <stop offset="1" stop-color="#9c7cff" stop-opacity="0"/>
    </radialGradient>
    <linearGradient id="gold" x1="0" y1="0" x2="1" y2="1">
      <stop offset="0" stop-color="#fff39a"/>
      <stop offset=".38" stop-color="#f1e7ff"/>
      <stop offset="1" stop-color="#9c5c05"/>
    </linearGradient>
    <filter id="shadow" x="-50%" y="-50%" width="200%" height="200%">
      <feDropShadow dx="0" dy="8" stdDeviation="8" flood-color="#000" flood-opacity=".55"/>
    </filter>
  </defs>
  <rect width="720" height="260" rx="28" fill="url(#bg)"/>
  <ellipse cx="360" cy="112" rx="245" ry="130" fill="url(#halo)"/>
  <path d="M0 171 Q110 106 220 175 T445 162 T720 138 V260 H0 Z" fill="#0c1230" opacity=".67"/>
  <path d="M0 202 Q120 154 240 205 T480 190 T720 195 V260 H0 Z" fill="#001b0d" opacity=".62"/>
  <path d="M568 214 L580.5 145 L593 214 Z" fill="#0c1230" opacity="0.34"/><path d="M255 214 L267 141 L279 214 Z" fill="#9c7cff" opacity="0.35"/><path d="M453 214 L463 180 L473 214 Z" fill="#0c1230" opacity="0.40"/><path d="M523 214 L542 153 L561 214 Z" fill="#9c7cff" opacity="0.30"/><path d="M240 214 L250.5 164 L261 214 Z" fill="#0c1230" opacity="0.40"/><path d="M193 214 L212.5 121 L232 214 Z" fill="#9c7cff" opacity="0.21"/><path d="M283 214 L297 121 L311 214 Z" fill="#0c1230" opacity="0.25"/><path d="M189 214 L198.5 177 L208 214 Z" fill="#9c7cff" opacity="0.24"/><path d="M100 214 L112.5 144 L125 214 Z" fill="#0c1230" opacity="0.32"/><path d="M205 214 L216.5 140 L228 214 Z" fill="#9c7cff" opacity="0.34"/><path d="M471 214 L483 125 L495 214 Z" fill="#0c1230" opacity="0.30"/><path d="M278 214 L287 134 L296 214 Z" fill="#9c7cff" opacity="0.22"/><path d="M531 214 L538 137 L545 214 Z" fill="#0c1230" opacity="0.38"/><path d="M247 214 L264.5 131 L282 214 Z" fill="#9c7cff" opacity="0.29"/><path d="M679 214 L692.5 117 L706 214 Z" fill="#0c1230" opacity="0.18"/><path d="M704 214 L716 168 L728 214 Z" fill="#9c7cff" opacity="0.32"/><path d="M486 214 L505.5 139 L525 214 Z" fill="#0c1230" opacity="0.38"/><path d="M384 214 L394 131 L404 214 Z" fill="#9c7cff" opacity="0.29"/>
  <circle cx="252" cy="189" r="1.2" fill="#f1e7ff" opacity="0.62"/><circle cx="95" cy="135" r="1.7" fill="#f1e7ff" opacity="0.45"/><circle cx="414" cy="206" r="2.3" fill="#f1e7ff" opacity="0.31"/><circle cx="136" cy="107" r="1.9" fill="#f1e7ff" opacity="0.30"/><circle cx="386" cy="179" r="2.7" fill="#f1e7ff" opacity="0.33"/><circle cx="90" cy="125" r="3.0" fill="#f1e7ff" opacity="0.28"/><circle cx="170" cy="142" r="1.5" fill="#f1e7ff" opacity="0.64"/><circle cx="597" cy="194" r="1.4" fill="#f1e7ff" opacity="0.87"/><circle cx="629" cy="43" r="2.5" fill="#f1e7ff" opacity="0.63"/><circle cx="422" cy="82" r="0.9" fill="#f1e7ff" opacity="0.77"/><circle cx="407" cy="143" r="2.3" fill="#f1e7ff" opacity="0.48"/><circle cx="366" cy="36" r="2.0" fill="#f1e7ff" opacity="0.81"/><circle cx="368" cy="54" r="1.5" fill="#f1e7ff" opacity="0.82"/><circle cx="418" cy="133" r="2.9" fill="#f1e7ff" opacity="0.29"/><circle cx="608" cy="20" r="2.0" fill="#f1e7ff" opacity="0.61"/><circle cx="356" cy="164" r="2.9" fill="#f1e7ff" opacity="0.66"/><circle cx="214" cy="76" r="2.6" fill="#f1e7ff" opacity="0.44"/><circle cx="383" cy="60" r="1.3" fill="#f1e7ff" opacity="0.33"/><circle cx="480" cy="112" r="1.5" fill="#f1e7ff" opacity="0.84"/><circle cx="446" cy="81" r="2.4" fill="#f1e7ff" opacity="0.66"/><circle cx="679" cy="106" r="2.9" fill="#f1e7ff" opacity="0.77"/><circle cx="283" cy="29" r="2.9" fill="#f1e7ff" opacity="0.54"/>
  <g transform="translate(288 42)" filter="url(#shadow)">
    <path d="M21 17 H123 V53 C123 91 102 111 72 116 C42 111 21 91 21 53 Z" fill="url(#gold)" stroke="#fff1a0" stroke-width="3"/>
    <path d="M21 29 H4 V49 C4 76 21 88 43 88" fill="none" stroke="#f1e7ff" stroke-width="12" stroke-linecap="round"/>
    <path d="M123 29 H140 V49 C140 76 123 88 101 88" fill="none" stroke="#f1e7ff" stroke-width="12" stroke-linecap="round"/>
    <path d="M64 114 H80 V139 H111 V154 H33 V139 H64 Z" fill="url(#gold)"/>
    <path d="M72 43 L81 61 L101 64 L86 78 L90 98 L72 88 L54 98 L58 78 L43 64 L63 61 Z" fill="#303477" stroke="#f4ffb0" stroke-width="2"/>
  </g>
  <g opacity=".76">
    <path d="M45 232 C94 182 139 182 191 229 C143 218 98 219 45 232 Z" fill="#9c7cff"/>
    <path d="M675 232 C626 182 581 182 529 229 C577 218 622 219 675 232 Z" fill="#9c7cff"/>
  </g>
  <rect x="20" y="18" width="680" height="224" rx="24" fill="none" stroke="#9c7cff" stroke-opacity=".35" stroke-width="2"/>
  <text x="676" y="224" text-anchor="end" fill="#fff" opacity=".45" font-family="Arial, sans-serif" font-size="18" font-weight="700">01</text>
</svg>