<svg xmlns="http://www.w3.org/2000/svg" width="720" height="260" viewBox="0 0 720 260" role="img" aria-label="Temple Masters">
  <defs>
    <linearGradient id="bg" x1="0" y1="0" x2="1" y2="1">
      <stop offset="0" stop-color="#201006"/>
      <stop offset="0.58" stop-color="#76521a"/>
      <stop offset="1" stop-color="#201006"/>
    </linearGradient>
    <radialGradient id="halo">
      <stop offset="0" stop-color="#d9a93d" stop-opacity=".52"/>
      <stop offset="1" stop-color="#d9a93d" stop-opacity="0"/>
    </radialGradient>
    <linearGradient id="gold" x1="0" y1="0" x2="1" y2="1">
      <stop offset="0" stop-color="#fff39a"/>
      <stop offset=".38" stop-color="#fff08d"/>
      <stop offset="1" stop-color="#9c5c05"/>
    </linearGradient>
    <filter id="shadow" x="-50%" y="-50%" width="200%" height="200%">
      <feDropShadow dx="0" dy="8" stdDeviation="8" flood-color="#000" flood-opacity=".55"/>
    </filter>
  </defs>
  <rect width="720" height="260" rx="28" fill="url(#bg)"/>
  <ellipse cx="360" cy="112" rx="245" ry="130" fill="url(#halo)"/>
  <path d="M0 168 Q110 103 220 172 T445 159 T720 135 V260 H0 Z" fill="#201006" opacity=".67"/>
  <path d="M0 202 Q120 154 240 205 T480 190 T720 195 V260 H0 Z" fill="#001b0d" opacity=".62"/>
  <path d="M72 214 L83.5 118 L95 214 Z" fill="#201006" opacity="0.22"/><path d="M385 214 L400.5 117 L416 214 Z" fill="#d9a93d" opacity="0.17"/><path d="M300 214 L310 125 L320 214 Z" fill="#201006" opacity="0.28"/><path d="M177 214 L186.5 122 L196 214 Z" fill="#d9a93d" opacity="0.34"/><path d="M50 214 L64 160 L78 214 Z" fill="#201006" opacity="0.38"/><path d="M653 214 L671 136 L689 214 Z" fill="#d9a93d" opacity="0.32"/><path d="M123 214 L141 168 L159 214 Z" fill="#201006" opacity="0.22"/><path d="M403 214 L418.5 148 L434 214 Z" fill="#d9a93d" opacity="0.21"/><path d="M64 214 L80 114 L96 214 Z" fill="#201006" opacity="0.25"/><path d="M190 214 L204.5 129 L219 214 Z" fill="#d9a93d" opacity="0.38"/><path d="M394 214 L401.5 171 L409 214 Z" fill="#201006" opacity="0.27"/><path d="M436 214 L450.5 141 L465 214 Z" fill="#d9a93d" opacity="0.25"/><path d="M28 214 L44 113 L60 214 Z" fill="#201006" opacity="0.20"/><path d="M373 214 L388 136 L403 214 Z" fill="#d9a93d" opacity="0.38"/><path d="M407 214 L418.5 149 L430 214 Z" fill="#201006" opacity="0.19"/><path d="M299 214 L312.5 121 L326 214 Z" fill="#d9a93d" opacity="0.27"/><path d="M477 214 L490.5 161 L504 214 Z" fill="#201006" opacity="0.17"/><path d="M464 214 L475 170 L486 214 Z" fill="#d9a93d" opacity="0.25"/>
  <circle cx="543" cy="56" r="1.6" fill="#fff08d" opacity="0.48"/><circle cx="184" cy="115" r="2.6" fill="#fff08d" opacity="0.57"/><circle cx="619" cy="142" r="0.9" fill="#fff08d" opacity="0.62"/><circle cx="21" cy="133" r="2.9" fill="#fff08d" opacity="0.31"/><circle cx="384" cy="148" r="1.7" fill="#fff08d" opacity="0.84"/><circle cx="613" cy="43" r="1.8" fill="#fff08d" opacity="0.89"/><circle cx="90" cy="127" r="2.6" fill="#fff08d" opacity="0.76"/><circle cx="455" cy="147" r="0.9" fill="#fff08d" opacity="0.63"/><circle cx="283" cy="155" r="1.8" fill="#fff08d" opacity="0.69"/><circle cx="663" cy="189" r="2.5" fill="#fff08d" opacity="0.44"/><circle cx="388" cy="125" r="2.7" fill="#fff08d" opacity="0.67"/><circle cx="435" cy="156" r="2.6" fill="#fff08d" opacity="0.59"/><circle cx="224" cy="120" r="2.6" fill="#fff08d" opacity="0.46"/><circle cx="199" cy="127" r="1.7" fill="#fff08d" opacity="0.44"/><circle cx="373" cy="38" r="2.0" fill="#fff08d" opacity="0.64"/><circle cx="217" cy="151" r="1.2" fill="#fff08d" opacity="0.49"/><circle cx="38" cy="183" r="1.0" fill="#fff08d" opacity="0.76"/><circle cx="85" cy="125" r="2.9" fill="#fff08d" opacity="0.87"/><circle cx="558" cy="154" r="1.5" fill="#fff08d" opacity="0.42"/><circle cx="479" cy="65" r="1.9" fill="#fff08d" opacity="0.89"/><circle cx="292" cy="27" r="2.7" fill="#fff08d" opacity="0.83"/><circle cx="361" cy="208" r="3.0" fill="#fff08d" opacity="0.83"/>
  <g transform="translate(288 42)" filter="url(#shadow)">
    <path d="M21 17 H123 V53 C123 91 102 111 72 116 C42 111 21 91 21 53 Z" fill="url(#gold)" stroke="#fff1a0" stroke-width="3"/>
    <path d="M21 29 H4 V49 C4 76 21 88 43 88" fill="none" stroke="#fff08d" stroke-width="12" stroke-linecap="round"/>
    <path d="M123 29 H140 V49 C140 76 123 88 101 88" fill="none" stroke="#fff08d" stroke-width="12" stroke-linecap="round"/>
    <path d="M64 114 H80 V139 H111 V154 H33 V139 H64 Z" fill="url(#gold)"/>
    <path d="M72 43 L81 61 L101 64 L86 78 L90 98 L72 88 L54 98 L58 78 L43 64 L63 61 Z" fill="#76521a" stroke="#f4ffb0" stroke-width="2"/>
  </g>
  <g opacity=".76">
    <path d="M45 232 C94 182 139 182 191 229 C143 218 98 219 45 232 Z" fill="#d9a93d"/>
    <path d="M675 232 C626 182 581 182 529 229 C577 218 622 219 675 232 Z" fill="#d9a93d"/>
  </g>
  <rect x="20" y="18" width="680" height="224" rx="24" fill="none" stroke="#d9a93d" stroke-opacity=".35" stroke-width="2"/>
  <text x="676" y="224" text-anchor="end" fill="#fff" opacity=".45" font-family="Arial, sans-serif" font-size="18" font-weight="700">03</text>
</svg>