<svg xmlns="http://www.w3.org/2000/svg" width="720" height="260" viewBox="0 0 720 260" role="img" aria-label="Crystal League">
  <defs>
    <linearGradient id="bg" x1="0" y1="0" x2="1" y2="1">
      <stop offset="0" stop-color="#07152f"/>
      <stop offset="0.58" stop-color="#173c90"/>
      <stop offset="1" stop-color="#07152f"/>
    </linearGradient>
    <radialGradient id="halo">
      <stop offset="0" stop-color="#4ec9ff" stop-opacity=".52"/>
      <stop offset="1" stop-color="#4ec9ff" stop-opacity="0"/>
    </radialGradient>
    <linearGradient id="gold" x1="0" y1="0" x2="1" y2="1">
      <stop offset="0" stop-color="#fff39a"/>
      <stop offset=".38" stop-color="#bdf1ff"/>
      <stop offset="1" stop-color="#9c5c05"/>
    </linearGradient>
    <filter id="shadow" x="-50%" y="-50%" width="200%" height="200%">
      <feDropShadow dx="0" dy="8" stdDeviation="8" flood-color="#000" flood-opacity=".55"/>
    </filter>
  </defs>
  <rect width="720" height="260" rx="28" fill="url(#bg)"/>
  <ellipse cx="360" cy="112" rx="245" ry="130" fill="url(#halo)"/>
  <path d="M0 152 Q110 87 220 156 T445 143 T720 119 V260 H0 Z" fill="#07152f" opacity=".67"/>
  <path d="M0 202 Q120 154 240 205 T480 190 T720 195 V260 H0 Z" fill="#001b0d" opacity=".62"/>
  <path d="M22 214 L31 138 L40 214 Z" fill="#07152f" opacity="0.19"/><path d="M567 214 L577.5 126 L588 214 Z" fill="#4ec9ff" opacity="0.17"/><path d="M649 214 L658.5 121 L668 214 Z" fill="#07152f" opacity="0.27"/><path d="M347 214 L355.5 154 L364 214 Z" fill="#4ec9ff" opacity="0.34"/><path d="M174 214 L182 115 L190 214 Z" fill="#07152f" opacity="0.28"/><path d="M136 214 L146.5 139 L157 214 Z" fill="#4ec9ff" opacity="0.36"/><path d="M359 214 L376 147 L393 214 Z" fill="#07152f" opacity="0.36"/><path d="M240 214 L252.5 183 L265 214 Z" fill="#4ec9ff" opacity="0.35"/><path d="M445 214 L463.5 116 L482 214 Z" fill="#07152f" opacity="0.19"/><path d="M39 214 L56 160 L73 214 Z" fill="#4ec9ff" opacity="0.31"/><path d="M625 214 L641 168 L657 214 Z" fill="#07152f" opacity="0.41"/><path d="M49 214 L66.5 137 L84 214 Z" fill="#4ec9ff" opacity="0.38"/><path d="M168 214 L184 114 L200 214 Z" fill="#07152f" opacity="0.21"/><path d="M63 214 L81.5 121 L100 214 Z" fill="#4ec9ff" opacity="0.16"/><path d="M270 214 L277.5 117 L285 214 Z" fill="#07152f" opacity="0.20"/><path d="M586 214 L605.5 143 L625 214 Z" fill="#4ec9ff" opacity="0.23"/><path d="M99 214 L116.5 137 L134 214 Z" fill="#07152f" opacity="0.16"/><path d="M346 214 L356 176 L366 214 Z" fill="#4ec9ff" opacity="0.29"/>
  <circle cx="456" cy="113" r="2.5" fill="#bdf1ff" opacity="0.59"/><circle cx="680" cy="36" r="0.8" fill="#bdf1ff" opacity="0.70"/><circle cx="644" cy="36" r="2.5" fill="#bdf1ff" opacity="0.81"/><circle cx="350" cy="42" r="2.3" fill="#bdf1ff" opacity="0.51"/><circle cx="98" cy="190" r="2.1" fill="#bdf1ff" opacity="0.34"/><circle cx="550" cy="187" r="1.8" fill="#bdf1ff" opacity="0.89"/><circle cx="202" cy="68" r="1.9" fill="#bdf1ff" opacity="0.76"/><circle cx="677" cy="119" r="2.1" fill="#bdf1ff" opacity="0.64"/><circle cx="444" cy="139" r="1.0" fill="#bdf1ff" opacity="0.73"/><circle cx="615" cy="84" r="1.4" fill="#bdf1ff" opacity="0.28"/><circle cx="389" cy="66" r="1.3" fill="#bdf1ff" opacity="0.52"/><circle cx="682" cy="169" r="2.8" fill="#bdf1ff" opacity="0.53"/><circle cx="661" cy="206" r="2.6" fill="#bdf1ff" opacity="0.61"/><circle cx="604" cy="177" r="1.1" fill="#bdf1ff" opacity="0.64"/><circle cx="242" cy="137" r="2.5" fill="#bdf1ff" opacity="0.78"/><circle cx="224" cy="122" r="1.2" fill="#bdf1ff" opacity="0.53"/><circle cx="262" cy="87" r="1.2" fill="#bdf1ff" opacity="0.36"/><circle cx="601" cy="31" r="1.2" fill="#bdf1ff" opacity="0.88"/><circle cx="697" cy="152" r="1.5" fill="#bdf1ff" opacity="0.40"/><circle cx="48" cy="186" r="2.1" fill="#bdf1ff" opacity="0.40"/><circle cx="169" cy="131" r="2.6" fill="#bdf1ff" opacity="0.41"/><circle cx="70" cy="88" r="1.7" fill="#bdf1ff" opacity="0.88"/>
  <g transform="translate(288 42)" filter="url(#shadow)">
    <path d="M21 17 H123 V53 C123 91 102 111 72 116 C42 111 21 91 21 53 Z" fill="url(#gold)" stroke="#fff1a0" stroke-width="3"/>
    <path d="M21 29 H4 V49 C4 76 21 88 43 88" fill="none" stroke="#bdf1ff" stroke-width="12" stroke-linecap="round"/>
    <path d="M123 29 H140 V49 C140 76 123 88 101 88" fill="none" stroke="#bdf1ff" stroke-width="12" stroke-linecap="round"/>
    <path d="M64 114 H80 V139 H111 V154 H33 V139 H64 Z" fill="url(#gold)"/>
    <path d="M72 43 L81 61 L101 64 L86 78 L90 98 L72 88 L54 98 L58 78 L43 64 L63 61 Z" fill="#173c90" stroke="#f4ffb0" stroke-width="2"/>
  </g>
  <g opacity=".76">
    <path d="M45 232 C94 182 139 182 191 229 C143 218 98 219 45 232 Z" fill="#4ec9ff"/>
    <path d="M675 232 C626 182 581 182 529 229 C577 218 622 219 675 232 Z" fill="#4ec9ff"/>
  </g>
  <rect x="20" y="18" width="680" height="224" rx="24" fill="none" stroke="#4ec9ff" stroke-opacity=".35" stroke-width="2"/>
  <text x="676" y="224" text-anchor="end" fill="#fff" opacity=".45" font-family="Arial, sans-serif" font-size="18" font-weight="700">03</text>
</svg>