<svg xmlns="http://www.w3.org/2000/svg" width="720" height="260" viewBox="0 0 720 260" role="img" aria-label="Temple Masters">
  <defs>
    <linearGradient id="bg" x1="0" y1="0" x2="1" y2="1">
      <stop offset="0" stop-color="#201006"/>
      <stop offset="0.58" stop-color="#76521a"/>
      <stop offset="1" stop-color="#201006"/>
    </linearGradient>
    <radialGradient id="halo">
      <stop offset="0" stop-color="#d9a93d" stop-opacity=".52"/>
      <stop offset="1" stop-color="#d9a93d" stop-opacity="0"/>
    </radialGradient>
    <linearGradient id="gold" x1="0" y1="0" x2="1" y2="1">
      <stop offset="0" stop-color="#fff39a"/>
      <stop offset=".38" stop-color="#fff08d"/>
      <stop offset="1" stop-color="#9c5c05"/>
    </linearGradient>
    <filter id="shadow" x="-50%" y="-50%" width="200%" height="200%">
      <feDropShadow dx="0" dy="8" stdDeviation="8" flood-color="#000" flood-opacity=".55"/>
    </filter>
  </defs>
  <rect width="720" height="260" rx="28" fill="url(#bg)"/>
  <ellipse cx="360" cy="112" rx="245" ry="130" fill="url(#halo)"/>
  <path d="M0 160 Q110 95 220 164 T445 151 T720 127 V260 H0 Z" fill="#201006" opacity=".67"/>
  <path d="M0 202 Q120 154 240 205 T480 190 T720 195 V260 H0 Z" fill="#001b0d" opacity=".62"/>
  <path d="M569 214 L581 130 L593 214 Z" fill="#201006" opacity="0.30"/><path d="M718 214 L731 173 L744 214 Z" fill="#d9a93d" opacity="0.21"/><path d="M409 214 L425.5 172 L442 214 Z" fill="#201006" opacity="0.35"/><path d="M639 214 L651 162 L663 214 Z" fill="#d9a93d" opacity="0.36"/><path d="M253 214 L265.5 181 L278 214 Z" fill="#201006" opacity="0.17"/><path d="M61 214 L75.5 178 L90 214 Z" fill="#d9a93d" opacity="0.24"/><path d="M646 214 L660.5 167 L675 214 Z" fill="#201006" opacity="0.40"/><path d="M591 214 L598 151 L605 214 Z" fill="#d9a93d" opacity="0.24"/><path d="M576 214 L592.5 171 L609 214 Z" fill="#201006" opacity="0.38"/><path d="M258 214 L272.5 180 L287 214 Z" fill="#d9a93d" opacity="0.30"/><path d="M239 214 L253 123 L267 214 Z" fill="#201006" opacity="0.19"/><path d="M709 214 L718 183 L727 214 Z" fill="#d9a93d" opacity="0.19"/><path d="M67 214 L81 172 L95 214 Z" fill="#201006" opacity="0.36"/><path d="M591 214 L609.5 147 L628 214 Z" fill="#d9a93d" opacity="0.28"/><path d="M339 214 L351.5 180 L364 214 Z" fill="#201006" opacity="0.31"/><path d="M313 214 L330.5 123 L348 214 Z" fill="#d9a93d" opacity="0.38"/><path d="M662 214 L677.5 112 L693 214 Z" fill="#201006" opacity="0.19"/><path d="M203 214 L221 116 L239 214 Z" fill="#d9a93d" opacity="0.33"/>
  <circle cx="52" cy="56" r="1.3" fill="#fff08d" opacity="0.69"/><circle cx="660" cy="144" r="2.9" fill="#fff08d" opacity="0.57"/><circle cx="369" cy="69" r="2.8" fill="#fff08d" opacity="0.68"/><circle cx="140" cy="97" r="2.6" fill="#fff08d" opacity="0.86"/><circle cx="527" cy="112" r="2.1" fill="#fff08d" opacity="0.70"/><circle cx="566" cy="120" r="2.4" fill="#fff08d" opacity="0.87"/><circle cx="334" cy="149" r="1.4" fill="#fff08d" opacity="0.83"/><circle cx="272" cy="42" r="2.2" fill="#fff08d" opacity="0.50"/><circle cx="29" cy="124" r="2.9" fill="#fff08d" opacity="0.38"/><circle cx="468" cy="106" r="2.8" fill="#fff08d" opacity="0.67"/><circle cx="377" cy="146" r="1.5" fill="#fff08d" opacity="0.83"/><circle cx="687" cy="18" r="2.8" fill="#fff08d" opacity="0.50"/><circle cx="613" cy="204" r="1.0" fill="#fff08d" opacity="0.85"/><circle cx="227" cy="194" r="1.4" fill="#fff08d" opacity="0.42"/><circle cx="321" cy="187" r="1.8" fill="#fff08d" opacity="0.59"/><circle cx="143" cy="64" r="1.5" fill="#fff08d" opacity="0.71"/><circle cx="519" cy="190" r="1.2" fill="#fff08d" opacity="0.79"/><circle cx="357" cy="109" r="2.4" fill="#fff08d" opacity="0.82"/><circle cx="528" cy="177" r="1.6" fill="#fff08d" opacity="0.54"/><circle cx="32" cy="187" r="2.7" fill="#fff08d" opacity="0.60"/><circle cx="160" cy="125" r="1.5" fill="#fff08d" opacity="0.41"/><circle cx="545" cy="71" r="2.5" fill="#fff08d" opacity="0.30"/>
  <g transform="translate(288 42)" filter="url(#shadow)">
    <path d="M21 17 H123 V53 C123 91 102 111 72 116 C42 111 21 91 21 53 Z" fill="url(#gold)" stroke="#fff1a0" stroke-width="3"/>
    <path d="M21 29 H4 V49 C4 76 21 88 43 88" fill="none" stroke="#fff08d" stroke-width="12" stroke-linecap="round"/>
    <path d="M123 29 H140 V49 C140 76 123 88 101 88" fill="none" stroke="#fff08d" stroke-width="12" stroke-linecap="round"/>
    <path d="M64 114 H80 V139 H111 V154 H33 V139 H64 Z" fill="url(#gold)"/>
    <path d="M72 43 L81 61 L101 64 L86 78 L90 98 L72 88 L54 98 L58 78 L43 64 L63 61 Z" fill="#76521a" stroke="#f4ffb0" stroke-width="2"/>
  </g>
  <g opacity=".76">
    <path d="M45 232 C94 182 139 182 191 229 C143 218 98 219 45 232 Z" fill="#d9a93d"/>
    <path d="M675 232 C626 182 581 182 529 229 C577 218 622 219 675 232 Z" fill="#d9a93d"/>
  </g>
  <rect x="20" y="18" width="680" height="224" rx="24" fill="none" stroke="#d9a93d" stroke-opacity=".35" stroke-width="2"/>
  <text x="676" y="224" text-anchor="end" fill="#fff" opacity=".45" font-family="Arial, sans-serif" font-size="18" font-weight="700">04</text>
</svg>