<svg xmlns="http://www.w3.org/2000/svg" width="720" height="260" viewBox="0 0 720 260" role="img" aria-label="Forest Crown">
  <defs>
    <linearGradient id="bg" x1="0" y1="0" x2="1" y2="1">
      <stop offset="0" stop-color="#031f10"/>
      <stop offset="0.58" stop-color="#08753a"/>
      <stop offset="1" stop-color="#031f10"/>
    </linearGradient>
    <radialGradient id="halo">
      <stop offset="0" stop-color="#59e77f" stop-opacity=".52"/>
      <stop offset="1" stop-color="#59e77f" stop-opacity="0"/>
    </radialGradient>
    <linearGradient id="gold" x1="0" y1="0" x2="1" y2="1">
      <stop offset="0" stop-color="#fff39a"/>
      <stop offset=".38" stop-color="#f5ce48"/>
      <stop offset="1" stop-color="#9c5c05"/>
    </linearGradient>
    <filter id="shadow" x="-50%" y="-50%" width="200%" height="200%">
      <feDropShadow dx="0" dy="8" stdDeviation="8" flood-color="#000" flood-opacity=".55"/>
    </filter>
  </defs>
  <rect width="720" height="260" rx="28" fill="url(#bg)"/>
  <ellipse cx="360" cy="112" rx="245" ry="130" fill="url(#halo)"/>
  <path d="M0 171 Q110 106 220 175 T445 162 T720 138 V260 H0 Z" fill="#031f10" opacity=".67"/>
  <path d="M0 202 Q120 154 240 205 T480 190 T720 195 V260 H0 Z" fill="#001b0d" opacity=".62"/>
  <path d="M220 214 L227.5 144 L235 214 Z" fill="#031f10" opacity="0.36"/><path d="M94 214 L110 130 L126 214 Z" fill="#59e77f" opacity="0.32"/><path d="M17 214 L34.5 147 L52 214 Z" fill="#031f10" opacity="0.35"/><path d="M272 214 L280.5 160 L289 214 Z" fill="#59e77f" opacity="0.29"/><path d="M386 214 L404 135 L422 214 Z" fill="#031f10" opacity="0.18"/><path d="M175 214 L194 142 L213 214 Z" fill="#59e77f" opacity="0.19"/><path d="M493 214 L500.5 114 L508 214 Z" fill="#031f10" opacity="0.18"/><path d="M489 214 L503 139 L517 214 Z" fill="#59e77f" opacity="0.27"/><path d="M606 214 L623 155 L640 214 Z" fill="#031f10" opacity="0.38"/><path d="M590 214 L606.5 141 L623 214 Z" fill="#59e77f" opacity="0.37"/><path d="M651 214 L670 180 L689 214 Z" fill="#031f10" opacity="0.23"/><path d="M447 214 L464.5 176 L482 214 Z" fill="#59e77f" opacity="0.39"/><path d="M72 214 L80.5 145 L89 214 Z" fill="#031f10" opacity="0.19"/><path d="M238 214 L254.5 167 L271 214 Z" fill="#59e77f" opacity="0.28"/><path d="M439 214 L450.5 181 L462 214 Z" fill="#031f10" opacity="0.27"/><path d="M551 214 L566.5 173 L582 214 Z" fill="#59e77f" opacity="0.31"/><path d="M717 214 L736.5 116 L756 214 Z" fill="#031f10" opacity="0.36"/><path d="M279 214 L296.5 169 L314 214 Z" fill="#59e77f" opacity="0.34"/>
  <circle cx="324" cy="208" r="0.9" fill="#f5ce48" opacity="0.74"/><circle cx="170" cy="152" r="2.4" fill="#f5ce48" opacity="0.72"/><circle cx="589" cy="29" r="2.3" fill="#f5ce48" opacity="0.34"/><circle cx="393" cy="38" r="1.8" fill="#f5ce48" opacity="0.43"/><circle cx="422" cy="90" r="1.1" fill="#f5ce48" opacity="0.69"/><circle cx="327" cy="185" r="2.6" fill="#f5ce48" opacity="0.30"/><circle cx="271" cy="108" r="2.9" fill="#f5ce48" opacity="0.60"/><circle cx="113" cy="191" r="0.9" fill="#f5ce48" opacity="0.31"/><circle cx="399" cy="122" r="1.5" fill="#f5ce48" opacity="0.85"/><circle cx="83" cy="103" r="1.8" fill="#f5ce48" opacity="0.35"/><circle cx="414" cy="110" r="1.2" fill="#f5ce48" opacity="0.76"/><circle cx="53" cy="132" r="1.1" fill="#f5ce48" opacity="0.41"/><circle cx="28" cy="89" r="1.1" fill="#f5ce48" opacity="0.61"/><circle cx="535" cy="105" r="2.9" fill="#f5ce48" opacity="0.37"/><circle cx="372" cy="143" r="3.0" fill="#f5ce48" opacity="0.25"/><circle cx="408" cy="149" r="2.8" fill="#f5ce48" opacity="0.31"/><circle cx="421" cy="166" r="1.8" fill="#f5ce48" opacity="0.29"/><circle cx="600" cy="166" r="2.5" fill="#f5ce48" opacity="0.36"/><circle cx="93" cy="97" r="1.4" fill="#f5ce48" opacity="0.75"/><circle cx="147" cy="167" r="1.2" fill="#f5ce48" opacity="0.47"/><circle cx="499" cy="75" r="2.1" fill="#f5ce48" opacity="0.48"/><circle cx="290" cy="144" r="2.7" fill="#f5ce48" opacity="0.27"/>
  <g transform="translate(288 42)" filter="url(#shadow)">
    <path d="M21 17 H123 V53 C123 91 102 111 72 116 C42 111 21 91 21 53 Z" fill="url(#gold)" stroke="#fff1a0" stroke-width="3"/>
    <path d="M21 29 H4 V49 C4 76 21 88 43 88" fill="none" stroke="#f5ce48" stroke-width="12" stroke-linecap="round"/>
    <path d="M123 29 H140 V49 C140 76 123 88 101 88" fill="none" stroke="#f5ce48" stroke-width="12" stroke-linecap="round"/>
    <path d="M64 114 H80 V139 H111 V154 H33 V139 H64 Z" fill="url(#gold)"/>
    <path d="M72 43 L81 61 L101 64 L86 78 L90 98 L72 88 L54 98 L58 78 L43 64 L63 61 Z" fill="#08753a" stroke="#f4ffb0" stroke-width="2"/>
  </g>
  <g opacity=".76">
    <path d="M45 232 C94 182 139 182 191 229 C143 218 98 219 45 232 Z" fill="#59e77f"/>
    <path d="M675 232 C626 182 581 182 529 229 C577 218 622 219 675 232 Z" fill="#59e77f"/>
  </g>
  <rect x="20" y="18" width="680" height="224" rx="24" fill="none" stroke="#59e77f" stroke-opacity=".35" stroke-width="2"/>
  <text x="676" y="224" text-anchor="end" fill="#fff" opacity=".45" font-family="Arial, sans-serif" font-size="18" font-weight="700">01</text>
</svg>