<svg xmlns="http://www.w3.org/2000/svg" width="720" height="260" viewBox="0 0 720 260" role="img" aria-label="Emerald River">
  <defs>
    <linearGradient id="bg" x1="0" y1="0" x2="1" y2="1">
      <stop offset="0" stop-color="#03251c"/>
      <stop offset="0.58" stop-color="#08745f"/>
      <stop offset="1" stop-color="#03251c"/>
    </linearGradient>
    <radialGradient id="halo">
      <stop offset="0" stop-color="#39d4b4" stop-opacity=".52"/>
      <stop offset="1" stop-color="#39d4b4" stop-opacity="0"/>
    </radialGradient>
    <linearGradient id="gold" x1="0" y1="0" x2="1" y2="1">
      <stop offset="0" stop-color="#fff39a"/>
      <stop offset=".38" stop-color="#ddff91"/>
      <stop offset="1" stop-color="#9c5c05"/>
    </linearGradient>
    <filter id="shadow" x="-50%" y="-50%" width="200%" height="200%">
      <feDropShadow dx="0" dy="8" stdDeviation="8" flood-color="#000" flood-opacity=".55"/>
    </filter>
  </defs>
  <rect width="720" height="260" rx="28" fill="url(#bg)"/>
  <ellipse cx="360" cy="112" rx="245" ry="130" fill="url(#halo)"/>
  <path d="M0 164 Q110 99 220 168 T445 155 T720 131 V260 H0 Z" fill="#03251c" opacity=".67"/>
  <path d="M0 202 Q120 154 240 205 T480 190 T720 195 V260 H0 Z" fill="#001b0d" opacity=".62"/>
  <path d="M668 214 L685 161 L702 214 Z" fill="#03251c" opacity="0.37"/><path d="M353 214 L363 156 L373 214 Z" fill="#39d4b4" opacity="0.22"/><path d="M431 214 L449 182 L467 214 Z" fill="#03251c" opacity="0.36"/><path d="M299 214 L314 170 L329 214 Z" fill="#39d4b4" opacity="0.37"/><path d="M6 214 L18.5 127 L31 214 Z" fill="#03251c" opacity="0.38"/><path d="M375 214 L391 172 L407 214 Z" fill="#39d4b4" opacity="0.17"/><path d="M174 214 L190 138 L206 214 Z" fill="#03251c" opacity="0.38"/><path d="M197 214 L210 152 L223 214 Z" fill="#39d4b4" opacity="0.20"/><path d="M534 214 L545.5 168 L557 214 Z" fill="#03251c" opacity="0.25"/><path d="M560 214 L569.5 118 L579 214 Z" fill="#39d4b4" opacity="0.19"/><path d="M496 214 L506.5 128 L517 214 Z" fill="#03251c" opacity="0.18"/><path d="M44 214 L59.5 120 L75 214 Z" fill="#39d4b4" opacity="0.18"/><path d="M507 214 L520.5 170 L534 214 Z" fill="#03251c" opacity="0.34"/><path d="M490 214 L501.5 178 L513 214 Z" fill="#39d4b4" opacity="0.21"/><path d="M614 214 L621.5 172 L629 214 Z" fill="#03251c" opacity="0.29"/><path d="M460 214 L478.5 152 L497 214 Z" fill="#39d4b4" opacity="0.21"/><path d="M699 214 L707 160 L715 214 Z" fill="#03251c" opacity="0.19"/><path d="M439 214 L458 177 L477 214 Z" fill="#39d4b4" opacity="0.24"/>
  <circle cx="226" cy="132" r="1.7" fill="#ddff91" opacity="0.47"/><circle cx="347" cy="112" r="2.1" fill="#ddff91" opacity="0.30"/><circle cx="319" cy="92" r="1.8" fill="#ddff91" opacity="0.30"/><circle cx="164" cy="90" r="1.7" fill="#ddff91" opacity="0.45"/><circle cx="419" cy="29" r="1.3" fill="#ddff91" opacity="0.42"/><circle cx="692" cy="22" r="2.5" fill="#ddff91" opacity="0.87"/><circle cx="111" cy="77" r="2.9" fill="#ddff91" opacity="0.84"/><circle cx="508" cy="97" r="2.0" fill="#ddff91" opacity="0.48"/><circle cx="386" cy="155" r="2.3" fill="#ddff91" opacity="0.32"/><circle cx="565" cy="127" r="2.9" fill="#ddff91" opacity="0.33"/><circle cx="375" cy="74" r="2.1" fill="#ddff91" opacity="0.47"/><circle cx="193" cy="181" r="2.4" fill="#ddff91" opacity="0.62"/><circle cx="419" cy="31" r="1.1" fill="#ddff91" opacity="0.54"/><circle cx="96" cy="93" r="2.7" fill="#ddff91" opacity="0.67"/><circle cx="583" cy="179" r="0.9" fill="#ddff91" opacity="0.32"/><circle cx="128" cy="123" r="1.5" fill="#ddff91" opacity="0.62"/><circle cx="71" cy="191" r="0.8" fill="#ddff91" opacity="0.27"/><circle cx="683" cy="105" r="1.5" fill="#ddff91" opacity="0.81"/><circle cx="250" cy="181" r="1.6" fill="#ddff91" opacity="0.56"/><circle cx="214" cy="135" r="2.4" fill="#ddff91" opacity="0.28"/><circle cx="406" cy="107" r="1.8" fill="#ddff91" opacity="0.58"/><circle cx="446" cy="120" r="2.9" fill="#ddff91" opacity="0.84"/>
  <g transform="translate(288 42)" filter="url(#shadow)">
    <path d="M21 17 H123 V53 C123 91 102 111 72 116 C42 111 21 91 21 53 Z" fill="url(#gold)" stroke="#fff1a0" stroke-width="3"/>
    <path d="M21 29 H4 V49 C4 76 21 88 43 88" fill="none" stroke="#ddff91" stroke-width="12" stroke-linecap="round"/>
    <path d="M123 29 H140 V49 C140 76 123 88 101 88" fill="none" stroke="#ddff91" stroke-width="12" stroke-linecap="round"/>
    <path d="M64 114 H80 V139 H111 V154 H33 V139 H64 Z" fill="url(#gold)"/>
    <path d="M72 43 L81 61 L101 64 L86 78 L90 98 L72 88 L54 98 L58 78 L43 64 L63 61 Z" fill="#08745f" stroke="#f4ffb0" stroke-width="2"/>
  </g>
  <g opacity=".76">
    <path d="M45 232 C94 182 139 182 191 229 C143 218 98 219 45 232 Z" fill="#39d4b4"/>
    <path d="M675 232 C626 182 581 182 529 229 C577 218 622 219 675 232 Z" fill="#39d4b4"/>
  </g>
  <rect x="20" y="18" width="680" height="224" rx="24" fill="none" stroke="#39d4b4" stroke-opacity=".35" stroke-width="2"/>
  <text x="676" y="224" text-anchor="end" fill="#fff" opacity=".45" font-family="Arial, sans-serif" font-size="18" font-weight="700">04</text>
</svg>