<svg xmlns="http://www.w3.org/2000/svg" width="720" height="260" viewBox="0 0 720 260" role="img" aria-label="Tropical Treasure">
  <defs>
    <linearGradient id="bg" x1="0" y1="0" x2="1" y2="1">
      <stop offset="0" stop-color="#022a26"/>
      <stop offset="0.58" stop-color="#08755c"/>
      <stop offset="1" stop-color="#022a26"/>
    </linearGradient>
    <radialGradient id="halo">
      <stop offset="0" stop-color="#45d9a5" stop-opacity=".52"/>
      <stop offset="1" stop-color="#45d9a5" stop-opacity="0"/>
    </radialGradient>
    <linearGradient id="gold" x1="0" y1="0" x2="1" y2="1">
      <stop offset="0" stop-color="#fff39a"/>
      <stop offset=".38" stop-color="#ffd64f"/>
      <stop offset="1" stop-color="#9c5c05"/>
    </linearGradient>
    <filter id="shadow" x="-50%" y="-50%" width="200%" height="200%">
      <feDropShadow dx="0" dy="8" stdDeviation="8" flood-color="#000" flood-opacity=".55"/>
    </filter>
  </defs>
  <rect width="720" height="260" rx="28" fill="url(#bg)"/>
  <ellipse cx="360" cy="112" rx="245" ry="130" fill="url(#halo)"/>
  <path d="M0 166 Q110 101 220 170 T445 157 T720 133 V260 H0 Z" fill="#022a26" opacity=".67"/>
  <path d="M0 202 Q120 154 240 205 T480 190 T720 195 V260 H0 Z" fill="#001b0d" opacity=".62"/>
  <path d="M248 214 L267 167 L286 214 Z" fill="#022a26" opacity="0.28"/><path d="M439 214 L454 135 L469 214 Z" fill="#45d9a5" opacity="0.35"/><path d="M452 214 L468.5 130 L485 214 Z" fill="#022a26" opacity="0.35"/><path d="M115 214 L132 132 L149 214 Z" fill="#45d9a5" opacity="0.19"/><path d="M716 214 L729.5 127 L743 214 Z" fill="#022a26" opacity="0.28"/><path d="M464 214 L480.5 140 L497 214 Z" fill="#45d9a5" opacity="0.26"/><path d="M563 214 L572.5 169 L582 214 Z" fill="#022a26" opacity="0.23"/><path d="M136 214 L151.5 127 L167 214 Z" fill="#45d9a5" opacity="0.32"/><path d="M165 214 L178.5 113 L192 214 Z" fill="#022a26" opacity="0.19"/><path d="M77 214 L86.5 117 L96 214 Z" fill="#45d9a5" opacity="0.31"/><path d="M316 214 L329.5 140 L343 214 Z" fill="#022a26" opacity="0.27"/><path d="M640 214 L650 123 L660 214 Z" fill="#45d9a5" opacity="0.36"/><path d="M642 214 L661 126 L680 214 Z" fill="#022a26" opacity="0.26"/><path d="M533 214 L550 142 L567 214 Z" fill="#45d9a5" opacity="0.25"/><path d="M377 214 L394.5 139 L412 214 Z" fill="#022a26" opacity="0.34"/><path d="M510 214 L524 124 L538 214 Z" fill="#45d9a5" opacity="0.24"/><path d="M267 214 L274.5 132 L282 214 Z" fill="#022a26" opacity="0.27"/><path d="M245 214 L264 129 L283 214 Z" fill="#45d9a5" opacity="0.27"/>
  <circle cx="547" cy="37" r="0.8" fill="#ffd64f" opacity="0.52"/><circle cx="654" cy="25" r="0.9" fill="#ffd64f" opacity="0.28"/><circle cx="124" cy="24" r="1.6" fill="#ffd64f" opacity="0.84"/><circle cx="238" cy="58" r="1.8" fill="#ffd64f" opacity="0.43"/><circle cx="238" cy="92" r="2.6" fill="#ffd64f" opacity="0.57"/><circle cx="188" cy="102" r="2.2" fill="#ffd64f" opacity="0.79"/><circle cx="287" cy="58" r="2.8" fill="#ffd64f" opacity="0.41"/><circle cx="209" cy="110" r="2.3" fill="#ffd64f" opacity="0.68"/><circle cx="178" cy="141" r="2.9" fill="#ffd64f" opacity="0.54"/><circle cx="222" cy="24" r="2.7" fill="#ffd64f" opacity="0.50"/><circle cx="340" cy="51" r="0.9" fill="#ffd64f" opacity="0.40"/><circle cx="394" cy="81" r="2.1" fill="#ffd64f" opacity="0.65"/><circle cx="81" cy="43" r="0.9" fill="#ffd64f" opacity="0.28"/><circle cx="193" cy="43" r="2.7" fill="#ffd64f" opacity="0.27"/><circle cx="400" cy="132" r="2.4" fill="#ffd64f" opacity="0.80"/><circle cx="551" cy="199" r="2.4" fill="#ffd64f" opacity="0.41"/><circle cx="392" cy="119" r="2.6" fill="#ffd64f" opacity="0.38"/><circle cx="277" cy="145" r="1.9" fill="#ffd64f" opacity="0.62"/><circle cx="144" cy="69" r="1.8" fill="#ffd64f" opacity="0.33"/><circle cx="348" cy="86" r="1.8" fill="#ffd64f" opacity="0.57"/><circle cx="624" cy="72" r="1.1" fill="#ffd64f" opacity="0.75"/><circle cx="410" cy="118" r="1.4" fill="#ffd64f" opacity="0.28"/>
  <g transform="translate(288 42)" filter="url(#shadow)">
    <path d="M21 17 H123 V53 C123 91 102 111 72 116 C42 111 21 91 21 53 Z" fill="url(#gold)" stroke="#fff1a0" stroke-width="3"/>
    <path d="M21 29 H4 V49 C4 76 21 88 43 88" fill="none" stroke="#ffd64f" stroke-width="12" stroke-linecap="round"/>
    <path d="M123 29 H140 V49 C140 76 123 88 101 88" fill="none" stroke="#ffd64f" stroke-width="12" stroke-linecap="round"/>
    <path d="M64 114 H80 V139 H111 V154 H33 V139 H64 Z" fill="url(#gold)"/>
    <path d="M72 43 L81 61 L101 64 L86 78 L90 98 L72 88 L54 98 L58 78 L43 64 L63 61 Z" fill="#08755c" stroke="#f4ffb0" stroke-width="2"/>
  </g>
  <g opacity=".76">
    <path d="M45 232 C94 182 139 182 191 229 C143 218 98 219 45 232 Z" fill="#45d9a5"/>
    <path d="M675 232 C626 182 581 182 529 229 C577 218 622 219 675 232 Z" fill="#45d9a5"/>
  </g>
  <rect x="20" y="18" width="680" height="224" rx="24" fill="none" stroke="#45d9a5" stroke-opacity=".35" stroke-width="2"/>
  <text x="676" y="224" text-anchor="end" fill="#fff" opacity=".45" font-family="Arial, sans-serif" font-size="18" font-weight="700">08</text>
</svg>