<svg xmlns="http://www.w3.org/2000/svg" width="720" height="260" viewBox="0 0 720 260" role="img" aria-label="Forest Crown">
  <defs>
    <linearGradient id="bg" x1="0" y1="0" x2="1" y2="1">
      <stop offset="0" stop-color="#031f10"/>
      <stop offset="0.58" stop-color="#08753a"/>
      <stop offset="1" stop-color="#031f10"/>
    </linearGradient>
    <radialGradient id="halo">
      <stop offset="0" stop-color="#59e77f" stop-opacity=".52"/>
      <stop offset="1" stop-color="#59e77f" stop-opacity="0"/>
    </radialGradient>
    <linearGradient id="gold" x1="0" y1="0" x2="1" y2="1">
      <stop offset="0" stop-color="#fff39a"/>
      <stop offset=".38" stop-color="#f5ce48"/>
      <stop offset="1" stop-color="#9c5c05"/>
    </linearGradient>
    <filter id="shadow" x="-50%" y="-50%" width="200%" height="200%">
      <feDropShadow dx="0" dy="8" stdDeviation="8" flood-color="#000" flood-opacity=".55"/>
    </filter>
  </defs>
  <rect width="720" height="260" rx="28" fill="url(#bg)"/>
  <ellipse cx="360" cy="112" rx="245" ry="130" fill="url(#halo)"/>
  <path d="M0 148 Q110 83 220 152 T445 139 T720 115 V260 H0 Z" fill="#031f10" opacity=".67"/>
  <path d="M0 202 Q120 154 240 205 T480 190 T720 195 V260 H0 Z" fill="#001b0d" opacity=".62"/>
  <path d="M271 214 L280 180 L289 214 Z" fill="#031f10" opacity="0.35"/><path d="M374 214 L383.5 154 L393 214 Z" fill="#59e77f" opacity="0.19"/><path d="M344 214 L356.5 144 L369 214 Z" fill="#031f10" opacity="0.31"/><path d="M218 214 L233.5 138 L249 214 Z" fill="#59e77f" opacity="0.35"/><path d="M275 214 L288.5 125 L302 214 Z" fill="#031f10" opacity="0.30"/><path d="M560 214 L569 124 L578 214 Z" fill="#59e77f" opacity="0.19"/><path d="M620 214 L629 182 L638 214 Z" fill="#031f10" opacity="0.19"/><path d="M334 214 L348.5 149 L363 214 Z" fill="#59e77f" opacity="0.37"/><path d="M701 214 L719.5 180 L738 214 Z" fill="#031f10" opacity="0.25"/><path d="M73 214 L90 150 L107 214 Z" fill="#59e77f" opacity="0.40"/><path d="M188 214 L200.5 180 L213 214 Z" fill="#031f10" opacity="0.24"/><path d="M546 214 L561 158 L576 214 Z" fill="#59e77f" opacity="0.22"/><path d="M188 214 L203 180 L218 214 Z" fill="#031f10" opacity="0.16"/><path d="M172 214 L186 126 L200 214 Z" fill="#59e77f" opacity="0.24"/><path d="M236 214 L250.5 132 L265 214 Z" fill="#031f10" opacity="0.39"/><path d="M593 214 L608 180 L623 214 Z" fill="#59e77f" opacity="0.16"/><path d="M551 214 L563 113 L575 214 Z" fill="#031f10" opacity="0.18"/><path d="M216 214 L229.5 148 L243 214 Z" fill="#59e77f" opacity="0.33"/>
  <circle cx="211" cy="208" r="2.4" fill="#f5ce48" opacity="0.70"/><circle cx="238" cy="51" r="1.0" fill="#f5ce48" opacity="0.70"/><circle cx="519" cy="189" r="1.2" fill="#f5ce48" opacity="0.52"/><circle cx="69" cy="119" r="1.0" fill="#f5ce48" opacity="0.79"/><circle cx="169" cy="172" r="2.3" fill="#f5ce48" opacity="0.27"/><circle cx="186" cy="36" r="2.0" fill="#f5ce48" opacity="0.88"/><circle cx="324" cy="173" r="1.2" fill="#f5ce48" opacity="0.79"/><circle cx="246" cy="67" r="2.7" fill="#f5ce48" opacity="0.58"/><circle cx="317" cy="28" r="2.7" fill="#f5ce48" opacity="0.57"/><circle cx="177" cy="42" r="2.6" fill="#f5ce48" opacity="0.40"/><circle cx="383" cy="171" r="1.8" fill="#f5ce48" opacity="0.60"/><circle cx="128" cy="101" r="1.8" fill="#f5ce48" opacity="0.81"/><circle cx="516" cy="153" r="2.9" fill="#f5ce48" opacity="0.48"/><circle cx="618" cy="116" r="2.0" fill="#f5ce48" opacity="0.30"/><circle cx="216" cy="21" r="2.4" fill="#f5ce48" opacity="0.75"/><circle cx="187" cy="78" r="1.3" fill="#f5ce48" opacity="0.32"/><circle cx="502" cy="186" r="2.4" fill="#f5ce48" opacity="0.38"/><circle cx="58" cy="118" r="1.0" fill="#f5ce48" opacity="0.85"/><circle cx="682" cy="163" r="1.6" fill="#f5ce48" opacity="0.46"/><circle cx="164" cy="152" r="1.3" fill="#f5ce48" opacity="0.25"/><circle cx="103" cy="180" r="0.9" fill="#f5ce48" opacity="0.53"/><circle cx="162" cy="115" r="1.5" fill="#f5ce48" opacity="0.62"/>
  <g transform="translate(288 42)" filter="url(#shadow)">
    <path d="M21 17 H123 V53 C123 91 102 111 72 116 C42 111 21 91 21 53 Z" fill="url(#gold)" stroke="#fff1a0" stroke-width="3"/>
    <path d="M21 29 H4 V49 C4 76 21 88 43 88" fill="none" stroke="#f5ce48" stroke-width="12" stroke-linecap="round"/>
    <path d="M123 29 H140 V49 C140 76 123 88 101 88" fill="none" stroke="#f5ce48" stroke-width="12" stroke-linecap="round"/>
    <path d="M64 114 H80 V139 H111 V154 H33 V139 H64 Z" fill="url(#gold)"/>
    <path d="M72 43 L81 61 L101 64 L86 78 L90 98 L72 88 L54 98 L58 78 L43 64 L63 61 Z" fill="#08753a" stroke="#f4ffb0" stroke-width="2"/>
  </g>
  <g opacity=".76">
    <path d="M45 232 C94 182 139 182 191 229 C143 218 98 219 45 232 Z" fill="#59e77f"/>
    <path d="M675 232 C626 182 581 182 529 229 C577 218 622 219 675 232 Z" fill="#59e77f"/>
  </g>
  <rect x="20" y="18" width="680" height="224" rx="24" fill="none" stroke="#59e77f" stroke-opacity=".35" stroke-width="2"/>
  <text x="676" y="224" text-anchor="end" fill="#fff" opacity=".45" font-family="Arial, sans-serif" font-size="18" font-weight="700">04</text>
</svg>