<svg xmlns="http://www.w3.org/2000/svg" width="720" height="260" viewBox="0 0 720 260" role="img" aria-label="Waterfall Cup">
  <defs>
    <linearGradient id="bg" x1="0" y1="0" x2="1" y2="1">
      <stop offset="0" stop-color="#052e35"/>
      <stop offset="0.58" stop-color="#087f8f"/>
      <stop offset="1" stop-color="#052e35"/>
    </linearGradient>
    <radialGradient id="halo">
      <stop offset="0" stop-color="#52e8df" stop-opacity=".52"/>
      <stop offset="1" stop-color="#52e8df" stop-opacity="0"/>
    </radialGradient>
    <linearGradient id="gold" x1="0" y1="0" x2="1" y2="1">
      <stop offset="0" stop-color="#fff39a"/>
      <stop offset=".38" stop-color="#e8fff8"/>
      <stop offset="1" stop-color="#9c5c05"/>
    </linearGradient>
    <filter id="shadow" x="-50%" y="-50%" width="200%" height="200%">
      <feDropShadow dx="0" dy="8" stdDeviation="8" flood-color="#000" flood-opacity=".55"/>
    </filter>
  </defs>
  <rect width="720" height="260" rx="28" fill="url(#bg)"/>
  <ellipse cx="360" cy="112" rx="245" ry="130" fill="url(#halo)"/>
  <path d="M0 164 Q110 99 220 168 T445 155 T720 131 V260 H0 Z" fill="#052e35" opacity=".67"/>
  <path d="M0 202 Q120 154 240 205 T480 190 T720 195 V260 H0 Z" fill="#001b0d" opacity=".62"/>
  <path d="M320 214 L331.5 160 L343 214 Z" fill="#052e35" opacity="0.39"/><path d="M191 214 L205 145 L219 214 Z" fill="#52e8df" opacity="0.19"/><path d="M714 214 L727.5 149 L741 214 Z" fill="#052e35" opacity="0.31"/><path d="M48 214 L65 178 L82 214 Z" fill="#52e8df" opacity="0.35"/><path d="M151 214 L158 170 L165 214 Z" fill="#052e35" opacity="0.40"/><path d="M357 214 L373 121 L389 214 Z" fill="#52e8df" opacity="0.41"/><path d="M385 214 L395 131 L405 214 Z" fill="#052e35" opacity="0.31"/><path d="M497 214 L514.5 113 L532 214 Z" fill="#52e8df" opacity="0.22"/><path d="M320 214 L336 179 L352 214 Z" fill="#052e35" opacity="0.31"/><path d="M224 214 L238.5 119 L253 214 Z" fill="#52e8df" opacity="0.22"/><path d="M676 214 L693 183 L710 214 Z" fill="#052e35" opacity="0.36"/><path d="M213 214 L224.5 162 L236 214 Z" fill="#52e8df" opacity="0.34"/><path d="M48 214 L63 178 L78 214 Z" fill="#052e35" opacity="0.40"/><path d="M482 214 L492.5 142 L503 214 Z" fill="#52e8df" opacity="0.20"/><path d="M373 214 L391 164 L409 214 Z" fill="#052e35" opacity="0.38"/><path d="M306 214 L315.5 158 L325 214 Z" fill="#52e8df" opacity="0.20"/><path d="M210 214 L218.5 137 L227 214 Z" fill="#052e35" opacity="0.18"/><path d="M334 214 L348.5 143 L363 214 Z" fill="#52e8df" opacity="0.29"/>
  <circle cx="298" cy="151" r="1.5" fill="#e8fff8" opacity="0.59"/><circle cx="422" cy="130" r="2.8" fill="#e8fff8" opacity="0.57"/><circle cx="494" cy="105" r="1.9" fill="#e8fff8" opacity="0.33"/><circle cx="421" cy="20" r="1.7" fill="#e8fff8" opacity="0.58"/><circle cx="456" cy="130" r="1.9" fill="#e8fff8" opacity="0.77"/><circle cx="249" cy="82" r="2.1" fill="#e8fff8" opacity="0.88"/><circle cx="212" cy="43" r="2.0" fill="#e8fff8" opacity="0.80"/><circle cx="23" cy="94" r="1.5" fill="#e8fff8" opacity="0.57"/><circle cx="156" cy="44" r="1.3" fill="#e8fff8" opacity="0.54"/><circle cx="226" cy="147" r="1.6" fill="#e8fff8" opacity="0.55"/><circle cx="382" cy="40" r="1.0" fill="#e8fff8" opacity="0.75"/><circle cx="561" cy="87" r="1.6" fill="#e8fff8" opacity="0.87"/><circle cx="78" cy="67" r="2.9" fill="#e8fff8" opacity="0.33"/><circle cx="213" cy="65" r="2.7" fill="#e8fff8" opacity="0.75"/><circle cx="347" cy="112" r="1.9" fill="#e8fff8" opacity="0.62"/><circle cx="180" cy="108" r="1.3" fill="#e8fff8" opacity="0.27"/><circle cx="278" cy="91" r="2.2" fill="#e8fff8" opacity="0.77"/><circle cx="221" cy="22" r="2.7" fill="#e8fff8" opacity="0.85"/><circle cx="543" cy="166" r="1.6" fill="#e8fff8" opacity="0.48"/><circle cx="596" cy="31" r="1.2" fill="#e8fff8" opacity="0.74"/><circle cx="226" cy="76" r="1.0" fill="#e8fff8" opacity="0.29"/><circle cx="453" cy="44" r="2.8" fill="#e8fff8" opacity="0.56"/>
  <g transform="translate(288 42)" filter="url(#shadow)">
    <path d="M21 17 H123 V53 C123 91 102 111 72 116 C42 111 21 91 21 53 Z" fill="url(#gold)" stroke="#fff1a0" stroke-width="3"/>
    <path d="M21 29 H4 V49 C4 76 21 88 43 88" fill="none" stroke="#e8fff8" stroke-width="12" stroke-linecap="round"/>
    <path d="M123 29 H140 V49 C140 76 123 88 101 88" fill="none" stroke="#e8fff8" stroke-width="12" stroke-linecap="round"/>
    <path d="M64 114 H80 V139 H111 V154 H33 V139 H64 Z" fill="url(#gold)"/>
    <path d="M72 43 L81 61 L101 64 L86 78 L90 98 L72 88 L54 98 L58 78 L43 64 L63 61 Z" fill="#087f8f" stroke="#f4ffb0" stroke-width="2"/>
  </g>
  <g opacity=".76">
    <path d="M45 232 C94 182 139 182 191 229 C143 218 98 219 45 232 Z" fill="#52e8df"/>
    <path d="M675 232 C626 182 581 182 529 229 C577 218 622 219 675 232 Z" fill="#52e8df"/>
  </g>
  <rect x="20" y="18" width="680" height="224" rx="24" fill="none" stroke="#52e8df" stroke-opacity=".35" stroke-width="2"/>
  <text x="676" y="224" text-anchor="end" fill="#fff" opacity=".45" font-family="Arial, sans-serif" font-size="18" font-weight="700">04</text>
</svg>