<svg xmlns="http://www.w3.org/2000/svg" width="720" height="260" viewBox="0 0 720 260" role="img" aria-label="Volcano Clash">
  <defs>
    <linearGradient id="bg" x1="0" y1="0" x2="1" y2="1">
      <stop offset="0" stop-color="#28060a"/>
      <stop offset="0.58" stop-color="#86131a"/>
      <stop offset="1" stop-color="#28060a"/>
    </linearGradient>
    <radialGradient id="halo">
      <stop offset="0" stop-color="#ff5b28" stop-opacity=".52"/>
      <stop offset="1" stop-color="#ff5b28" stop-opacity="0"/>
    </radialGradient>
    <linearGradient id="gold" x1="0" y1="0" x2="1" y2="1">
      <stop offset="0" stop-color="#fff39a"/>
      <stop offset=".38" stop-color="#ffbf4d"/>
      <stop offset="1" stop-color="#9c5c05"/>
    </linearGradient>
    <filter id="shadow" x="-50%" y="-50%" width="200%" height="200%">
      <feDropShadow dx="0" dy="8" stdDeviation="8" flood-color="#000" flood-opacity=".55"/>
    </filter>
  </defs>
  <rect width="720" height="260" rx="28" fill="url(#bg)"/>
  <ellipse cx="360" cy="112" rx="245" ry="130" fill="url(#halo)"/>
  <path d="M0 167 Q110 102 220 171 T445 158 T720 134 V260 H0 Z" fill="#28060a" opacity=".67"/>
  <path d="M0 202 Q120 154 240 205 T480 190 T720 195 V260 H0 Z" fill="#001b0d" opacity=".62"/>
  <path d="M571 214 L581.5 171 L592 214 Z" fill="#28060a" opacity="0.23"/><path d="M203 214 L218 166 L233 214 Z" fill="#ff5b28" opacity="0.18"/><path d="M321 214 L339 157 L357 214 Z" fill="#28060a" opacity="0.25"/><path d="M149 214 L160 181 L171 214 Z" fill="#ff5b28" opacity="0.23"/><path d="M279 214 L296 142 L313 214 Z" fill="#28060a" opacity="0.22"/><path d="M517 214 L534 149 L551 214 Z" fill="#ff5b28" opacity="0.31"/><path d="M652 214 L667.5 115 L683 214 Z" fill="#28060a" opacity="0.19"/><path d="M675 214 L689.5 171 L704 214 Z" fill="#ff5b28" opacity="0.24"/><path d="M87 214 L99.5 152 L112 214 Z" fill="#28060a" opacity="0.25"/><path d="M364 214 L383.5 116 L403 214 Z" fill="#ff5b28" opacity="0.23"/><path d="M496 214 L514 119 L532 214 Z" fill="#28060a" opacity="0.23"/><path d="M133 214 L142.5 139 L152 214 Z" fill="#ff5b28" opacity="0.37"/><path d="M580 214 L595 171 L610 214 Z" fill="#28060a" opacity="0.32"/><path d="M559 214 L566.5 178 L574 214 Z" fill="#ff5b28" opacity="0.27"/><path d="M379 214 L390 163 L401 214 Z" fill="#28060a" opacity="0.33"/><path d="M251 214 L267 178 L283 214 Z" fill="#ff5b28" opacity="0.27"/><path d="M295 214 L302.5 130 L310 214 Z" fill="#28060a" opacity="0.31"/><path d="M561 214 L569.5 157 L578 214 Z" fill="#ff5b28" opacity="0.39"/>
  <circle cx="332" cy="169" r="1.6" fill="#ffbf4d" opacity="0.82"/><circle cx="430" cy="163" r="1.0" fill="#ffbf4d" opacity="0.79"/><circle cx="278" cy="174" r="1.5" fill="#ffbf4d" opacity="0.77"/><circle cx="147" cy="77" r="1.9" fill="#ffbf4d" opacity="0.68"/><circle cx="129" cy="168" r="3.0" fill="#ffbf4d" opacity="0.80"/><circle cx="157" cy="112" r="1.1" fill="#ffbf4d" opacity="0.75"/><circle cx="664" cy="161" r="1.0" fill="#ffbf4d" opacity="0.55"/><circle cx="301" cy="118" r="1.6" fill="#ffbf4d" opacity="0.41"/><circle cx="188" cy="94" r="1.5" fill="#ffbf4d" opacity="0.54"/><circle cx="560" cy="153" r="2.2" fill="#ffbf4d" opacity="0.47"/><circle cx="319" cy="151" r="1.9" fill="#ffbf4d" opacity="0.87"/><circle cx="650" cy="173" r="2.3" fill="#ffbf4d" opacity="0.54"/><circle cx="422" cy="126" r="2.1" fill="#ffbf4d" opacity="0.25"/><circle cx="524" cy="126" r="2.8" fill="#ffbf4d" opacity="0.68"/><circle cx="427" cy="142" r="1.5" fill="#ffbf4d" opacity="0.57"/><circle cx="396" cy="55" r="2.9" fill="#ffbf4d" opacity="0.81"/><circle cx="448" cy="38" r="2.8" fill="#ffbf4d" opacity="0.84"/><circle cx="305" cy="207" r="2.6" fill="#ffbf4d" opacity="0.51"/><circle cx="624" cy="115" r="1.9" fill="#ffbf4d" opacity="0.58"/><circle cx="564" cy="18" r="1.0" fill="#ffbf4d" opacity="0.48"/><circle cx="484" cy="165" r="1.1" fill="#ffbf4d" opacity="0.33"/><circle cx="389" cy="155" r="1.9" fill="#ffbf4d" opacity="0.46"/>
  <g transform="translate(288 42)" filter="url(#shadow)">
    <path d="M21 17 H123 V53 C123 91 102 111 72 116 C42 111 21 91 21 53 Z" fill="url(#gold)" stroke="#fff1a0" stroke-width="3"/>
    <path d="M21 29 H4 V49 C4 76 21 88 43 88" fill="none" stroke="#ffbf4d" stroke-width="12" stroke-linecap="round"/>
    <path d="M123 29 H140 V49 C140 76 123 88 101 88" fill="none" stroke="#ffbf4d" stroke-width="12" stroke-linecap="round"/>
    <path d="M64 114 H80 V139 H111 V154 H33 V139 H64 Z" fill="url(#gold)"/>
    <path d="M72 43 L81 61 L101 64 L86 78 L90 98 L72 88 L54 98 L58 78 L43 64 L63 61 Z" fill="#86131a" stroke="#f4ffb0" stroke-width="2"/>
  </g>
  <g opacity=".76">
    <path d="M45 232 C94 182 139 182 191 229 C143 218 98 219 45 232 Z" fill="#ff5b28"/>
    <path d="M675 232 C626 182 581 182 529 229 C577 218 622 219 675 232 Z" fill="#ff5b28"/>
  </g>
  <rect x="20" y="18" width="680" height="224" rx="24" fill="none" stroke="#ff5b28" stroke-opacity=".35" stroke-width="2"/>
  <text x="676" y="224" text-anchor="end" fill="#fff" opacity=".45" font-family="Arial, sans-serif" font-size="18" font-weight="700">10</text>
</svg>