<svg xmlns="http://www.w3.org/2000/svg" width="720" height="260" viewBox="0 0 720 260" role="img" aria-label="Volcano Clash">
  <defs>
    <linearGradient id="bg" x1="0" y1="0" x2="1" y2="1">
      <stop offset="0" stop-color="#28060a"/>
      <stop offset="0.58" stop-color="#86131a"/>
      <stop offset="1" stop-color="#28060a"/>
    </linearGradient>
    <radialGradient id="halo">
      <stop offset="0" stop-color="#ff5b28" stop-opacity=".52"/>
      <stop offset="1" stop-color="#ff5b28" stop-opacity="0"/>
    </radialGradient>
    <linearGradient id="gold" x1="0" y1="0" x2="1" y2="1">
      <stop offset="0" stop-color="#fff39a"/>
      <stop offset=".38" stop-color="#ffbf4d"/>
      <stop offset="1" stop-color="#9c5c05"/>
    </linearGradient>
    <filter id="shadow" x="-50%" y="-50%" width="200%" height="200%">
      <feDropShadow dx="0" dy="8" stdDeviation="8" flood-color="#000" flood-opacity=".55"/>
    </filter>
  </defs>
  <rect width="720" height="260" rx="28" fill="url(#bg)"/>
  <ellipse cx="360" cy="112" rx="245" ry="130" fill="url(#halo)"/>
  <path d="M0 164 Q110 99 220 168 T445 155 T720 131 V260 H0 Z" fill="#28060a" opacity=".67"/>
  <path d="M0 202 Q120 154 240 205 T480 190 T720 195 V260 H0 Z" fill="#001b0d" opacity=".62"/>
  <path d="M692 214 L710.5 158 L729 214 Z" fill="#28060a" opacity="0.41"/><path d="M30 214 L48.5 135 L67 214 Z" fill="#ff5b28" opacity="0.17"/><path d="M278 214 L286.5 116 L295 214 Z" fill="#28060a" opacity="0.27"/><path d="M517 214 L536.5 114 L556 214 Z" fill="#ff5b28" opacity="0.34"/><path d="M297 214 L311.5 141 L326 214 Z" fill="#28060a" opacity="0.17"/><path d="M339 214 L355 142 L371 214 Z" fill="#ff5b28" opacity="0.39"/><path d="M595 214 L611.5 125 L628 214 Z" fill="#28060a" opacity="0.24"/><path d="M77 214 L86.5 147 L96 214 Z" fill="#ff5b28" opacity="0.25"/><path d="M106 214 L114.5 118 L123 214 Z" fill="#28060a" opacity="0.38"/><path d="M609 214 L628.5 119 L648 214 Z" fill="#ff5b28" opacity="0.24"/><path d="M136 214 L147.5 166 L159 214 Z" fill="#28060a" opacity="0.29"/><path d="M382 214 L390 133 L398 214 Z" fill="#ff5b28" opacity="0.26"/><path d="M309 214 L325 115 L341 214 Z" fill="#28060a" opacity="0.22"/><path d="M473 214 L482.5 178 L492 214 Z" fill="#ff5b28" opacity="0.20"/><path d="M132 214 L148.5 157 L165 214 Z" fill="#28060a" opacity="0.21"/><path d="M152 214 L165 164 L178 214 Z" fill="#ff5b28" opacity="0.19"/><path d="M440 214 L448.5 113 L457 214 Z" fill="#28060a" opacity="0.16"/><path d="M228 214 L237.5 181 L247 214 Z" fill="#ff5b28" opacity="0.33"/>
  <circle cx="369" cy="170" r="1.2" fill="#ffbf4d" opacity="0.70"/><circle cx="497" cy="147" r="1.3" fill="#ffbf4d" opacity="0.83"/><circle cx="669" cy="119" r="1.9" fill="#ffbf4d" opacity="0.35"/><circle cx="678" cy="141" r="1.6" fill="#ffbf4d" opacity="0.72"/><circle cx="492" cy="41" r="2.5" fill="#ffbf4d" opacity="0.48"/><circle cx="486" cy="142" r="1.7" fill="#ffbf4d" opacity="0.90"/><circle cx="313" cy="198" r="1.1" fill="#ffbf4d" opacity="0.75"/><circle cx="219" cy="92" r="1.0" fill="#ffbf4d" opacity="0.66"/><circle cx="605" cy="123" r="2.4" fill="#ffbf4d" opacity="0.76"/><circle cx="566" cy="168" r="2.5" fill="#ffbf4d" opacity="0.78"/><circle cx="390" cy="197" r="2.1" fill="#ffbf4d" opacity="0.37"/><circle cx="249" cy="183" r="3.0" fill="#ffbf4d" opacity="0.47"/><circle cx="418" cy="103" r="2.5" fill="#ffbf4d" opacity="0.77"/><circle cx="329" cy="37" r="2.6" fill="#ffbf4d" opacity="0.83"/><circle cx="111" cy="46" r="2.9" fill="#ffbf4d" opacity="0.26"/><circle cx="231" cy="92" r="1.2" fill="#ffbf4d" opacity="0.58"/><circle cx="486" cy="182" r="1.4" fill="#ffbf4d" opacity="0.62"/><circle cx="438" cy="128" r="1.7" fill="#ffbf4d" opacity="0.88"/><circle cx="156" cy="150" r="1.5" fill="#ffbf4d" opacity="0.39"/><circle cx="297" cy="117" r="2.2" fill="#ffbf4d" opacity="0.55"/><circle cx="46" cy="45" r="2.5" fill="#ffbf4d" opacity="0.65"/><circle cx="460" cy="159" r="2.6" fill="#ffbf4d" opacity="0.29"/>
  <g transform="translate(288 42)" filter="url(#shadow)">
    <path d="M21 17 H123 V53 C123 91 102 111 72 116 C42 111 21 91 21 53 Z" fill="url(#gold)" stroke="#fff1a0" stroke-width="3"/>
    <path d="M21 29 H4 V49 C4 76 21 88 43 88" fill="none" stroke="#ffbf4d" stroke-width="12" stroke-linecap="round"/>
    <path d="M123 29 H140 V49 C140 76 123 88 101 88" fill="none" stroke="#ffbf4d" stroke-width="12" stroke-linecap="round"/>
    <path d="M64 114 H80 V139 H111 V154 H33 V139 H64 Z" fill="url(#gold)"/>
    <path d="M72 43 L81 61 L101 64 L86 78 L90 98 L72 88 L54 98 L58 78 L43 64 L63 61 Z" fill="#86131a" stroke="#f4ffb0" stroke-width="2"/>
  </g>
  <g opacity=".76">
    <path d="M45 232 C94 182 139 182 191 229 C143 218 98 219 45 232 Z" fill="#ff5b28"/>
    <path d="M675 232 C626 182 581 182 529 229 C577 218 622 219 675 232 Z" fill="#ff5b28"/>
  </g>
  <rect x="20" y="18" width="680" height="224" rx="24" fill="none" stroke="#ff5b28" stroke-opacity=".35" stroke-width="2"/>
  <text x="676" y="224" text-anchor="end" fill="#fff" opacity=".45" font-family="Arial, sans-serif" font-size="18" font-weight="700">03</text>
</svg>