<svg xmlns="http://www.w3.org/2000/svg" width="720" height="260" viewBox="0 0 720 260" role="img" aria-label="Waterfall Cup">
  <defs>
    <linearGradient id="bg" x1="0" y1="0" x2="1" y2="1">
      <stop offset="0" stop-color="#052e35"/>
      <stop offset="0.58" stop-color="#087f8f"/>
      <stop offset="1" stop-color="#052e35"/>
    </linearGradient>
    <radialGradient id="halo">
      <stop offset="0" stop-color="#52e8df" stop-opacity=".52"/>
      <stop offset="1" stop-color="#52e8df" stop-opacity="0"/>
    </radialGradient>
    <linearGradient id="gold" x1="0" y1="0" x2="1" y2="1">
      <stop offset="0" stop-color="#fff39a"/>
      <stop offset=".38" stop-color="#e8fff8"/>
      <stop offset="1" stop-color="#9c5c05"/>
    </linearGradient>
    <filter id="shadow" x="-50%" y="-50%" width="200%" height="200%">
      <feDropShadow dx="0" dy="8" stdDeviation="8" flood-color="#000" flood-opacity=".55"/>
    </filter>
  </defs>
  <rect width="720" height="260" rx="28" fill="url(#bg)"/>
  <ellipse cx="360" cy="112" rx="245" ry="130" fill="url(#halo)"/>
  <path d="M0 156 Q110 91 220 160 T445 147 T720 123 V260 H0 Z" fill="#052e35" opacity=".67"/>
  <path d="M0 202 Q120 154 240 205 T480 190 T720 195 V260 H0 Z" fill="#001b0d" opacity=".62"/>
  <path d="M97 214 L109.5 172 L122 214 Z" fill="#052e35" opacity="0.22"/><path d="M525 214 L537 129 L549 214 Z" fill="#52e8df" opacity="0.23"/><path d="M103 214 L110.5 124 L118 214 Z" fill="#052e35" opacity="0.38"/><path d="M510 214 L517 146 L524 214 Z" fill="#52e8df" opacity="0.37"/><path d="M355 214 L373 119 L391 214 Z" fill="#052e35" opacity="0.20"/><path d="M485 214 L497.5 163 L510 214 Z" fill="#52e8df" opacity="0.32"/><path d="M187 214 L206 130 L225 214 Z" fill="#052e35" opacity="0.23"/><path d="M685 214 L694 117 L703 214 Z" fill="#52e8df" opacity="0.26"/><path d="M112 214 L129 163 L146 214 Z" fill="#052e35" opacity="0.19"/><path d="M292 214 L306.5 170 L321 214 Z" fill="#52e8df" opacity="0.39"/><path d="M522 214 L533 135 L544 214 Z" fill="#052e35" opacity="0.28"/><path d="M486 214 L505 132 L524 214 Z" fill="#52e8df" opacity="0.29"/><path d="M86 214 L99 166 L112 214 Z" fill="#052e35" opacity="0.31"/><path d="M700 214 L714 152 L728 214 Z" fill="#52e8df" opacity="0.36"/><path d="M305 214 L324 124 L343 214 Z" fill="#052e35" opacity="0.25"/><path d="M320 214 L333.5 160 L347 214 Z" fill="#52e8df" opacity="0.32"/><path d="M395 214 L405 160 L415 214 Z" fill="#052e35" opacity="0.20"/><path d="M73 214 L82 160 L91 214 Z" fill="#52e8df" opacity="0.37"/>
  <circle cx="487" cy="151" r="1.2" fill="#e8fff8" opacity="0.79"/><circle cx="218" cy="159" r="0.9" fill="#e8fff8" opacity="0.56"/><circle cx="244" cy="32" r="1.5" fill="#e8fff8" opacity="0.39"/><circle cx="539" cy="174" r="1.4" fill="#e8fff8" opacity="0.49"/><circle cx="598" cy="94" r="2.3" fill="#e8fff8" opacity="0.63"/><circle cx="202" cy="159" r="2.6" fill="#e8fff8" opacity="0.86"/><circle cx="457" cy="64" r="2.9" fill="#e8fff8" opacity="0.86"/><circle cx="521" cy="179" r="2.9" fill="#e8fff8" opacity="0.44"/><circle cx="582" cy="203" r="2.4" fill="#e8fff8" opacity="0.88"/><circle cx="31" cy="64" r="1.8" fill="#e8fff8" opacity="0.79"/><circle cx="372" cy="61" r="1.9" fill="#e8fff8" opacity="0.26"/><circle cx="133" cy="140" r="1.8" fill="#e8fff8" opacity="0.79"/><circle cx="468" cy="152" r="1.3" fill="#e8fff8" opacity="0.72"/><circle cx="240" cy="132" r="2.4" fill="#e8fff8" opacity="0.73"/><circle cx="295" cy="72" r="1.7" fill="#e8fff8" opacity="0.57"/><circle cx="106" cy="21" r="1.6" fill="#e8fff8" opacity="0.49"/><circle cx="79" cy="98" r="2.4" fill="#e8fff8" opacity="0.80"/><circle cx="493" cy="196" r="2.2" fill="#e8fff8" opacity="0.79"/><circle cx="513" cy="188" r="1.6" fill="#e8fff8" opacity="0.60"/><circle cx="148" cy="152" r="2.0" fill="#e8fff8" opacity="0.45"/><circle cx="94" cy="175" r="2.1" fill="#e8fff8" opacity="0.52"/><circle cx="637" cy="98" r="2.3" fill="#e8fff8" opacity="0.68"/>
  <g transform="translate(288 42)" filter="url(#shadow)">
    <path d="M21 17 H123 V53 C123 91 102 111 72 116 C42 111 21 91 21 53 Z" fill="url(#gold)" stroke="#fff1a0" stroke-width="3"/>
    <path d="M21 29 H4 V49 C4 76 21 88 43 88" fill="none" stroke="#e8fff8" stroke-width="12" stroke-linecap="round"/>
    <path d="M123 29 H140 V49 C140 76 123 88 101 88" fill="none" stroke="#e8fff8" stroke-width="12" stroke-linecap="round"/>
    <path d="M64 114 H80 V139 H111 V154 H33 V139 H64 Z" fill="url(#gold)"/>
    <path d="M72 43 L81 61 L101 64 L86 78 L90 98 L72 88 L54 98 L58 78 L43 64 L63 61 Z" fill="#087f8f" stroke="#f4ffb0" stroke-width="2"/>
  </g>
  <g opacity=".76">
    <path d="M45 232 C94 182 139 182 191 229 C143 218 98 219 45 232 Z" fill="#52e8df"/>
    <path d="M675 232 C626 182 581 182 529 229 C577 218 622 219 675 232 Z" fill="#52e8df"/>
  </g>
  <rect x="20" y="18" width="680" height="224" rx="24" fill="none" stroke="#52e8df" stroke-opacity=".35" stroke-width="2"/>
  <text x="676" y="224" text-anchor="end" fill="#fff" opacity=".45" font-family="Arial, sans-serif" font-size="18" font-weight="700">05</text>
</svg>