<svg xmlns="http://www.w3.org/2000/svg" width="720" height="260" viewBox="0 0 720 260" role="img" aria-label="Temple Masters">
  <defs>
    <linearGradient id="bg" x1="0" y1="0" x2="1" y2="1">
      <stop offset="0" stop-color="#201006"/>
      <stop offset="0.58" stop-color="#76521a"/>
      <stop offset="1" stop-color="#201006"/>
    </linearGradient>
    <radialGradient id="halo">
      <stop offset="0" stop-color="#d9a93d" stop-opacity=".52"/>
      <stop offset="1" stop-color="#d9a93d" stop-opacity="0"/>
    </radialGradient>
    <linearGradient id="gold" x1="0" y1="0" x2="1" y2="1">
      <stop offset="0" stop-color="#fff39a"/>
      <stop offset=".38" stop-color="#fff08d"/>
      <stop offset="1" stop-color="#9c5c05"/>
    </linearGradient>
    <filter id="shadow" x="-50%" y="-50%" width="200%" height="200%">
      <feDropShadow dx="0" dy="8" stdDeviation="8" flood-color="#000" flood-opacity=".55"/>
    </filter>
  </defs>
  <rect width="720" height="260" rx="28" fill="url(#bg)"/>
  <ellipse cx="360" cy="112" rx="245" ry="130" fill="url(#halo)"/>
  <path d="M0 147 Q110 82 220 151 T445 138 T720 114 V260 H0 Z" fill="#201006" opacity=".67"/>
  <path d="M0 202 Q120 154 240 205 T480 190 T720 195 V260 H0 Z" fill="#001b0d" opacity=".62"/>
  <path d="M295 214 L306 177 L317 214 Z" fill="#201006" opacity="0.39"/><path d="M51 214 L68.5 133 L86 214 Z" fill="#d9a93d" opacity="0.39"/><path d="M191 214 L207 150 L223 214 Z" fill="#201006" opacity="0.21"/><path d="M435 214 L442.5 153 L450 214 Z" fill="#d9a93d" opacity="0.32"/><path d="M567 214 L582.5 139 L598 214 Z" fill="#201006" opacity="0.34"/><path d="M524 214 L532.5 166 L541 214 Z" fill="#d9a93d" opacity="0.41"/><path d="M321 214 L330.5 170 L340 214 Z" fill="#201006" opacity="0.30"/><path d="M214 214 L225 144 L236 214 Z" fill="#d9a93d" opacity="0.17"/><path d="M273 214 L288.5 130 L304 214 Z" fill="#201006" opacity="0.38"/><path d="M122 214 L136 150 L150 214 Z" fill="#d9a93d" opacity="0.20"/><path d="M548 214 L562 147 L576 214 Z" fill="#201006" opacity="0.35"/><path d="M163 214 L182.5 171 L202 214 Z" fill="#d9a93d" opacity="0.30"/><path d="M710 214 L728 125 L746 214 Z" fill="#201006" opacity="0.29"/><path d="M155 214 L167 126 L179 214 Z" fill="#d9a93d" opacity="0.22"/><path d="M474 214 L484.5 117 L495 214 Z" fill="#201006" opacity="0.32"/><path d="M285 214 L294.5 119 L304 214 Z" fill="#d9a93d" opacity="0.40"/><path d="M293 214 L305 138 L317 214 Z" fill="#201006" opacity="0.40"/><path d="M5 214 L21 153 L37 214 Z" fill="#d9a93d" opacity="0.17"/>
  <circle cx="354" cy="56" r="1.8" fill="#fff08d" opacity="0.28"/><circle cx="388" cy="85" r="2.4" fill="#fff08d" opacity="0.58"/><circle cx="189" cy="26" r="1.3" fill="#fff08d" opacity="0.56"/><circle cx="583" cy="170" r="1.0" fill="#fff08d" opacity="0.41"/><circle cx="242" cy="184" r="1.3" fill="#fff08d" opacity="0.33"/><circle cx="660" cy="156" r="1.3" fill="#fff08d" opacity="0.26"/><circle cx="526" cy="105" r="1.7" fill="#fff08d" opacity="0.70"/><circle cx="637" cy="61" r="1.7" fill="#fff08d" opacity="0.76"/><circle cx="537" cy="186" r="2.9" fill="#fff08d" opacity="0.35"/><circle cx="179" cy="83" r="2.3" fill="#fff08d" opacity="0.85"/><circle cx="398" cy="105" r="1.8" fill="#fff08d" opacity="0.50"/><circle cx="184" cy="103" r="2.4" fill="#fff08d" opacity="0.67"/><circle cx="515" cy="35" r="2.1" fill="#fff08d" opacity="0.72"/><circle cx="171" cy="60" r="2.0" fill="#fff08d" opacity="0.46"/><circle cx="425" cy="78" r="2.2" fill="#fff08d" opacity="0.69"/><circle cx="290" cy="48" r="1.0" fill="#fff08d" opacity="0.27"/><circle cx="238" cy="177" r="0.8" fill="#fff08d" opacity="0.72"/><circle cx="492" cy="140" r="1.2" fill="#fff08d" opacity="0.28"/><circle cx="588" cy="132" r="1.5" fill="#fff08d" opacity="0.30"/><circle cx="247" cy="133" r="1.1" fill="#fff08d" opacity="0.53"/><circle cx="424" cy="118" r="1.6" fill="#fff08d" opacity="0.59"/><circle cx="177" cy="154" r="1.2" fill="#fff08d" opacity="0.71"/>
  <g transform="translate(288 42)" filter="url(#shadow)">
    <path d="M21 17 H123 V53 C123 91 102 111 72 116 C42 111 21 91 21 53 Z" fill="url(#gold)" stroke="#fff1a0" stroke-width="3"/>
    <path d="M21 29 H4 V49 C4 76 21 88 43 88" fill="none" stroke="#fff08d" stroke-width="12" stroke-linecap="round"/>
    <path d="M123 29 H140 V49 C140 76 123 88 101 88" fill="none" stroke="#fff08d" stroke-width="12" stroke-linecap="round"/>
    <path d="M64 114 H80 V139 H111 V154 H33 V139 H64 Z" fill="url(#gold)"/>
    <path d="M72 43 L81 61 L101 64 L86 78 L90 98 L72 88 L54 98 L58 78 L43 64 L63 61 Z" fill="#76521a" stroke="#f4ffb0" stroke-width="2"/>
  </g>
  <g opacity=".76">
    <path d="M45 232 C94 182 139 182 191 229 C143 218 98 219 45 232 Z" fill="#d9a93d"/>
    <path d="M675 232 C626 182 581 182 529 229 C577 218 622 219 675 232 Z" fill="#d9a93d"/>
  </g>
  <rect x="20" y="18" width="680" height="224" rx="24" fill="none" stroke="#d9a93d" stroke-opacity=".35" stroke-width="2"/>
  <text x="676" y="224" text-anchor="end" fill="#fff" opacity=".45" font-family="Arial, sans-serif" font-size="18" font-weight="700">02</text>
</svg>