<svg xmlns="http://www.w3.org/2000/svg" width="720" height="260" viewBox="0 0 720 260" role="img" aria-label="Volcano Clash">
  <defs>
    <linearGradient id="bg" x1="0" y1="0" x2="1" y2="1">
      <stop offset="0" stop-color="#28060a"/>
      <stop offset="0.58" stop-color="#86131a"/>
      <stop offset="1" stop-color="#28060a"/>
    </linearGradient>
    <radialGradient id="halo">
      <stop offset="0" stop-color="#ff5b28" stop-opacity=".52"/>
      <stop offset="1" stop-color="#ff5b28" stop-opacity="0"/>
    </radialGradient>
    <linearGradient id="gold" x1="0" y1="0" x2="1" y2="1">
      <stop offset="0" stop-color="#fff39a"/>
      <stop offset=".38" stop-color="#ffbf4d"/>
      <stop offset="1" stop-color="#9c5c05"/>
    </linearGradient>
    <filter id="shadow" x="-50%" y="-50%" width="200%" height="200%">
      <feDropShadow dx="0" dy="8" stdDeviation="8" flood-color="#000" flood-opacity=".55"/>
    </filter>
  </defs>
  <rect width="720" height="260" rx="28" fill="url(#bg)"/>
  <ellipse cx="360" cy="112" rx="245" ry="130" fill="url(#halo)"/>
  <path d="M0 171 Q110 106 220 175 T445 162 T720 138 V260 H0 Z" fill="#28060a" opacity=".67"/>
  <path d="M0 202 Q120 154 240 205 T480 190 T720 195 V260 H0 Z" fill="#001b0d" opacity=".62"/>
  <path d="M195 214 L213 146 L231 214 Z" fill="#28060a" opacity="0.32"/><path d="M417 214 L425 151 L433 214 Z" fill="#ff5b28" opacity="0.38"/><path d="M169 214 L183.5 141 L198 214 Z" fill="#28060a" opacity="0.20"/><path d="M55 214 L72 145 L89 214 Z" fill="#ff5b28" opacity="0.32"/><path d="M94 214 L110 121 L126 214 Z" fill="#28060a" opacity="0.38"/><path d="M210 214 L229.5 172 L249 214 Z" fill="#ff5b28" opacity="0.22"/><path d="M73 214 L80.5 127 L88 214 Z" fill="#28060a" opacity="0.32"/><path d="M609 214 L626.5 143 L644 214 Z" fill="#ff5b28" opacity="0.22"/><path d="M314 214 L321.5 133 L329 214 Z" fill="#28060a" opacity="0.25"/><path d="M541 214 L560 140 L579 214 Z" fill="#ff5b28" opacity="0.32"/><path d="M291 214 L308.5 142 L326 214 Z" fill="#28060a" opacity="0.37"/><path d="M109 214 L122 163 L135 214 Z" fill="#ff5b28" opacity="0.31"/><path d="M270 214 L288 128 L306 214 Z" fill="#28060a" opacity="0.31"/><path d="M255 214 L273.5 167 L292 214 Z" fill="#ff5b28" opacity="0.29"/><path d="M200 214 L215.5 125 L231 214 Z" fill="#28060a" opacity="0.34"/><path d="M138 214 L146.5 162 L155 214 Z" fill="#ff5b28" opacity="0.33"/><path d="M256 214 L275.5 163 L295 214 Z" fill="#28060a" opacity="0.39"/><path d="M490 214 L505 164 L520 214 Z" fill="#ff5b28" opacity="0.25"/>
  <circle cx="181" cy="170" r="1.5" fill="#ffbf4d" opacity="0.50"/><circle cx="21" cy="117" r="1.0" fill="#ffbf4d" opacity="0.84"/><circle cx="239" cy="192" r="2.3" fill="#ffbf4d" opacity="0.29"/><circle cx="559" cy="177" r="1.9" fill="#ffbf4d" opacity="0.82"/><circle cx="350" cy="77" r="2.1" fill="#ffbf4d" opacity="0.62"/><circle cx="533" cy="65" r="1.2" fill="#ffbf4d" opacity="0.27"/><circle cx="69" cy="177" r="2.4" fill="#ffbf4d" opacity="0.69"/><circle cx="402" cy="196" r="1.9" fill="#ffbf4d" opacity="0.78"/><circle cx="179" cy="154" r="1.3" fill="#ffbf4d" opacity="0.42"/><circle cx="82" cy="62" r="2.2" fill="#ffbf4d" opacity="0.55"/><circle cx="400" cy="176" r="1.2" fill="#ffbf4d" opacity="0.86"/><circle cx="678" cy="130" r="2.8" fill="#ffbf4d" opacity="0.55"/><circle cx="29" cy="208" r="1.9" fill="#ffbf4d" opacity="0.38"/><circle cx="301" cy="160" r="2.9" fill="#ffbf4d" opacity="0.85"/><circle cx="163" cy="86" r="1.0" fill="#ffbf4d" opacity="0.31"/><circle cx="305" cy="179" r="0.9" fill="#ffbf4d" opacity="0.36"/><circle cx="686" cy="175" r="1.2" fill="#ffbf4d" opacity="0.59"/><circle cx="166" cy="144" r="2.2" fill="#ffbf4d" opacity="0.29"/><circle cx="187" cy="128" r="1.5" fill="#ffbf4d" opacity="0.27"/><circle cx="64" cy="185" r="1.4" fill="#ffbf4d" opacity="0.84"/><circle cx="178" cy="137" r="1.4" fill="#ffbf4d" opacity="0.42"/><circle cx="276" cy="105" r="0.8" fill="#ffbf4d" opacity="0.82"/>
  <g transform="translate(288 42)" filter="url(#shadow)">
    <path d="M21 17 H123 V53 C123 91 102 111 72 116 C42 111 21 91 21 53 Z" fill="url(#gold)" stroke="#fff1a0" stroke-width="3"/>
    <path d="M21 29 H4 V49 C4 76 21 88 43 88" fill="none" stroke="#ffbf4d" stroke-width="12" stroke-linecap="round"/>
    <path d="M123 29 H140 V49 C140 76 123 88 101 88" fill="none" stroke="#ffbf4d" stroke-width="12" stroke-linecap="round"/>
    <path d="M64 114 H80 V139 H111 V154 H33 V139 H64 Z" fill="url(#gold)"/>
    <path d="M72 43 L81 61 L101 64 L86 78 L90 98 L72 88 L54 98 L58 78 L43 64 L63 61 Z" fill="#86131a" stroke="#f4ffb0" stroke-width="2"/>
  </g>
  <g opacity=".76">
    <path d="M45 232 C94 182 139 182 191 229 C143 218 98 219 45 232 Z" fill="#ff5b28"/>
    <path d="M675 232 C626 182 581 182 529 229 C577 218 622 219 675 232 Z" fill="#ff5b28"/>
  </g>
  <rect x="20" y="18" width="680" height="224" rx="24" fill="none" stroke="#ff5b28" stroke-opacity=".35" stroke-width="2"/>
  <text x="676" y="224" text-anchor="end" fill="#fff" opacity=".45" font-family="Arial, sans-serif" font-size="18" font-weight="700">02</text>
</svg>