<svg xmlns="http://www.w3.org/2000/svg" width="720" height="260" viewBox="0 0 720 260" role="img" aria-label="Crystal League">
  <defs>
    <linearGradient id="bg" x1="0" y1="0" x2="1" y2="1">
      <stop offset="0" stop-color="#07152f"/>
      <stop offset="0.58" stop-color="#173c90"/>
      <stop offset="1" stop-color="#07152f"/>
    </linearGradient>
    <radialGradient id="halo">
      <stop offset="0" stop-color="#4ec9ff" stop-opacity=".52"/>
      <stop offset="1" stop-color="#4ec9ff" stop-opacity="0"/>
    </radialGradient>
    <linearGradient id="gold" x1="0" y1="0" x2="1" y2="1">
      <stop offset="0" stop-color="#fff39a"/>
      <stop offset=".38" stop-color="#bdf1ff"/>
      <stop offset="1" stop-color="#9c5c05"/>
    </linearGradient>
    <filter id="shadow" x="-50%" y="-50%" width="200%" height="200%">
      <feDropShadow dx="0" dy="8" stdDeviation="8" flood-color="#000" flood-opacity=".55"/>
    </filter>
  </defs>
  <rect width="720" height="260" rx="28" fill="url(#bg)"/>
  <ellipse cx="360" cy="112" rx="245" ry="130" fill="url(#halo)"/>
  <path d="M0 159 Q110 94 220 163 T445 150 T720 126 V260 H0 Z" fill="#07152f" opacity=".67"/>
  <path d="M0 202 Q120 154 240 205 T480 190 T720 195 V260 H0 Z" fill="#001b0d" opacity=".62"/>
  <path d="M245 214 L253 126 L261 214 Z" fill="#07152f" opacity="0.36"/><path d="M234 214 L246.5 142 L259 214 Z" fill="#4ec9ff" opacity="0.38"/><path d="M540 214 L555 145 L570 214 Z" fill="#07152f" opacity="0.20"/><path d="M605 214 L623.5 113 L642 214 Z" fill="#4ec9ff" opacity="0.32"/><path d="M691 214 L700.5 166 L710 214 Z" fill="#07152f" opacity="0.24"/><path d="M7 214 L21 169 L35 214 Z" fill="#4ec9ff" opacity="0.19"/><path d="M557 214 L565.5 148 L574 214 Z" fill="#07152f" opacity="0.19"/><path d="M52 214 L60 180 L68 214 Z" fill="#4ec9ff" opacity="0.32"/><path d="M654 214 L672 132 L690 214 Z" fill="#07152f" opacity="0.32"/><path d="M692 214 L708.5 181 L725 214 Z" fill="#4ec9ff" opacity="0.38"/><path d="M59 214 L68.5 144 L78 214 Z" fill="#07152f" opacity="0.24"/><path d="M496 214 L506 167 L516 214 Z" fill="#4ec9ff" opacity="0.18"/><path d="M130 214 L148 127 L166 214 Z" fill="#07152f" opacity="0.30"/><path d="M565 214 L580.5 183 L596 214 Z" fill="#4ec9ff" opacity="0.26"/><path d="M337 214 L356 157 L375 214 Z" fill="#07152f" opacity="0.33"/><path d="M572 214 L587.5 141 L603 214 Z" fill="#4ec9ff" opacity="0.36"/><path d="M634 214 L649.5 114 L665 214 Z" fill="#07152f" opacity="0.39"/><path d="M607 214 L622.5 159 L638 214 Z" fill="#4ec9ff" opacity="0.21"/>
  <circle cx="267" cy="113" r="2.7" fill="#bdf1ff" opacity="0.39"/><circle cx="204" cy="196" r="2.8" fill="#bdf1ff" opacity="0.71"/><circle cx="214" cy="109" r="2.9" fill="#bdf1ff" opacity="0.75"/><circle cx="231" cy="78" r="2.5" fill="#bdf1ff" opacity="0.61"/><circle cx="636" cy="36" r="1.7" fill="#bdf1ff" opacity="0.48"/><circle cx="597" cy="110" r="1.2" fill="#bdf1ff" opacity="0.26"/><circle cx="637" cy="46" r="1.0" fill="#bdf1ff" opacity="0.69"/><circle cx="179" cy="34" r="2.9" fill="#bdf1ff" opacity="0.77"/><circle cx="698" cy="170" r="2.1" fill="#bdf1ff" opacity="0.38"/><circle cx="130" cy="167" r="1.1" fill="#bdf1ff" opacity="0.70"/><circle cx="399" cy="45" r="2.6" fill="#bdf1ff" opacity="0.35"/><circle cx="431" cy="116" r="2.6" fill="#bdf1ff" opacity="0.61"/><circle cx="272" cy="121" r="2.0" fill="#bdf1ff" opacity="0.87"/><circle cx="576" cy="110" r="1.4" fill="#bdf1ff" opacity="0.66"/><circle cx="294" cy="177" r="2.7" fill="#bdf1ff" opacity="0.83"/><circle cx="298" cy="19" r="0.9" fill="#bdf1ff" opacity="0.31"/><circle cx="462" cy="81" r="1.0" fill="#bdf1ff" opacity="0.33"/><circle cx="329" cy="47" r="1.7" fill="#bdf1ff" opacity="0.28"/><circle cx="47" cy="130" r="1.5" fill="#bdf1ff" opacity="0.28"/><circle cx="496" cy="64" r="1.3" fill="#bdf1ff" opacity="0.68"/><circle cx="301" cy="33" r="1.5" fill="#bdf1ff" opacity="0.83"/><circle cx="566" cy="34" r="2.1" fill="#bdf1ff" opacity="0.77"/>
  <g transform="translate(288 42)" filter="url(#shadow)">
    <path d="M21 17 H123 V53 C123 91 102 111 72 116 C42 111 21 91 21 53 Z" fill="url(#gold)" stroke="#fff1a0" stroke-width="3"/>
    <path d="M21 29 H4 V49 C4 76 21 88 43 88" fill="none" stroke="#bdf1ff" stroke-width="12" stroke-linecap="round"/>
    <path d="M123 29 H140 V49 C140 76 123 88 101 88" fill="none" stroke="#bdf1ff" stroke-width="12" stroke-linecap="round"/>
    <path d="M64 114 H80 V139 H111 V154 H33 V139 H64 Z" fill="url(#gold)"/>
    <path d="M72 43 L81 61 L101 64 L86 78 L90 98 L72 88 L54 98 L58 78 L43 64 L63 61 Z" fill="#173c90" stroke="#f4ffb0" stroke-width="2"/>
  </g>
  <g opacity=".76">
    <path d="M45 232 C94 182 139 182 191 229 C143 218 98 219 45 232 Z" fill="#4ec9ff"/>
    <path d="M675 232 C626 182 581 182 529 229 C577 218 622 219 675 232 Z" fill="#4ec9ff"/>
  </g>
  <rect x="20" y="18" width="680" height="224" rx="24" fill="none" stroke="#4ec9ff" stroke-opacity=".35" stroke-width="2"/>
  <text x="676" y="224" text-anchor="end" fill="#fff" opacity=".45" font-family="Arial, sans-serif" font-size="18" font-weight="700">02</text>
</svg>