<svg xmlns="http://www.w3.org/2000/svg" width="720" height="260" viewBox="0 0 720 260" role="img" aria-label="Volcano Clash">
  <defs>
    <linearGradient id="bg" x1="0" y1="0" x2="1" y2="1">
      <stop offset="0" stop-color="#28060a"/>
      <stop offset="0.58" stop-color="#86131a"/>
      <stop offset="1" stop-color="#28060a"/>
    </linearGradient>
    <radialGradient id="halo">
      <stop offset="0" stop-color="#ff5b28" stop-opacity=".52"/>
      <stop offset="1" stop-color="#ff5b28" stop-opacity="0"/>
    </radialGradient>
    <linearGradient id="gold" x1="0" y1="0" x2="1" y2="1">
      <stop offset="0" stop-color="#fff39a"/>
      <stop offset=".38" stop-color="#ffbf4d"/>
      <stop offset="1" stop-color="#9c5c05"/>
    </linearGradient>
    <filter id="shadow" x="-50%" y="-50%" width="200%" height="200%">
      <feDropShadow dx="0" dy="8" stdDeviation="8" flood-color="#000" flood-opacity=".55"/>
    </filter>
  </defs>
  <rect width="720" height="260" rx="28" fill="url(#bg)"/>
  <ellipse cx="360" cy="112" rx="245" ry="130" fill="url(#halo)"/>
  <path d="M0 169 Q110 104 220 173 T445 160 T720 136 V260 H0 Z" fill="#28060a" opacity=".67"/>
  <path d="M0 202 Q120 154 240 205 T480 190 T720 195 V260 H0 Z" fill="#001b0d" opacity=".62"/>
  <path d="M23 214 L31 123 L39 214 Z" fill="#28060a" opacity="0.40"/><path d="M310 214 L321.5 159 L333 214 Z" fill="#ff5b28" opacity="0.28"/><path d="M605 214 L621 113 L637 214 Z" fill="#28060a" opacity="0.22"/><path d="M462 214 L476 163 L490 214 Z" fill="#ff5b28" opacity="0.40"/><path d="M187 214 L197 131 L207 214 Z" fill="#28060a" opacity="0.30"/><path d="M4 214 L22 124 L40 214 Z" fill="#ff5b28" opacity="0.39"/><path d="M2 214 L19.5 121 L37 214 Z" fill="#28060a" opacity="0.25"/><path d="M642 214 L652 157 L662 214 Z" fill="#ff5b28" opacity="0.35"/><path d="M201 214 L211 142 L221 214 Z" fill="#28060a" opacity="0.25"/><path d="M92 214 L111.5 128 L131 214 Z" fill="#ff5b28" opacity="0.27"/><path d="M394 214 L412 166 L430 214 Z" fill="#28060a" opacity="0.30"/><path d="M481 214 L498.5 115 L516 214 Z" fill="#ff5b28" opacity="0.34"/><path d="M425 214 L435.5 150 L446 214 Z" fill="#28060a" opacity="0.19"/><path d="M407 214 L426.5 137 L446 214 Z" fill="#ff5b28" opacity="0.41"/><path d="M649 214 L668.5 180 L688 214 Z" fill="#28060a" opacity="0.33"/><path d="M195 214 L207.5 170 L220 214 Z" fill="#ff5b28" opacity="0.30"/><path d="M275 214 L288.5 182 L302 214 Z" fill="#28060a" opacity="0.23"/><path d="M165 214 L183 161 L201 214 Z" fill="#ff5b28" opacity="0.32"/>
  <circle cx="256" cy="170" r="2.6" fill="#ffbf4d" opacity="0.66"/><circle cx="565" cy="45" r="2.1" fill="#ffbf4d" opacity="0.81"/><circle cx="599" cy="88" r="3.0" fill="#ffbf4d" opacity="0.53"/><circle cx="353" cy="32" r="0.8" fill="#ffbf4d" opacity="0.42"/><circle cx="239" cy="123" r="1.5" fill="#ffbf4d" opacity="0.71"/><circle cx="345" cy="183" r="1.1" fill="#ffbf4d" opacity="0.83"/><circle cx="366" cy="74" r="1.7" fill="#ffbf4d" opacity="0.29"/><circle cx="352" cy="157" r="2.9" fill="#ffbf4d" opacity="0.27"/><circle cx="524" cy="29" r="1.4" fill="#ffbf4d" opacity="0.48"/><circle cx="661" cy="107" r="1.1" fill="#ffbf4d" opacity="0.83"/><circle cx="359" cy="69" r="2.7" fill="#ffbf4d" opacity="0.87"/><circle cx="324" cy="151" r="1.4" fill="#ffbf4d" opacity="0.87"/><circle cx="226" cy="167" r="2.0" fill="#ffbf4d" opacity="0.64"/><circle cx="412" cy="48" r="1.7" fill="#ffbf4d" opacity="0.77"/><circle cx="635" cy="114" r="2.3" fill="#ffbf4d" opacity="0.76"/><circle cx="690" cy="22" r="1.9" fill="#ffbf4d" opacity="0.58"/><circle cx="567" cy="202" r="2.0" fill="#ffbf4d" opacity="0.71"/><circle cx="575" cy="80" r="2.4" fill="#ffbf4d" opacity="0.72"/><circle cx="65" cy="26" r="1.7" fill="#ffbf4d" opacity="0.75"/><circle cx="314" cy="102" r="2.3" fill="#ffbf4d" opacity="0.34"/><circle cx="331" cy="151" r="1.3" fill="#ffbf4d" opacity="0.70"/><circle cx="332" cy="130" r="1.4" fill="#ffbf4d" opacity="0.64"/>
  <g transform="translate(288 42)" filter="url(#shadow)">
    <path d="M21 17 H123 V53 C123 91 102 111 72 116 C42 111 21 91 21 53 Z" fill="url(#gold)" stroke="#fff1a0" stroke-width="3"/>
    <path d="M21 29 H4 V49 C4 76 21 88 43 88" fill="none" stroke="#ffbf4d" stroke-width="12" stroke-linecap="round"/>
    <path d="M123 29 H140 V49 C140 76 123 88 101 88" fill="none" stroke="#ffbf4d" stroke-width="12" stroke-linecap="round"/>
    <path d="M64 114 H80 V139 H111 V154 H33 V139 H64 Z" fill="url(#gold)"/>
    <path d="M72 43 L81 61 L101 64 L86 78 L90 98 L72 88 L54 98 L58 78 L43 64 L63 61 Z" fill="#86131a" stroke="#f4ffb0" stroke-width="2"/>
  </g>
  <g opacity=".76">
    <path d="M45 232 C94 182 139 182 191 229 C143 218 98 219 45 232 Z" fill="#ff5b28"/>
    <path d="M675 232 C626 182 581 182 529 229 C577 218 622 219 675 232 Z" fill="#ff5b28"/>
  </g>
  <rect x="20" y="18" width="680" height="224" rx="24" fill="none" stroke="#ff5b28" stroke-opacity=".35" stroke-width="2"/>
  <text x="676" y="224" text-anchor="end" fill="#fff" opacity=".45" font-family="Arial, sans-serif" font-size="18" font-weight="700">06</text>
</svg>