<svg xmlns="http://www.w3.org/2000/svg" width="720" height="260" viewBox="0 0 720 260" role="img" aria-label="Golden Champions">
  <defs>
    <linearGradient id="bg" x1="0" y1="0" x2="1" y2="1">
      <stop offset="0" stop-color="#2c1b03"/>
      <stop offset="0.58" stop-color="#8d5d07"/>
      <stop offset="1" stop-color="#2c1b03"/>
    </linearGradient>
    <radialGradient id="halo">
      <stop offset="0" stop-color="#f3b91d" stop-opacity=".52"/>
      <stop offset="1" stop-color="#f3b91d" stop-opacity="0"/>
    </radialGradient>
    <linearGradient id="gold" x1="0" y1="0" x2="1" y2="1">
      <stop offset="0" stop-color="#fff39a"/>
      <stop offset=".38" stop-color="#fff2a0"/>
      <stop offset="1" stop-color="#9c5c05"/>
    </linearGradient>
    <filter id="shadow" x="-50%" y="-50%" width="200%" height="200%">
      <feDropShadow dx="0" dy="8" stdDeviation="8" flood-color="#000" flood-opacity=".55"/>
    </filter>
  </defs>
  <rect width="720" height="260" rx="28" fill="url(#bg)"/>
  <ellipse cx="360" cy="112" rx="245" ry="130" fill="url(#halo)"/>
  <path d="M0 147 Q110 82 220 151 T445 138 T720 114 V260 H0 Z" fill="#2c1b03" opacity=".67"/>
  <path d="M0 202 Q120 154 240 205 T480 190 T720 195 V260 H0 Z" fill="#001b0d" opacity=".62"/>
  <path d="M667 214 L685 176 L703 214 Z" fill="#2c1b03" opacity="0.41"/><path d="M610 214 L619 123 L628 214 Z" fill="#f3b91d" opacity="0.36"/><path d="M475 214 L486 117 L497 214 Z" fill="#2c1b03" opacity="0.16"/><path d="M184 214 L193.5 161 L203 214 Z" fill="#f3b91d" opacity="0.31"/><path d="M713 214 L723.5 182 L734 214 Z" fill="#2c1b03" opacity="0.36"/><path d="M506 214 L514.5 115 L523 214 Z" fill="#f3b91d" opacity="0.39"/><path d="M531 214 L546.5 163 L562 214 Z" fill="#2c1b03" opacity="0.23"/><path d="M515 214 L530.5 178 L546 214 Z" fill="#f3b91d" opacity="0.20"/><path d="M59 214 L66.5 141 L74 214 Z" fill="#2c1b03" opacity="0.19"/><path d="M507 214 L526 151 L545 214 Z" fill="#f3b91d" opacity="0.23"/><path d="M8 214 L16 130 L24 214 Z" fill="#2c1b03" opacity="0.28"/><path d="M332 214 L347.5 142 L363 214 Z" fill="#f3b91d" opacity="0.21"/><path d="M251 214 L270 134 L289 214 Z" fill="#2c1b03" opacity="0.36"/><path d="M146 214 L157 162 L168 214 Z" fill="#f3b91d" opacity="0.22"/><path d="M234 214 L242.5 181 L251 214 Z" fill="#2c1b03" opacity="0.40"/><path d="M131 214 L144 125 L157 214 Z" fill="#f3b91d" opacity="0.39"/><path d="M523 214 L535 115 L547 214 Z" fill="#2c1b03" opacity="0.38"/><path d="M620 214 L631.5 120 L643 214 Z" fill="#f3b91d" opacity="0.21"/>
  <circle cx="426" cy="75" r="1.6" fill="#fff2a0" opacity="0.40"/><circle cx="462" cy="103" r="0.8" fill="#fff2a0" opacity="0.84"/><circle cx="364" cy="39" r="1.3" fill="#fff2a0" opacity="0.59"/><circle cx="160" cy="100" r="0.9" fill="#fff2a0" opacity="0.54"/><circle cx="278" cy="96" r="1.9" fill="#fff2a0" opacity="0.69"/><circle cx="217" cy="26" r="0.9" fill="#fff2a0" opacity="0.28"/><circle cx="627" cy="71" r="0.8" fill="#fff2a0" opacity="0.66"/><circle cx="153" cy="59" r="1.2" fill="#fff2a0" opacity="0.85"/><circle cx="306" cy="75" r="1.9" fill="#fff2a0" opacity="0.57"/><circle cx="519" cy="103" r="1.0" fill="#fff2a0" opacity="0.43"/><circle cx="405" cy="71" r="2.9" fill="#fff2a0" opacity="0.78"/><circle cx="552" cy="199" r="1.6" fill="#fff2a0" opacity="0.27"/><circle cx="174" cy="70" r="1.7" fill="#fff2a0" opacity="0.51"/><circle cx="288" cy="32" r="2.0" fill="#fff2a0" opacity="0.54"/><circle cx="189" cy="202" r="1.1" fill="#fff2a0" opacity="0.34"/><circle cx="342" cy="33" r="3.0" fill="#fff2a0" opacity="0.57"/><circle cx="446" cy="77" r="2.2" fill="#fff2a0" opacity="0.57"/><circle cx="29" cy="57" r="2.5" fill="#fff2a0" opacity="0.32"/><circle cx="202" cy="117" r="1.5" fill="#fff2a0" opacity="0.86"/><circle cx="628" cy="29" r="2.2" fill="#fff2a0" opacity="0.34"/><circle cx="244" cy="87" r="0.9" fill="#fff2a0" opacity="0.30"/><circle cx="184" cy="78" r="1.0" fill="#fff2a0" opacity="0.44"/>
  <g transform="translate(288 42)" filter="url(#shadow)">
    <path d="M21 17 H123 V53 C123 91 102 111 72 116 C42 111 21 91 21 53 Z" fill="url(#gold)" stroke="#fff1a0" stroke-width="3"/>
    <path d="M21 29 H4 V49 C4 76 21 88 43 88" fill="none" stroke="#fff2a0" stroke-width="12" stroke-linecap="round"/>
    <path d="M123 29 H140 V49 C140 76 123 88 101 88" fill="none" stroke="#fff2a0" stroke-width="12" stroke-linecap="round"/>
    <path d="M64 114 H80 V139 H111 V154 H33 V139 H64 Z" fill="url(#gold)"/>
    <path d="M72 43 L81 61 L101 64 L86 78 L90 98 L72 88 L54 98 L58 78 L43 64 L63 61 Z" fill="#8d5d07" stroke="#f4ffb0" stroke-width="2"/>
  </g>
  <g opacity=".76">
    <path d="M45 232 C94 182 139 182 191 229 C143 218 98 219 45 232 Z" fill="#f3b91d"/>
    <path d="M675 232 C626 182 581 182 529 229 C577 218 622 219 675 232 Z" fill="#f3b91d"/>
  </g>
  <rect x="20" y="18" width="680" height="224" rx="24" fill="none" stroke="#f3b91d" stroke-opacity=".35" stroke-width="2"/>
  <text x="676" y="224" text-anchor="end" fill="#fff" opacity=".45" font-family="Arial, sans-serif" font-size="18" font-weight="700">01</text>
</svg>