<svg xmlns="http://www.w3.org/2000/svg" width="720" height="260" viewBox="0 0 720 260" role="img" aria-label="Desert Arena">
  <defs>
    <linearGradient id="bg" x1="0" y1="0" x2="1" y2="1">
      <stop offset="0" stop-color="#381508"/>
      <stop offset="0.58" stop-color="#a44214"/>
      <stop offset="1" stop-color="#381508"/>
    </linearGradient>
    <radialGradient id="halo">
      <stop offset="0" stop-color="#ffad35" stop-opacity=".52"/>
      <stop offset="1" stop-color="#ffad35" stop-opacity="0"/>
    </radialGradient>
    <linearGradient id="gold" x1="0" y1="0" x2="1" y2="1">
      <stop offset="0" stop-color="#fff39a"/>
      <stop offset=".38" stop-color="#ffd35a"/>
      <stop offset="1" stop-color="#9c5c05"/>
    </linearGradient>
    <filter id="shadow" x="-50%" y="-50%" width="200%" height="200%">
      <feDropShadow dx="0" dy="8" stdDeviation="8" flood-color="#000" flood-opacity=".55"/>
    </filter>
  </defs>
  <rect width="720" height="260" rx="28" fill="url(#bg)"/>
  <ellipse cx="360" cy="112" rx="245" ry="130" fill="url(#halo)"/>
  <path d="M0 165 Q110 100 220 169 T445 156 T720 132 V260 H0 Z" fill="#381508" opacity=".67"/>
  <path d="M0 202 Q120 154 240 205 T480 190 T720 195 V260 H0 Z" fill="#001b0d" opacity=".62"/>
  <path d="M644 214 L659.5 164 L675 214 Z" fill="#381508" opacity="0.33"/><path d="M675 214 L689.5 176 L704 214 Z" fill="#ffad35" opacity="0.27"/><path d="M583 214 L598 176 L613 214 Z" fill="#381508" opacity="0.21"/><path d="M82 214 L93 155 L104 214 Z" fill="#ffad35" opacity="0.40"/><path d="M434 214 L444.5 113 L455 214 Z" fill="#381508" opacity="0.34"/><path d="M410 214 L426.5 130 L443 214 Z" fill="#ffad35" opacity="0.21"/><path d="M474 214 L490 150 L506 214 Z" fill="#381508" opacity="0.27"/><path d="M316 214 L332.5 156 L349 214 Z" fill="#ffad35" opacity="0.40"/><path d="M243 214 L258 146 L273 214 Z" fill="#381508" opacity="0.37"/><path d="M511 214 L523 118 L535 214 Z" fill="#ffad35" opacity="0.39"/><path d="M136 214 L145 161 L154 214 Z" fill="#381508" opacity="0.31"/><path d="M426 214 L437 178 L448 214 Z" fill="#ffad35" opacity="0.35"/><path d="M705 214 L715.5 152 L726 214 Z" fill="#381508" opacity="0.21"/><path d="M508 214 L521.5 178 L535 214 Z" fill="#ffad35" opacity="0.22"/><path d="M375 214 L386.5 116 L398 214 Z" fill="#381508" opacity="0.36"/><path d="M48 214 L59.5 141 L71 214 Z" fill="#ffad35" opacity="0.22"/><path d="M238 214 L246 134 L254 214 Z" fill="#381508" opacity="0.22"/><path d="M649 214 L665.5 172 L682 214 Z" fill="#ffad35" opacity="0.40"/>
  <circle cx="82" cy="94" r="2.3" fill="#ffd35a" opacity="0.88"/><circle cx="198" cy="78" r="2.9" fill="#ffd35a" opacity="0.43"/><circle cx="649" cy="65" r="1.8" fill="#ffd35a" opacity="0.26"/><circle cx="329" cy="39" r="1.7" fill="#ffd35a" opacity="0.83"/><circle cx="347" cy="206" r="2.3" fill="#ffd35a" opacity="0.35"/><circle cx="218" cy="92" r="1.0" fill="#ffd35a" opacity="0.84"/><circle cx="589" cy="145" r="2.4" fill="#ffd35a" opacity="0.28"/><circle cx="116" cy="102" r="0.8" fill="#ffd35a" opacity="0.30"/><circle cx="167" cy="188" r="2.1" fill="#ffd35a" opacity="0.54"/><circle cx="564" cy="86" r="1.0" fill="#ffd35a" opacity="0.53"/><circle cx="361" cy="140" r="2.0" fill="#ffd35a" opacity="0.57"/><circle cx="137" cy="179" r="1.8" fill="#ffd35a" opacity="0.76"/><circle cx="420" cy="150" r="1.9" fill="#ffd35a" opacity="0.30"/><circle cx="543" cy="149" r="2.7" fill="#ffd35a" opacity="0.51"/><circle cx="374" cy="122" r="1.0" fill="#ffd35a" opacity="0.38"/><circle cx="25" cy="154" r="1.9" fill="#ffd35a" opacity="0.67"/><circle cx="335" cy="200" r="2.4" fill="#ffd35a" opacity="0.58"/><circle cx="249" cy="83" r="1.2" fill="#ffd35a" opacity="0.73"/><circle cx="343" cy="22" r="1.7" fill="#ffd35a" opacity="0.73"/><circle cx="132" cy="153" r="2.6" fill="#ffd35a" opacity="0.65"/><circle cx="85" cy="169" r="1.0" fill="#ffd35a" opacity="0.52"/><circle cx="432" cy="81" r="1.0" fill="#ffd35a" opacity="0.75"/>
  <g transform="translate(288 42)" filter="url(#shadow)">
    <path d="M21 17 H123 V53 C123 91 102 111 72 116 C42 111 21 91 21 53 Z" fill="url(#gold)" stroke="#fff1a0" stroke-width="3"/>
    <path d="M21 29 H4 V49 C4 76 21 88 43 88" fill="none" stroke="#ffd35a" stroke-width="12" stroke-linecap="round"/>
    <path d="M123 29 H140 V49 C140 76 123 88 101 88" fill="none" stroke="#ffd35a" stroke-width="12" stroke-linecap="round"/>
    <path d="M64 114 H80 V139 H111 V154 H33 V139 H64 Z" fill="url(#gold)"/>
    <path d="M72 43 L81 61 L101 64 L86 78 L90 98 L72 88 L54 98 L58 78 L43 64 L63 61 Z" fill="#a44214" stroke="#f4ffb0" stroke-width="2"/>
  </g>
  <g opacity=".76">
    <path d="M45 232 C94 182 139 182 191 229 C143 218 98 219 45 232 Z" fill="#ffad35"/>
    <path d="M675 232 C626 182 581 182 529 229 C577 218 622 219 675 232 Z" fill="#ffad35"/>
  </g>
  <rect x="20" y="18" width="680" height="224" rx="24" fill="none" stroke="#ffad35" stroke-opacity=".35" stroke-width="2"/>
  <text x="676" y="224" text-anchor="end" fill="#fff" opacity=".45" font-family="Arial, sans-serif" font-size="18" font-weight="700">06</text>
</svg>