<svg xmlns="http://www.w3.org/2000/svg" width="720" height="260" viewBox="0 0 720 260" role="img" aria-label="Temple Masters">
  <defs>
    <linearGradient id="bg" x1="0" y1="0" x2="1" y2="1">
      <stop offset="0" stop-color="#201006"/>
      <stop offset="0.58" stop-color="#76521a"/>
      <stop offset="1" stop-color="#201006"/>
    </linearGradient>
    <radialGradient id="halo">
      <stop offset="0" stop-color="#d9a93d" stop-opacity=".52"/>
      <stop offset="1" stop-color="#d9a93d" stop-opacity="0"/>
    </radialGradient>
    <linearGradient id="gold" x1="0" y1="0" x2="1" y2="1">
      <stop offset="0" stop-color="#fff39a"/>
      <stop offset=".38" stop-color="#fff08d"/>
      <stop offset="1" stop-color="#9c5c05"/>
    </linearGradient>
    <filter id="shadow" x="-50%" y="-50%" width="200%" height="200%">
      <feDropShadow dx="0" dy="8" stdDeviation="8" flood-color="#000" flood-opacity=".55"/>
    </filter>
  </defs>
  <rect width="720" height="260" rx="28" fill="url(#bg)"/>
  <ellipse cx="360" cy="112" rx="245" ry="130" fill="url(#halo)"/>
  <path d="M0 171 Q110 106 220 175 T445 162 T720 138 V260 H0 Z" fill="#201006" opacity=".67"/>
  <path d="M0 202 Q120 154 240 205 T480 190 T720 195 V260 H0 Z" fill="#001b0d" opacity=".62"/>
  <path d="M671 214 L686.5 131 L702 214 Z" fill="#201006" opacity="0.29"/><path d="M558 214 L570.5 149 L583 214 Z" fill="#d9a93d" opacity="0.19"/><path d="M343 214 L362 167 L381 214 Z" fill="#201006" opacity="0.26"/><path d="M530 214 L544 117 L558 214 Z" fill="#d9a93d" opacity="0.23"/><path d="M32 214 L48.5 161 L65 214 Z" fill="#201006" opacity="0.17"/><path d="M111 214 L130 143 L149 214 Z" fill="#d9a93d" opacity="0.24"/><path d="M180 214 L197 158 L214 214 Z" fill="#201006" opacity="0.17"/><path d="M281 214 L289 171 L297 214 Z" fill="#d9a93d" opacity="0.19"/><path d="M46 214 L53.5 148 L61 214 Z" fill="#201006" opacity="0.37"/><path d="M666 214 L680.5 126 L695 214 Z" fill="#d9a93d" opacity="0.36"/><path d="M34 214 L48.5 123 L63 214 Z" fill="#201006" opacity="0.21"/><path d="M188 214 L204 147 L220 214 Z" fill="#d9a93d" opacity="0.36"/><path d="M299 214 L313.5 169 L328 214 Z" fill="#201006" opacity="0.30"/><path d="M459 214 L472.5 137 L486 214 Z" fill="#d9a93d" opacity="0.20"/><path d="M653 214 L671.5 155 L690 214 Z" fill="#201006" opacity="0.30"/><path d="M398 214 L415 135 L432 214 Z" fill="#d9a93d" opacity="0.34"/><path d="M332 214 L344.5 178 L357 214 Z" fill="#201006" opacity="0.31"/><path d="M76 214 L86 146 L96 214 Z" fill="#d9a93d" opacity="0.31"/>
  <circle cx="505" cy="55" r="2.0" fill="#fff08d" opacity="0.60"/><circle cx="117" cy="131" r="2.4" fill="#fff08d" opacity="0.53"/><circle cx="228" cy="197" r="2.8" fill="#fff08d" opacity="0.39"/><circle cx="171" cy="70" r="1.0" fill="#fff08d" opacity="0.27"/><circle cx="21" cy="85" r="2.2" fill="#fff08d" opacity="0.51"/><circle cx="283" cy="203" r="1.2" fill="#fff08d" opacity="0.74"/><circle cx="441" cy="89" r="2.5" fill="#fff08d" opacity="0.56"/><circle cx="537" cy="173" r="1.5" fill="#fff08d" opacity="0.38"/><circle cx="546" cy="126" r="0.9" fill="#fff08d" opacity="0.48"/><circle cx="657" cy="174" r="2.2" fill="#fff08d" opacity="0.78"/><circle cx="317" cy="79" r="2.6" fill="#fff08d" opacity="0.52"/><circle cx="156" cy="145" r="1.9" fill="#fff08d" opacity="0.66"/><circle cx="228" cy="143" r="2.2" fill="#fff08d" opacity="0.59"/><circle cx="393" cy="26" r="1.8" fill="#fff08d" opacity="0.28"/><circle cx="689" cy="133" r="2.8" fill="#fff08d" opacity="0.30"/><circle cx="381" cy="114" r="3.0" fill="#fff08d" opacity="0.72"/><circle cx="681" cy="40" r="2.4" fill="#fff08d" opacity="0.32"/><circle cx="632" cy="203" r="1.6" fill="#fff08d" opacity="0.49"/><circle cx="346" cy="119" r="1.9" fill="#fff08d" opacity="0.61"/><circle cx="67" cy="156" r="2.9" fill="#fff08d" opacity="0.81"/><circle cx="49" cy="146" r="1.3" fill="#fff08d" opacity="0.51"/><circle cx="290" cy="204" r="2.2" fill="#fff08d" opacity="0.35"/>
  <g transform="translate(288 42)" filter="url(#shadow)">
    <path d="M21 17 H123 V53 C123 91 102 111 72 116 C42 111 21 91 21 53 Z" fill="url(#gold)" stroke="#fff1a0" stroke-width="3"/>
    <path d="M21 29 H4 V49 C4 76 21 88 43 88" fill="none" stroke="#fff08d" stroke-width="12" stroke-linecap="round"/>
    <path d="M123 29 H140 V49 C140 76 123 88 101 88" fill="none" stroke="#fff08d" stroke-width="12" stroke-linecap="round"/>
    <path d="M64 114 H80 V139 H111 V154 H33 V139 H64 Z" fill="url(#gold)"/>
    <path d="M72 43 L81 61 L101 64 L86 78 L90 98 L72 88 L54 98 L58 78 L43 64 L63 61 Z" fill="#76521a" stroke="#f4ffb0" stroke-width="2"/>
  </g>
  <g opacity=".76">
    <path d="M45 232 C94 182 139 182 191 229 C143 218 98 219 45 232 Z" fill="#d9a93d"/>
    <path d="M675 232 C626 182 581 182 529 229 C577 218 622 219 675 232 Z" fill="#d9a93d"/>
  </g>
  <rect x="20" y="18" width="680" height="224" rx="24" fill="none" stroke="#d9a93d" stroke-opacity=".35" stroke-width="2"/>
  <text x="676" y="224" text-anchor="end" fill="#fff" opacity=".45" font-family="Arial, sans-serif" font-size="18" font-weight="700">10</text>
</svg>