<svg xmlns="http://www.w3.org/2000/svg" width="720" height="260" viewBox="0 0 720 260" role="img" aria-label="Crystal League">
  <defs>
    <linearGradient id="bg" x1="0" y1="0" x2="1" y2="1">
      <stop offset="0" stop-color="#07152f"/>
      <stop offset="0.58" stop-color="#173c90"/>
      <stop offset="1" stop-color="#07152f"/>
    </linearGradient>
    <radialGradient id="halo">
      <stop offset="0" stop-color="#4ec9ff" stop-opacity=".52"/>
      <stop offset="1" stop-color="#4ec9ff" stop-opacity="0"/>
    </radialGradient>
    <linearGradient id="gold" x1="0" y1="0" x2="1" y2="1">
      <stop offset="0" stop-color="#fff39a"/>
      <stop offset=".38" stop-color="#bdf1ff"/>
      <stop offset="1" stop-color="#9c5c05"/>
    </linearGradient>
    <filter id="shadow" x="-50%" y="-50%" width="200%" height="200%">
      <feDropShadow dx="0" dy="8" stdDeviation="8" flood-color="#000" flood-opacity=".55"/>
    </filter>
  </defs>
  <rect width="720" height="260" rx="28" fill="url(#bg)"/>
  <ellipse cx="360" cy="112" rx="245" ry="130" fill="url(#halo)"/>
  <path d="M0 149 Q110 84 220 153 T445 140 T720 116 V260 H0 Z" fill="#07152f" opacity=".67"/>
  <path d="M0 202 Q120 154 240 205 T480 190 T720 195 V260 H0 Z" fill="#001b0d" opacity=".62"/>
  <path d="M570 214 L581 115 L592 214 Z" fill="#07152f" opacity="0.26"/><path d="M460 214 L474 134 L488 214 Z" fill="#4ec9ff" opacity="0.32"/><path d="M365 214 L376 165 L387 214 Z" fill="#07152f" opacity="0.30"/><path d="M34 214 L51.5 172 L69 214 Z" fill="#4ec9ff" opacity="0.17"/><path d="M266 214 L280.5 125 L295 214 Z" fill="#07152f" opacity="0.19"/><path d="M649 214 L658.5 163 L668 214 Z" fill="#4ec9ff" opacity="0.28"/><path d="M289 214 L304 141 L319 214 Z" fill="#07152f" opacity="0.29"/><path d="M273 214 L290 125 L307 214 Z" fill="#4ec9ff" opacity="0.24"/><path d="M332 214 L340 125 L348 214 Z" fill="#07152f" opacity="0.19"/><path d="M311 214 L328 148 L345 214 Z" fill="#4ec9ff" opacity="0.27"/><path d="M8 214 L24 121 L40 214 Z" fill="#07152f" opacity="0.34"/><path d="M421 214 L430.5 161 L440 214 Z" fill="#4ec9ff" opacity="0.41"/><path d="M323 214 L331 136 L339 214 Z" fill="#07152f" opacity="0.34"/><path d="M215 214 L234.5 162 L254 214 Z" fill="#4ec9ff" opacity="0.27"/><path d="M719 214 L730.5 172 L742 214 Z" fill="#07152f" opacity="0.19"/><path d="M642 214 L652.5 151 L663 214 Z" fill="#4ec9ff" opacity="0.20"/><path d="M119 214 L130.5 157 L142 214 Z" fill="#07152f" opacity="0.25"/><path d="M22 214 L35 172 L48 214 Z" fill="#4ec9ff" opacity="0.36"/>
  <circle cx="532" cy="113" r="1.5" fill="#bdf1ff" opacity="0.75"/><circle cx="545" cy="154" r="2.0" fill="#bdf1ff" opacity="0.68"/><circle cx="324" cy="121" r="1.1" fill="#bdf1ff" opacity="0.40"/><circle cx="143" cy="87" r="1.2" fill="#bdf1ff" opacity="0.77"/><circle cx="668" cy="45" r="1.4" fill="#bdf1ff" opacity="0.43"/><circle cx="361" cy="116" r="1.7" fill="#bdf1ff" opacity="0.81"/><circle cx="499" cy="155" r="1.2" fill="#bdf1ff" opacity="0.36"/><circle cx="627" cy="80" r="0.8" fill="#bdf1ff" opacity="0.78"/><circle cx="109" cy="204" r="1.1" fill="#bdf1ff" opacity="0.79"/><circle cx="514" cy="129" r="2.5" fill="#bdf1ff" opacity="0.57"/><circle cx="348" cy="148" r="2.8" fill="#bdf1ff" opacity="0.53"/><circle cx="328" cy="191" r="1.5" fill="#bdf1ff" opacity="0.85"/><circle cx="178" cy="165" r="2.6" fill="#bdf1ff" opacity="0.87"/><circle cx="35" cy="65" r="2.1" fill="#bdf1ff" opacity="0.55"/><circle cx="34" cy="164" r="1.7" fill="#bdf1ff" opacity="0.58"/><circle cx="609" cy="155" r="2.2" fill="#bdf1ff" opacity="0.76"/><circle cx="144" cy="114" r="2.0" fill="#bdf1ff" opacity="0.49"/><circle cx="331" cy="158" r="1.4" fill="#bdf1ff" opacity="0.66"/><circle cx="576" cy="51" r="1.7" fill="#bdf1ff" opacity="0.88"/><circle cx="298" cy="102" r="2.9" fill="#bdf1ff" opacity="0.54"/><circle cx="322" cy="145" r="2.4" fill="#bdf1ff" opacity="0.69"/><circle cx="127" cy="113" r="2.2" fill="#bdf1ff" opacity="0.70"/>
  <g transform="translate(288 42)" filter="url(#shadow)">
    <path d="M21 17 H123 V53 C123 91 102 111 72 116 C42 111 21 91 21 53 Z" fill="url(#gold)" stroke="#fff1a0" stroke-width="3"/>
    <path d="M21 29 H4 V49 C4 76 21 88 43 88" fill="none" stroke="#bdf1ff" stroke-width="12" stroke-linecap="round"/>
    <path d="M123 29 H140 V49 C140 76 123 88 101 88" fill="none" stroke="#bdf1ff" stroke-width="12" stroke-linecap="round"/>
    <path d="M64 114 H80 V139 H111 V154 H33 V139 H64 Z" fill="url(#gold)"/>
    <path d="M72 43 L81 61 L101 64 L86 78 L90 98 L72 88 L54 98 L58 78 L43 64 L63 61 Z" fill="#173c90" stroke="#f4ffb0" stroke-width="2"/>
  </g>
  <g opacity=".76">
    <path d="M45 232 C94 182 139 182 191 229 C143 218 98 219 45 232 Z" fill="#4ec9ff"/>
    <path d="M675 232 C626 182 581 182 529 229 C577 218 622 219 675 232 Z" fill="#4ec9ff"/>
  </g>
  <rect x="20" y="18" width="680" height="224" rx="24" fill="none" stroke="#4ec9ff" stroke-opacity=".35" stroke-width="2"/>
  <text x="676" y="224" text-anchor="end" fill="#fff" opacity=".45" font-family="Arial, sans-serif" font-size="18" font-weight="700">07</text>
</svg>