<svg xmlns="http://www.w3.org/2000/svg" width="720" height="260" viewBox="0 0 720 260" role="img" aria-label="Moonlight Royale">
  <defs>
    <linearGradient id="bg" x1="0" y1="0" x2="1" y2="1">
      <stop offset="0" stop-color="#0c1230"/>
      <stop offset="0.58" stop-color="#303477"/>
      <stop offset="1" stop-color="#0c1230"/>
    </linearGradient>
    <radialGradient id="halo">
      <stop offset="0" stop-color="#9c7cff" stop-opacity=".52"/>
      <stop offset="1" stop-color="#9c7cff" stop-opacity="0"/>
    </radialGradient>
    <linearGradient id="gold" x1="0" y1="0" x2="1" y2="1">
      <stop offset="0" stop-color="#fff39a"/>
      <stop offset=".38" stop-color="#f1e7ff"/>
      <stop offset="1" stop-color="#9c5c05"/>
    </linearGradient>
    <filter id="shadow" x="-50%" y="-50%" width="200%" height="200%">
      <feDropShadow dx="0" dy="8" stdDeviation="8" flood-color="#000" flood-opacity=".55"/>
    </filter>
  </defs>
  <rect width="720" height="260" rx="28" fill="url(#bg)"/>
  <ellipse cx="360" cy="112" rx="245" ry="130" fill="url(#halo)"/>
  <path d="M0 154 Q110 89 220 158 T445 145 T720 121 V260 H0 Z" fill="#0c1230" opacity=".67"/>
  <path d="M0 202 Q120 154 240 205 T480 190 T720 195 V260 H0 Z" fill="#001b0d" opacity=".62"/>
  <path d="M670 214 L686.5 146 L703 214 Z" fill="#0c1230" opacity="0.33"/><path d="M95 214 L106 116 L117 214 Z" fill="#9c7cff" opacity="0.33"/><path d="M387 214 L399.5 174 L412 214 Z" fill="#0c1230" opacity="0.31"/><path d="M414 214 L422 180 L430 214 Z" fill="#9c7cff" opacity="0.18"/><path d="M19 214 L33.5 144 L48 214 Z" fill="#0c1230" opacity="0.40"/><path d="M243 214 L254.5 158 L266 214 Z" fill="#9c7cff" opacity="0.21"/><path d="M537 214 L553.5 184 L570 214 Z" fill="#0c1230" opacity="0.27"/><path d="M599 214 L609.5 125 L620 214 Z" fill="#9c7cff" opacity="0.20"/><path d="M290 214 L306 122 L322 214 Z" fill="#0c1230" opacity="0.31"/><path d="M613 214 L625 158 L637 214 Z" fill="#9c7cff" opacity="0.40"/><path d="M265 214 L277.5 126 L290 214 Z" fill="#0c1230" opacity="0.32"/><path d="M476 214 L491.5 169 L507 214 Z" fill="#9c7cff" opacity="0.40"/><path d="M43 214 L50.5 133 L58 214 Z" fill="#0c1230" opacity="0.32"/><path d="M115 214 L127.5 121 L140 214 Z" fill="#9c7cff" opacity="0.20"/><path d="M273 214 L292.5 163 L312 214 Z" fill="#0c1230" opacity="0.17"/><path d="M69 214 L80.5 180 L92 214 Z" fill="#9c7cff" opacity="0.27"/><path d="M156 214 L172.5 133 L189 214 Z" fill="#0c1230" opacity="0.25"/><path d="M258 214 L272.5 162 L287 214 Z" fill="#9c7cff" opacity="0.27"/>
  <circle cx="26" cy="189" r="1.9" fill="#f1e7ff" opacity="0.53"/><circle cx="232" cy="122" r="1.1" fill="#f1e7ff" opacity="0.42"/><circle cx="274" cy="145" r="2.3" fill="#f1e7ff" opacity="0.67"/><circle cx="167" cy="80" r="2.4" fill="#f1e7ff" opacity="0.36"/><circle cx="560" cy="152" r="2.8" fill="#f1e7ff" opacity="0.79"/><circle cx="488" cy="207" r="1.9" fill="#f1e7ff" opacity="0.80"/><circle cx="276" cy="83" r="2.7" fill="#f1e7ff" opacity="0.37"/><circle cx="182" cy="135" r="2.8" fill="#f1e7ff" opacity="0.75"/><circle cx="466" cy="46" r="2.7" fill="#f1e7ff" opacity="0.72"/><circle cx="611" cy="151" r="2.5" fill="#f1e7ff" opacity="0.88"/><circle cx="346" cy="76" r="1.2" fill="#f1e7ff" opacity="0.82"/><circle cx="515" cy="163" r="1.1" fill="#f1e7ff" opacity="0.31"/><circle cx="663" cy="182" r="2.8" fill="#f1e7ff" opacity="0.56"/><circle cx="585" cy="155" r="1.1" fill="#f1e7ff" opacity="0.80"/><circle cx="296" cy="156" r="2.9" fill="#f1e7ff" opacity="0.31"/><circle cx="595" cy="23" r="2.2" fill="#f1e7ff" opacity="0.67"/><circle cx="376" cy="115" r="1.6" fill="#f1e7ff" opacity="0.62"/><circle cx="658" cy="154" r="2.6" fill="#f1e7ff" opacity="0.65"/><circle cx="298" cy="55" r="1.7" fill="#f1e7ff" opacity="0.26"/><circle cx="481" cy="51" r="2.6" fill="#f1e7ff" opacity="0.87"/><circle cx="568" cy="127" r="2.6" fill="#f1e7ff" opacity="0.87"/><circle cx="28" cy="162" r="2.6" fill="#f1e7ff" opacity="0.60"/>
  <g transform="translate(288 42)" filter="url(#shadow)">
    <path d="M21 17 H123 V53 C123 91 102 111 72 116 C42 111 21 91 21 53 Z" fill="url(#gold)" stroke="#fff1a0" stroke-width="3"/>
    <path d="M21 29 H4 V49 C4 76 21 88 43 88" fill="none" stroke="#f1e7ff" stroke-width="12" stroke-linecap="round"/>
    <path d="M123 29 H140 V49 C140 76 123 88 101 88" fill="none" stroke="#f1e7ff" stroke-width="12" stroke-linecap="round"/>
    <path d="M64 114 H80 V139 H111 V154 H33 V139 H64 Z" fill="url(#gold)"/>
    <path d="M72 43 L81 61 L101 64 L86 78 L90 98 L72 88 L54 98 L58 78 L43 64 L63 61 Z" fill="#303477" stroke="#f4ffb0" stroke-width="2"/>
  </g>
  <g opacity=".76">
    <path d="M45 232 C94 182 139 182 191 229 C143 218 98 219 45 232 Z" fill="#9c7cff"/>
    <path d="M675 232 C626 182 581 182 529 229 C577 218 622 219 675 232 Z" fill="#9c7cff"/>
  </g>
  <rect x="20" y="18" width="680" height="224" rx="24" fill="none" stroke="#9c7cff" stroke-opacity=".35" stroke-width="2"/>
  <text x="676" y="224" text-anchor="end" fill="#fff" opacity=".45" font-family="Arial, sans-serif" font-size="18" font-weight="700">07</text>
</svg>