<svg xmlns="http://www.w3.org/2000/svg" width="720" height="260" viewBox="0 0 720 260" role="img" aria-label="Emerald River">
  <defs>
    <linearGradient id="bg" x1="0" y1="0" x2="1" y2="1">
      <stop offset="0" stop-color="#03251c"/>
      <stop offset="0.58" stop-color="#08745f"/>
      <stop offset="1" stop-color="#03251c"/>
    </linearGradient>
    <radialGradient id="halo">
      <stop offset="0" stop-color="#39d4b4" stop-opacity=".52"/>
      <stop offset="1" stop-color="#39d4b4" stop-opacity="0"/>
    </radialGradient>
    <linearGradient id="gold" x1="0" y1="0" x2="1" y2="1">
      <stop offset="0" stop-color="#fff39a"/>
      <stop offset=".38" stop-color="#ddff91"/>
      <stop offset="1" stop-color="#9c5c05"/>
    </linearGradient>
    <filter id="shadow" x="-50%" y="-50%" width="200%" height="200%">
      <feDropShadow dx="0" dy="8" stdDeviation="8" flood-color="#000" flood-opacity=".55"/>
    </filter>
  </defs>
  <rect width="720" height="260" rx="28" fill="url(#bg)"/>
  <ellipse cx="360" cy="112" rx="245" ry="130" fill="url(#halo)"/>
  <path d="M0 154 Q110 89 220 158 T445 145 T720 121 V260 H0 Z" fill="#03251c" opacity=".67"/>
  <path d="M0 202 Q120 154 240 205 T480 190 T720 195 V260 H0 Z" fill="#001b0d" opacity=".62"/>
  <path d="M273 214 L280.5 150 L288 214 Z" fill="#03251c" opacity="0.28"/><path d="M579 214 L590.5 147 L602 214 Z" fill="#39d4b4" opacity="0.16"/><path d="M256 214 L270 129 L284 214 Z" fill="#03251c" opacity="0.21"/><path d="M448 214 L462.5 157 L477 214 Z" fill="#39d4b4" opacity="0.22"/><path d="M301 214 L318.5 158 L336 214 Z" fill="#03251c" opacity="0.34"/><path d="M296 214 L307.5 167 L319 214 Z" fill="#39d4b4" opacity="0.26"/><path d="M626 214 L636 130 L646 214 Z" fill="#03251c" opacity="0.23"/><path d="M418 214 L427.5 168 L437 214 Z" fill="#39d4b4" opacity="0.37"/><path d="M212 214 L226.5 161 L241 214 Z" fill="#03251c" opacity="0.37"/><path d="M179 214 L188.5 157 L198 214 Z" fill="#39d4b4" opacity="0.32"/><path d="M445 214 L462 176 L479 214 Z" fill="#03251c" opacity="0.28"/><path d="M689 214 L704 113 L719 214 Z" fill="#39d4b4" opacity="0.41"/><path d="M700 214 L716 179 L732 214 Z" fill="#03251c" opacity="0.38"/><path d="M140 214 L155.5 157 L171 214 Z" fill="#39d4b4" opacity="0.23"/><path d="M275 214 L287.5 115 L300 214 Z" fill="#03251c" opacity="0.40"/><path d="M531 214 L545 163 L559 214 Z" fill="#39d4b4" opacity="0.30"/><path d="M184 214 L200.5 131 L217 214 Z" fill="#03251c" opacity="0.30"/><path d="M573 214 L590 118 L607 214 Z" fill="#39d4b4" opacity="0.39"/>
  <circle cx="490" cy="131" r="2.7" fill="#ddff91" opacity="0.83"/><circle cx="688" cy="70" r="1.3" fill="#ddff91" opacity="0.27"/><circle cx="429" cy="104" r="2.2" fill="#ddff91" opacity="0.60"/><circle cx="76" cy="99" r="2.5" fill="#ddff91" opacity="0.61"/><circle cx="452" cy="38" r="1.0" fill="#ddff91" opacity="0.36"/><circle cx="457" cy="27" r="3.0" fill="#ddff91" opacity="0.76"/><circle cx="653" cy="186" r="0.9" fill="#ddff91" opacity="0.51"/><circle cx="275" cy="143" r="2.1" fill="#ddff91" opacity="0.48"/><circle cx="477" cy="189" r="1.3" fill="#ddff91" opacity="0.72"/><circle cx="269" cy="89" r="2.0" fill="#ddff91" opacity="0.85"/><circle cx="325" cy="176" r="2.3" fill="#ddff91" opacity="0.65"/><circle cx="91" cy="65" r="1.3" fill="#ddff91" opacity="0.85"/><circle cx="325" cy="75" r="1.8" fill="#ddff91" opacity="0.54"/><circle cx="235" cy="48" r="1.2" fill="#ddff91" opacity="0.56"/><circle cx="322" cy="166" r="2.1" fill="#ddff91" opacity="0.73"/><circle cx="440" cy="69" r="2.8" fill="#ddff91" opacity="0.41"/><circle cx="432" cy="34" r="1.8" fill="#ddff91" opacity="0.43"/><circle cx="686" cy="26" r="1.1" fill="#ddff91" opacity="0.54"/><circle cx="98" cy="102" r="1.8" fill="#ddff91" opacity="0.51"/><circle cx="697" cy="173" r="1.8" fill="#ddff91" opacity="0.78"/><circle cx="427" cy="30" r="2.7" fill="#ddff91" opacity="0.45"/><circle cx="686" cy="199" r="0.8" fill="#ddff91" opacity="0.78"/>
  <g transform="translate(288 42)" filter="url(#shadow)">
    <path d="M21 17 H123 V53 C123 91 102 111 72 116 C42 111 21 91 21 53 Z" fill="url(#gold)" stroke="#fff1a0" stroke-width="3"/>
    <path d="M21 29 H4 V49 C4 76 21 88 43 88" fill="none" stroke="#ddff91" stroke-width="12" stroke-linecap="round"/>
    <path d="M123 29 H140 V49 C140 76 123 88 101 88" fill="none" stroke="#ddff91" stroke-width="12" stroke-linecap="round"/>
    <path d="M64 114 H80 V139 H111 V154 H33 V139 H64 Z" fill="url(#gold)"/>
    <path d="M72 43 L81 61 L101 64 L86 78 L90 98 L72 88 L54 98 L58 78 L43 64 L63 61 Z" fill="#08745f" stroke="#f4ffb0" stroke-width="2"/>
  </g>
  <g opacity=".76">
    <path d="M45 232 C94 182 139 182 191 229 C143 218 98 219 45 232 Z" fill="#39d4b4"/>
    <path d="M675 232 C626 182 581 182 529 229 C577 218 622 219 675 232 Z" fill="#39d4b4"/>
  </g>
  <rect x="20" y="18" width="680" height="224" rx="24" fill="none" stroke="#39d4b4" stroke-opacity=".35" stroke-width="2"/>
  <text x="676" y="224" text-anchor="end" fill="#fff" opacity=".45" font-family="Arial, sans-serif" font-size="18" font-weight="700">09</text>
</svg>