<svg xmlns="http://www.w3.org/2000/svg" width="720" height="260" viewBox="0 0 720 260" role="img" aria-label="Forest Crown">
  <defs>
    <linearGradient id="bg" x1="0" y1="0" x2="1" y2="1">
      <stop offset="0" stop-color="#031f10"/>
      <stop offset="0.58" stop-color="#08753a"/>
      <stop offset="1" stop-color="#031f10"/>
    </linearGradient>
    <radialGradient id="halo">
      <stop offset="0" stop-color="#59e77f" stop-opacity=".52"/>
      <stop offset="1" stop-color="#59e77f" stop-opacity="0"/>
    </radialGradient>
    <linearGradient id="gold" x1="0" y1="0" x2="1" y2="1">
      <stop offset="0" stop-color="#fff39a"/>
      <stop offset=".38" stop-color="#f5ce48"/>
      <stop offset="1" stop-color="#9c5c05"/>
    </linearGradient>
    <filter id="shadow" x="-50%" y="-50%" width="200%" height="200%">
      <feDropShadow dx="0" dy="8" stdDeviation="8" flood-color="#000" flood-opacity=".55"/>
    </filter>
  </defs>
  <rect width="720" height="260" rx="28" fill="url(#bg)"/>
  <ellipse cx="360" cy="112" rx="245" ry="130" fill="url(#halo)"/>
  <path d="M0 156 Q110 91 220 160 T445 147 T720 123 V260 H0 Z" fill="#031f10" opacity=".67"/>
  <path d="M0 202 Q120 154 240 205 T480 190 T720 195 V260 H0 Z" fill="#001b0d" opacity=".62"/>
  <path d="M494 214 L502.5 168 L511 214 Z" fill="#031f10" opacity="0.27"/><path d="M41 214 L52.5 170 L64 214 Z" fill="#59e77f" opacity="0.40"/><path d="M235 214 L253.5 169 L272 214 Z" fill="#031f10" opacity="0.24"/><path d="M476 214 L489.5 169 L503 214 Z" fill="#59e77f" opacity="0.33"/><path d="M72 214 L87 176 L102 214 Z" fill="#031f10" opacity="0.26"/><path d="M431 214 L443.5 154 L456 214 Z" fill="#59e77f" opacity="0.27"/><path d="M98 214 L111 183 L124 214 Z" fill="#031f10" opacity="0.27"/><path d="M146 214 L156.5 145 L167 214 Z" fill="#59e77f" opacity="0.34"/><path d="M189 214 L207 124 L225 214 Z" fill="#031f10" opacity="0.38"/><path d="M6 214 L22.5 171 L39 214 Z" fill="#59e77f" opacity="0.22"/><path d="M342 214 L361 156 L380 214 Z" fill="#031f10" opacity="0.32"/><path d="M273 214 L280.5 116 L288 214 Z" fill="#59e77f" opacity="0.28"/><path d="M149 214 L166 120 L183 214 Z" fill="#031f10" opacity="0.26"/><path d="M674 214 L684.5 116 L695 214 Z" fill="#59e77f" opacity="0.34"/><path d="M303 214 L316.5 173 L330 214 Z" fill="#031f10" opacity="0.27"/><path d="M579 214 L590 178 L601 214 Z" fill="#59e77f" opacity="0.30"/><path d="M367 214 L377 162 L387 214 Z" fill="#031f10" opacity="0.40"/><path d="M477 214 L496 131 L515 214 Z" fill="#59e77f" opacity="0.25"/>
  <circle cx="22" cy="208" r="2.6" fill="#f5ce48" opacity="0.49"/><circle cx="442" cy="21" r="2.9" fill="#f5ce48" opacity="0.70"/><circle cx="89" cy="72" r="1.6" fill="#f5ce48" opacity="0.46"/><circle cx="630" cy="155" r="1.3" fill="#f5ce48" opacity="0.89"/><circle cx="27" cy="208" r="1.9" fill="#f5ce48" opacity="0.41"/><circle cx="233" cy="149" r="1.5" fill="#f5ce48" opacity="0.25"/><circle cx="79" cy="152" r="2.5" fill="#f5ce48" opacity="0.73"/><circle cx="428" cy="171" r="1.4" fill="#f5ce48" opacity="0.71"/><circle cx="571" cy="60" r="1.6" fill="#f5ce48" opacity="0.88"/><circle cx="372" cy="125" r="2.4" fill="#f5ce48" opacity="0.82"/><circle cx="394" cy="151" r="0.9" fill="#f5ce48" opacity="0.44"/><circle cx="557" cy="48" r="1.6" fill="#f5ce48" opacity="0.90"/><circle cx="126" cy="69" r="2.3" fill="#f5ce48" opacity="0.74"/><circle cx="590" cy="49" r="2.3" fill="#f5ce48" opacity="0.32"/><circle cx="268" cy="62" r="2.6" fill="#f5ce48" opacity="0.80"/><circle cx="261" cy="165" r="1.1" fill="#f5ce48" opacity="0.75"/><circle cx="22" cy="179" r="2.2" fill="#f5ce48" opacity="0.35"/><circle cx="465" cy="134" r="1.5" fill="#f5ce48" opacity="0.26"/><circle cx="32" cy="141" r="1.5" fill="#f5ce48" opacity="0.34"/><circle cx="612" cy="30" r="2.8" fill="#f5ce48" opacity="0.54"/><circle cx="235" cy="82" r="2.0" fill="#f5ce48" opacity="0.30"/><circle cx="658" cy="61" r="1.9" fill="#f5ce48" opacity="0.50"/>
  <g transform="translate(288 42)" filter="url(#shadow)">
    <path d="M21 17 H123 V53 C123 91 102 111 72 116 C42 111 21 91 21 53 Z" fill="url(#gold)" stroke="#fff1a0" stroke-width="3"/>
    <path d="M21 29 H4 V49 C4 76 21 88 43 88" fill="none" stroke="#f5ce48" stroke-width="12" stroke-linecap="round"/>
    <path d="M123 29 H140 V49 C140 76 123 88 101 88" fill="none" stroke="#f5ce48" stroke-width="12" stroke-linecap="round"/>
    <path d="M64 114 H80 V139 H111 V154 H33 V139 H64 Z" fill="url(#gold)"/>
    <path d="M72 43 L81 61 L101 64 L86 78 L90 98 L72 88 L54 98 L58 78 L43 64 L63 61 Z" fill="#08753a" stroke="#f4ffb0" stroke-width="2"/>
  </g>
  <g opacity=".76">
    <path d="M45 232 C94 182 139 182 191 229 C143 218 98 219 45 232 Z" fill="#59e77f"/>
    <path d="M675 232 C626 182 581 182 529 229 C577 218 622 219 675 232 Z" fill="#59e77f"/>
  </g>
  <rect x="20" y="18" width="680" height="224" rx="24" fill="none" stroke="#59e77f" stroke-opacity=".35" stroke-width="2"/>
  <text x="676" y="224" text-anchor="end" fill="#fff" opacity=".45" font-family="Arial, sans-serif" font-size="18" font-weight="700">03</text>
</svg>