<svg xmlns="http://www.w3.org/2000/svg" width="720" height="260" viewBox="0 0 720 260" role="img" aria-label="Tropical Treasure">
  <defs>
    <linearGradient id="bg" x1="0" y1="0" x2="1" y2="1">
      <stop offset="0" stop-color="#022a26"/>
      <stop offset="0.58" stop-color="#08755c"/>
      <stop offset="1" stop-color="#022a26"/>
    </linearGradient>
    <radialGradient id="halo">
      <stop offset="0" stop-color="#45d9a5" stop-opacity=".52"/>
      <stop offset="1" stop-color="#45d9a5" stop-opacity="0"/>
    </radialGradient>
    <linearGradient id="gold" x1="0" y1="0" x2="1" y2="1">
      <stop offset="0" stop-color="#fff39a"/>
      <stop offset=".38" stop-color="#ffd64f"/>
      <stop offset="1" stop-color="#9c5c05"/>
    </linearGradient>
    <filter id="shadow" x="-50%" y="-50%" width="200%" height="200%">
      <feDropShadow dx="0" dy="8" stdDeviation="8" flood-color="#000" flood-opacity=".55"/>
    </filter>
  </defs>
  <rect width="720" height="260" rx="28" fill="url(#bg)"/>
  <ellipse cx="360" cy="112" rx="245" ry="130" fill="url(#halo)"/>
  <path d="M0 155 Q110 90 220 159 T445 146 T720 122 V260 H0 Z" fill="#022a26" opacity=".67"/>
  <path d="M0 202 Q120 154 240 205 T480 190 T720 195 V260 H0 Z" fill="#001b0d" opacity=".62"/>
  <path d="M146 214 L161.5 167 L177 214 Z" fill="#022a26" opacity="0.29"/><path d="M599 214 L614.5 160 L630 214 Z" fill="#45d9a5" opacity="0.37"/><path d="M518 214 L532 136 L546 214 Z" fill="#022a26" opacity="0.19"/><path d="M225 214 L240.5 177 L256 214 Z" fill="#45d9a5" opacity="0.32"/><path d="M218 214 L228 147 L238 214 Z" fill="#022a26" opacity="0.28"/><path d="M414 214 L426 175 L438 214 Z" fill="#45d9a5" opacity="0.26"/><path d="M308 214 L327 177 L346 214 Z" fill="#022a26" opacity="0.20"/><path d="M446 214 L461 179 L476 214 Z" fill="#45d9a5" opacity="0.36"/><path d="M695 214 L705 135 L715 214 Z" fill="#022a26" opacity="0.19"/><path d="M390 214 L399 171 L408 214 Z" fill="#45d9a5" opacity="0.25"/><path d="M522 214 L535.5 140 L549 214 Z" fill="#022a26" opacity="0.25"/><path d="M441 214 L457 159 L473 214 Z" fill="#45d9a5" opacity="0.19"/><path d="M410 214 L428.5 129 L447 214 Z" fill="#022a26" opacity="0.32"/><path d="M666 214 L675.5 152 L685 214 Z" fill="#45d9a5" opacity="0.33"/><path d="M63 214 L74.5 165 L86 214 Z" fill="#022a26" opacity="0.35"/><path d="M425 214 L439.5 183 L454 214 Z" fill="#45d9a5" opacity="0.29"/><path d="M597 214 L607.5 139 L618 214 Z" fill="#022a26" opacity="0.39"/><path d="M372 214 L386 170 L400 214 Z" fill="#45d9a5" opacity="0.29"/>
  <circle cx="94" cy="37" r="2.4" fill="#ffd64f" opacity="0.61"/><circle cx="517" cy="39" r="1.4" fill="#ffd64f" opacity="0.32"/><circle cx="264" cy="86" r="1.6" fill="#ffd64f" opacity="0.48"/><circle cx="207" cy="85" r="1.3" fill="#ffd64f" opacity="0.37"/><circle cx="63" cy="119" r="2.5" fill="#ffd64f" opacity="0.77"/><circle cx="470" cy="19" r="1.1" fill="#ffd64f" opacity="0.27"/><circle cx="180" cy="117" r="1.6" fill="#ffd64f" opacity="0.68"/><circle cx="624" cy="169" r="0.9" fill="#ffd64f" opacity="0.80"/><circle cx="341" cy="139" r="2.8" fill="#ffd64f" opacity="0.45"/><circle cx="33" cy="146" r="1.1" fill="#ffd64f" opacity="0.39"/><circle cx="401" cy="117" r="2.0" fill="#ffd64f" opacity="0.71"/><circle cx="244" cy="144" r="3.0" fill="#ffd64f" opacity="0.50"/><circle cx="466" cy="104" r="1.9" fill="#ffd64f" opacity="0.53"/><circle cx="27" cy="21" r="2.3" fill="#ffd64f" opacity="0.40"/><circle cx="33" cy="186" r="1.4" fill="#ffd64f" opacity="0.45"/><circle cx="312" cy="150" r="0.9" fill="#ffd64f" opacity="0.40"/><circle cx="230" cy="80" r="1.4" fill="#ffd64f" opacity="0.85"/><circle cx="682" cy="50" r="2.7" fill="#ffd64f" opacity="0.29"/><circle cx="326" cy="126" r="1.5" fill="#ffd64f" opacity="0.26"/><circle cx="313" cy="116" r="1.6" fill="#ffd64f" opacity="0.35"/><circle cx="55" cy="51" r="1.3" fill="#ffd64f" opacity="0.65"/><circle cx="665" cy="176" r="1.7" fill="#ffd64f" opacity="0.87"/>
  <g transform="translate(288 42)" filter="url(#shadow)">
    <path d="M21 17 H123 V53 C123 91 102 111 72 116 C42 111 21 91 21 53 Z" fill="url(#gold)" stroke="#fff1a0" stroke-width="3"/>
    <path d="M21 29 H4 V49 C4 76 21 88 43 88" fill="none" stroke="#ffd64f" stroke-width="12" stroke-linecap="round"/>
    <path d="M123 29 H140 V49 C140 76 123 88 101 88" fill="none" stroke="#ffd64f" stroke-width="12" stroke-linecap="round"/>
    <path d="M64 114 H80 V139 H111 V154 H33 V139 H64 Z" fill="url(#gold)"/>
    <path d="M72 43 L81 61 L101 64 L86 78 L90 98 L72 88 L54 98 L58 78 L43 64 L63 61 Z" fill="#08755c" stroke="#f4ffb0" stroke-width="2"/>
  </g>
  <g opacity=".76">
    <path d="M45 232 C94 182 139 182 191 229 C143 218 98 219 45 232 Z" fill="#45d9a5"/>
    <path d="M675 232 C626 182 581 182 529 229 C577 218 622 219 675 232 Z" fill="#45d9a5"/>
  </g>
  <rect x="20" y="18" width="680" height="224" rx="24" fill="none" stroke="#45d9a5" stroke-opacity=".35" stroke-width="2"/>
  <text x="676" y="224" text-anchor="end" fill="#fff" opacity=".45" font-family="Arial, sans-serif" font-size="18" font-weight="700">02</text>
</svg>