<svg xmlns="http://www.w3.org/2000/svg" width="720" height="260" viewBox="0 0 720 260" role="img" aria-label="Emerald River">
  <defs>
    <linearGradient id="bg" x1="0" y1="0" x2="1" y2="1">
      <stop offset="0" stop-color="#03251c"/>
      <stop offset="0.58" stop-color="#08745f"/>
      <stop offset="1" stop-color="#03251c"/>
    </linearGradient>
    <radialGradient id="halo">
      <stop offset="0" stop-color="#39d4b4" stop-opacity=".52"/>
      <stop offset="1" stop-color="#39d4b4" stop-opacity="0"/>
    </radialGradient>
    <linearGradient id="gold" x1="0" y1="0" x2="1" y2="1">
      <stop offset="0" stop-color="#fff39a"/>
      <stop offset=".38" stop-color="#ddff91"/>
      <stop offset="1" stop-color="#9c5c05"/>
    </linearGradient>
    <filter id="shadow" x="-50%" y="-50%" width="200%" height="200%">
      <feDropShadow dx="0" dy="8" stdDeviation="8" flood-color="#000" flood-opacity=".55"/>
    </filter>
  </defs>
  <rect width="720" height="260" rx="28" fill="url(#bg)"/>
  <ellipse cx="360" cy="112" rx="245" ry="130" fill="url(#halo)"/>
  <path d="M0 151 Q110 86 220 155 T445 142 T720 118 V260 H0 Z" fill="#03251c" opacity=".67"/>
  <path d="M0 202 Q120 154 240 205 T480 190 T720 195 V260 H0 Z" fill="#001b0d" opacity=".62"/>
  <path d="M394 214 L410 137 L426 214 Z" fill="#03251c" opacity="0.21"/><path d="M406 214 L420.5 116 L435 214 Z" fill="#39d4b4" opacity="0.39"/><path d="M213 214 L230 160 L247 214 Z" fill="#03251c" opacity="0.23"/><path d="M95 214 L105.5 161 L116 214 Z" fill="#39d4b4" opacity="0.33"/><path d="M319 214 L334.5 158 L350 214 Z" fill="#03251c" opacity="0.30"/><path d="M118 214 L128.5 160 L139 214 Z" fill="#39d4b4" opacity="0.34"/><path d="M569 214 L580 141 L591 214 Z" fill="#03251c" opacity="0.29"/><path d="M540 214 L557 145 L574 214 Z" fill="#39d4b4" opacity="0.38"/><path d="M231 214 L241.5 127 L252 214 Z" fill="#03251c" opacity="0.25"/><path d="M424 214 L433 160 L442 214 Z" fill="#39d4b4" opacity="0.34"/><path d="M85 214 L95 152 L105 214 Z" fill="#03251c" opacity="0.34"/><path d="M218 214 L231.5 180 L245 214 Z" fill="#39d4b4" opacity="0.29"/><path d="M429 214 L446.5 123 L464 214 Z" fill="#03251c" opacity="0.27"/><path d="M55 214 L72.5 157 L90 214 Z" fill="#39d4b4" opacity="0.40"/><path d="M29 214 L47 181 L65 214 Z" fill="#03251c" opacity="0.29"/><path d="M432 214 L442.5 148 L453 214 Z" fill="#39d4b4" opacity="0.22"/><path d="M330 214 L347.5 114 L365 214 Z" fill="#03251c" opacity="0.40"/><path d="M241 214 L258.5 142 L276 214 Z" fill="#39d4b4" opacity="0.33"/>
  <circle cx="528" cy="132" r="2.2" fill="#ddff91" opacity="0.71"/><circle cx="75" cy="53" r="1.5" fill="#ddff91" opacity="0.32"/><circle cx="139" cy="49" r="2.6" fill="#ddff91" opacity="0.83"/><circle cx="607" cy="162" r="2.2" fill="#ddff91" opacity="0.65"/><circle cx="135" cy="101" r="2.7" fill="#ddff91" opacity="0.70"/><circle cx="107" cy="57" r="1.4" fill="#ddff91" opacity="0.26"/><circle cx="303" cy="33" r="1.0" fill="#ddff91" opacity="0.71"/><circle cx="193" cy="116" r="1.6" fill="#ddff91" opacity="0.73"/><circle cx="214" cy="28" r="2.2" fill="#ddff91" opacity="0.29"/><circle cx="276" cy="104" r="2.3" fill="#ddff91" opacity="0.51"/><circle cx="396" cy="33" r="2.4" fill="#ddff91" opacity="0.79"/><circle cx="370" cy="75" r="2.0" fill="#ddff91" opacity="0.78"/><circle cx="321" cy="52" r="2.2" fill="#ddff91" opacity="0.41"/><circle cx="41" cy="149" r="1.1" fill="#ddff91" opacity="0.72"/><circle cx="687" cy="70" r="1.3" fill="#ddff91" opacity="0.42"/><circle cx="276" cy="107" r="1.0" fill="#ddff91" opacity="0.83"/><circle cx="470" cy="178" r="2.6" fill="#ddff91" opacity="0.86"/><circle cx="139" cy="137" r="2.5" fill="#ddff91" opacity="0.27"/><circle cx="310" cy="137" r="1.5" fill="#ddff91" opacity="0.32"/><circle cx="429" cy="82" r="0.9" fill="#ddff91" opacity="0.86"/><circle cx="670" cy="100" r="1.8" fill="#ddff91" opacity="0.77"/><circle cx="77" cy="202" r="1.5" fill="#ddff91" opacity="0.61"/>
  <g transform="translate(288 42)" filter="url(#shadow)">
    <path d="M21 17 H123 V53 C123 91 102 111 72 116 C42 111 21 91 21 53 Z" fill="url(#gold)" stroke="#fff1a0" stroke-width="3"/>
    <path d="M21 29 H4 V49 C4 76 21 88 43 88" fill="none" stroke="#ddff91" stroke-width="12" stroke-linecap="round"/>
    <path d="M123 29 H140 V49 C140 76 123 88 101 88" fill="none" stroke="#ddff91" stroke-width="12" stroke-linecap="round"/>
    <path d="M64 114 H80 V139 H111 V154 H33 V139 H64 Z" fill="url(#gold)"/>
    <path d="M72 43 L81 61 L101 64 L86 78 L90 98 L72 88 L54 98 L58 78 L43 64 L63 61 Z" fill="#08745f" stroke="#f4ffb0" stroke-width="2"/>
  </g>
  <g opacity=".76">
    <path d="M45 232 C94 182 139 182 191 229 C143 218 98 219 45 232 Z" fill="#39d4b4"/>
    <path d="M675 232 C626 182 581 182 529 229 C577 218 622 219 675 232 Z" fill="#39d4b4"/>
  </g>
  <rect x="20" y="18" width="680" height="224" rx="24" fill="none" stroke="#39d4b4" stroke-opacity=".35" stroke-width="2"/>
  <text x="676" y="224" text-anchor="end" fill="#fff" opacity=".45" font-family="Arial, sans-serif" font-size="18" font-weight="700">02</text>
</svg>