<svg xmlns="http://www.w3.org/2000/svg" width="720" height="260" viewBox="0 0 720 260" role="img" aria-label="Forest Crown">
  <defs>
    <linearGradient id="bg" x1="0" y1="0" x2="1" y2="1">
      <stop offset="0" stop-color="#031f10"/>
      <stop offset="0.58" stop-color="#08753a"/>
      <stop offset="1" stop-color="#031f10"/>
    </linearGradient>
    <radialGradient id="halo">
      <stop offset="0" stop-color="#59e77f" stop-opacity=".52"/>
      <stop offset="1" stop-color="#59e77f" stop-opacity="0"/>
    </radialGradient>
    <linearGradient id="gold" x1="0" y1="0" x2="1" y2="1">
      <stop offset="0" stop-color="#fff39a"/>
      <stop offset=".38" stop-color="#f5ce48"/>
      <stop offset="1" stop-color="#9c5c05"/>
    </linearGradient>
    <filter id="shadow" x="-50%" y="-50%" width="200%" height="200%">
      <feDropShadow dx="0" dy="8" stdDeviation="8" flood-color="#000" flood-opacity=".55"/>
    </filter>
  </defs>
  <rect width="720" height="260" rx="28" fill="url(#bg)"/>
  <ellipse cx="360" cy="112" rx="245" ry="130" fill="url(#halo)"/>
  <path d="M0 158 Q110 93 220 162 T445 149 T720 125 V260 H0 Z" fill="#031f10" opacity=".67"/>
  <path d="M0 202 Q120 154 240 205 T480 190 T720 195 V260 H0 Z" fill="#001b0d" opacity=".62"/>
  <path d="M373 214 L385.5 181 L398 214 Z" fill="#031f10" opacity="0.34"/><path d="M214 214 L222.5 130 L231 214 Z" fill="#59e77f" opacity="0.17"/><path d="M278 214 L293 138 L308 214 Z" fill="#031f10" opacity="0.22"/><path d="M109 214 L126.5 165 L144 214 Z" fill="#59e77f" opacity="0.22"/><path d="M54 214 L71.5 177 L89 214 Z" fill="#031f10" opacity="0.30"/><path d="M610 214 L623.5 161 L637 214 Z" fill="#59e77f" opacity="0.19"/><path d="M155 214 L167 173 L179 214 Z" fill="#031f10" opacity="0.22"/><path d="M24 214 L39 169 L54 214 Z" fill="#59e77f" opacity="0.32"/><path d="M171 214 L180.5 158 L190 214 Z" fill="#031f10" opacity="0.25"/><path d="M481 214 L498 168 L515 214 Z" fill="#59e77f" opacity="0.21"/><path d="M702 214 L715 181 L728 214 Z" fill="#031f10" opacity="0.26"/><path d="M24 214 L33 122 L42 214 Z" fill="#59e77f" opacity="0.40"/><path d="M420 214 L435.5 176 L451 214 Z" fill="#031f10" opacity="0.36"/><path d="M40 214 L49 116 L58 214 Z" fill="#59e77f" opacity="0.41"/><path d="M550 214 L558 179 L566 214 Z" fill="#031f10" opacity="0.38"/><path d="M678 214 L692.5 120 L707 214 Z" fill="#59e77f" opacity="0.37"/><path d="M221 214 L230 178 L239 214 Z" fill="#031f10" opacity="0.30"/><path d="M89 214 L107.5 179 L126 214 Z" fill="#59e77f" opacity="0.31"/>
  <circle cx="664" cy="207" r="0.9" fill="#f5ce48" opacity="0.61"/><circle cx="375" cy="38" r="2.7" fill="#f5ce48" opacity="0.66"/><circle cx="378" cy="127" r="1.2" fill="#f5ce48" opacity="0.88"/><circle cx="99" cy="92" r="1.6" fill="#f5ce48" opacity="0.85"/><circle cx="344" cy="145" r="2.4" fill="#f5ce48" opacity="0.73"/><circle cx="583" cy="119" r="0.9" fill="#f5ce48" opacity="0.76"/><circle cx="430" cy="114" r="2.4" fill="#f5ce48" opacity="0.52"/><circle cx="510" cy="198" r="2.0" fill="#f5ce48" opacity="0.46"/><circle cx="154" cy="31" r="2.8" fill="#f5ce48" opacity="0.66"/><circle cx="366" cy="110" r="2.1" fill="#f5ce48" opacity="0.51"/><circle cx="323" cy="104" r="2.9" fill="#f5ce48" opacity="0.29"/><circle cx="277" cy="38" r="0.9" fill="#f5ce48" opacity="0.32"/><circle cx="131" cy="92" r="1.9" fill="#f5ce48" opacity="0.88"/><circle cx="104" cy="138" r="2.4" fill="#f5ce48" opacity="0.82"/><circle cx="584" cy="158" r="1.1" fill="#f5ce48" opacity="0.46"/><circle cx="425" cy="128" r="2.8" fill="#f5ce48" opacity="0.33"/><circle cx="664" cy="36" r="1.4" fill="#f5ce48" opacity="0.56"/><circle cx="332" cy="23" r="2.3" fill="#f5ce48" opacity="0.53"/><circle cx="500" cy="106" r="1.8" fill="#f5ce48" opacity="0.53"/><circle cx="199" cy="121" r="1.5" fill="#f5ce48" opacity="0.47"/><circle cx="672" cy="201" r="2.9" fill="#f5ce48" opacity="0.63"/><circle cx="587" cy="58" r="1.2" fill="#f5ce48" opacity="0.67"/>
  <g transform="translate(288 42)" filter="url(#shadow)">
    <path d="M21 17 H123 V53 C123 91 102 111 72 116 C42 111 21 91 21 53 Z" fill="url(#gold)" stroke="#fff1a0" stroke-width="3"/>
    <path d="M21 29 H4 V49 C4 76 21 88 43 88" fill="none" stroke="#f5ce48" stroke-width="12" stroke-linecap="round"/>
    <path d="M123 29 H140 V49 C140 76 123 88 101 88" fill="none" stroke="#f5ce48" stroke-width="12" stroke-linecap="round"/>
    <path d="M64 114 H80 V139 H111 V154 H33 V139 H64 Z" fill="url(#gold)"/>
    <path d="M72 43 L81 61 L101 64 L86 78 L90 98 L72 88 L54 98 L58 78 L43 64 L63 61 Z" fill="#08753a" stroke="#f4ffb0" stroke-width="2"/>
  </g>
  <g opacity=".76">
    <path d="M45 232 C94 182 139 182 191 229 C143 218 98 219 45 232 Z" fill="#59e77f"/>
    <path d="M675 232 C626 182 581 182 529 229 C577 218 622 219 675 232 Z" fill="#59e77f"/>
  </g>
  <rect x="20" y="18" width="680" height="224" rx="24" fill="none" stroke="#59e77f" stroke-opacity=".35" stroke-width="2"/>
  <text x="676" y="224" text-anchor="end" fill="#fff" opacity=".45" font-family="Arial, sans-serif" font-size="18" font-weight="700">10</text>
</svg>