<svg xmlns="http://www.w3.org/2000/svg" width="720" height="260" viewBox="0 0 720 260" role="img" aria-label="Crystal League">
  <defs>
    <linearGradient id="bg" x1="0" y1="0" x2="1" y2="1">
      <stop offset="0" stop-color="#07152f"/>
      <stop offset="0.58" stop-color="#173c90"/>
      <stop offset="1" stop-color="#07152f"/>
    </linearGradient>
    <radialGradient id="halo">
      <stop offset="0" stop-color="#4ec9ff" stop-opacity=".52"/>
      <stop offset="1" stop-color="#4ec9ff" stop-opacity="0"/>
    </radialGradient>
    <linearGradient id="gold" x1="0" y1="0" x2="1" y2="1">
      <stop offset="0" stop-color="#fff39a"/>
      <stop offset=".38" stop-color="#bdf1ff"/>
      <stop offset="1" stop-color="#9c5c05"/>
    </linearGradient>
    <filter id="shadow" x="-50%" y="-50%" width="200%" height="200%">
      <feDropShadow dx="0" dy="8" stdDeviation="8" flood-color="#000" flood-opacity=".55"/>
    </filter>
  </defs>
  <rect width="720" height="260" rx="28" fill="url(#bg)"/>
  <ellipse cx="360" cy="112" rx="245" ry="130" fill="url(#halo)"/>
  <path d="M0 155 Q110 90 220 159 T445 146 T720 122 V260 H0 Z" fill="#07152f" opacity=".67"/>
  <path d="M0 202 Q120 154 240 205 T480 190 T720 195 V260 H0 Z" fill="#001b0d" opacity=".62"/>
  <path d="M621 214 L634 151 L647 214 Z" fill="#07152f" opacity="0.26"/><path d="M20 214 L27.5 158 L35 214 Z" fill="#4ec9ff" opacity="0.19"/><path d="M692 214 L710.5 162 L729 214 Z" fill="#07152f" opacity="0.26"/><path d="M699 214 L711.5 149 L724 214 Z" fill="#4ec9ff" opacity="0.23"/><path d="M155 214 L165.5 115 L176 214 Z" fill="#07152f" opacity="0.32"/><path d="M314 214 L325.5 146 L337 214 Z" fill="#4ec9ff" opacity="0.28"/><path d="M416 214 L432.5 137 L449 214 Z" fill="#07152f" opacity="0.30"/><path d="M118 214 L135.5 135 L153 214 Z" fill="#4ec9ff" opacity="0.34"/><path d="M426 214 L436 150 L446 214 Z" fill="#07152f" opacity="0.31"/><path d="M515 214 L532 157 L549 214 Z" fill="#4ec9ff" opacity="0.30"/><path d="M265 214 L275 121 L285 214 Z" fill="#07152f" opacity="0.34"/><path d="M520 214 L539 143 L558 214 Z" fill="#4ec9ff" opacity="0.24"/><path d="M439 214 L453.5 170 L468 214 Z" fill="#07152f" opacity="0.31"/><path d="M149 214 L165.5 121 L182 214 Z" fill="#4ec9ff" opacity="0.23"/><path d="M516 214 L530.5 123 L545 214 Z" fill="#07152f" opacity="0.31"/><path d="M685 214 L695.5 157 L706 214 Z" fill="#4ec9ff" opacity="0.30"/><path d="M673 214 L689.5 154 L706 214 Z" fill="#07152f" opacity="0.31"/><path d="M678 214 L687.5 152 L697 214 Z" fill="#4ec9ff" opacity="0.35"/>
  <circle cx="419" cy="112" r="2.9" fill="#bdf1ff" opacity="0.71"/><circle cx="613" cy="52" r="2.8" fill="#bdf1ff" opacity="0.66"/><circle cx="253" cy="91" r="2.2" fill="#bdf1ff" opacity="0.58"/><circle cx="499" cy="168" r="2.5" fill="#bdf1ff" opacity="0.47"/><circle cx="415" cy="127" r="2.6" fill="#bdf1ff" opacity="0.66"/><circle cx="220" cy="157" r="1.2" fill="#bdf1ff" opacity="0.75"/><circle cx="552" cy="30" r="1.8" fill="#bdf1ff" opacity="0.55"/><circle cx="79" cy="146" r="2.6" fill="#bdf1ff" opacity="0.39"/><circle cx="27" cy="110" r="2.3" fill="#bdf1ff" opacity="0.51"/><circle cx="608" cy="69" r="1.1" fill="#bdf1ff" opacity="0.62"/><circle cx="318" cy="20" r="1.2" fill="#bdf1ff" opacity="0.37"/><circle cx="403" cy="159" r="2.1" fill="#bdf1ff" opacity="0.60"/><circle cx="665" cy="39" r="2.2" fill="#bdf1ff" opacity="0.75"/><circle cx="118" cy="76" r="1.2" fill="#bdf1ff" opacity="0.48"/><circle cx="558" cy="42" r="1.0" fill="#bdf1ff" opacity="0.43"/><circle cx="389" cy="85" r="2.9" fill="#bdf1ff" opacity="0.76"/><circle cx="225" cy="134" r="2.6" fill="#bdf1ff" opacity="0.58"/><circle cx="468" cy="110" r="2.1" fill="#bdf1ff" opacity="0.50"/><circle cx="485" cy="117" r="1.9" fill="#bdf1ff" opacity="0.60"/><circle cx="316" cy="87" r="0.8" fill="#bdf1ff" opacity="0.32"/><circle cx="606" cy="61" r="1.2" fill="#bdf1ff" opacity="0.74"/><circle cx="679" cy="85" r="1.0" fill="#bdf1ff" opacity="0.40"/>
  <g transform="translate(288 42)" filter="url(#shadow)">
    <path d="M21 17 H123 V53 C123 91 102 111 72 116 C42 111 21 91 21 53 Z" fill="url(#gold)" stroke="#fff1a0" stroke-width="3"/>
    <path d="M21 29 H4 V49 C4 76 21 88 43 88" fill="none" stroke="#bdf1ff" stroke-width="12" stroke-linecap="round"/>
    <path d="M123 29 H140 V49 C140 76 123 88 101 88" fill="none" stroke="#bdf1ff" stroke-width="12" stroke-linecap="round"/>
    <path d="M64 114 H80 V139 H111 V154 H33 V139 H64 Z" fill="url(#gold)"/>
    <path d="M72 43 L81 61 L101 64 L86 78 L90 98 L72 88 L54 98 L58 78 L43 64 L63 61 Z" fill="#173c90" stroke="#f4ffb0" stroke-width="2"/>
  </g>
  <g opacity=".76">
    <path d="M45 232 C94 182 139 182 191 229 C143 218 98 219 45 232 Z" fill="#4ec9ff"/>
    <path d="M675 232 C626 182 581 182 529 229 C577 218 622 219 675 232 Z" fill="#4ec9ff"/>
  </g>
  <rect x="20" y="18" width="680" height="224" rx="24" fill="none" stroke="#4ec9ff" stroke-opacity=".35" stroke-width="2"/>
  <text x="676" y="224" text-anchor="end" fill="#fff" opacity=".45" font-family="Arial, sans-serif" font-size="18" font-weight="700">10</text>
</svg>