<svg xmlns="http://www.w3.org/2000/svg" width="720" height="260" viewBox="0 0 720 260" role="img" aria-label="Emerald River">
  <defs>
    <linearGradient id="bg" x1="0" y1="0" x2="1" y2="1">
      <stop offset="0" stop-color="#03251c"/>
      <stop offset="0.58" stop-color="#08745f"/>
      <stop offset="1" stop-color="#03251c"/>
    </linearGradient>
    <radialGradient id="halo">
      <stop offset="0" stop-color="#39d4b4" stop-opacity=".52"/>
      <stop offset="1" stop-color="#39d4b4" stop-opacity="0"/>
    </radialGradient>
    <linearGradient id="gold" x1="0" y1="0" x2="1" y2="1">
      <stop offset="0" stop-color="#fff39a"/>
      <stop offset=".38" stop-color="#ddff91"/>
      <stop offset="1" stop-color="#9c5c05"/>
    </linearGradient>
    <filter id="shadow" x="-50%" y="-50%" width="200%" height="200%">
      <feDropShadow dx="0" dy="8" stdDeviation="8" flood-color="#000" flood-opacity=".55"/>
    </filter>
  </defs>
  <rect width="720" height="260" rx="28" fill="url(#bg)"/>
  <ellipse cx="360" cy="112" rx="245" ry="130" fill="url(#halo)"/>
  <path d="M0 172 Q110 107 220 176 T445 163 T720 139 V260 H0 Z" fill="#03251c" opacity=".67"/>
  <path d="M0 202 Q120 154 240 205 T480 190 T720 195 V260 H0 Z" fill="#001b0d" opacity=".62"/>
  <path d="M171 214 L187.5 149 L204 214 Z" fill="#03251c" opacity="0.29"/><path d="M19 214 L31.5 172 L44 214 Z" fill="#39d4b4" opacity="0.18"/><path d="M322 214 L333.5 135 L345 214 Z" fill="#03251c" opacity="0.29"/><path d="M557 214 L569.5 130 L582 214 Z" fill="#39d4b4" opacity="0.35"/><path d="M523 214 L537 178 L551 214 Z" fill="#03251c" opacity="0.34"/><path d="M246 214 L253 130 L260 214 Z" fill="#39d4b4" opacity="0.26"/><path d="M372 214 L379.5 139 L387 214 Z" fill="#03251c" opacity="0.21"/><path d="M8 214 L16.5 148 L25 214 Z" fill="#39d4b4" opacity="0.16"/><path d="M23 214 L34 183 L45 214 Z" fill="#03251c" opacity="0.38"/><path d="M492 214 L501.5 139 L511 214 Z" fill="#39d4b4" opacity="0.26"/><path d="M651 214 L667.5 176 L684 214 Z" fill="#03251c" opacity="0.26"/><path d="M491 214 L499.5 150 L508 214 Z" fill="#39d4b4" opacity="0.23"/><path d="M468 214 L483.5 182 L499 214 Z" fill="#03251c" opacity="0.18"/><path d="M273 214 L281.5 167 L290 214 Z" fill="#39d4b4" opacity="0.31"/><path d="M681 214 L700 141 L719 214 Z" fill="#03251c" opacity="0.16"/><path d="M446 214 L460.5 150 L475 214 Z" fill="#39d4b4" opacity="0.34"/><path d="M514 214 L533 137 L552 214 Z" fill="#03251c" opacity="0.17"/><path d="M700 214 L712 159 L724 214 Z" fill="#39d4b4" opacity="0.16"/>
  <circle cx="37" cy="132" r="2.0" fill="#ddff91" opacity="0.27"/><circle cx="551" cy="83" r="1.8" fill="#ddff91" opacity="0.31"/><circle cx="569" cy="165" r="2.2" fill="#ddff91" opacity="0.89"/><circle cx="45" cy="126" r="2.0" fill="#ddff91" opacity="0.55"/><circle cx="277" cy="65" r="0.9" fill="#ddff91" opacity="0.56"/><circle cx="59" cy="135" r="1.9" fill="#ddff91" opacity="0.89"/><circle cx="547" cy="55" r="1.9" fill="#ddff91" opacity="0.78"/><circle cx="690" cy="202" r="2.9" fill="#ddff91" opacity="0.60"/><circle cx="640" cy="187" r="1.1" fill="#ddff91" opacity="0.63"/><circle cx="80" cy="21" r="2.6" fill="#ddff91" opacity="0.74"/><circle cx="385" cy="53" r="1.2" fill="#ddff91" opacity="0.31"/><circle cx="622" cy="128" r="2.2" fill="#ddff91" opacity="0.70"/><circle cx="30" cy="137" r="2.7" fill="#ddff91" opacity="0.80"/><circle cx="68" cy="26" r="3.0" fill="#ddff91" opacity="0.69"/><circle cx="635" cy="30" r="1.1" fill="#ddff91" opacity="0.37"/><circle cx="202" cy="20" r="1.3" fill="#ddff91" opacity="0.40"/><circle cx="270" cy="184" r="2.8" fill="#ddff91" opacity="0.89"/><circle cx="411" cy="121" r="2.0" fill="#ddff91" opacity="0.86"/><circle cx="280" cy="159" r="1.6" fill="#ddff91" opacity="0.44"/><circle cx="662" cy="203" r="1.6" fill="#ddff91" opacity="0.57"/><circle cx="538" cy="199" r="2.9" fill="#ddff91" opacity="0.35"/><circle cx="262" cy="66" r="1.1" fill="#ddff91" opacity="0.72"/>
  <g transform="translate(288 42)" filter="url(#shadow)">
    <path d="M21 17 H123 V53 C123 91 102 111 72 116 C42 111 21 91 21 53 Z" fill="url(#gold)" stroke="#fff1a0" stroke-width="3"/>
    <path d="M21 29 H4 V49 C4 76 21 88 43 88" fill="none" stroke="#ddff91" stroke-width="12" stroke-linecap="round"/>
    <path d="M123 29 H140 V49 C140 76 123 88 101 88" fill="none" stroke="#ddff91" stroke-width="12" stroke-linecap="round"/>
    <path d="M64 114 H80 V139 H111 V154 H33 V139 H64 Z" fill="url(#gold)"/>
    <path d="M72 43 L81 61 L101 64 L86 78 L90 98 L72 88 L54 98 L58 78 L43 64 L63 61 Z" fill="#08745f" stroke="#f4ffb0" stroke-width="2"/>
  </g>
  <g opacity=".76">
    <path d="M45 232 C94 182 139 182 191 229 C143 218 98 219 45 232 Z" fill="#39d4b4"/>
    <path d="M675 232 C626 182 581 182 529 229 C577 218 622 219 675 232 Z" fill="#39d4b4"/>
  </g>
  <rect x="20" y="18" width="680" height="224" rx="24" fill="none" stroke="#39d4b4" stroke-opacity=".35" stroke-width="2"/>
  <text x="676" y="224" text-anchor="end" fill="#fff" opacity=".45" font-family="Arial, sans-serif" font-size="18" font-weight="700">03</text>
</svg>