<svg xmlns="http://www.w3.org/2000/svg" width="720" height="260" viewBox="0 0 720 260" role="img" aria-label="Emerald River">
  <defs>
    <linearGradient id="bg" x1="0" y1="0" x2="1" y2="1">
      <stop offset="0" stop-color="#03251c"/>
      <stop offset="0.58" stop-color="#08745f"/>
      <stop offset="1" stop-color="#03251c"/>
    </linearGradient>
    <radialGradient id="halo">
      <stop offset="0" stop-color="#39d4b4" stop-opacity=".52"/>
      <stop offset="1" stop-color="#39d4b4" stop-opacity="0"/>
    </radialGradient>
    <linearGradient id="gold" x1="0" y1="0" x2="1" y2="1">
      <stop offset="0" stop-color="#fff39a"/>
      <stop offset=".38" stop-color="#ddff91"/>
      <stop offset="1" stop-color="#9c5c05"/>
    </linearGradient>
    <filter id="shadow" x="-50%" y="-50%" width="200%" height="200%">
      <feDropShadow dx="0" dy="8" stdDeviation="8" flood-color="#000" flood-opacity=".55"/>
    </filter>
  </defs>
  <rect width="720" height="260" rx="28" fill="url(#bg)"/>
  <ellipse cx="360" cy="112" rx="245" ry="130" fill="url(#halo)"/>
  <path d="M0 149 Q110 84 220 153 T445 140 T720 116 V260 H0 Z" fill="#03251c" opacity=".67"/>
  <path d="M0 202 Q120 154 240 205 T480 190 T720 195 V260 H0 Z" fill="#001b0d" opacity=".62"/>
  <path d="M222 214 L240.5 113 L259 214 Z" fill="#03251c" opacity="0.28"/><path d="M299 214 L317 123 L335 214 Z" fill="#39d4b4" opacity="0.30"/><path d="M649 214 L668 132 L687 214 Z" fill="#03251c" opacity="0.25"/><path d="M503 214 L510.5 179 L518 214 Z" fill="#39d4b4" opacity="0.41"/><path d="M412 214 L421.5 168 L431 214 Z" fill="#03251c" opacity="0.22"/><path d="M631 214 L640.5 112 L650 214 Z" fill="#39d4b4" opacity="0.26"/><path d="M499 214 L508 135 L517 214 Z" fill="#03251c" opacity="0.22"/><path d="M573 214 L582 158 L591 214 Z" fill="#39d4b4" opacity="0.27"/><path d="M117 214 L129.5 136 L142 214 Z" fill="#03251c" opacity="0.25"/><path d="M696 214 L705.5 148 L715 214 Z" fill="#39d4b4" opacity="0.29"/><path d="M188 214 L198.5 176 L209 214 Z" fill="#03251c" opacity="0.27"/><path d="M590 214 L608 132 L626 214 Z" fill="#39d4b4" opacity="0.32"/><path d="M584 214 L593.5 145 L603 214 Z" fill="#03251c" opacity="0.40"/><path d="M206 214 L224 126 L242 214 Z" fill="#39d4b4" opacity="0.27"/><path d="M478 214 L487.5 164 L497 214 Z" fill="#03251c" opacity="0.28"/><path d="M488 214 L502 157 L516 214 Z" fill="#39d4b4" opacity="0.19"/><path d="M349 214 L360.5 134 L372 214 Z" fill="#03251c" opacity="0.23"/><path d="M637 214 L645.5 139 L654 214 Z" fill="#39d4b4" opacity="0.40"/>
  <circle cx="604" cy="132" r="1.2" fill="#ddff91" opacity="0.87"/><circle cx="620" cy="171" r="2.6" fill="#ddff91" opacity="0.29"/><circle cx="499" cy="135" r="1.1" fill="#ddff91" opacity="0.42"/><circle cx="400" cy="207" r="1.1" fill="#ddff91" opacity="0.25"/><circle cx="24" cy="146" r="2.1" fill="#ddff91" opacity="0.79"/><circle cx="598" cy="176" r="1.4" fill="#ddff91" opacity="0.82"/><circle cx="600" cy="121" r="2.5" fill="#ddff91" opacity="0.32"/><circle cx="143" cy="77" r="2.5" fill="#ddff91" opacity="0.87"/><circle cx="558" cy="93" r="2.3" fill="#ddff91" opacity="0.35"/><circle cx="175" cy="150" r="1.2" fill="#ddff91" opacity="0.80"/><circle cx="355" cy="115" r="1.7" fill="#ddff91" opacity="0.80"/><circle cx="696" cy="97" r="2.9" fill="#ddff91" opacity="0.45"/><circle cx="517" cy="201" r="2.2" fill="#ddff91" opacity="0.67"/><circle cx="152" cy="37" r="2.1" fill="#ddff91" opacity="0.63"/><circle cx="478" cy="98" r="2.7" fill="#ddff91" opacity="0.87"/><circle cx="661" cy="140" r="2.0" fill="#ddff91" opacity="0.41"/><circle cx="351" cy="204" r="1.2" fill="#ddff91" opacity="0.33"/><circle cx="548" cy="74" r="2.6" fill="#ddff91" opacity="0.70"/><circle cx="189" cy="35" r="1.7" fill="#ddff91" opacity="0.80"/><circle cx="679" cy="188" r="1.7" fill="#ddff91" opacity="0.35"/><circle cx="142" cy="114" r="1.7" fill="#ddff91" opacity="0.40"/><circle cx="134" cy="38" r="2.1" fill="#ddff91" opacity="0.43"/>
  <g transform="translate(288 42)" filter="url(#shadow)">
    <path d="M21 17 H123 V53 C123 91 102 111 72 116 C42 111 21 91 21 53 Z" fill="url(#gold)" stroke="#fff1a0" stroke-width="3"/>
    <path d="M21 29 H4 V49 C4 76 21 88 43 88" fill="none" stroke="#ddff91" stroke-width="12" stroke-linecap="round"/>
    <path d="M123 29 H140 V49 C140 76 123 88 101 88" fill="none" stroke="#ddff91" stroke-width="12" stroke-linecap="round"/>
    <path d="M64 114 H80 V139 H111 V154 H33 V139 H64 Z" fill="url(#gold)"/>
    <path d="M72 43 L81 61 L101 64 L86 78 L90 98 L72 88 L54 98 L58 78 L43 64 L63 61 Z" fill="#08745f" stroke="#f4ffb0" stroke-width="2"/>
  </g>
  <g opacity=".76">
    <path d="M45 232 C94 182 139 182 191 229 C143 218 98 219 45 232 Z" fill="#39d4b4"/>
    <path d="M675 232 C626 182 581 182 529 229 C577 218 622 219 675 232 Z" fill="#39d4b4"/>
  </g>
  <rect x="20" y="18" width="680" height="224" rx="24" fill="none" stroke="#39d4b4" stroke-opacity=".35" stroke-width="2"/>
  <text x="676" y="224" text-anchor="end" fill="#fff" opacity=".45" font-family="Arial, sans-serif" font-size="18" font-weight="700">06</text>
</svg>