<svg xmlns="http://www.w3.org/2000/svg" width="720" height="260" viewBox="0 0 720 260" role="img" aria-label="Waterfall Cup">
  <defs>
    <linearGradient id="bg" x1="0" y1="0" x2="1" y2="1">
      <stop offset="0" stop-color="#052e35"/>
      <stop offset="0.58" stop-color="#087f8f"/>
      <stop offset="1" stop-color="#052e35"/>
    </linearGradient>
    <radialGradient id="halo">
      <stop offset="0" stop-color="#52e8df" stop-opacity=".52"/>
      <stop offset="1" stop-color="#52e8df" stop-opacity="0"/>
    </radialGradient>
    <linearGradient id="gold" x1="0" y1="0" x2="1" y2="1">
      <stop offset="0" stop-color="#fff39a"/>
      <stop offset=".38" stop-color="#e8fff8"/>
      <stop offset="1" stop-color="#9c5c05"/>
    </linearGradient>
    <filter id="shadow" x="-50%" y="-50%" width="200%" height="200%">
      <feDropShadow dx="0" dy="8" stdDeviation="8" flood-color="#000" flood-opacity=".55"/>
    </filter>
  </defs>
  <rect width="720" height="260" rx="28" fill="url(#bg)"/>
  <ellipse cx="360" cy="112" rx="245" ry="130" fill="url(#halo)"/>
  <path d="M0 147 Q110 82 220 151 T445 138 T720 114 V260 H0 Z" fill="#052e35" opacity=".67"/>
  <path d="M0 202 Q120 154 240 205 T480 190 T720 195 V260 H0 Z" fill="#001b0d" opacity=".62"/>
  <path d="M422 214 L437.5 161 L453 214 Z" fill="#052e35" opacity="0.38"/><path d="M31 214 L44.5 121 L58 214 Z" fill="#52e8df" opacity="0.17"/><path d="M649 214 L665 143 L681 214 Z" fill="#052e35" opacity="0.23"/><path d="M659 214 L678 133 L697 214 Z" fill="#52e8df" opacity="0.22"/><path d="M650 214 L661 150 L672 214 Z" fill="#052e35" opacity="0.40"/><path d="M407 214 L415 158 L423 214 Z" fill="#52e8df" opacity="0.41"/><path d="M639 214 L652 123 L665 214 Z" fill="#052e35" opacity="0.33"/><path d="M187 214 L205 134 L223 214 Z" fill="#52e8df" opacity="0.18"/><path d="M510 214 L517 156 L524 214 Z" fill="#052e35" opacity="0.31"/><path d="M632 214 L646.5 137 L661 214 Z" fill="#52e8df" opacity="0.28"/><path d="M471 214 L488.5 183 L506 214 Z" fill="#052e35" opacity="0.38"/><path d="M411 214 L429.5 126 L448 214 Z" fill="#52e8df" opacity="0.27"/><path d="M280 214 L295.5 175 L311 214 Z" fill="#052e35" opacity="0.35"/><path d="M350 214 L368 132 L386 214 Z" fill="#52e8df" opacity="0.37"/><path d="M687 214 L699 139 L711 214 Z" fill="#052e35" opacity="0.36"/><path d="M391 214 L399.5 170 L408 214 Z" fill="#52e8df" opacity="0.41"/><path d="M599 214 L617 130 L635 214 Z" fill="#052e35" opacity="0.30"/><path d="M207 214 L226 174 L245 214 Z" fill="#52e8df" opacity="0.27"/>
  <circle cx="71" cy="150" r="2.1" fill="#e8fff8" opacity="0.50"/><circle cx="559" cy="117" r="2.2" fill="#e8fff8" opacity="0.53"/><circle cx="353" cy="44" r="1.9" fill="#e8fff8" opacity="0.69"/><circle cx="451" cy="183" r="2.2" fill="#e8fff8" opacity="0.64"/><circle cx="630" cy="103" r="2.0" fill="#e8fff8" opacity="0.58"/><circle cx="647" cy="164" r="1.0" fill="#e8fff8" opacity="0.75"/><circle cx="319" cy="174" r="0.9" fill="#e8fff8" opacity="0.53"/><circle cx="288" cy="36" r="3.0" fill="#e8fff8" opacity="0.45"/><circle cx="673" cy="47" r="1.4" fill="#e8fff8" opacity="0.63"/><circle cx="414" cy="26" r="1.0" fill="#e8fff8" opacity="0.66"/><circle cx="322" cy="163" r="2.1" fill="#e8fff8" opacity="0.44"/><circle cx="30" cy="24" r="2.9" fill="#e8fff8" opacity="0.37"/><circle cx="373" cy="196" r="1.9" fill="#e8fff8" opacity="0.72"/><circle cx="379" cy="87" r="0.9" fill="#e8fff8" opacity="0.62"/><circle cx="35" cy="59" r="2.9" fill="#e8fff8" opacity="0.32"/><circle cx="418" cy="157" r="2.8" fill="#e8fff8" opacity="0.28"/><circle cx="440" cy="131" r="1.2" fill="#e8fff8" opacity="0.31"/><circle cx="495" cy="116" r="1.8" fill="#e8fff8" opacity="0.52"/><circle cx="361" cy="108" r="1.8" fill="#e8fff8" opacity="0.55"/><circle cx="631" cy="191" r="1.4" fill="#e8fff8" opacity="0.31"/><circle cx="115" cy="97" r="3.0" fill="#e8fff8" opacity="0.39"/><circle cx="198" cy="177" r="2.4" fill="#e8fff8" opacity="0.62"/>
  <g transform="translate(288 42)" filter="url(#shadow)">
    <path d="M21 17 H123 V53 C123 91 102 111 72 116 C42 111 21 91 21 53 Z" fill="url(#gold)" stroke="#fff1a0" stroke-width="3"/>
    <path d="M21 29 H4 V49 C4 76 21 88 43 88" fill="none" stroke="#e8fff8" stroke-width="12" stroke-linecap="round"/>
    <path d="M123 29 H140 V49 C140 76 123 88 101 88" fill="none" stroke="#e8fff8" stroke-width="12" stroke-linecap="round"/>
    <path d="M64 114 H80 V139 H111 V154 H33 V139 H64 Z" fill="url(#gold)"/>
    <path d="M72 43 L81 61 L101 64 L86 78 L90 98 L72 88 L54 98 L58 78 L43 64 L63 61 Z" fill="#087f8f" stroke="#f4ffb0" stroke-width="2"/>
  </g>
  <g opacity=".76">
    <path d="M45 232 C94 182 139 182 191 229 C143 218 98 219 45 232 Z" fill="#52e8df"/>
    <path d="M675 232 C626 182 581 182 529 229 C577 218 622 219 675 232 Z" fill="#52e8df"/>
  </g>
  <rect x="20" y="18" width="680" height="224" rx="24" fill="none" stroke="#52e8df" stroke-opacity=".35" stroke-width="2"/>
  <text x="676" y="224" text-anchor="end" fill="#fff" opacity=".45" font-family="Arial, sans-serif" font-size="18" font-weight="700">10</text>
</svg>