<svg xmlns="http://www.w3.org/2000/svg" width="720" height="260" viewBox="0 0 720 260" role="img" aria-label="Desert Arena">
  <defs>
    <linearGradient id="bg" x1="0" y1="0" x2="1" y2="1">
      <stop offset="0" stop-color="#381508"/>
      <stop offset="0.58" stop-color="#a44214"/>
      <stop offset="1" stop-color="#381508"/>
    </linearGradient>
    <radialGradient id="halo">
      <stop offset="0" stop-color="#ffad35" stop-opacity=".52"/>
      <stop offset="1" stop-color="#ffad35" stop-opacity="0"/>
    </radialGradient>
    <linearGradient id="gold" x1="0" y1="0" x2="1" y2="1">
      <stop offset="0" stop-color="#fff39a"/>
      <stop offset=".38" stop-color="#ffd35a"/>
      <stop offset="1" stop-color="#9c5c05"/>
    </linearGradient>
    <filter id="shadow" x="-50%" y="-50%" width="200%" height="200%">
      <feDropShadow dx="0" dy="8" stdDeviation="8" flood-color="#000" flood-opacity=".55"/>
    </filter>
  </defs>
  <rect width="720" height="260" rx="28" fill="url(#bg)"/>
  <ellipse cx="360" cy="112" rx="245" ry="130" fill="url(#halo)"/>
  <path d="M0 152 Q110 87 220 156 T445 143 T720 119 V260 H0 Z" fill="#381508" opacity=".67"/>
  <path d="M0 202 Q120 154 240 205 T480 190 T720 195 V260 H0 Z" fill="#001b0d" opacity=".62"/>
  <path d="M370 214 L384 139 L398 214 Z" fill="#381508" opacity="0.17"/><path d="M9 214 L28 137 L47 214 Z" fill="#ffad35" opacity="0.20"/><path d="M365 214 L379 153 L393 214 Z" fill="#381508" opacity="0.32"/><path d="M598 214 L616.5 146 L635 214 Z" fill="#ffad35" opacity="0.36"/><path d="M28 214 L41.5 143 L55 214 Z" fill="#381508" opacity="0.26"/><path d="M154 214 L164.5 118 L175 214 Z" fill="#ffad35" opacity="0.37"/><path d="M149 214 L160 153 L171 214 Z" fill="#381508" opacity="0.18"/><path d="M660 214 L668 150 L676 214 Z" fill="#ffad35" opacity="0.33"/><path d="M659 214 L673 177 L687 214 Z" fill="#381508" opacity="0.38"/><path d="M375 214 L387 160 L399 214 Z" fill="#ffad35" opacity="0.28"/><path d="M445 214 L454 113 L463 214 Z" fill="#381508" opacity="0.22"/><path d="M600 214 L608.5 167 L617 214 Z" fill="#ffad35" opacity="0.21"/><path d="M628 214 L642.5 177 L657 214 Z" fill="#381508" opacity="0.39"/><path d="M72 214 L79 157 L86 214 Z" fill="#ffad35" opacity="0.17"/><path d="M510 214 L519.5 124 L529 214 Z" fill="#381508" opacity="0.36"/><path d="M20 214 L36 137 L52 214 Z" fill="#ffad35" opacity="0.24"/><path d="M588 214 L605 161 L622 214 Z" fill="#381508" opacity="0.18"/><path d="M452 214 L467 137 L482 214 Z" fill="#ffad35" opacity="0.24"/>
  <circle cx="385" cy="94" r="2.8" fill="#ffd35a" opacity="0.48"/><circle cx="606" cy="19" r="2.4" fill="#ffd35a" opacity="0.44"/><circle cx="469" cy="22" r="2.5" fill="#ffd35a" opacity="0.79"/><circle cx="92" cy="112" r="2.3" fill="#ffd35a" opacity="0.38"/><circle cx="62" cy="88" r="1.5" fill="#ffd35a" opacity="0.63"/><circle cx="313" cy="127" r="2.2" fill="#ffd35a" opacity="0.88"/><circle cx="101" cy="102" r="2.7" fill="#ffd35a" opacity="0.80"/><circle cx="481" cy="122" r="2.6" fill="#ffd35a" opacity="0.55"/><circle cx="674" cy="60" r="2.0" fill="#ffd35a" opacity="0.51"/><circle cx="274" cy="63" r="2.7" fill="#ffd35a" opacity="0.71"/><circle cx="381" cy="99" r="2.4" fill="#ffd35a" opacity="0.89"/><circle cx="314" cy="73" r="1.4" fill="#ffd35a" opacity="0.28"/><circle cx="321" cy="170" r="3.0" fill="#ffd35a" opacity="0.82"/><circle cx="487" cy="205" r="1.1" fill="#ffd35a" opacity="0.56"/><circle cx="478" cy="203" r="1.5" fill="#ffd35a" opacity="0.48"/><circle cx="172" cy="137" r="1.4" fill="#ffd35a" opacity="0.88"/><circle cx="54" cy="187" r="2.0" fill="#ffd35a" opacity="0.51"/><circle cx="384" cy="115" r="2.2" fill="#ffd35a" opacity="0.84"/><circle cx="404" cy="168" r="1.6" fill="#ffd35a" opacity="0.49"/><circle cx="347" cy="100" r="1.1" fill="#ffd35a" opacity="0.58"/><circle cx="349" cy="162" r="1.1" fill="#ffd35a" opacity="0.71"/><circle cx="63" cy="164" r="1.8" fill="#ffd35a" opacity="0.51"/>
  <g transform="translate(288 42)" filter="url(#shadow)">
    <path d="M21 17 H123 V53 C123 91 102 111 72 116 C42 111 21 91 21 53 Z" fill="url(#gold)" stroke="#fff1a0" stroke-width="3"/>
    <path d="M21 29 H4 V49 C4 76 21 88 43 88" fill="none" stroke="#ffd35a" stroke-width="12" stroke-linecap="round"/>
    <path d="M123 29 H140 V49 C140 76 123 88 101 88" fill="none" stroke="#ffd35a" stroke-width="12" stroke-linecap="round"/>
    <path d="M64 114 H80 V139 H111 V154 H33 V139 H64 Z" fill="url(#gold)"/>
    <path d="M72 43 L81 61 L101 64 L86 78 L90 98 L72 88 L54 98 L58 78 L43 64 L63 61 Z" fill="#a44214" stroke="#f4ffb0" stroke-width="2"/>
  </g>
  <g opacity=".76">
    <path d="M45 232 C94 182 139 182 191 229 C143 218 98 219 45 232 Z" fill="#ffad35"/>
    <path d="M675 232 C626 182 581 182 529 229 C577 218 622 219 675 232 Z" fill="#ffad35"/>
  </g>
  <rect x="20" y="18" width="680" height="224" rx="24" fill="none" stroke="#ffad35" stroke-opacity=".35" stroke-width="2"/>
  <text x="676" y="224" text-anchor="end" fill="#fff" opacity=".45" font-family="Arial, sans-serif" font-size="18" font-weight="700">04</text>
</svg>