<svg xmlns="http://www.w3.org/2000/svg" width="720" height="260" viewBox="0 0 720 260" role="img" aria-label="Moonlight Royale">
  <defs>
    <linearGradient id="bg" x1="0" y1="0" x2="1" y2="1">
      <stop offset="0" stop-color="#0c1230"/>
      <stop offset="0.58" stop-color="#303477"/>
      <stop offset="1" stop-color="#0c1230"/>
    </linearGradient>
    <radialGradient id="halo">
      <stop offset="0" stop-color="#9c7cff" stop-opacity=".52"/>
      <stop offset="1" stop-color="#9c7cff" stop-opacity="0"/>
    </radialGradient>
    <linearGradient id="gold" x1="0" y1="0" x2="1" y2="1">
      <stop offset="0" stop-color="#fff39a"/>
      <stop offset=".38" stop-color="#f1e7ff"/>
      <stop offset="1" stop-color="#9c5c05"/>
    </linearGradient>
    <filter id="shadow" x="-50%" y="-50%" width="200%" height="200%">
      <feDropShadow dx="0" dy="8" stdDeviation="8" flood-color="#000" flood-opacity=".55"/>
    </filter>
  </defs>
  <rect width="720" height="260" rx="28" fill="url(#bg)"/>
  <ellipse cx="360" cy="112" rx="245" ry="130" fill="url(#halo)"/>
  <path d="M0 148 Q110 83 220 152 T445 139 T720 115 V260 H0 Z" fill="#0c1230" opacity=".67"/>
  <path d="M0 202 Q120 154 240 205 T480 190 T720 195 V260 H0 Z" fill="#001b0d" opacity=".62"/>
  <path d="M619 214 L633.5 181 L648 214 Z" fill="#0c1230" opacity="0.34"/><path d="M535 214 L553 164 L571 214 Z" fill="#9c7cff" opacity="0.22"/><path d="M60 214 L77.5 177 L95 214 Z" fill="#0c1230" opacity="0.36"/><path d="M469 214 L482.5 130 L496 214 Z" fill="#9c7cff" opacity="0.37"/><path d="M129 214 L148 154 L167 214 Z" fill="#0c1230" opacity="0.28"/><path d="M578 214 L587 175 L596 214 Z" fill="#9c7cff" opacity="0.21"/><path d="M410 214 L425.5 116 L441 214 Z" fill="#0c1230" opacity="0.26"/><path d="M34 214 L44 115 L54 214 Z" fill="#9c7cff" opacity="0.34"/><path d="M195 214 L209 169 L223 214 Z" fill="#0c1230" opacity="0.19"/><path d="M409 214 L421 149 L433 214 Z" fill="#9c7cff" opacity="0.37"/><path d="M8 214 L26.5 125 L45 214 Z" fill="#0c1230" opacity="0.31"/><path d="M377 214 L395.5 116 L414 214 Z" fill="#9c7cff" opacity="0.31"/><path d="M647 214 L660.5 171 L674 214 Z" fill="#0c1230" opacity="0.35"/><path d="M181 214 L196 162 L211 214 Z" fill="#9c7cff" opacity="0.25"/><path d="M476 214 L492.5 140 L509 214 Z" fill="#0c1230" opacity="0.30"/><path d="M27 214 L39 174 L51 214 Z" fill="#9c7cff" opacity="0.17"/><path d="M321 214 L333 136 L345 214 Z" fill="#0c1230" opacity="0.19"/><path d="M321 214 L339.5 182 L358 214 Z" fill="#9c7cff" opacity="0.28"/>
  <circle cx="139" cy="189" r="2.6" fill="#f1e7ff" opacity="0.58"/><circle cx="164" cy="33" r="2.5" fill="#f1e7ff" opacity="0.43"/><circle cx="344" cy="175" r="1.2" fill="#f1e7ff" opacity="0.49"/><circle cx="492" cy="189" r="1.1" fill="#f1e7ff" opacity="0.66"/><circle cx="133" cy="70" r="1.7" fill="#f1e7ff" opacity="0.56"/><circle cx="629" cy="166" r="2.4" fill="#f1e7ff" opacity="0.87"/><circle cx="223" cy="208" r="2.1" fill="#f1e7ff" opacity="0.83"/><circle cx="50" cy="69" r="1.0" fill="#f1e7ff" opacity="0.49"/><circle cx="547" cy="140" r="1.5" fill="#f1e7ff" opacity="0.35"/><circle cx="517" cy="21" r="1.7" fill="#f1e7ff" opacity="0.82"/><circle cx="376" cy="205" r="2.9" fill="#f1e7ff" opacity="0.33"/><circle cx="440" cy="195" r="2.6" fill="#f1e7ff" opacity="0.56"/><circle cx="176" cy="118" r="1.1" fill="#f1e7ff" opacity="0.69"/><circle cx="501" cy="144" r="2.0" fill="#f1e7ff" opacity="0.87"/><circle cx="452" cy="88" r="1.4" fill="#f1e7ff" opacity="0.46"/><circle cx="136" cy="94" r="1.5" fill="#f1e7ff" opacity="0.66"/><circle cx="295" cy="95" r="1.0" fill="#f1e7ff" opacity="0.53"/><circle cx="520" cy="202" r="1.9" fill="#f1e7ff" opacity="0.81"/><circle cx="389" cy="179" r="1.6" fill="#f1e7ff" opacity="0.55"/><circle cx="463" cy="66" r="2.5" fill="#f1e7ff" opacity="0.44"/><circle cx="283" cy="21" r="1.6" fill="#f1e7ff" opacity="0.82"/><circle cx="155" cy="191" r="1.6" fill="#f1e7ff" opacity="0.89"/>
  <g transform="translate(288 42)" filter="url(#shadow)">
    <path d="M21 17 H123 V53 C123 91 102 111 72 116 C42 111 21 91 21 53 Z" fill="url(#gold)" stroke="#fff1a0" stroke-width="3"/>
    <path d="M21 29 H4 V49 C4 76 21 88 43 88" fill="none" stroke="#f1e7ff" stroke-width="12" stroke-linecap="round"/>
    <path d="M123 29 H140 V49 C140 76 123 88 101 88" fill="none" stroke="#f1e7ff" stroke-width="12" stroke-linecap="round"/>
    <path d="M64 114 H80 V139 H111 V154 H33 V139 H64 Z" fill="url(#gold)"/>
    <path d="M72 43 L81 61 L101 64 L86 78 L90 98 L72 88 L54 98 L58 78 L43 64 L63 61 Z" fill="#303477" stroke="#f4ffb0" stroke-width="2"/>
  </g>
  <g opacity=".76">
    <path d="M45 232 C94 182 139 182 191 229 C143 218 98 219 45 232 Z" fill="#9c7cff"/>
    <path d="M675 232 C626 182 581 182 529 229 C577 218 622 219 675 232 Z" fill="#9c7cff"/>
  </g>
  <rect x="20" y="18" width="680" height="224" rx="24" fill="none" stroke="#9c7cff" stroke-opacity=".35" stroke-width="2"/>
  <text x="676" y="224" text-anchor="end" fill="#fff" opacity=".45" font-family="Arial, sans-serif" font-size="18" font-weight="700">04</text>
</svg>