<svg xmlns="http://www.w3.org/2000/svg" width="720" height="260" viewBox="0 0 720 260" role="img" aria-label="Crystal League">
  <defs>
    <linearGradient id="bg" x1="0" y1="0" x2="1" y2="1">
      <stop offset="0" stop-color="#07152f"/>
      <stop offset="0.58" stop-color="#173c90"/>
      <stop offset="1" stop-color="#07152f"/>
    </linearGradient>
    <radialGradient id="halo">
      <stop offset="0" stop-color="#4ec9ff" stop-opacity=".52"/>
      <stop offset="1" stop-color="#4ec9ff" stop-opacity="0"/>
    </radialGradient>
    <linearGradient id="gold" x1="0" y1="0" x2="1" y2="1">
      <stop offset="0" stop-color="#fff39a"/>
      <stop offset=".38" stop-color="#bdf1ff"/>
      <stop offset="1" stop-color="#9c5c05"/>
    </linearGradient>
    <filter id="shadow" x="-50%" y="-50%" width="200%" height="200%">
      <feDropShadow dx="0" dy="8" stdDeviation="8" flood-color="#000" flood-opacity=".55"/>
    </filter>
  </defs>
  <rect width="720" height="260" rx="28" fill="url(#bg)"/>
  <ellipse cx="360" cy="112" rx="245" ry="130" fill="url(#halo)"/>
  <path d="M0 144 Q110 79 220 148 T445 135 T720 111 V260 H0 Z" fill="#07152f" opacity=".67"/>
  <path d="M0 202 Q120 154 240 205 T480 190 T720 195 V260 H0 Z" fill="#001b0d" opacity=".62"/>
  <path d="M519 214 L528.5 150 L538 214 Z" fill="#07152f" opacity="0.27"/><path d="M181 214 L189.5 182 L198 214 Z" fill="#4ec9ff" opacity="0.21"/><path d="M38 214 L54 168 L70 214 Z" fill="#07152f" opacity="0.34"/><path d="M89 214 L99.5 122 L110 214 Z" fill="#4ec9ff" opacity="0.36"/><path d="M377 214 L396 135 L415 214 Z" fill="#07152f" opacity="0.32"/><path d="M264 214 L271 181 L278 214 Z" fill="#4ec9ff" opacity="0.27"/><path d="M162 214 L175.5 145 L189 214 Z" fill="#07152f" opacity="0.28"/><path d="M428 214 L444.5 115 L461 214 Z" fill="#4ec9ff" opacity="0.39"/><path d="M237 214 L256 172 L275 214 Z" fill="#07152f" opacity="0.31"/><path d="M107 214 L124 139 L141 214 Z" fill="#4ec9ff" opacity="0.24"/><path d="M471 214 L480.5 120 L490 214 Z" fill="#07152f" opacity="0.33"/><path d="M322 214 L334 179 L346 214 Z" fill="#4ec9ff" opacity="0.32"/><path d="M207 214 L221 173 L235 214 Z" fill="#07152f" opacity="0.37"/><path d="M281 214 L290.5 131 L300 214 Z" fill="#4ec9ff" opacity="0.31"/><path d="M202 214 L210.5 148 L219 214 Z" fill="#07152f" opacity="0.32"/><path d="M600 214 L611 145 L622 214 Z" fill="#4ec9ff" opacity="0.35"/><path d="M284 214 L303 160 L322 214 Z" fill="#07152f" opacity="0.19"/><path d="M85 214 L102 121 L119 214 Z" fill="#4ec9ff" opacity="0.37"/>
  <circle cx="645" cy="113" r="2.2" fill="#bdf1ff" opacity="0.80"/><circle cx="476" cy="65" r="1.1" fill="#bdf1ff" opacity="0.70"/><circle cx="394" cy="152" r="2.2" fill="#bdf1ff" opacity="0.87"/><circle cx="468" cy="196" r="2.0" fill="#bdf1ff" opacity="0.42"/><circle cx="241" cy="153" r="2.5" fill="#bdf1ff" opacity="0.85"/><circle cx="503" cy="75" r="2.3" fill="#bdf1ff" opacity="0.87"/><circle cx="446" cy="89" r="2.8" fill="#bdf1ff" opacity="0.82"/><circle cx="494" cy="204" r="1.2" fill="#bdf1ff" opacity="0.51"/><circle cx="190" cy="108" r="2.1" fill="#bdf1ff" opacity="0.42"/><circle cx="420" cy="190" r="1.7" fill="#bdf1ff" opacity="0.52"/><circle cx="378" cy="87" r="2.2" fill="#bdf1ff" opacity="0.68"/><circle cx="254" cy="32" r="0.8" fill="#bdf1ff" opacity="0.45"/><circle cx="370" cy="101" r="0.9" fill="#bdf1ff" opacity="0.35"/><circle cx="632" cy="54" r="3.0" fill="#bdf1ff" opacity="0.61"/><circle cx="190" cy="96" r="2.3" fill="#bdf1ff" opacity="0.73"/><circle cx="150" cy="35" r="1.4" fill="#bdf1ff" opacity="0.75"/><circle cx="62" cy="94" r="1.4" fill="#bdf1ff" opacity="0.39"/><circle cx="194" cy="205" r="2.9" fill="#bdf1ff" opacity="0.82"/><circle cx="667" cy="174" r="1.6" fill="#bdf1ff" opacity="0.52"/><circle cx="281" cy="117" r="2.8" fill="#bdf1ff" opacity="0.76"/><circle cx="37" cy="40" r="1.4" fill="#bdf1ff" opacity="0.65"/><circle cx="255" cy="142" r="1.3" fill="#bdf1ff" opacity="0.35"/>
  <g transform="translate(288 42)" filter="url(#shadow)">
    <path d="M21 17 H123 V53 C123 91 102 111 72 116 C42 111 21 91 21 53 Z" fill="url(#gold)" stroke="#fff1a0" stroke-width="3"/>
    <path d="M21 29 H4 V49 C4 76 21 88 43 88" fill="none" stroke="#bdf1ff" stroke-width="12" stroke-linecap="round"/>
    <path d="M123 29 H140 V49 C140 76 123 88 101 88" fill="none" stroke="#bdf1ff" stroke-width="12" stroke-linecap="round"/>
    <path d="M64 114 H80 V139 H111 V154 H33 V139 H64 Z" fill="url(#gold)"/>
    <path d="M72 43 L81 61 L101 64 L86 78 L90 98 L72 88 L54 98 L58 78 L43 64 L63 61 Z" fill="#173c90" stroke="#f4ffb0" stroke-width="2"/>
  </g>
  <g opacity=".76">
    <path d="M45 232 C94 182 139 182 191 229 C143 218 98 219 45 232 Z" fill="#4ec9ff"/>
    <path d="M675 232 C626 182 581 182 529 229 C577 218 622 219 675 232 Z" fill="#4ec9ff"/>
  </g>
  <rect x="20" y="18" width="680" height="224" rx="24" fill="none" stroke="#4ec9ff" stroke-opacity=".35" stroke-width="2"/>
  <text x="676" y="224" text-anchor="end" fill="#fff" opacity=".45" font-family="Arial, sans-serif" font-size="18" font-weight="700">04</text>
</svg>