<svg xmlns="http://www.w3.org/2000/svg" width="720" height="260" viewBox="0 0 720 260" role="img" aria-label="Desert Arena">
  <defs>
    <linearGradient id="bg" x1="0" y1="0" x2="1" y2="1">
      <stop offset="0" stop-color="#381508"/>
      <stop offset="0.58" stop-color="#a44214"/>
      <stop offset="1" stop-color="#381508"/>
    </linearGradient>
    <radialGradient id="halo">
      <stop offset="0" stop-color="#ffad35" stop-opacity=".52"/>
      <stop offset="1" stop-color="#ffad35" stop-opacity="0"/>
    </radialGradient>
    <linearGradient id="gold" x1="0" y1="0" x2="1" y2="1">
      <stop offset="0" stop-color="#fff39a"/>
      <stop offset=".38" stop-color="#ffd35a"/>
      <stop offset="1" stop-color="#9c5c05"/>
    </linearGradient>
    <filter id="shadow" x="-50%" y="-50%" width="200%" height="200%">
      <feDropShadow dx="0" dy="8" stdDeviation="8" flood-color="#000" flood-opacity=".55"/>
    </filter>
  </defs>
  <rect width="720" height="260" rx="28" fill="url(#bg)"/>
  <ellipse cx="360" cy="112" rx="245" ry="130" fill="url(#halo)"/>
  <path d="M0 150 Q110 85 220 154 T445 141 T720 117 V260 H0 Z" fill="#381508" opacity=".67"/>
  <path d="M0 202 Q120 154 240 205 T480 190 T720 195 V260 H0 Z" fill="#001b0d" opacity=".62"/>
  <path d="M198 214 L214.5 116 L231 214 Z" fill="#381508" opacity="0.25"/><path d="M622 214 L632 144 L642 214 Z" fill="#ffad35" opacity="0.35"/><path d="M81 214 L96.5 126 L112 214 Z" fill="#381508" opacity="0.35"/><path d="M285 214 L300.5 164 L316 214 Z" fill="#ffad35" opacity="0.19"/><path d="M120 214 L127.5 154 L135 214 Z" fill="#381508" opacity="0.17"/><path d="M667 214 L676.5 143 L686 214 Z" fill="#ffad35" opacity="0.29"/><path d="M78 214 L86.5 147 L95 214 Z" fill="#381508" opacity="0.36"/><path d="M693 214 L705.5 163 L718 214 Z" fill="#ffad35" opacity="0.21"/><path d="M546 214 L562 114 L578 214 Z" fill="#381508" opacity="0.37"/><path d="M647 214 L659 148 L671 214 Z" fill="#ffad35" opacity="0.24"/><path d="M548 214 L557 138 L566 214 Z" fill="#381508" opacity="0.40"/><path d="M252 214 L265 118 L278 214 Z" fill="#ffad35" opacity="0.24"/><path d="M62 214 L81 127 L100 214 Z" fill="#381508" opacity="0.27"/><path d="M224 214 L232 126 L240 214 Z" fill="#ffad35" opacity="0.28"/><path d="M240 214 L253.5 179 L267 214 Z" fill="#381508" opacity="0.36"/><path d="M76 214 L83.5 145 L91 214 Z" fill="#ffad35" opacity="0.21"/><path d="M608 214 L619.5 180 L631 214 Z" fill="#381508" opacity="0.26"/><path d="M127 214 L145 134 L163 214 Z" fill="#ffad35" opacity="0.31"/>
  <circle cx="460" cy="94" r="1.7" fill="#ffd35a" opacity="0.63"/><circle cx="470" cy="137" r="1.3" fill="#ffd35a" opacity="0.41"/><circle cx="149" cy="108" r="1.0" fill="#ffd35a" opacity="0.38"/><circle cx="566" cy="157" r="1.2" fill="#ffd35a" opacity="0.64"/><circle cx="632" cy="134" r="0.8" fill="#ffd35a" opacity="0.72"/><circle cx="124" cy="56" r="2.1" fill="#ffd35a" opacity="0.79"/><circle cx="398" cy="189" r="2.0" fill="#ffd35a" opacity="0.41"/><circle cx="431" cy="83" r="1.3" fill="#ffd35a" opacity="0.69"/><circle cx="339" cy="125" r="2.1" fill="#ffd35a" opacity="0.57"/><circle cx="173" cy="109" r="1.6" fill="#ffd35a" opacity="0.34"/><circle cx="341" cy="181" r="1.7" fill="#ffd35a" opacity="0.25"/><circle cx="640" cy="95" r="2.3" fill="#ffd35a" opacity="0.60"/><circle cx="518" cy="130" r="0.8" fill="#ffd35a" opacity="0.43"/><circle cx="598" cy="93" r="2.1" fill="#ffd35a" opacity="0.47"/><circle cx="270" cy="41" r="2.8" fill="#ffd35a" opacity="0.28"/><circle cx="558" cy="170" r="2.4" fill="#ffd35a" opacity="0.45"/><circle cx="616" cy="24" r="2.8" fill="#ffd35a" opacity="0.64"/><circle cx="114" cy="51" r="2.4" fill="#ffd35a" opacity="0.62"/><circle cx="283" cy="66" r="1.8" fill="#ffd35a" opacity="0.32"/><circle cx="597" cy="206" r="1.9" fill="#ffd35a" opacity="0.73"/><circle cx="502" cy="176" r="1.0" fill="#ffd35a" opacity="0.34"/><circle cx="120" cy="189" r="2.4" fill="#ffd35a" opacity="0.33"/>
  <g transform="translate(288 42)" filter="url(#shadow)">
    <path d="M21 17 H123 V53 C123 91 102 111 72 116 C42 111 21 91 21 53 Z" fill="url(#gold)" stroke="#fff1a0" stroke-width="3"/>
    <path d="M21 29 H4 V49 C4 76 21 88 43 88" fill="none" stroke="#ffd35a" stroke-width="12" stroke-linecap="round"/>
    <path d="M123 29 H140 V49 C140 76 123 88 101 88" fill="none" stroke="#ffd35a" stroke-width="12" stroke-linecap="round"/>
    <path d="M64 114 H80 V139 H111 V154 H33 V139 H64 Z" fill="url(#gold)"/>
    <path d="M72 43 L81 61 L101 64 L86 78 L90 98 L72 88 L54 98 L58 78 L43 64 L63 61 Z" fill="#a44214" stroke="#f4ffb0" stroke-width="2"/>
  </g>
  <g opacity=".76">
    <path d="M45 232 C94 182 139 182 191 229 C143 218 98 219 45 232 Z" fill="#ffad35"/>
    <path d="M675 232 C626 182 581 182 529 229 C577 218 622 219 675 232 Z" fill="#ffad35"/>
  </g>
  <rect x="20" y="18" width="680" height="224" rx="24" fill="none" stroke="#ffad35" stroke-opacity=".35" stroke-width="2"/>
  <text x="676" y="224" text-anchor="end" fill="#fff" opacity=".45" font-family="Arial, sans-serif" font-size="18" font-weight="700">08</text>
</svg>