<svg xmlns="http://www.w3.org/2000/svg" width="720" height="260" viewBox="0 0 720 260" role="img" aria-label="Golden Champions">
  <defs>
    <linearGradient id="bg" x1="0" y1="0" x2="1" y2="1">
      <stop offset="0" stop-color="#2c1b03"/>
      <stop offset="0.58" stop-color="#8d5d07"/>
      <stop offset="1" stop-color="#2c1b03"/>
    </linearGradient>
    <radialGradient id="halo">
      <stop offset="0" stop-color="#f3b91d" stop-opacity=".52"/>
      <stop offset="1" stop-color="#f3b91d" stop-opacity="0"/>
    </radialGradient>
    <linearGradient id="gold" x1="0" y1="0" x2="1" y2="1">
      <stop offset="0" stop-color="#fff39a"/>
      <stop offset=".38" stop-color="#fff2a0"/>
      <stop offset="1" stop-color="#9c5c05"/>
    </linearGradient>
    <filter id="shadow" x="-50%" y="-50%" width="200%" height="200%">
      <feDropShadow dx="0" dy="8" stdDeviation="8" flood-color="#000" flood-opacity=".55"/>
    </filter>
  </defs>
  <rect width="720" height="260" rx="28" fill="url(#bg)"/>
  <ellipse cx="360" cy="112" rx="245" ry="130" fill="url(#halo)"/>
  <path d="M0 165 Q110 100 220 169 T445 156 T720 132 V260 H0 Z" fill="#2c1b03" opacity=".67"/>
  <path d="M0 202 Q120 154 240 205 T480 190 T720 195 V260 H0 Z" fill="#001b0d" opacity=".62"/>
  <path d="M272 214 L280.5 165 L289 214 Z" fill="#2c1b03" opacity="0.32"/><path d="M116 214 L126.5 115 L137 214 Z" fill="#f3b91d" opacity="0.30"/><path d="M300 214 L307 137 L314 214 Z" fill="#2c1b03" opacity="0.26"/><path d="M333 214 L342 147 L351 214 Z" fill="#f3b91d" opacity="0.41"/><path d="M288 214 L303.5 142 L319 214 Z" fill="#2c1b03" opacity="0.32"/><path d="M428 214 L444.5 181 L461 214 Z" fill="#f3b91d" opacity="0.22"/><path d="M263 214 L272.5 156 L282 214 Z" fill="#2c1b03" opacity="0.34"/><path d="M16 214 L28 123 L40 214 Z" fill="#f3b91d" opacity="0.37"/><path d="M457 214 L467.5 135 L478 214 Z" fill="#2c1b03" opacity="0.31"/><path d="M126 214 L145.5 118 L165 214 Z" fill="#f3b91d" opacity="0.36"/><path d="M676 214 L691 178 L706 214 Z" fill="#2c1b03" opacity="0.38"/><path d="M257 214 L272 136 L287 214 Z" fill="#f3b91d" opacity="0.19"/><path d="M444 214 L453.5 143 L463 214 Z" fill="#2c1b03" opacity="0.39"/><path d="M516 214 L531 142 L546 214 Z" fill="#f3b91d" opacity="0.23"/><path d="M616 214 L629.5 124 L643 214 Z" fill="#2c1b03" opacity="0.27"/><path d="M202 214 L210 135 L218 214 Z" fill="#f3b91d" opacity="0.23"/><path d="M8 214 L16 158 L24 214 Z" fill="#2c1b03" opacity="0.24"/><path d="M35 214 L44 133 L53 214 Z" fill="#f3b91d" opacity="0.36"/>
  <circle cx="691" cy="75" r="2.5" fill="#fff2a0" opacity="0.76"/><circle cx="123" cy="60" r="2.2" fill="#fff2a0" opacity="0.81"/><circle cx="474" cy="51" r="1.7" fill="#fff2a0" opacity="0.89"/><circle cx="72" cy="109" r="1.8" fill="#fff2a0" opacity="0.70"/><circle cx="310" cy="105" r="1.6" fill="#fff2a0" opacity="0.64"/><circle cx="661" cy="32" r="1.4" fill="#fff2a0" opacity="0.82"/><circle cx="489" cy="180" r="1.1" fill="#fff2a0" opacity="0.32"/><circle cx="600" cy="105" r="1.3" fill="#fff2a0" opacity="0.86"/><circle cx="397" cy="109" r="0.9" fill="#fff2a0" opacity="0.32"/><circle cx="223" cy="65" r="2.3" fill="#fff2a0" opacity="0.30"/><circle cx="354" cy="174" r="0.9" fill="#fff2a0" opacity="0.30"/><circle cx="449" cy="83" r="2.7" fill="#fff2a0" opacity="0.51"/><circle cx="80" cy="114" r="2.3" fill="#fff2a0" opacity="0.51"/><circle cx="426" cy="177" r="2.7" fill="#fff2a0" opacity="0.43"/><circle cx="609" cy="189" r="2.2" fill="#fff2a0" opacity="0.74"/><circle cx="654" cy="169" r="2.0" fill="#fff2a0" opacity="0.37"/><circle cx="127" cy="110" r="1.0" fill="#fff2a0" opacity="0.73"/><circle cx="32" cy="167" r="2.1" fill="#fff2a0" opacity="0.69"/><circle cx="50" cy="38" r="1.7" fill="#fff2a0" opacity="0.81"/><circle cx="431" cy="67" r="1.6" fill="#fff2a0" opacity="0.84"/><circle cx="265" cy="200" r="1.8" fill="#fff2a0" opacity="0.81"/><circle cx="424" cy="157" r="1.1" fill="#fff2a0" opacity="0.37"/>
  <g transform="translate(288 42)" filter="url(#shadow)">
    <path d="M21 17 H123 V53 C123 91 102 111 72 116 C42 111 21 91 21 53 Z" fill="url(#gold)" stroke="#fff1a0" stroke-width="3"/>
    <path d="M21 29 H4 V49 C4 76 21 88 43 88" fill="none" stroke="#fff2a0" stroke-width="12" stroke-linecap="round"/>
    <path d="M123 29 H140 V49 C140 76 123 88 101 88" fill="none" stroke="#fff2a0" stroke-width="12" stroke-linecap="round"/>
    <path d="M64 114 H80 V139 H111 V154 H33 V139 H64 Z" fill="url(#gold)"/>
    <path d="M72 43 L81 61 L101 64 L86 78 L90 98 L72 88 L54 98 L58 78 L43 64 L63 61 Z" fill="#8d5d07" stroke="#f4ffb0" stroke-width="2"/>
  </g>
  <g opacity=".76">
    <path d="M45 232 C94 182 139 182 191 229 C143 218 98 219 45 232 Z" fill="#f3b91d"/>
    <path d="M675 232 C626 182 581 182 529 229 C577 218 622 219 675 232 Z" fill="#f3b91d"/>
  </g>
  <rect x="20" y="18" width="680" height="224" rx="24" fill="none" stroke="#f3b91d" stroke-opacity=".35" stroke-width="2"/>
  <text x="676" y="224" text-anchor="end" fill="#fff" opacity=".45" font-family="Arial, sans-serif" font-size="18" font-weight="700">06</text>
</svg>