<svg xmlns="http://www.w3.org/2000/svg" width="720" height="260" viewBox="0 0 720 260" role="img" aria-label="Moonlight Royale">
  <defs>
    <linearGradient id="bg" x1="0" y1="0" x2="1" y2="1">
      <stop offset="0" stop-color="#0c1230"/>
      <stop offset="0.58" stop-color="#303477"/>
      <stop offset="1" stop-color="#0c1230"/>
    </linearGradient>
    <radialGradient id="halo">
      <stop offset="0" stop-color="#9c7cff" stop-opacity=".52"/>
      <stop offset="1" stop-color="#9c7cff" stop-opacity="0"/>
    </radialGradient>
    <linearGradient id="gold" x1="0" y1="0" x2="1" y2="1">
      <stop offset="0" stop-color="#fff39a"/>
      <stop offset=".38" stop-color="#f1e7ff"/>
      <stop offset="1" stop-color="#9c5c05"/>
    </linearGradient>
    <filter id="shadow" x="-50%" y="-50%" width="200%" height="200%">
      <feDropShadow dx="0" dy="8" stdDeviation="8" flood-color="#000" flood-opacity=".55"/>
    </filter>
  </defs>
  <rect width="720" height="260" rx="28" fill="url(#bg)"/>
  <ellipse cx="360" cy="112" rx="245" ry="130" fill="url(#halo)"/>
  <path d="M0 163 Q110 98 220 167 T445 154 T720 130 V260 H0 Z" fill="#0c1230" opacity=".67"/>
  <path d="M0 202 Q120 154 240 205 T480 190 T720 195 V260 H0 Z" fill="#001b0d" opacity=".62"/>
  <path d="M345 214 L358.5 157 L372 214 Z" fill="#0c1230" opacity="0.17"/><path d="M589 214 L599 125 L609 214 Z" fill="#9c7cff" opacity="0.39"/><path d="M562 214 L578.5 155 L595 214 Z" fill="#0c1230" opacity="0.22"/><path d="M265 214 L274 121 L283 214 Z" fill="#9c7cff" opacity="0.33"/><path d="M443 214 L452 112 L461 214 Z" fill="#0c1230" opacity="0.20"/><path d="M321 214 L337 163 L353 214 Z" fill="#9c7cff" opacity="0.37"/><path d="M85 214 L95 119 L105 214 Z" fill="#0c1230" opacity="0.17"/><path d="M377 214 L391 180 L405 214 Z" fill="#9c7cff" opacity="0.28"/><path d="M612 214 L625 129 L638 214 Z" fill="#0c1230" opacity="0.19"/><path d="M273 214 L284.5 119 L296 214 Z" fill="#9c7cff" opacity="0.27"/><path d="M316 214 L334.5 149 L353 214 Z" fill="#0c1230" opacity="0.22"/><path d="M551 214 L567.5 176 L584 214 Z" fill="#9c7cff" opacity="0.17"/><path d="M570 214 L587.5 124 L605 214 Z" fill="#0c1230" opacity="0.28"/><path d="M465 214 L473.5 141 L482 214 Z" fill="#9c7cff" opacity="0.19"/><path d="M612 214 L626.5 149 L641 214 Z" fill="#0c1230" opacity="0.30"/><path d="M719 214 L735 170 L751 214 Z" fill="#9c7cff" opacity="0.19"/><path d="M671 214 L679.5 162 L688 214 Z" fill="#0c1230" opacity="0.40"/><path d="M123 214 L140 148 L157 214 Z" fill="#9c7cff" opacity="0.37"/>
  <circle cx="441" cy="189" r="0.9" fill="#f1e7ff" opacity="0.82"/><circle cx="571" cy="164" r="1.9" fill="#f1e7ff" opacity="0.45"/><circle cx="164" cy="132" r="1.9" fill="#f1e7ff" opacity="0.37"/><circle cx="255" cy="71" r="1.6" fill="#f1e7ff" opacity="0.85"/><circle cx="528" cy="143" r="0.9" fill="#f1e7ff" opacity="0.84"/><circle cx="43" cy="202" r="1.3" fill="#f1e7ff" opacity="0.26"/><circle cx="414" cy="164" r="2.5" fill="#f1e7ff" opacity="0.71"/><circle cx="415" cy="89" r="2.8" fill="#f1e7ff" opacity="0.75"/><circle cx="375" cy="202" r="1.4" fill="#f1e7ff" opacity="0.32"/><circle cx="227" cy="188" r="1.2" fill="#f1e7ff" opacity="0.36"/><circle cx="397" cy="164" r="1.0" fill="#f1e7ff" opacity="0.65"/><circle cx="617" cy="89" r="2.2" fill="#f1e7ff" opacity="0.72"/><circle cx="78" cy="138" r="2.1" fill="#f1e7ff" opacity="0.56"/><circle cx="446" cy="200" r="2.6" fill="#f1e7ff" opacity="0.26"/><circle cx="556" cy="169" r="1.8" fill="#f1e7ff" opacity="0.56"/><circle cx="283" cy="77" r="1.0" fill="#f1e7ff" opacity="0.88"/><circle cx="694" cy="82" r="2.8" fill="#f1e7ff" opacity="0.47"/><circle cx="655" cy="44" r="3.0" fill="#f1e7ff" opacity="0.27"/><circle cx="449" cy="135" r="1.5" fill="#f1e7ff" opacity="0.31"/><circle cx="678" cy="203" r="1.0" fill="#f1e7ff" opacity="0.37"/><circle cx="547" cy="204" r="1.7" fill="#f1e7ff" opacity="0.36"/><circle cx="467" cy="83" r="2.5" fill="#f1e7ff" opacity="0.66"/>
  <g transform="translate(288 42)" filter="url(#shadow)">
    <path d="M21 17 H123 V53 C123 91 102 111 72 116 C42 111 21 91 21 53 Z" fill="url(#gold)" stroke="#fff1a0" stroke-width="3"/>
    <path d="M21 29 H4 V49 C4 76 21 88 43 88" fill="none" stroke="#f1e7ff" stroke-width="12" stroke-linecap="round"/>
    <path d="M123 29 H140 V49 C140 76 123 88 101 88" fill="none" stroke="#f1e7ff" stroke-width="12" stroke-linecap="round"/>
    <path d="M64 114 H80 V139 H111 V154 H33 V139 H64 Z" fill="url(#gold)"/>
    <path d="M72 43 L81 61 L101 64 L86 78 L90 98 L72 88 L54 98 L58 78 L43 64 L63 61 Z" fill="#303477" stroke="#f4ffb0" stroke-width="2"/>
  </g>
  <g opacity=".76">
    <path d="M45 232 C94 182 139 182 191 229 C143 218 98 219 45 232 Z" fill="#9c7cff"/>
    <path d="M675 232 C626 182 581 182 529 229 C577 218 622 219 675 232 Z" fill="#9c7cff"/>
  </g>
  <rect x="20" y="18" width="680" height="224" rx="24" fill="none" stroke="#9c7cff" stroke-opacity=".35" stroke-width="2"/>
  <text x="676" y="224" text-anchor="end" fill="#fff" opacity=".45" font-family="Arial, sans-serif" font-size="18" font-weight="700">02</text>
</svg>