<svg xmlns="http://www.w3.org/2000/svg" width="720" height="260" viewBox="0 0 720 260" role="img" aria-label="Waterfall Cup">
  <defs>
    <linearGradient id="bg" x1="0" y1="0" x2="1" y2="1">
      <stop offset="0" stop-color="#052e35"/>
      <stop offset="0.58" stop-color="#087f8f"/>
      <stop offset="1" stop-color="#052e35"/>
    </linearGradient>
    <radialGradient id="halo">
      <stop offset="0" stop-color="#52e8df" stop-opacity=".52"/>
      <stop offset="1" stop-color="#52e8df" stop-opacity="0"/>
    </radialGradient>
    <linearGradient id="gold" x1="0" y1="0" x2="1" y2="1">
      <stop offset="0" stop-color="#fff39a"/>
      <stop offset=".38" stop-color="#e8fff8"/>
      <stop offset="1" stop-color="#9c5c05"/>
    </linearGradient>
    <filter id="shadow" x="-50%" y="-50%" width="200%" height="200%">
      <feDropShadow dx="0" dy="8" stdDeviation="8" flood-color="#000" flood-opacity=".55"/>
    </filter>
  </defs>
  <rect width="720" height="260" rx="28" fill="url(#bg)"/>
  <ellipse cx="360" cy="112" rx="245" ry="130" fill="url(#halo)"/>
  <path d="M0 172 Q110 107 220 176 T445 163 T720 139 V260 H0 Z" fill="#052e35" opacity=".67"/>
  <path d="M0 202 Q120 154 240 205 T480 190 T720 195 V260 H0 Z" fill="#001b0d" opacity=".62"/>
  <path d="M543 214 L554 147 L565 214 Z" fill="#052e35" opacity="0.31"/><path d="M578 214 L594.5 161 L611 214 Z" fill="#52e8df" opacity="0.40"/><path d="M605 214 L624 174 L643 214 Z" fill="#052e35" opacity="0.25"/><path d="M306 214 L321 137 L336 214 Z" fill="#52e8df" opacity="0.33"/><path d="M668 214 L676.5 149 L685 214 Z" fill="#052e35" opacity="0.36"/><path d="M228 214 L247.5 151 L267 214 Z" fill="#52e8df" opacity="0.24"/><path d="M582 214 L595.5 133 L609 214 Z" fill="#052e35" opacity="0.39"/><path d="M309 214 L322 182 L335 214 Z" fill="#52e8df" opacity="0.19"/><path d="M529 214 L544.5 122 L560 214 Z" fill="#052e35" opacity="0.19"/><path d="M156 214 L170 140 L184 214 Z" fill="#52e8df" opacity="0.29"/><path d="M111 214 L122 159 L133 214 Z" fill="#052e35" opacity="0.19"/><path d="M660 214 L677 120 L694 214 Z" fill="#52e8df" opacity="0.40"/><path d="M9 214 L26 119 L43 214 Z" fill="#052e35" opacity="0.25"/><path d="M264 214 L271.5 131 L279 214 Z" fill="#52e8df" opacity="0.30"/><path d="M441 214 L458 133 L475 214 Z" fill="#052e35" opacity="0.25"/><path d="M292 214 L310 156 L328 214 Z" fill="#52e8df" opacity="0.33"/><path d="M25 214 L44 114 L63 214 Z" fill="#052e35" opacity="0.41"/><path d="M595 214 L602 126 L609 214 Z" fill="#52e8df" opacity="0.21"/>
  <circle cx="109" cy="151" r="1.7" fill="#e8fff8" opacity="0.38"/><circle cx="626" cy="100" r="2.5" fill="#e8fff8" opacity="0.57"/><circle cx="64" cy="179" r="2.2" fill="#e8fff8" opacity="0.27"/><circle cx="302" cy="56" r="1.9" fill="#e8fff8" opacity="0.68"/><circle cx="313" cy="166" r="1.5" fill="#e8fff8" opacity="0.26"/><circle cx="296" cy="195" r="1.6" fill="#e8fff8" opacity="0.25"/><circle cx="648" cy="21" r="1.1" fill="#e8fff8" opacity="0.73"/><circle cx="206" cy="199" r="2.4" fill="#e8fff8" opacity="0.69"/><circle cx="410" cy="76" r="2.3" fill="#e8fff8" opacity="0.85"/><circle cx="421" cy="41" r="1.3" fill="#e8fff8" opacity="0.32"/><circle cx="393" cy="20" r="2.3" fill="#e8fff8" opacity="0.58"/><circle cx="310" cy="34" r="1.4" fill="#e8fff8" opacity="0.30"/><circle cx="369" cy="172" r="2.3" fill="#e8fff8" opacity="0.59"/><circle cx="185" cy="188" r="3.0" fill="#e8fff8" opacity="0.77"/><circle cx="399" cy="153" r="2.1" fill="#e8fff8" opacity="0.67"/><circle cx="253" cy="194" r="1.1" fill="#e8fff8" opacity="0.71"/><circle cx="478" cy="85" r="2.0" fill="#e8fff8" opacity="0.74"/><circle cx="628" cy="37" r="1.0" fill="#e8fff8" opacity="0.25"/><circle cx="573" cy="143" r="1.5" fill="#e8fff8" opacity="0.36"/><circle cx="363" cy="99" r="2.6" fill="#e8fff8" opacity="0.38"/><circle cx="358" cy="168" r="2.1" fill="#e8fff8" opacity="0.71"/><circle cx="269" cy="181" r="1.0" fill="#e8fff8" opacity="0.45"/>
  <g transform="translate(288 42)" filter="url(#shadow)">
    <path d="M21 17 H123 V53 C123 91 102 111 72 116 C42 111 21 91 21 53 Z" fill="url(#gold)" stroke="#fff1a0" stroke-width="3"/>
    <path d="M21 29 H4 V49 C4 76 21 88 43 88" fill="none" stroke="#e8fff8" stroke-width="12" stroke-linecap="round"/>
    <path d="M123 29 H140 V49 C140 76 123 88 101 88" fill="none" stroke="#e8fff8" stroke-width="12" stroke-linecap="round"/>
    <path d="M64 114 H80 V139 H111 V154 H33 V139 H64 Z" fill="url(#gold)"/>
    <path d="M72 43 L81 61 L101 64 L86 78 L90 98 L72 88 L54 98 L58 78 L43 64 L63 61 Z" fill="#087f8f" stroke="#f4ffb0" stroke-width="2"/>
  </g>
  <g opacity=".76">
    <path d="M45 232 C94 182 139 182 191 229 C143 218 98 219 45 232 Z" fill="#52e8df"/>
    <path d="M675 232 C626 182 581 182 529 229 C577 218 622 219 675 232 Z" fill="#52e8df"/>
  </g>
  <rect x="20" y="18" width="680" height="224" rx="24" fill="none" stroke="#52e8df" stroke-opacity=".35" stroke-width="2"/>
  <text x="676" y="224" text-anchor="end" fill="#fff" opacity=".45" font-family="Arial, sans-serif" font-size="18" font-weight="700">03</text>
</svg>