<svg xmlns="http://www.w3.org/2000/svg" width="720" height="260" viewBox="0 0 720 260" role="img" aria-label="Golden Champions">
  <defs>
    <linearGradient id="bg" x1="0" y1="0" x2="1" y2="1">
      <stop offset="0" stop-color="#2c1b03"/>
      <stop offset="0.58" stop-color="#8d5d07"/>
      <stop offset="1" stop-color="#2c1b03"/>
    </linearGradient>
    <radialGradient id="halo">
      <stop offset="0" stop-color="#f3b91d" stop-opacity=".52"/>
      <stop offset="1" stop-color="#f3b91d" stop-opacity="0"/>
    </radialGradient>
    <linearGradient id="gold" x1="0" y1="0" x2="1" y2="1">
      <stop offset="0" stop-color="#fff39a"/>
      <stop offset=".38" stop-color="#fff2a0"/>
      <stop offset="1" stop-color="#9c5c05"/>
    </linearGradient>
    <filter id="shadow" x="-50%" y="-50%" width="200%" height="200%">
      <feDropShadow dx="0" dy="8" stdDeviation="8" flood-color="#000" flood-opacity=".55"/>
    </filter>
  </defs>
  <rect width="720" height="260" rx="28" fill="url(#bg)"/>
  <ellipse cx="360" cy="112" rx="245" ry="130" fill="url(#halo)"/>
  <path d="M0 163 Q110 98 220 167 T445 154 T720 130 V260 H0 Z" fill="#2c1b03" opacity=".67"/>
  <path d="M0 202 Q120 154 240 205 T480 190 T720 195 V260 H0 Z" fill="#001b0d" opacity=".62"/>
  <path d="M100 214 L111 142 L122 214 Z" fill="#2c1b03" opacity="0.39"/><path d="M10 214 L24 122 L38 214 Z" fill="#f3b91d" opacity="0.20"/><path d="M16 214 L24.5 181 L33 214 Z" fill="#2c1b03" opacity="0.28"/><path d="M20 214 L38.5 165 L57 214 Z" fill="#f3b91d" opacity="0.24"/><path d="M380 214 L390 152 L400 214 Z" fill="#2c1b03" opacity="0.24"/><path d="M222 214 L237.5 134 L253 214 Z" fill="#f3b91d" opacity="0.39"/><path d="M193 214 L200.5 151 L208 214 Z" fill="#2c1b03" opacity="0.27"/><path d="M50 214 L66.5 136 L83 214 Z" fill="#f3b91d" opacity="0.25"/><path d="M343 214 L355.5 144 L368 214 Z" fill="#2c1b03" opacity="0.31"/><path d="M398 214 L417.5 178 L437 214 Z" fill="#f3b91d" opacity="0.32"/><path d="M59 214 L74 131 L89 214 Z" fill="#2c1b03" opacity="0.31"/><path d="M630 214 L649.5 160 L669 214 Z" fill="#f3b91d" opacity="0.22"/><path d="M599 214 L613 165 L627 214 Z" fill="#2c1b03" opacity="0.27"/><path d="M668 214 L683.5 183 L699 214 Z" fill="#f3b91d" opacity="0.34"/><path d="M345 214 L362.5 179 L380 214 Z" fill="#2c1b03" opacity="0.26"/><path d="M258 214 L270 143 L282 214 Z" fill="#f3b91d" opacity="0.20"/><path d="M27 214 L41.5 177 L56 214 Z" fill="#2c1b03" opacity="0.32"/><path d="M430 214 L442 130 L454 214 Z" fill="#f3b91d" opacity="0.18"/>
  <circle cx="86" cy="74" r="1.5" fill="#fff2a0" opacity="0.27"/><circle cx="668" cy="178" r="1.1" fill="#fff2a0" opacity="0.79"/><circle cx="153" cy="137" r="2.5" fill="#fff2a0" opacity="0.48"/><circle cx="546" cy="154" r="2.9" fill="#fff2a0" opacity="0.31"/><circle cx="200" cy="150" r="1.0" fill="#fff2a0" opacity="0.73"/><circle cx="473" cy="150" r="1.4" fill="#fff2a0" opacity="0.74"/><circle cx="106" cy="77" r="2.6" fill="#fff2a0" opacity="0.58"/><circle cx="550" cy="66" r="2.3" fill="#fff2a0" opacity="0.34"/><circle cx="61" cy="174" r="1.0" fill="#fff2a0" opacity="0.38"/><circle cx="122" cy="111" r="1.2" fill="#fff2a0" opacity="0.59"/><circle cx="314" cy="66" r="2.4" fill="#fff2a0" opacity="0.31"/><circle cx="96" cy="104" r="1.3" fill="#fff2a0" opacity="0.83"/><circle cx="277" cy="73" r="2.4" fill="#fff2a0" opacity="0.77"/><circle cx="537" cy="65" r="1.5" fill="#fff2a0" opacity="0.34"/><circle cx="401" cy="26" r="1.4" fill="#fff2a0" opacity="0.54"/><circle cx="359" cy="202" r="0.8" fill="#fff2a0" opacity="0.59"/><circle cx="689" cy="137" r="1.8" fill="#fff2a0" opacity="0.85"/><circle cx="441" cy="104" r="2.3" fill="#fff2a0" opacity="0.48"/><circle cx="609" cy="126" r="1.9" fill="#fff2a0" opacity="0.64"/><circle cx="681" cy="174" r="2.4" fill="#fff2a0" opacity="0.33"/><circle cx="418" cy="24" r="1.6" fill="#fff2a0" opacity="0.45"/><circle cx="481" cy="182" r="1.7" fill="#fff2a0" opacity="0.84"/>
  <g transform="translate(288 42)" filter="url(#shadow)">
    <path d="M21 17 H123 V53 C123 91 102 111 72 116 C42 111 21 91 21 53 Z" fill="url(#gold)" stroke="#fff1a0" stroke-width="3"/>
    <path d="M21 29 H4 V49 C4 76 21 88 43 88" fill="none" stroke="#fff2a0" stroke-width="12" stroke-linecap="round"/>
    <path d="M123 29 H140 V49 C140 76 123 88 101 88" fill="none" stroke="#fff2a0" stroke-width="12" stroke-linecap="round"/>
    <path d="M64 114 H80 V139 H111 V154 H33 V139 H64 Z" fill="url(#gold)"/>
    <path d="M72 43 L81 61 L101 64 L86 78 L90 98 L72 88 L54 98 L58 78 L43 64 L63 61 Z" fill="#8d5d07" stroke="#f4ffb0" stroke-width="2"/>
  </g>
  <g opacity=".76">
    <path d="M45 232 C94 182 139 182 191 229 C143 218 98 219 45 232 Z" fill="#f3b91d"/>
    <path d="M675 232 C626 182 581 182 529 229 C577 218 622 219 675 232 Z" fill="#f3b91d"/>
  </g>
  <rect x="20" y="18" width="680" height="224" rx="24" fill="none" stroke="#f3b91d" stroke-opacity=".35" stroke-width="2"/>
  <text x="676" y="224" text-anchor="end" fill="#fff" opacity=".45" font-family="Arial, sans-serif" font-size="18" font-weight="700">10</text>
</svg>