<svg xmlns="http://www.w3.org/2000/svg" width="720" height="260" viewBox="0 0 720 260" role="img" aria-label="Golden Champions">
  <defs>
    <linearGradient id="bg" x1="0" y1="0" x2="1" y2="1">
      <stop offset="0" stop-color="#2c1b03"/>
      <stop offset="0.58" stop-color="#8d5d07"/>
      <stop offset="1" stop-color="#2c1b03"/>
    </linearGradient>
    <radialGradient id="halo">
      <stop offset="0" stop-color="#f3b91d" stop-opacity=".52"/>
      <stop offset="1" stop-color="#f3b91d" stop-opacity="0"/>
    </radialGradient>
    <linearGradient id="gold" x1="0" y1="0" x2="1" y2="1">
      <stop offset="0" stop-color="#fff39a"/>
      <stop offset=".38" stop-color="#fff2a0"/>
      <stop offset="1" stop-color="#9c5c05"/>
    </linearGradient>
    <filter id="shadow" x="-50%" y="-50%" width="200%" height="200%">
      <feDropShadow dx="0" dy="8" stdDeviation="8" flood-color="#000" flood-opacity=".55"/>
    </filter>
  </defs>
  <rect width="720" height="260" rx="28" fill="url(#bg)"/>
  <ellipse cx="360" cy="112" rx="245" ry="130" fill="url(#halo)"/>
  <path d="M0 167 Q110 102 220 171 T445 158 T720 134 V260 H0 Z" fill="#2c1b03" opacity=".67"/>
  <path d="M0 202 Q120 154 240 205 T480 190 T720 195 V260 H0 Z" fill="#001b0d" opacity=".62"/>
  <path d="M444 214 L462.5 116 L481 214 Z" fill="#2c1b03" opacity="0.24"/><path d="M223 214 L242.5 179 L262 214 Z" fill="#f3b91d" opacity="0.40"/><path d="M584 214 L602 164 L620 214 Z" fill="#2c1b03" opacity="0.23"/><path d="M646 214 L658 129 L670 214 Z" fill="#f3b91d" opacity="0.33"/><path d="M196 214 L205 131 L214 214 Z" fill="#2c1b03" opacity="0.40"/><path d="M635 214 L652.5 157 L670 214 Z" fill="#f3b91d" opacity="0.31"/><path d="M334 214 L346 162 L358 214 Z" fill="#2c1b03" opacity="0.40"/><path d="M703 214 L710.5 181 L718 214 Z" fill="#f3b91d" opacity="0.23"/><path d="M570 214 L578 125 L586 214 Z" fill="#2c1b03" opacity="0.31"/><path d="M575 214 L594 130 L613 214 Z" fill="#f3b91d" opacity="0.40"/><path d="M574 214 L588.5 154 L603 214 Z" fill="#2c1b03" opacity="0.20"/><path d="M605 214 L615.5 112 L626 214 Z" fill="#f3b91d" opacity="0.41"/><path d="M289 214 L306 122 L323 214 Z" fill="#2c1b03" opacity="0.26"/><path d="M364 214 L378 172 L392 214 Z" fill="#f3b91d" opacity="0.37"/><path d="M166 214 L175.5 141 L185 214 Z" fill="#2c1b03" opacity="0.28"/><path d="M145 214 L162 127 L179 214 Z" fill="#f3b91d" opacity="0.26"/><path d="M708 214 L722 138 L736 214 Z" fill="#2c1b03" opacity="0.40"/><path d="M359 214 L377.5 137 L396 214 Z" fill="#f3b91d" opacity="0.29"/>
  <circle cx="615" cy="75" r="1.3" fill="#fff2a0" opacity="0.60"/><circle cx="259" cy="132" r="1.1" fill="#fff2a0" opacity="0.84"/><circle cx="114" cy="156" r="1.0" fill="#fff2a0" opacity="0.65"/><circle cx="278" cy="64" r="2.9" fill="#fff2a0" opacity="0.44"/><circle cx="421" cy="59" r="2.3" fill="#fff2a0" opacity="0.55"/><circle cx="170" cy="103" r="1.4" fill="#fff2a0" opacity="0.26"/><circle cx="191" cy="92" r="1.8" fill="#fff2a0" opacity="0.72"/><circle cx="650" cy="144" r="2.6" fill="#fff2a0" opacity="0.72"/><circle cx="52" cy="44" r="3.0" fill="#fff2a0" opacity="0.26"/><circle cx="324" cy="20" r="1.3" fill="#fff2a0" opacity="0.66"/><circle cx="395" cy="92" r="1.6" fill="#fff2a0" opacity="0.29"/><circle cx="123" cy="62" r="1.8" fill="#fff2a0" opacity="0.84"/><circle cx="563" cy="155" r="2.2" fill="#fff2a0" opacity="0.90"/><circle cx="315" cy="99" r="1.7" fill="#fff2a0" opacity="0.52"/><circle cx="137" cy="161" r="0.8" fill="#fff2a0" opacity="0.29"/><circle cx="268" cy="136" r="1.0" fill="#fff2a0" opacity="0.79"/><circle cx="246" cy="84" r="2.4" fill="#fff2a0" opacity="0.60"/><circle cx="302" cy="41" r="2.0" fill="#fff2a0" opacity="0.26"/><circle cx="171" cy="139" r="1.5" fill="#fff2a0" opacity="0.33"/><circle cx="181" cy="151" r="2.9" fill="#fff2a0" opacity="0.70"/><circle cx="112" cy="186" r="1.9" fill="#fff2a0" opacity="0.53"/><circle cx="368" cy="132" r="2.8" fill="#fff2a0" opacity="0.55"/>
  <g transform="translate(288 42)" filter="url(#shadow)">
    <path d="M21 17 H123 V53 C123 91 102 111 72 116 C42 111 21 91 21 53 Z" fill="url(#gold)" stroke="#fff1a0" stroke-width="3"/>
    <path d="M21 29 H4 V49 C4 76 21 88 43 88" fill="none" stroke="#fff2a0" stroke-width="12" stroke-linecap="round"/>
    <path d="M123 29 H140 V49 C140 76 123 88 101 88" fill="none" stroke="#fff2a0" stroke-width="12" stroke-linecap="round"/>
    <path d="M64 114 H80 V139 H111 V154 H33 V139 H64 Z" fill="url(#gold)"/>
    <path d="M72 43 L81 61 L101 64 L86 78 L90 98 L72 88 L54 98 L58 78 L43 64 L63 61 Z" fill="#8d5d07" stroke="#f4ffb0" stroke-width="2"/>
  </g>
  <g opacity=".76">
    <path d="M45 232 C94 182 139 182 191 229 C143 218 98 219 45 232 Z" fill="#f3b91d"/>
    <path d="M675 232 C626 182 581 182 529 229 C577 218 622 219 675 232 Z" fill="#f3b91d"/>
  </g>
  <rect x="20" y="18" width="680" height="224" rx="24" fill="none" stroke="#f3b91d" stroke-opacity=".35" stroke-width="2"/>
  <text x="676" y="224" text-anchor="end" fill="#fff" opacity=".45" font-family="Arial, sans-serif" font-size="18" font-weight="700">02</text>
</svg>