<svg xmlns="http://www.w3.org/2000/svg" width="720" height="260" viewBox="0 0 720 260" role="img" aria-label="Forest Crown">
  <defs>
    <linearGradient id="bg" x1="0" y1="0" x2="1" y2="1">
      <stop offset="0" stop-color="#031f10"/>
      <stop offset="0.58" stop-color="#08753a"/>
      <stop offset="1" stop-color="#031f10"/>
    </linearGradient>
    <radialGradient id="halo">
      <stop offset="0" stop-color="#59e77f" stop-opacity=".52"/>
      <stop offset="1" stop-color="#59e77f" stop-opacity="0"/>
    </radialGradient>
    <linearGradient id="gold" x1="0" y1="0" x2="1" y2="1">
      <stop offset="0" stop-color="#fff39a"/>
      <stop offset=".38" stop-color="#f5ce48"/>
      <stop offset="1" stop-color="#9c5c05"/>
    </linearGradient>
    <filter id="shadow" x="-50%" y="-50%" width="200%" height="200%">
      <feDropShadow dx="0" dy="8" stdDeviation="8" flood-color="#000" flood-opacity=".55"/>
    </filter>
  </defs>
  <rect width="720" height="260" rx="28" fill="url(#bg)"/>
  <ellipse cx="360" cy="112" rx="245" ry="130" fill="url(#halo)"/>
  <path d="M0 153 Q110 88 220 157 T445 144 T720 120 V260 H0 Z" fill="#031f10" opacity=".67"/>
  <path d="M0 202 Q120 154 240 205 T480 190 T720 195 V260 H0 Z" fill="#001b0d" opacity=".62"/>
  <path d="M322 214 L333 144 L344 214 Z" fill="#031f10" opacity="0.35"/><path d="M654 214 L669.5 178 L685 214 Z" fill="#59e77f" opacity="0.30"/><path d="M671 214 L678.5 141 L686 214 Z" fill="#031f10" opacity="0.26"/><path d="M163 214 L173.5 115 L184 214 Z" fill="#59e77f" opacity="0.16"/><path d="M164 214 L173 115 L182 214 Z" fill="#031f10" opacity="0.17"/><path d="M225 214 L236 178 L247 214 Z" fill="#59e77f" opacity="0.19"/><path d="M28 214 L38.5 178 L49 214 Z" fill="#031f10" opacity="0.21"/><path d="M179 214 L194 159 L209 214 Z" fill="#59e77f" opacity="0.22"/><path d="M76 214 L84 133 L92 214 Z" fill="#031f10" opacity="0.37"/><path d="M277 214 L294 159 L311 214 Z" fill="#59e77f" opacity="0.18"/><path d="M445 214 L464 181 L483 214 Z" fill="#031f10" opacity="0.25"/><path d="M645 214 L657 140 L669 214 Z" fill="#59e77f" opacity="0.31"/><path d="M304 214 L313 142 L322 214 Z" fill="#031f10" opacity="0.38"/><path d="M106 214 L117.5 157 L129 214 Z" fill="#59e77f" opacity="0.20"/><path d="M33 214 L50.5 156 L68 214 Z" fill="#031f10" opacity="0.26"/><path d="M635 214 L650 114 L665 214 Z" fill="#59e77f" opacity="0.27"/><path d="M386 214 L403 182 L420 214 Z" fill="#031f10" opacity="0.24"/><path d="M152 214 L161.5 128 L171 214 Z" fill="#59e77f" opacity="0.32"/>
  <circle cx="97" cy="208" r="1.6" fill="#f5ce48" opacity="0.65"/><circle cx="307" cy="139" r="1.8" fill="#f5ce48" opacity="0.68"/><circle cx="449" cy="158" r="2.3" fill="#f5ce48" opacity="0.70"/><circle cx="424" cy="200" r="2.4" fill="#f5ce48" opacity="0.49"/><circle cx="597" cy="63" r="1.2" fill="#f5ce48" opacity="0.50"/><circle cx="45" cy="77" r="1.5" fill="#f5ce48" opacity="0.82"/><circle cx="377" cy="49" r="1.8" fill="#f5ce48" opacity="0.33"/><circle cx="378" cy="132" r="2.3" fill="#f5ce48" opacity="0.84"/><circle cx="236" cy="125" r="1.7" fill="#f5ce48" opacity="0.29"/><circle cx="272" cy="171" r="1.2" fill="#f5ce48" opacity="0.45"/><circle cx="353" cy="43" r="2.3" fill="#f5ce48" opacity="0.45"/><circle cx="203" cy="69" r="2.5" fill="#f5ce48" opacity="0.56"/><circle cx="323" cy="28" r="2.4" fill="#f5ce48" opacity="0.35"/><circle cx="21" cy="127" r="1.1" fill="#f5ce48" opacity="0.88"/><circle cx="60" cy="90" r="1.8" fill="#f5ce48" opacity="0.60"/><circle cx="646" cy="198" r="2.1" fill="#f5ce48" opacity="0.32"/><circle cx="583" cy="206" r="0.8" fill="#f5ce48" opacity="0.47"/><circle cx="195" cy="71" r="1.7" fill="#f5ce48" opacity="0.69"/><circle cx="591" cy="40" r="1.7" fill="#f5ce48" opacity="0.82"/><circle cx="182" cy="137" r="1.4" fill="#f5ce48" opacity="0.68"/><circle cx="388" cy="96" r="1.9" fill="#f5ce48" opacity="0.58"/><circle cx="35" cy="87" r="2.4" fill="#f5ce48" opacity="0.32"/>
  <g transform="translate(288 42)" filter="url(#shadow)">
    <path d="M21 17 H123 V53 C123 91 102 111 72 116 C42 111 21 91 21 53 Z" fill="url(#gold)" stroke="#fff1a0" stroke-width="3"/>
    <path d="M21 29 H4 V49 C4 76 21 88 43 88" fill="none" stroke="#f5ce48" stroke-width="12" stroke-linecap="round"/>
    <path d="M123 29 H140 V49 C140 76 123 88 101 88" fill="none" stroke="#f5ce48" stroke-width="12" stroke-linecap="round"/>
    <path d="M64 114 H80 V139 H111 V154 H33 V139 H64 Z" fill="url(#gold)"/>
    <path d="M72 43 L81 61 L101 64 L86 78 L90 98 L72 88 L54 98 L58 78 L43 64 L63 61 Z" fill="#08753a" stroke="#f4ffb0" stroke-width="2"/>
  </g>
  <g opacity=".76">
    <path d="M45 232 C94 182 139 182 191 229 C143 218 98 219 45 232 Z" fill="#59e77f"/>
    <path d="M675 232 C626 182 581 182 529 229 C577 218 622 219 675 232 Z" fill="#59e77f"/>
  </g>
  <rect x="20" y="18" width="680" height="224" rx="24" fill="none" stroke="#59e77f" stroke-opacity=".35" stroke-width="2"/>
  <text x="676" y="224" text-anchor="end" fill="#fff" opacity=".45" font-family="Arial, sans-serif" font-size="18" font-weight="700">07</text>
</svg>