<svg xmlns="http://www.w3.org/2000/svg" width="720" height="260" viewBox="0 0 720 260" role="img" aria-label="Temple Masters">
  <defs>
    <linearGradient id="bg" x1="0" y1="0" x2="1" y2="1">
      <stop offset="0" stop-color="#201006"/>
      <stop offset="0.58" stop-color="#76521a"/>
      <stop offset="1" stop-color="#201006"/>
    </linearGradient>
    <radialGradient id="halo">
      <stop offset="0" stop-color="#d9a93d" stop-opacity=".52"/>
      <stop offset="1" stop-color="#d9a93d" stop-opacity="0"/>
    </radialGradient>
    <linearGradient id="gold" x1="0" y1="0" x2="1" y2="1">
      <stop offset="0" stop-color="#fff39a"/>
      <stop offset=".38" stop-color="#fff08d"/>
      <stop offset="1" stop-color="#9c5c05"/>
    </linearGradient>
    <filter id="shadow" x="-50%" y="-50%" width="200%" height="200%">
      <feDropShadow dx="0" dy="8" stdDeviation="8" flood-color="#000" flood-opacity=".55"/>
    </filter>
  </defs>
  <rect width="720" height="260" rx="28" fill="url(#bg)"/>
  <ellipse cx="360" cy="112" rx="245" ry="130" fill="url(#halo)"/>
  <path d="M0 158 Q110 93 220 162 T445 149 T720 125 V260 H0 Z" fill="#201006" opacity=".67"/>
  <path d="M0 202 Q120 154 240 205 T480 190 T720 195 V260 H0 Z" fill="#001b0d" opacity=".62"/>
  <path d="M397 214 L411.5 178 L426 214 Z" fill="#201006" opacity="0.38"/><path d="M611 214 L627.5 181 L644 214 Z" fill="#d9a93d" opacity="0.36"/><path d="M125 214 L143.5 145 L162 214 Z" fill="#201006" opacity="0.38"/><path d="M326 214 L335 180 L344 214 Z" fill="#d9a93d" opacity="0.19"/><path d="M345 214 L364.5 119 L384 214 Z" fill="#201006" opacity="0.34"/><path d="M574 214 L587 131 L600 214 Z" fill="#d9a93d" opacity="0.41"/><path d="M575 214 L587 161 L599 214 Z" fill="#201006" opacity="0.33"/><path d="M624 214 L635.5 164 L647 214 Z" fill="#d9a93d" opacity="0.38"/><path d="M462 214 L481 180 L500 214 Z" fill="#201006" opacity="0.37"/><path d="M530 214 L544.5 168 L559 214 Z" fill="#d9a93d" opacity="0.26"/><path d="M342 214 L356 147 L370 214 Z" fill="#201006" opacity="0.37"/><path d="M362 214 L375.5 135 L389 214 Z" fill="#d9a93d" opacity="0.22"/><path d="M222 214 L240.5 122 L259 214 Z" fill="#201006" opacity="0.24"/><path d="M23 214 L42 116 L61 214 Z" fill="#d9a93d" opacity="0.39"/><path d="M69 214 L85.5 163 L102 214 Z" fill="#201006" opacity="0.30"/><path d="M370 214 L379 131 L388 214 Z" fill="#d9a93d" opacity="0.35"/><path d="M682 214 L691.5 132 L701 214 Z" fill="#201006" opacity="0.27"/><path d="M599 214 L607.5 112 L616 214 Z" fill="#d9a93d" opacity="0.40"/>
  <circle cx="128" cy="55" r="2.5" fill="#fff08d" opacity="0.84"/><circle cx="525" cy="72" r="1.8" fill="#fff08d" opacity="0.54"/><circle cx="49" cy="154" r="1.3" fill="#fff08d" opacity="0.27"/><circle cx="614" cy="142" r="1.5" fill="#fff08d" opacity="0.47"/><circle cx="417" cy="157" r="1.4" fill="#fff08d" opacity="0.79"/><circle cx="377" cy="49" r="2.3" fill="#fff08d" opacity="0.79"/><circle cx="632" cy="46" r="2.9" fill="#fff08d" opacity="0.43"/><circle cx="222" cy="193" r="1.0" fill="#fff08d" opacity="0.64"/><circle cx="373" cy="189" r="0.8" fill="#fff08d" opacity="0.45"/><circle cx="367" cy="151" r="1.7" fill="#fff08d" opacity="0.31"/><circle cx="337" cy="38" r="2.9" fill="#fff08d" opacity="0.84"/><circle cx="333" cy="40" r="1.5" fill="#fff08d" opacity="0.82"/><circle cx="130" cy="163" r="1.1" fill="#fff08d" opacity="0.46"/><circle cx="338" cy="82" r="2.4" fill="#fff08d" opacity="0.33"/><circle cx="113" cy="25" r="1.0" fill="#fff08d" opacity="0.40"/><circle cx="529" cy="97" r="2.5" fill="#fff08d" opacity="0.28"/><circle cx="400" cy="26" r="2.0" fill="#fff08d" opacity="0.26"/><circle cx="87" cy="45" r="2.6" fill="#fff08d" opacity="0.60"/><circle cx="407" cy="75" r="1.8" fill="#fff08d" opacity="0.37"/><circle cx="282" cy="103" r="1.3" fill="#fff08d" opacity="0.74"/><circle cx="313" cy="139" r="1.4" fill="#fff08d" opacity="0.69"/><circle cx="601" cy="97" r="0.9" fill="#fff08d" opacity="0.77"/>
  <g transform="translate(288 42)" filter="url(#shadow)">
    <path d="M21 17 H123 V53 C123 91 102 111 72 116 C42 111 21 91 21 53 Z" fill="url(#gold)" stroke="#fff1a0" stroke-width="3"/>
    <path d="M21 29 H4 V49 C4 76 21 88 43 88" fill="none" stroke="#fff08d" stroke-width="12" stroke-linecap="round"/>
    <path d="M123 29 H140 V49 C140 76 123 88 101 88" fill="none" stroke="#fff08d" stroke-width="12" stroke-linecap="round"/>
    <path d="M64 114 H80 V139 H111 V154 H33 V139 H64 Z" fill="url(#gold)"/>
    <path d="M72 43 L81 61 L101 64 L86 78 L90 98 L72 88 L54 98 L58 78 L43 64 L63 61 Z" fill="#76521a" stroke="#f4ffb0" stroke-width="2"/>
  </g>
  <g opacity=".76">
    <path d="M45 232 C94 182 139 182 191 229 C143 218 98 219 45 232 Z" fill="#d9a93d"/>
    <path d="M675 232 C626 182 581 182 529 229 C577 218 622 219 675 232 Z" fill="#d9a93d"/>
  </g>
  <rect x="20" y="18" width="680" height="224" rx="24" fill="none" stroke="#d9a93d" stroke-opacity=".35" stroke-width="2"/>
  <text x="676" y="224" text-anchor="end" fill="#fff" opacity=".45" font-family="Arial, sans-serif" font-size="18" font-weight="700">08</text>
</svg>