<svg xmlns="http://www.w3.org/2000/svg" width="720" height="260" viewBox="0 0 720 260" role="img" aria-label="Volcano Clash">
  <defs>
    <linearGradient id="bg" x1="0" y1="0" x2="1" y2="1">
      <stop offset="0" stop-color="#28060a"/>
      <stop offset="0.58" stop-color="#86131a"/>
      <stop offset="1" stop-color="#28060a"/>
    </linearGradient>
    <radialGradient id="halo">
      <stop offset="0" stop-color="#ff5b28" stop-opacity=".52"/>
      <stop offset="1" stop-color="#ff5b28" stop-opacity="0"/>
    </radialGradient>
    <linearGradient id="gold" x1="0" y1="0" x2="1" y2="1">
      <stop offset="0" stop-color="#fff39a"/>
      <stop offset=".38" stop-color="#ffbf4d"/>
      <stop offset="1" stop-color="#9c5c05"/>
    </linearGradient>
    <filter id="shadow" x="-50%" y="-50%" width="200%" height="200%">
      <feDropShadow dx="0" dy="8" stdDeviation="8" flood-color="#000" flood-opacity=".55"/>
    </filter>
  </defs>
  <rect width="720" height="260" rx="28" fill="url(#bg)"/>
  <ellipse cx="360" cy="112" rx="245" ry="130" fill="url(#halo)"/>
  <path d="M0 149 Q110 84 220 153 T445 140 T720 116 V260 H0 Z" fill="#28060a" opacity=".67"/>
  <path d="M0 202 Q120 154 240 205 T480 190 T720 195 V260 H0 Z" fill="#001b0d" opacity=".62"/>
  <path d="M246 214 L253.5 183 L261 214 Z" fill="#28060a" opacity="0.32"/><path d="M697 214 L711 175 L725 214 Z" fill="#ff5b28" opacity="0.24"/><path d="M496 214 L505.5 138 L515 214 Z" fill="#28060a" opacity="0.40"/><path d="M0 214 L11.5 123 L23 214 Z" fill="#ff5b28" opacity="0.38"/><path d="M703 214 L714.5 183 L726 214 Z" fill="#28060a" opacity="0.26"/><path d="M596 214 L605 154 L614 214 Z" fill="#ff5b28" opacity="0.22"/><path d="M200 214 L209 122 L218 214 Z" fill="#28060a" opacity="0.33"/><path d="M454 214 L472 154 L490 214 Z" fill="#ff5b28" opacity="0.32"/><path d="M409 214 L418.5 158 L428 214 Z" fill="#28060a" opacity="0.38"/><path d="M25 214 L44.5 149 L64 214 Z" fill="#ff5b28" opacity="0.35"/><path d="M548 214 L559.5 142 L571 214 Z" fill="#28060a" opacity="0.38"/><path d="M208 214 L218 145 L228 214 Z" fill="#ff5b28" opacity="0.40"/><path d="M386 214 L398.5 162 L411 214 Z" fill="#28060a" opacity="0.28"/><path d="M189 214 L205 126 L221 214 Z" fill="#ff5b28" opacity="0.25"/><path d="M717 214 L735.5 148 L754 214 Z" fill="#28060a" opacity="0.21"/><path d="M181 214 L189.5 168 L198 214 Z" fill="#ff5b28" opacity="0.18"/><path d="M90 214 L101.5 159 L113 214 Z" fill="#28060a" opacity="0.20"/><path d="M426 214 L437 144 L448 214 Z" fill="#ff5b28" opacity="0.24"/>
  <circle cx="67" cy="170" r="2.9" fill="#ffbf4d" opacity="0.46"/><circle cx="89" cy="206" r="1.8" fill="#ffbf4d" opacity="0.82"/><circle cx="169" cy="162" r="1.2" fill="#ffbf4d" opacity="0.47"/><circle cx="235" cy="68" r="1.1" fill="#ffbf4d" opacity="0.52"/><circle cx="97" cy="159" r="1.1" fill="#ffbf4d" opacity="0.85"/><circle cx="392" cy="106" r="2.8" fill="#ffbf4d" opacity="0.85"/><circle cx="122" cy="52" r="3.0" fill="#ffbf4d" opacity="0.88"/><circle cx="534" cy="72" r="1.5" fill="#ffbf4d" opacity="0.40"/><circle cx="98" cy="61" r="2.5" fill="#ffbf4d" opacity="0.79"/><circle cx="176" cy="191" r="0.8" fill="#ffbf4d" opacity="0.60"/><circle cx="369" cy="48" r="1.7" fill="#ffbf4d" opacity="0.70"/><circle cx="72" cy="99" r="1.2" fill="#ffbf4d" opacity="0.31"/><circle cx="516" cy="82" r="1.5" fill="#ffbf4d" opacity="0.90"/><circle cx="385" cy="171" r="2.0" fill="#ffbf4d" opacity="0.79"/><circle cx="687" cy="155" r="2.5" fill="#ffbf4d" opacity="0.81"/><circle cx="84" cy="109" r="1.7" fill="#ffbf4d" opacity="0.36"/><circle cx="87" cy="195" r="1.8" fill="#ffbf4d" opacity="0.68"/><circle cx="303" cy="96" r="2.9" fill="#ffbf4d" opacity="0.78"/><circle cx="96" cy="194" r="1.6" fill="#ffbf4d" opacity="0.63"/><circle cx="82" cy="170" r="1.5" fill="#ffbf4d" opacity="0.63"/><circle cx="463" cy="52" r="2.4" fill="#ffbf4d" opacity="0.46"/><circle cx="148" cy="76" r="1.8" fill="#ffbf4d" opacity="0.52"/>
  <g transform="translate(288 42)" filter="url(#shadow)">
    <path d="M21 17 H123 V53 C123 91 102 111 72 116 C42 111 21 91 21 53 Z" fill="url(#gold)" stroke="#fff1a0" stroke-width="3"/>
    <path d="M21 29 H4 V49 C4 76 21 88 43 88" fill="none" stroke="#ffbf4d" stroke-width="12" stroke-linecap="round"/>
    <path d="M123 29 H140 V49 C140 76 123 88 101 88" fill="none" stroke="#ffbf4d" stroke-width="12" stroke-linecap="round"/>
    <path d="M64 114 H80 V139 H111 V154 H33 V139 H64 Z" fill="url(#gold)"/>
    <path d="M72 43 L81 61 L101 64 L86 78 L90 98 L72 88 L54 98 L58 78 L43 64 L63 61 Z" fill="#86131a" stroke="#f4ffb0" stroke-width="2"/>
  </g>
  <g opacity=".76">
    <path d="M45 232 C94 182 139 182 191 229 C143 218 98 219 45 232 Z" fill="#ff5b28"/>
    <path d="M675 232 C626 182 581 182 529 229 C577 218 622 219 675 232 Z" fill="#ff5b28"/>
  </g>
  <rect x="20" y="18" width="680" height="224" rx="24" fill="none" stroke="#ff5b28" stroke-opacity=".35" stroke-width="2"/>
  <text x="676" y="224" text-anchor="end" fill="#fff" opacity=".45" font-family="Arial, sans-serif" font-size="18" font-weight="700">05</text>
</svg>