<svg xmlns="http://www.w3.org/2000/svg" width="720" height="260" viewBox="0 0 720 260" role="img" aria-label="Volcano Clash">
  <defs>
    <linearGradient id="bg" x1="0" y1="0" x2="1" y2="1">
      <stop offset="0" stop-color="#28060a"/>
      <stop offset="0.58" stop-color="#86131a"/>
      <stop offset="1" stop-color="#28060a"/>
    </linearGradient>
    <radialGradient id="halo">
      <stop offset="0" stop-color="#ff5b28" stop-opacity=".52"/>
      <stop offset="1" stop-color="#ff5b28" stop-opacity="0"/>
    </radialGradient>
    <linearGradient id="gold" x1="0" y1="0" x2="1" y2="1">
      <stop offset="0" stop-color="#fff39a"/>
      <stop offset=".38" stop-color="#ffbf4d"/>
      <stop offset="1" stop-color="#9c5c05"/>
    </linearGradient>
    <filter id="shadow" x="-50%" y="-50%" width="200%" height="200%">
      <feDropShadow dx="0" dy="8" stdDeviation="8" flood-color="#000" flood-opacity=".55"/>
    </filter>
  </defs>
  <rect width="720" height="260" rx="28" fill="url(#bg)"/>
  <ellipse cx="360" cy="112" rx="245" ry="130" fill="url(#halo)"/>
  <path d="M0 161 Q110 96 220 165 T445 152 T720 128 V260 H0 Z" fill="#28060a" opacity=".67"/>
  <path d="M0 202 Q120 154 240 205 T480 190 T720 195 V260 H0 Z" fill="#001b0d" opacity=".62"/>
  <path d="M520 214 L528.5 135 L537 214 Z" fill="#28060a" opacity="0.23"/><path d="M643 214 L652.5 143 L662 214 Z" fill="#ff5b28" opacity="0.32"/><path d="M714 214 L724.5 160 L735 214 Z" fill="#28060a" opacity="0.29"/><path d="M204 214 L220.5 132 L237 214 Z" fill="#ff5b28" opacity="0.17"/><path d="M390 214 L398.5 152 L407 214 Z" fill="#28060a" opacity="0.34"/><path d="M132 214 L147 166 L162 214 Z" fill="#ff5b28" opacity="0.31"/><path d="M524 214 L538 120 L552 214 Z" fill="#28060a" opacity="0.17"/><path d="M110 214 L124 160 L138 214 Z" fill="#ff5b28" opacity="0.39"/><path d="M712 214 L722.5 127 L733 214 Z" fill="#28060a" opacity="0.37"/><path d="M160 214 L179.5 179 L199 214 Z" fill="#ff5b28" opacity="0.20"/><path d="M239 214 L250.5 118 L262 214 Z" fill="#28060a" opacity="0.22"/><path d="M34 214 L46.5 157 L59 214 Z" fill="#ff5b28" opacity="0.29"/><path d="M463 214 L471.5 137 L480 214 Z" fill="#28060a" opacity="0.35"/><path d="M625 214 L635 147 L645 214 Z" fill="#ff5b28" opacity="0.31"/><path d="M582 214 L590 140 L598 214 Z" fill="#28060a" opacity="0.21"/><path d="M209 214 L225.5 172 L242 214 Z" fill="#ff5b28" opacity="0.16"/><path d="M460 214 L475 133 L490 214 Z" fill="#28060a" opacity="0.25"/><path d="M624 214 L636.5 178 L649 214 Z" fill="#ff5b28" opacity="0.40"/>
  <circle cx="445" cy="170" r="2.4" fill="#ffbf4d" opacity="0.86"/><circle cx="361" cy="75" r="2.4" fill="#ffbf4d" opacity="0.81"/><circle cx="349" cy="205" r="2.6" fill="#ffbf4d" opacity="0.59"/><circle cx="471" cy="186" r="2.7" fill="#ffbf4d" opacity="0.32"/><circle cx="382" cy="87" r="1.8" fill="#ffbf4d" opacity="0.57"/><circle cx="298" cy="70" r="1.7" fill="#ffbf4d" opacity="0.81"/><circle cx="611" cy="96" r="2.6" fill="#ffbf4d" opacity="0.35"/><circle cx="169" cy="53" r="2.0" fill="#ffbf4d" opacity="0.79"/><circle cx="270" cy="188" r="2.5" fill="#ffbf4d" opacity="0.82"/><circle cx="466" cy="24" r="1.4" fill="#ffbf4d" opacity="0.42"/><circle cx="349" cy="89" r="1.4" fill="#ffbf4d" opacity="0.38"/><circle cx="575" cy="204" r="1.7" fill="#ffbf4d" opacity="0.79"/><circle cx="615" cy="62" r="2.6" fill="#ffbf4d" opacity="0.38"/><circle cx="440" cy="115" r="1.5" fill="#ffbf4d" opacity="0.75"/><circle cx="583" cy="73" r="2.1" fill="#ffbf4d" opacity="0.71"/><circle cx="617" cy="126" r="2.2" fill="#ffbf4d" opacity="0.80"/><circle cx="367" cy="18" r="2.2" fill="#ffbf4d" opacity="0.74"/><circle cx="168" cy="64" r="1.9" fill="#ffbf4d" opacity="0.67"/><circle cx="35" cy="49" r="1.7" fill="#ffbf4d" opacity="0.87"/><circle cx="547" cy="33" r="0.9" fill="#ffbf4d" opacity="0.70"/><circle cx="199" cy="59" r="2.3" fill="#ffbf4d" opacity="0.28"/><circle cx="516" cy="184" r="0.9" fill="#ffbf4d" opacity="0.76"/>
  <g transform="translate(288 42)" filter="url(#shadow)">
    <path d="M21 17 H123 V53 C123 91 102 111 72 116 C42 111 21 91 21 53 Z" fill="url(#gold)" stroke="#fff1a0" stroke-width="3"/>
    <path d="M21 29 H4 V49 C4 76 21 88 43 88" fill="none" stroke="#ffbf4d" stroke-width="12" stroke-linecap="round"/>
    <path d="M123 29 H140 V49 C140 76 123 88 101 88" fill="none" stroke="#ffbf4d" stroke-width="12" stroke-linecap="round"/>
    <path d="M64 114 H80 V139 H111 V154 H33 V139 H64 Z" fill="url(#gold)"/>
    <path d="M72 43 L81 61 L101 64 L86 78 L90 98 L72 88 L54 98 L58 78 L43 64 L63 61 Z" fill="#86131a" stroke="#f4ffb0" stroke-width="2"/>
  </g>
  <g opacity=".76">
    <path d="M45 232 C94 182 139 182 191 229 C143 218 98 219 45 232 Z" fill="#ff5b28"/>
    <path d="M675 232 C626 182 581 182 529 229 C577 218 622 219 675 232 Z" fill="#ff5b28"/>
  </g>
  <rect x="20" y="18" width="680" height="224" rx="24" fill="none" stroke="#ff5b28" stroke-opacity=".35" stroke-width="2"/>
  <text x="676" y="224" text-anchor="end" fill="#fff" opacity=".45" font-family="Arial, sans-serif" font-size="18" font-weight="700">07</text>
</svg>