<svg xmlns="http://www.w3.org/2000/svg" width="720" height="260" viewBox="0 0 720 260" role="img" aria-label="Temple Masters">
  <defs>
    <linearGradient id="bg" x1="0" y1="0" x2="1" y2="1">
      <stop offset="0" stop-color="#201006"/>
      <stop offset="0.58" stop-color="#76521a"/>
      <stop offset="1" stop-color="#201006"/>
    </linearGradient>
    <radialGradient id="halo">
      <stop offset="0" stop-color="#d9a93d" stop-opacity=".52"/>
      <stop offset="1" stop-color="#d9a93d" stop-opacity="0"/>
    </radialGradient>
    <linearGradient id="gold" x1="0" y1="0" x2="1" y2="1">
      <stop offset="0" stop-color="#fff39a"/>
      <stop offset=".38" stop-color="#fff08d"/>
      <stop offset="1" stop-color="#9c5c05"/>
    </linearGradient>
    <filter id="shadow" x="-50%" y="-50%" width="200%" height="200%">
      <feDropShadow dx="0" dy="8" stdDeviation="8" flood-color="#000" flood-opacity=".55"/>
    </filter>
  </defs>
  <rect width="720" height="260" rx="28" fill="url(#bg)"/>
  <ellipse cx="360" cy="112" rx="245" ry="130" fill="url(#halo)"/>
  <path d="M0 145 Q110 80 220 149 T445 136 T720 112 V260 H0 Z" fill="#201006" opacity=".67"/>
  <path d="M0 202 Q120 154 240 205 T480 190 T720 195 V260 H0 Z" fill="#001b0d" opacity=".62"/>
  <path d="M123 214 L136 154 L149 214 Z" fill="#201006" opacity="0.22"/><path d="M664 214 L672.5 141 L681 214 Z" fill="#d9a93d" opacity="0.29"/><path d="M627 214 L644.5 122 L662 214 Z" fill="#201006" opacity="0.24"/><path d="M122 214 L139 171 L156 214 Z" fill="#d9a93d" opacity="0.40"/><path d="M659 214 L669 150 L679 214 Z" fill="#201006" opacity="0.26"/><path d="M318 214 L325.5 118 L333 214 Z" fill="#d9a93d" opacity="0.32"/><path d="M251 214 L258 164 L265 214 Z" fill="#201006" opacity="0.24"/><path d="M248 214 L263.5 158 L279 214 Z" fill="#d9a93d" opacity="0.31"/><path d="M159 214 L176.5 139 L194 214 Z" fill="#201006" opacity="0.37"/><path d="M394 214 L408.5 138 L423 214 Z" fill="#d9a93d" opacity="0.41"/><path d="M651 214 L665 171 L679 214 Z" fill="#201006" opacity="0.28"/><path d="M535 214 L546.5 123 L558 214 Z" fill="#d9a93d" opacity="0.33"/><path d="M144 214 L154 147 L164 214 Z" fill="#201006" opacity="0.17"/><path d="M307 214 L319.5 167 L332 214 Z" fill="#d9a93d" opacity="0.34"/><path d="M204 214 L218.5 172 L233 214 Z" fill="#201006" opacity="0.31"/><path d="M342 214 L355.5 127 L369 214 Z" fill="#d9a93d" opacity="0.37"/><path d="M312 214 L330.5 158 L349 214 Z" fill="#201006" opacity="0.23"/><path d="M401 214 L420.5 150 L440 214 Z" fill="#d9a93d" opacity="0.24"/>
  <circle cx="430" cy="56" r="0.8" fill="#fff08d" opacity="0.44"/><circle cx="252" cy="203" r="1.3" fill="#fff08d" opacity="0.55"/><circle cx="549" cy="111" r="2.0" fill="#fff08d" opacity="0.80"/><circle cx="377" cy="25" r="2.1" fill="#fff08d" opacity="0.66"/><circle cx="132" cy="40" r="2.9" fill="#fff08d" opacity="0.42"/><circle cx="472" cy="85" r="1.3" fill="#fff08d" opacity="0.83"/><circle cx="143" cy="192" r="1.0" fill="#fff08d" opacity="0.30"/><circle cx="587" cy="22" r="2.7" fill="#fff08d" opacity="0.89"/><circle cx="201" cy="61" r="3.0" fill="#fff08d" opacity="0.42"/><circle cx="78" cy="129" r="1.1" fill="#fff08d" opacity="0.49"/><circle cx="357" cy="187" r="1.1" fill="#fff08d" opacity="0.51"/><circle cx="510" cy="124" r="1.0" fill="#fff08d" opacity="0.34"/><circle cx="31" cy="184" r="2.1" fill="#fff08d" opacity="0.33"/><circle cx="282" cy="138" r="0.8" fill="#fff08d" opacity="0.37"/><circle cx="217" cy="106" r="1.4" fill="#fff08d" opacity="0.49"/><circle cx="676" cy="81" r="2.0" fill="#fff08d" opacity="0.49"/><circle cx="119" cy="203" r="1.6" fill="#fff08d" opacity="0.85"/><circle cx="222" cy="77" r="1.4" fill="#fff08d" opacity="0.71"/><circle cx="467" cy="31" r="1.7" fill="#fff08d" opacity="0.78"/><circle cx="497" cy="50" r="2.0" fill="#fff08d" opacity="0.67"/><circle cx="577" cy="132" r="1.5" fill="#fff08d" opacity="0.87"/><circle cx="233" cy="179" r="1.7" fill="#fff08d" opacity="0.53"/>
  <g transform="translate(288 42)" filter="url(#shadow)">
    <path d="M21 17 H123 V53 C123 91 102 111 72 116 C42 111 21 91 21 53 Z" fill="url(#gold)" stroke="#fff1a0" stroke-width="3"/>
    <path d="M21 29 H4 V49 C4 76 21 88 43 88" fill="none" stroke="#fff08d" stroke-width="12" stroke-linecap="round"/>
    <path d="M123 29 H140 V49 C140 76 123 88 101 88" fill="none" stroke="#fff08d" stroke-width="12" stroke-linecap="round"/>
    <path d="M64 114 H80 V139 H111 V154 H33 V139 H64 Z" fill="url(#gold)"/>
    <path d="M72 43 L81 61 L101 64 L86 78 L90 98 L72 88 L54 98 L58 78 L43 64 L63 61 Z" fill="#76521a" stroke="#f4ffb0" stroke-width="2"/>
  </g>
  <g opacity=".76">
    <path d="M45 232 C94 182 139 182 191 229 C143 218 98 219 45 232 Z" fill="#d9a93d"/>
    <path d="M675 232 C626 182 581 182 529 229 C577 218 622 219 675 232 Z" fill="#d9a93d"/>
  </g>
  <rect x="20" y="18" width="680" height="224" rx="24" fill="none" stroke="#d9a93d" stroke-opacity=".35" stroke-width="2"/>
  <text x="676" y="224" text-anchor="end" fill="#fff" opacity=".45" font-family="Arial, sans-serif" font-size="18" font-weight="700">06</text>
</svg>