<svg xmlns="http://www.w3.org/2000/svg" width="720" height="260" viewBox="0 0 720 260" role="img" aria-label="Waterfall Cup">
  <defs>
    <linearGradient id="bg" x1="0" y1="0" x2="1" y2="1">
      <stop offset="0" stop-color="#052e35"/>
      <stop offset="0.58" stop-color="#087f8f"/>
      <stop offset="1" stop-color="#052e35"/>
    </linearGradient>
    <radialGradient id="halo">
      <stop offset="0" stop-color="#52e8df" stop-opacity=".52"/>
      <stop offset="1" stop-color="#52e8df" stop-opacity="0"/>
    </radialGradient>
    <linearGradient id="gold" x1="0" y1="0" x2="1" y2="1">
      <stop offset="0" stop-color="#fff39a"/>
      <stop offset=".38" stop-color="#e8fff8"/>
      <stop offset="1" stop-color="#9c5c05"/>
    </linearGradient>
    <filter id="shadow" x="-50%" y="-50%" width="200%" height="200%">
      <feDropShadow dx="0" dy="8" stdDeviation="8" flood-color="#000" flood-opacity=".55"/>
    </filter>
  </defs>
  <rect width="720" height="260" rx="28" fill="url(#bg)"/>
  <ellipse cx="360" cy="112" rx="245" ry="130" fill="url(#halo)"/>
  <path d="M0 159 Q110 94 220 163 T445 150 T720 126 V260 H0 Z" fill="#052e35" opacity=".67"/>
  <path d="M0 202 Q120 154 240 205 T480 190 T720 195 V260 H0 Z" fill="#001b0d" opacity=".62"/>
  <path d="M269 214 L279 123 L289 214 Z" fill="#052e35" opacity="0.39"/><path d="M631 214 L639.5 122 L648 214 Z" fill="#52e8df" opacity="0.33"/><path d="M387 214 L405.5 152 L424 214 Z" fill="#052e35" opacity="0.36"/><path d="M102 214 L112 128 L122 214 Z" fill="#52e8df" opacity="0.29"/><path d="M262 214 L273.5 180 L285 214 Z" fill="#052e35" opacity="0.28"/><path d="M692 214 L706 139 L720 214 Z" fill="#52e8df" opacity="0.41"/><path d="M257 214 L265.5 136 L274 214 Z" fill="#052e35" opacity="0.30"/><path d="M652 214 L669 175 L686 214 Z" fill="#52e8df" opacity="0.37"/><path d="M225 214 L239.5 154 L254 214 Z" fill="#052e35" opacity="0.19"/><path d="M20 214 L34 182 L48 214 Z" fill="#52e8df" opacity="0.19"/><path d="M419 214 L429.5 183 L440 214 Z" fill="#052e35" opacity="0.35"/><path d="M114 214 L128.5 181 L143 214 Z" fill="#52e8df" opacity="0.26"/><path d="M652 214 L660.5 144 L669 214 Z" fill="#052e35" opacity="0.18"/><path d="M548 214 L561 183 L574 214 Z" fill="#52e8df" opacity="0.24"/><path d="M576 214 L591 141 L606 214 Z" fill="#052e35" opacity="0.26"/><path d="M264 214 L273.5 152 L283 214 Z" fill="#52e8df" opacity="0.35"/><path d="M375 214 L391 140 L407 214 Z" fill="#052e35" opacity="0.36"/><path d="M397 214 L415 163 L433 214 Z" fill="#52e8df" opacity="0.30"/>
  <circle cx="411" cy="151" r="2.2" fill="#e8fff8" opacity="0.63"/><circle cx="354" cy="41" r="1.9" fill="#e8fff8" opacity="0.59"/><circle cx="564" cy="136" r="3.0" fill="#e8fff8" opacity="0.80"/><circle cx="65" cy="129" r="2.5" fill="#e8fff8" opacity="0.88"/><circle cx="28" cy="48" r="2.9" fill="#e8fff8" opacity="0.55"/><circle cx="391" cy="40" r="2.7" fill="#e8fff8" opacity="0.29"/><circle cx="159" cy="167" r="1.4" fill="#e8fff8" opacity="0.61"/><circle cx="571" cy="28" r="1.9" fill="#e8fff8" opacity="0.30"/><circle cx="237" cy="138" r="2.3" fill="#e8fff8" opacity="0.82"/><circle cx="131" cy="18" r="3.0" fill="#e8fff8" opacity="0.50"/><circle cx="413" cy="169" r="2.6" fill="#e8fff8" opacity="0.25"/><circle cx="487" cy="119" r="0.9" fill="#e8fff8" opacity="0.47"/><circle cx="271" cy="193" r="1.2" fill="#e8fff8" opacity="0.46"/><circle cx="129" cy="54" r="1.3" fill="#e8fff8" opacity="0.82"/><circle cx="503" cy="44" r="2.5" fill="#e8fff8" opacity="0.77"/><circle cx="401" cy="178" r="2.8" fill="#e8fff8" opacity="0.27"/><circle cx="197" cy="72" r="1.6" fill="#e8fff8" opacity="0.68"/><circle cx="83" cy="69" r="2.0" fill="#e8fff8" opacity="0.36"/><circle cx="634" cy="99" r="1.4" fill="#e8fff8" opacity="0.77"/><circle cx="578" cy="46" r="1.1" fill="#e8fff8" opacity="0.31"/><circle cx="622" cy="161" r="2.2" fill="#e8fff8" opacity="0.89"/><circle cx="580" cy="73" r="1.8" fill="#e8fff8" opacity="0.86"/>
  <g transform="translate(288 42)" filter="url(#shadow)">
    <path d="M21 17 H123 V53 C123 91 102 111 72 116 C42 111 21 91 21 53 Z" fill="url(#gold)" stroke="#fff1a0" stroke-width="3"/>
    <path d="M21 29 H4 V49 C4 76 21 88 43 88" fill="none" stroke="#e8fff8" stroke-width="12" stroke-linecap="round"/>
    <path d="M123 29 H140 V49 C140 76 123 88 101 88" fill="none" stroke="#e8fff8" stroke-width="12" stroke-linecap="round"/>
    <path d="M64 114 H80 V139 H111 V154 H33 V139 H64 Z" fill="url(#gold)"/>
    <path d="M72 43 L81 61 L101 64 L86 78 L90 98 L72 88 L54 98 L58 78 L43 64 L63 61 Z" fill="#087f8f" stroke="#f4ffb0" stroke-width="2"/>
  </g>
  <g opacity=".76">
    <path d="M45 232 C94 182 139 182 191 229 C143 218 98 219 45 232 Z" fill="#52e8df"/>
    <path d="M675 232 C626 182 581 182 529 229 C577 218 622 219 675 232 Z" fill="#52e8df"/>
  </g>
  <rect x="20" y="18" width="680" height="224" rx="24" fill="none" stroke="#52e8df" stroke-opacity=".35" stroke-width="2"/>
  <text x="676" y="224" text-anchor="end" fill="#fff" opacity=".45" font-family="Arial, sans-serif" font-size="18" font-weight="700">01</text>
</svg>