<svg xmlns="http://www.w3.org/2000/svg" width="720" height="260" viewBox="0 0 720 260" role="img" aria-label="Temple Masters">
  <defs>
    <linearGradient id="bg" x1="0" y1="0" x2="1" y2="1">
      <stop offset="0" stop-color="#201006"/>
      <stop offset="0.58" stop-color="#76521a"/>
      <stop offset="1" stop-color="#201006"/>
    </linearGradient>
    <radialGradient id="halo">
      <stop offset="0" stop-color="#d9a93d" stop-opacity=".52"/>
      <stop offset="1" stop-color="#d9a93d" stop-opacity="0"/>
    </radialGradient>
    <linearGradient id="gold" x1="0" y1="0" x2="1" y2="1">
      <stop offset="0" stop-color="#fff39a"/>
      <stop offset=".38" stop-color="#fff08d"/>
      <stop offset="1" stop-color="#9c5c05"/>
    </linearGradient>
    <filter id="shadow" x="-50%" y="-50%" width="200%" height="200%">
      <feDropShadow dx="0" dy="8" stdDeviation="8" flood-color="#000" flood-opacity=".55"/>
    </filter>
  </defs>
  <rect width="720" height="260" rx="28" fill="url(#bg)"/>
  <ellipse cx="360" cy="112" rx="245" ry="130" fill="url(#halo)"/>
  <path d="M0 165 Q110 100 220 169 T445 156 T720 132 V260 H0 Z" fill="#201006" opacity=".67"/>
  <path d="M0 202 Q120 154 240 205 T480 190 T720 195 V260 H0 Z" fill="#001b0d" opacity=".62"/>
  <path d="M620 214 L634 166 L648 214 Z" fill="#201006" opacity="0.30"/><path d="M278 214 L297 125 L316 214 Z" fill="#d9a93d" opacity="0.33"/><path d="M16 214 L27.5 170 L39 214 Z" fill="#201006" opacity="0.31"/><path d="M584 214 L603 140 L622 214 Z" fill="#d9a93d" opacity="0.17"/><path d="M142 214 L150.5 171 L159 214 Z" fill="#201006" opacity="0.30"/><path d="M446 214 L462.5 161 L479 214 Z" fill="#d9a93d" opacity="0.24"/><path d="M53 214 L69 162 L85 214 Z" fill="#201006" opacity="0.41"/><path d="M436 214 L443.5 161 L451 214 Z" fill="#d9a93d" opacity="0.34"/><path d="M671 214 L689 124 L707 214 Z" fill="#201006" opacity="0.25"/><path d="M462 214 L476.5 117 L491 214 Z" fill="#d9a93d" opacity="0.33"/><path d="M496 214 L504 123 L512 214 Z" fill="#201006" opacity="0.20"/><path d="M89 214 L107.5 165 L126 214 Z" fill="#d9a93d" opacity="0.28"/><path d="M183 214 L191 134 L199 214 Z" fill="#201006" opacity="0.33"/><path d="M525 214 L541 178 L557 214 Z" fill="#d9a93d" opacity="0.24"/><path d="M136 214 L151.5 132 L167 214 Z" fill="#201006" opacity="0.18"/><path d="M356 214 L373.5 129 L391 214 Z" fill="#d9a93d" opacity="0.24"/><path d="M497 214 L505 181 L513 214 Z" fill="#201006" opacity="0.25"/><path d="M140 214 L154 167 L168 214 Z" fill="#d9a93d" opacity="0.32"/>
  <circle cx="619" cy="56" r="2.8" fill="#fff08d" opacity="0.64"/><circle cx="49" cy="43" r="1.5" fill="#fff08d" opacity="0.55"/><circle cx="299" cy="38" r="1.7" fill="#fff08d" opacity="0.86"/><circle cx="495" cy="178" r="1.8" fill="#fff08d" opacity="0.57"/><circle cx="274" cy="193" r="1.0" fill="#fff08d" opacity="0.28"/><circle cx="425" cy="162" r="1.8" fill="#fff08d" opacity="0.81"/><circle cx="388" cy="24" r="1.9" fill="#fff08d" opacity="0.37"/><circle cx="405" cy="108" r="1.8" fill="#fff08d" opacity="0.77"/><circle cx="627" cy="30" r="1.9" fill="#fff08d" opacity="0.76"/><circle cx="563" cy="45" r="1.4" fill="#fff08d" opacity="0.72"/><circle cx="347" cy="207" r="2.0" fill="#fff08d" opacity="0.67"/><circle cx="82" cy="177" r="1.3" fill="#fff08d" opacity="0.25"/><circle cx="421" cy="79" r="2.7" fill="#fff08d" opacity="0.72"/><circle cx="310" cy="205" r="2.7" fill="#fff08d" opacity="0.35"/><circle cx="165" cy="65" r="1.2" fill="#fff08d" opacity="0.44"/><circle cx="602" cy="184" r="2.2" fill="#fff08d" opacity="0.71"/><circle cx="600" cy="20" r="1.8" fill="#fff08d" opacity="0.88"/><circle cx="494" cy="61" r="0.9" fill="#fff08d" opacity="0.66"/><circle cx="437" cy="53" r="1.7" fill="#fff08d" opacity="0.90"/><circle cx="49" cy="171" r="2.8" fill="#fff08d" opacity="0.38"/><circle cx="445" cy="41" r="2.5" fill="#fff08d" opacity="0.46"/><circle cx="417" cy="43" r="1.3" fill="#fff08d" opacity="0.65"/>
  <g transform="translate(288 42)" filter="url(#shadow)">
    <path d="M21 17 H123 V53 C123 91 102 111 72 116 C42 111 21 91 21 53 Z" fill="url(#gold)" stroke="#fff1a0" stroke-width="3"/>
    <path d="M21 29 H4 V49 C4 76 21 88 43 88" fill="none" stroke="#fff08d" stroke-width="12" stroke-linecap="round"/>
    <path d="M123 29 H140 V49 C140 76 123 88 101 88" fill="none" stroke="#fff08d" stroke-width="12" stroke-linecap="round"/>
    <path d="M64 114 H80 V139 H111 V154 H33 V139 H64 Z" fill="url(#gold)"/>
    <path d="M72 43 L81 61 L101 64 L86 78 L90 98 L72 88 L54 98 L58 78 L43 64 L63 61 Z" fill="#76521a" stroke="#f4ffb0" stroke-width="2"/>
  </g>
  <g opacity=".76">
    <path d="M45 232 C94 182 139 182 191 229 C143 218 98 219 45 232 Z" fill="#d9a93d"/>
    <path d="M675 232 C626 182 581 182 529 229 C577 218 622 219 675 232 Z" fill="#d9a93d"/>
  </g>
  <rect x="20" y="18" width="680" height="224" rx="24" fill="none" stroke="#d9a93d" stroke-opacity=".35" stroke-width="2"/>
  <text x="676" y="224" text-anchor="end" fill="#fff" opacity=".45" font-family="Arial, sans-serif" font-size="18" font-weight="700">07</text>
</svg>