<svg xmlns="http://www.w3.org/2000/svg" width="720" height="260" viewBox="0 0 720 260" role="img" aria-label="Emerald River">
  <defs>
    <linearGradient id="bg" x1="0" y1="0" x2="1" y2="1">
      <stop offset="0" stop-color="#03251c"/>
      <stop offset="0.58" stop-color="#08745f"/>
      <stop offset="1" stop-color="#03251c"/>
    </linearGradient>
    <radialGradient id="halo">
      <stop offset="0" stop-color="#39d4b4" stop-opacity=".52"/>
      <stop offset="1" stop-color="#39d4b4" stop-opacity="0"/>
    </radialGradient>
    <linearGradient id="gold" x1="0" y1="0" x2="1" y2="1">
      <stop offset="0" stop-color="#fff39a"/>
      <stop offset=".38" stop-color="#ddff91"/>
      <stop offset="1" stop-color="#9c5c05"/>
    </linearGradient>
    <filter id="shadow" x="-50%" y="-50%" width="200%" height="200%">
      <feDropShadow dx="0" dy="8" stdDeviation="8" flood-color="#000" flood-opacity=".55"/>
    </filter>
  </defs>
  <rect width="720" height="260" rx="28" fill="url(#bg)"/>
  <ellipse cx="360" cy="112" rx="245" ry="130" fill="url(#halo)"/>
  <path d="M0 159 Q110 94 220 163 T445 150 T720 126 V260 H0 Z" fill="#03251c" opacity=".67"/>
  <path d="M0 202 Q120 154 240 205 T480 190 T720 195 V260 H0 Z" fill="#001b0d" opacity=".62"/>
  <path d="M617 214 L632.5 124 L648 214 Z" fill="#03251c" opacity="0.38"/><path d="M73 214 L90 132 L107 214 Z" fill="#39d4b4" opacity="0.35"/><path d="M104 214 L114.5 112 L125 214 Z" fill="#03251c" opacity="0.41"/><path d="M354 214 L362 121 L370 214 Z" fill="#39d4b4" opacity="0.31"/><path d="M116 214 L132.5 137 L149 214 Z" fill="#03251c" opacity="0.26"/><path d="M709 214 L723 118 L737 214 Z" fill="#39d4b4" opacity="0.17"/><path d="M47 214 L61.5 142 L76 214 Z" fill="#03251c" opacity="0.37"/><path d="M352 214 L364.5 141 L377 214 Z" fill="#39d4b4" opacity="0.35"/><path d="M439 214 L449 143 L459 214 Z" fill="#03251c" opacity="0.38"/><path d="M356 214 L365 181 L374 214 Z" fill="#39d4b4" opacity="0.16"/><path d="M239 214 L255.5 128 L272 214 Z" fill="#03251c" opacity="0.17"/><path d="M665 214 L683.5 138 L702 214 Z" fill="#39d4b4" opacity="0.34"/><path d="M391 214 L410.5 135 L430 214 Z" fill="#03251c" opacity="0.37"/><path d="M557 214 L571 147 L585 214 Z" fill="#39d4b4" opacity="0.25"/><path d="M97 214 L114 149 L131 214 Z" fill="#03251c" opacity="0.17"/><path d="M418 214 L437 146 L456 214 Z" fill="#39d4b4" opacity="0.35"/><path d="M145 214 L161 163 L177 214 Z" fill="#03251c" opacity="0.38"/><path d="M502 214 L512.5 125 L523 214 Z" fill="#39d4b4" opacity="0.25"/>
  <circle cx="339" cy="132" r="2.5" fill="#ddff91" opacity="0.51"/><circle cx="279" cy="24" r="1.3" fill="#ddff91" opacity="0.32"/><circle cx="389" cy="123" r="2.9" fill="#ddff91" opacity="0.77"/><circle cx="488" cy="199" r="2.5" fill="#ddff91" opacity="0.75"/><circle cx="672" cy="137" r="2.3" fill="#ddff91" opacity="0.84"/><circle cx="154" cy="170" r="0.8" fill="#ddff91" opacity="0.28"/><circle cx="58" cy="201" r="2.3" fill="#ddff91" opacity="0.65"/><circle cx="375" cy="31" r="2.4" fill="#ddff91" opacity="0.86"/><circle cx="468" cy="59" r="1.1" fill="#ddff91" opacity="0.60"/><circle cx="471" cy="188" r="2.1" fill="#ddff91" opacity="0.28"/><circle cx="406" cy="202" r="1.5" fill="#ddff91" opacity="0.63"/><circle cx="119" cy="22" r="1.8" fill="#ddff91" opacity="0.86"/><circle cx="611" cy="157" r="1.6" fill="#ddff91" opacity="0.66"/><circle cx="693" cy="82" r="1.4" fill="#ddff91" opacity="0.74"/><circle cx="59" cy="111" r="1.5" fill="#ddff91" opacity="0.47"/><circle cx="349" cy="193" r="3.0" fill="#ddff91" opacity="0.62"/><circle cx="670" cy="171" r="2.4" fill="#ddff91" opacity="0.83"/><circle cx="546" cy="153" r="3.0" fill="#ddff91" opacity="0.32"/><circle cx="341" cy="115" r="1.5" fill="#ddff91" opacity="0.85"/><circle cx="197" cy="150" r="2.3" fill="#ddff91" opacity="0.50"/><circle cx="121" cy="192" r="3.0" fill="#ddff91" opacity="0.54"/><circle cx="573" cy="149" r="2.0" fill="#ddff91" opacity="0.49"/>
  <g transform="translate(288 42)" filter="url(#shadow)">
    <path d="M21 17 H123 V53 C123 91 102 111 72 116 C42 111 21 91 21 53 Z" fill="url(#gold)" stroke="#fff1a0" stroke-width="3"/>
    <path d="M21 29 H4 V49 C4 76 21 88 43 88" fill="none" stroke="#ddff91" stroke-width="12" stroke-linecap="round"/>
    <path d="M123 29 H140 V49 C140 76 123 88 101 88" fill="none" stroke="#ddff91" stroke-width="12" stroke-linecap="round"/>
    <path d="M64 114 H80 V139 H111 V154 H33 V139 H64 Z" fill="url(#gold)"/>
    <path d="M72 43 L81 61 L101 64 L86 78 L90 98 L72 88 L54 98 L58 78 L43 64 L63 61 Z" fill="#08745f" stroke="#f4ffb0" stroke-width="2"/>
  </g>
  <g opacity=".76">
    <path d="M45 232 C94 182 139 182 191 229 C143 218 98 219 45 232 Z" fill="#39d4b4"/>
    <path d="M675 232 C626 182 581 182 529 229 C577 218 622 219 675 232 Z" fill="#39d4b4"/>
  </g>
  <rect x="20" y="18" width="680" height="224" rx="24" fill="none" stroke="#39d4b4" stroke-opacity=".35" stroke-width="2"/>
  <text x="676" y="224" text-anchor="end" fill="#fff" opacity=".45" font-family="Arial, sans-serif" font-size="18" font-weight="700">01</text>
</svg>