<svg xmlns="http://www.w3.org/2000/svg" width="720" height="260" viewBox="0 0 720 260" role="img" aria-label="Forest Crown">
  <defs>
    <linearGradient id="bg" x1="0" y1="0" x2="1" y2="1">
      <stop offset="0" stop-color="#031f10"/>
      <stop offset="0.58" stop-color="#08753a"/>
      <stop offset="1" stop-color="#031f10"/>
    </linearGradient>
    <radialGradient id="halo">
      <stop offset="0" stop-color="#59e77f" stop-opacity=".52"/>
      <stop offset="1" stop-color="#59e77f" stop-opacity="0"/>
    </radialGradient>
    <linearGradient id="gold" x1="0" y1="0" x2="1" y2="1">
      <stop offset="0" stop-color="#fff39a"/>
      <stop offset=".38" stop-color="#f5ce48"/>
      <stop offset="1" stop-color="#9c5c05"/>
    </linearGradient>
    <filter id="shadow" x="-50%" y="-50%" width="200%" height="200%">
      <feDropShadow dx="0" dy="8" stdDeviation="8" flood-color="#000" flood-opacity=".55"/>
    </filter>
  </defs>
  <rect width="720" height="260" rx="28" fill="url(#bg)"/>
  <ellipse cx="360" cy="112" rx="245" ry="130" fill="url(#halo)"/>
  <path d="M0 161 Q110 96 220 165 T445 152 T720 128 V260 H0 Z" fill="#031f10" opacity=".67"/>
  <path d="M0 202 Q120 154 240 205 T480 190 T720 195 V260 H0 Z" fill="#001b0d" opacity=".62"/>
  <path d="M545 214 L555.5 132 L566 214 Z" fill="#031f10" opacity="0.27"/><path d="M320 214 L337.5 122 L355 214 Z" fill="#59e77f" opacity="0.27"/><path d="M562 214 L575.5 166 L589 214 Z" fill="#031f10" opacity="0.20"/><path d="M421 214 L429 147 L437 214 Z" fill="#59e77f" opacity="0.39"/><path d="M681 214 L691.5 166 L702 214 Z" fill="#031f10" opacity="0.38"/><path d="M97 214 L111.5 136 L126 214 Z" fill="#59e77f" opacity="0.27"/><path d="M225 214 L239 179 L253 214 Z" fill="#031f10" opacity="0.28"/><path d="M711 214 L721.5 156 L732 214 Z" fill="#59e77f" opacity="0.19"/><path d="M284 214 L291.5 149 L299 214 Z" fill="#031f10" opacity="0.25"/><path d="M209 214 L226 180 L243 214 Z" fill="#59e77f" opacity="0.25"/><path d="M599 214 L612 157 L625 214 Z" fill="#031f10" opacity="0.33"/><path d="M372 214 L389 170 L406 214 Z" fill="#59e77f" opacity="0.36"/><path d="M265 214 L276 155 L287 214 Z" fill="#031f10" opacity="0.23"/><path d="M608 214 L616 147 L624 214 Z" fill="#59e77f" opacity="0.29"/><path d="M100 214 L116.5 124 L133 214 Z" fill="#031f10" opacity="0.38"/><path d="M621 214 L632 184 L643 214 Z" fill="#59e77f" opacity="0.40"/><path d="M201 214 L216 159 L231 214 Z" fill="#031f10" opacity="0.22"/><path d="M414 214 L429 183 L444 214 Z" fill="#59e77f" opacity="0.24"/>
  <circle cx="589" cy="208" r="1.9" fill="#f5ce48" opacity="0.45"/><circle cx="511" cy="110" r="1.5" fill="#f5ce48" opacity="0.69"/><circle cx="699" cy="42" r="2.7" fill="#f5ce48" opacity="0.64"/><circle cx="306" cy="46" r="2.7" fill="#f5ce48" opacity="0.59"/><circle cx="454" cy="99" r="0.9" fill="#f5ce48" opacity="0.64"/><circle cx="92" cy="190" r="0.9" fill="#f5ce48" opacity="0.84"/><circle cx="133" cy="27" r="0.9" fill="#f5ce48" opacity="0.27"/><circle cx="561" cy="47" r="1.0" fill="#f5ce48" opacity="0.32"/><circle cx="489" cy="156" r="2.7" fill="#f5ce48" opacity="0.60"/><circle cx="467" cy="65" r="1.0" fill="#f5ce48" opacity="0.87"/><circle cx="363" cy="22" r="1.4" fill="#f5ce48" opacity="0.28"/><circle cx="631" cy="206" r="2.2" fill="#f5ce48" opacity="0.65"/><circle cx="614" cy="133" r="1.8" fill="#f5ce48" opacity="0.61"/><circle cx="673" cy="60" r="1.4" fill="#f5ce48" opacity="0.26"/><circle cx="112" cy="130" r="2.0" fill="#f5ce48" opacity="0.65"/><circle cx="40" cy="95" r="1.8" fill="#f5ce48" opacity="0.75"/><circle cx="103" cy="199" r="2.8" fill="#f5ce48" opacity="0.44"/><circle cx="602" cy="86" r="2.2" fill="#f5ce48" opacity="0.74"/><circle cx="621" cy="208" r="1.7" fill="#f5ce48" opacity="0.70"/><circle cx="629" cy="205" r="2.9" fill="#f5ce48" opacity="0.32"/><circle cx="520" cy="187" r="0.8" fill="#f5ce48" opacity="0.34"/><circle cx="531" cy="33" r="2.8" fill="#f5ce48" opacity="0.85"/>
  <g transform="translate(288 42)" filter="url(#shadow)">
    <path d="M21 17 H123 V53 C123 91 102 111 72 116 C42 111 21 91 21 53 Z" fill="url(#gold)" stroke="#fff1a0" stroke-width="3"/>
    <path d="M21 29 H4 V49 C4 76 21 88 43 88" fill="none" stroke="#f5ce48" stroke-width="12" stroke-linecap="round"/>
    <path d="M123 29 H140 V49 C140 76 123 88 101 88" fill="none" stroke="#f5ce48" stroke-width="12" stroke-linecap="round"/>
    <path d="M64 114 H80 V139 H111 V154 H33 V139 H64 Z" fill="url(#gold)"/>
    <path d="M72 43 L81 61 L101 64 L86 78 L90 98 L72 88 L54 98 L58 78 L43 64 L63 61 Z" fill="#08753a" stroke="#f4ffb0" stroke-width="2"/>
  </g>
  <g opacity=".76">
    <path d="M45 232 C94 182 139 182 191 229 C143 218 98 219 45 232 Z" fill="#59e77f"/>
    <path d="M675 232 C626 182 581 182 529 229 C577 218 622 219 675 232 Z" fill="#59e77f"/>
  </g>
  <rect x="20" y="18" width="680" height="224" rx="24" fill="none" stroke="#59e77f" stroke-opacity=".35" stroke-width="2"/>
  <text x="676" y="224" text-anchor="end" fill="#fff" opacity=".45" font-family="Arial, sans-serif" font-size="18" font-weight="700">06</text>
</svg>