<svg xmlns="http://www.w3.org/2000/svg" width="720" height="260" viewBox="0 0 720 260" role="img" aria-label="Emerald River">
  <defs>
    <linearGradient id="bg" x1="0" y1="0" x2="1" y2="1">
      <stop offset="0" stop-color="#03251c"/>
      <stop offset="0.58" stop-color="#08745f"/>
      <stop offset="1" stop-color="#03251c"/>
    </linearGradient>
    <radialGradient id="halo">
      <stop offset="0" stop-color="#39d4b4" stop-opacity=".52"/>
      <stop offset="1" stop-color="#39d4b4" stop-opacity="0"/>
    </radialGradient>
    <linearGradient id="gold" x1="0" y1="0" x2="1" y2="1">
      <stop offset="0" stop-color="#fff39a"/>
      <stop offset=".38" stop-color="#ddff91"/>
      <stop offset="1" stop-color="#9c5c05"/>
    </linearGradient>
    <filter id="shadow" x="-50%" y="-50%" width="200%" height="200%">
      <feDropShadow dx="0" dy="8" stdDeviation="8" flood-color="#000" flood-opacity=".55"/>
    </filter>
  </defs>
  <rect width="720" height="260" rx="28" fill="url(#bg)"/>
  <ellipse cx="360" cy="112" rx="245" ry="130" fill="url(#halo)"/>
  <path d="M0 157 Q110 92 220 161 T445 148 T720 124 V260 H0 Z" fill="#03251c" opacity=".67"/>
  <path d="M0 202 Q120 154 240 205 T480 190 T720 195 V260 H0 Z" fill="#001b0d" opacity=".62"/>
  <path d="M445 214 L462.5 173 L480 214 Z" fill="#03251c" opacity="0.20"/><path d="M686 214 L694 140 L702 214 Z" fill="#39d4b4" opacity="0.26"/><path d="M540 214 L552 157 L564 214 Z" fill="#03251c" opacity="0.18"/><path d="M41 214 L58.5 139 L76 214 Z" fill="#39d4b4" opacity="0.39"/><path d="M209 214 L220 148 L231 214 Z" fill="#03251c" opacity="0.17"/><path d="M503 214 L516 142 L529 214 Z" fill="#39d4b4" opacity="0.34"/><path d="M697 214 L709.5 136 L722 214 Z" fill="#03251c" opacity="0.30"/><path d="M385 214 L402 155 L419 214 Z" fill="#39d4b4" opacity="0.23"/><path d="M326 214 L338 152 L350 214 Z" fill="#03251c" opacity="0.38"/><path d="M628 214 L637.5 169 L647 214 Z" fill="#39d4b4" opacity="0.37"/><path d="M342 214 L358.5 152 L375 214 Z" fill="#03251c" opacity="0.35"/><path d="M317 214 L327.5 162 L338 214 Z" fill="#39d4b4" opacity="0.38"/><path d="M546 214 L557.5 157 L569 214 Z" fill="#03251c" opacity="0.25"/><path d="M708 214 L723 116 L738 214 Z" fill="#39d4b4" opacity="0.36"/><path d="M546 214 L554.5 132 L563 214 Z" fill="#03251c" opacity="0.41"/><path d="M474 214 L484 154 L494 214 Z" fill="#39d4b4" opacity="0.33"/><path d="M164 214 L174 183 L184 214 Z" fill="#03251c" opacity="0.21"/><path d="M178 214 L192 122 L206 214 Z" fill="#39d4b4" opacity="0.32"/>
  <circle cx="415" cy="132" r="1.5" fill="#ddff91" opacity="0.67"/><circle cx="143" cy="142" r="2.4" fill="#ddff91" opacity="0.30"/><circle cx="69" cy="18" r="1.5" fill="#ddff91" opacity="0.36"/><circle cx="282" cy="54" r="1.4" fill="#ddff91" opacity="0.35"/><circle cx="562" cy="182" r="1.7" fill="#ddff91" opacity="0.28"/><circle cx="645" cy="99" r="0.8" fill="#ddff91" opacity="0.84"/><circle cx="356" cy="99" r="1.6" fill="#ddff91" opacity="0.25"/><circle cx="325" cy="182" r="1.2" fill="#ddff91" opacity="0.35"/><circle cx="132" cy="124" r="1.2" fill="#ddff91" opacity="0.66"/><circle cx="370" cy="43" r="0.9" fill="#ddff91" opacity="0.56"/><circle cx="365" cy="94" r="3.0" fill="#ddff91" opacity="0.64"/><circle cx="445" cy="44" r="2.6" fill="#ddff91" opacity="0.53"/><circle cx="128" cy="116" r="1.7" fill="#ddff91" opacity="0.28"/><circle cx="124" cy="160" r="2.4" fill="#ddff91" opacity="0.65"/><circle cx="530" cy="138" r="2.9" fill="#ddff91" opacity="0.27"/><circle cx="55" cy="36" r="1.8" fill="#ddff91" opacity="0.84"/><circle cx="551" cy="198" r="1.0" fill="#ddff91" opacity="0.30"/><circle cx="276" cy="90" r="0.9" fill="#ddff91" opacity="0.75"/><circle cx="219" cy="203" r="1.6" fill="#ddff91" opacity="0.68"/><circle cx="447" cy="67" r="1.0" fill="#ddff91" opacity="0.64"/><circle cx="274" cy="206" r="2.8" fill="#ddff91" opacity="0.82"/><circle cx="630" cy="174" r="2.5" fill="#ddff91" opacity="0.31"/>
  <g transform="translate(288 42)" filter="url(#shadow)">
    <path d="M21 17 H123 V53 C123 91 102 111 72 116 C42 111 21 91 21 53 Z" fill="url(#gold)" stroke="#fff1a0" stroke-width="3"/>
    <path d="M21 29 H4 V49 C4 76 21 88 43 88" fill="none" stroke="#ddff91" stroke-width="12" stroke-linecap="round"/>
    <path d="M123 29 H140 V49 C140 76 123 88 101 88" fill="none" stroke="#ddff91" stroke-width="12" stroke-linecap="round"/>
    <path d="M64 114 H80 V139 H111 V154 H33 V139 H64 Z" fill="url(#gold)"/>
    <path d="M72 43 L81 61 L101 64 L86 78 L90 98 L72 88 L54 98 L58 78 L43 64 L63 61 Z" fill="#08745f" stroke="#f4ffb0" stroke-width="2"/>
  </g>
  <g opacity=".76">
    <path d="M45 232 C94 182 139 182 191 229 C143 218 98 219 45 232 Z" fill="#39d4b4"/>
    <path d="M675 232 C626 182 581 182 529 229 C577 218 622 219 675 232 Z" fill="#39d4b4"/>
  </g>
  <rect x="20" y="18" width="680" height="224" rx="24" fill="none" stroke="#39d4b4" stroke-opacity=".35" stroke-width="2"/>
  <text x="676" y="224" text-anchor="end" fill="#fff" opacity=".45" font-family="Arial, sans-serif" font-size="18" font-weight="700">05</text>
</svg>